<svg width="32" height="32" viewBox="0 0 32 32" fill="none" xmlns="http://www.w3.org/2000/svg">
<path d="M16 0C7.168 0 0 7.168 0 16C0 24.832 7.168 32 16 32C24.832 32 32 24.832 32 16C32 7.168 24.832 0 16 0ZM16 27.776C9.472 27.776 4.224 22.528 4.224 16C4.224 9.472 9.472 4.224 16 4.224C22.528 4.224 27.776 9.472 27.776 16C27.776 22.528 22.528 27.776 16 27.776Z" fill="#F12E45"/>
<path d="M19.9679 15.3601C21.8059 15.3601 23.2959 13.8701 23.2959 12.0321C23.2959 10.1941 21.8059 8.7041 19.9679 8.7041C18.1299 8.7041 16.6399 10.1941 16.6399 12.0321C16.6399 13.8701 18.1299 15.3601 19.9679 15.3601Z" fill="#F12E45"/>
<path d="M19.9679 23.2961C21.8059 23.2961 23.2959 21.8061 23.2959 19.9681C23.2959 18.1301 21.8059 16.6401 19.9679 16.6401C18.1299 16.6401 16.6399 18.1301 16.6399 19.9681C16.6399 21.8061 18.1299 23.2961 19.9679 23.2961Z" fill="#F12E45"/>
<path d="M12.0321 23.2961C13.8701 23.2961 15.3601 21.8061 15.3601 19.9681C15.3601 18.1301 13.8701 16.6401 12.0321 16.6401C10.1941 16.6401 8.7041 18.1301 8.7041 19.9681C8.7041 21.8061 10.1941 23.2961 12.0321 23.2961Z" fill="#F12E45"/>
<path d="M12.0321 15.3601C13.8701 15.3601 15.3601 13.8701 15.3601 12.0321C15.3601 10.1941 13.8701 8.7041 12.0321 8.7041C10.1941 8.7041 8.7041 10.1941 8.7041 12.0321C8.7041 13.8701 10.1941 15.3601 12.0321 15.3601Z" fill="#F12E45"/>
</svg>
