<svg width="32" height="32" viewBox="0 0 32 32" fill="none" xmlns="http://www.w3.org/2000/svg">
<path d="M15.9678 0C8.25362 0 2 6.02864 2 13.4653C2 20.902 8.25362 26.9306 15.9678 26.9306L15.9975 32C23.1744 27.9726 30 22.597 30 13.4653C30 6.02864 23.682 0 15.9678 0Z" fill="#098D80"/>
<path d="M8.08014 13.8428V17.5425C8.08014 18.5192 8.88917 19.3184 9.87799 19.3184H19.1783C20.1671 19.3184 20.9761 18.5192 20.9761 17.5425V15.206L24.6583 18.8431V13.8428H8.08014Z" fill="#F6F6F6"/>
<path d="M24.6583 13.8428V8.82823L20.9761 12.4576V10.1431C20.9761 9.1663 20.1671 8.36719 19.1783 8.36719H9.87799C8.88917 8.36719 8.08014 9.1663 8.08014 10.1431V13.8428H24.6583Z" fill="#E2E2E2"/>
</svg>
