<svg width="32" height="32" viewBox="0 0 32 32" fill="none" xmlns="http://www.w3.org/2000/svg">
<path d="M28.596 2H11.404C11.0316 2 10.6745 2.14792 10.4112 2.41122C10.1479 2.67452 10 3.03164 10 3.404V5L19.69 8L30 5V3.404C30 3.03164 29.8521 2.67452 29.5888 2.41122C29.3255 2.14792 28.9684 2 28.596 2Z" fill="#0364B8"/>
<path d="M31.65 17.4049C31.7965 16.9445 31.9134 16.4753 32 15.9999C31.9999 15.8832 31.969 15.7685 31.9106 15.6674C31.8521 15.5663 31.7681 15.4823 31.667 15.4239L31.654 15.4159L31.65 15.4139L20.812 9.23894C20.7652 9.20894 20.7168 9.18157 20.667 9.15694C20.4597 9.05404 20.2314 9.00049 20 9.00049C19.7686 9.00049 19.5403 9.05404 19.333 9.15694C19.2832 9.18155 19.2348 9.20893 19.188 9.23894L8.35 15.4149L8.346 15.4169L8.334 15.4239C8.23268 15.4822 8.14848 15.5661 8.08985 15.6672C8.03123 15.7683 8.00024 15.8831 8 15.9999C8.08663 16.4753 8.20353 16.9445 8.35 17.4049L19.842 25.8099L31.65 17.4049Z" fill="#0A2767"/>
<path d="M24 5H17L14.979 8L17 11L24 17H30V11L24 5Z" fill="#28A8EA"/>
<path d="M10 5H17V11H10V5Z" fill="#0078D4"/>
<path d="M24 5H30V11H24V5Z" fill="#50D9FF"/>
<path d="M24 17L17 11H10V17L17 23L27.832 24.768L24 17Z" fill="#0364B8"/>
<path d="M17 11H24V17H17V11Z" fill="#0078D4"/>
<path d="M10 17H17V23H10V17Z" fill="#064A8C"/>
<path d="M24 17H30V23H24V17Z" fill="#0078D4"/>
<path opacity="0.5" d="M20.19 25.218L8.39697 16.618L8.89197 15.748C8.89197 15.748 19.637 21.868 19.801 21.96C19.8681 21.9869 19.94 21.9997 20.0122 21.9976C20.0845 21.9955 20.1555 21.9787 20.221 21.948L31.154 15.718L31.65 16.587L20.19 25.218Z" fill="#0A2767"/>
<path d="M31.6671 16.577L31.6531 16.585L31.6501 16.587L20.8121 22.761C20.5968 22.8998 20.3495 22.981 20.0939 22.997C19.8383 23.0129 19.5829 22.963 19.3521 22.852L23.1261 27.913L31.3801 29.71V29.714C31.5721 29.5751 31.7284 29.3926 31.8361 29.1816C31.9439 28.9706 32.0001 28.737 32.0001 28.5V16C32.0001 16.1169 31.9693 16.2318 31.9109 16.3331C31.8524 16.4344 31.7683 16.5185 31.6671 16.577Z" fill="#1490DF"/>
<path opacity="0.05" d="M32.0001 28.5V27.762L22.0171 22.074L20.8121 22.761C20.5968 22.8998 20.3495 22.981 20.0939 22.997C19.8383 23.0129 19.5829 22.963 19.3521 22.852L23.1261 27.913L31.3801 29.71V29.714C31.5721 29.5751 31.7284 29.3926 31.8361 29.1816C31.9439 28.9705 32.0001 28.7369 32.0001 28.5Z" fill="black"/>
<path opacity="0.1" d="M31.9501 28.883L21.0071 22.65L20.8121 22.76C20.5969 22.899 20.3497 22.9804 20.0941 22.9965C19.8384 23.0126 19.583 22.9629 19.3521 22.852L23.1261 27.913L31.3801 29.71V29.714C31.6599 29.5112 31.8613 29.2181 31.9501 28.884V28.883Z" fill="black"/>
<path d="M8.35003 16.59V16.58H8.34003L8.31003 16.56C8.21443 16.5013 8.13564 16.4189 8.08132 16.3208C8.027 16.2227 7.99899 16.1122 8.00003 16V28.5C7.99976 28.6971 8.03838 28.8922 8.11367 29.0743C8.18896 29.2564 8.29944 29.4219 8.43878 29.5612C8.57812 29.7006 8.74358 29.8111 8.92569 29.8864C9.1078 29.9616 9.30297 30.0003 9.50003 30H30.5C30.625 29.9988 30.7493 29.982 30.87 29.95C30.9327 29.9391 30.9934 29.9189 31.05 29.89C31.0713 29.8879 31.0918 29.8811 31.11 29.87C31.1919 29.8365 31.2692 29.7929 31.34 29.74C31.36 29.73 31.37 29.73 31.38 29.71L8.35003 16.59Z" fill="#28A8EA"/>
<path opacity="0.1" d="M18 24.667V8.333C17.9989 7.97979 17.8582 7.64135 17.6084 7.39159C17.3587 7.14183 17.0202 7.00106 16.667 7H10.03V14.456L8.35 15.414L8.345 15.416L8.333 15.423C8.23172 15.4815 8.14763 15.5656 8.08917 15.6669C8.03071 15.7682 7.99996 15.8831 8 16V16.005V16V26H16.667C17.0202 25.9989 17.3587 25.8582 17.6084 25.6084C17.8582 25.3587 17.9989 25.0202 18 24.667Z" fill="black"/>
<path opacity="0.2" d="M17 25.667V9.333C16.9989 8.97979 16.8582 8.64135 16.6084 8.39159C16.3587 8.14183 16.0202 8.00106 15.667 8H10.03V14.456L8.35 15.414L8.345 15.416L8.333 15.423C8.23172 15.4815 8.14763 15.5656 8.08917 15.6669C8.03071 15.7682 7.99996 15.8831 8 16V16.005V16V27H15.667C16.0202 26.9989 16.3587 26.8582 16.6084 26.6084C16.8582 26.3587 16.9989 26.0202 17 25.667Z" fill="black"/>
<path opacity="0.2" d="M17 23.667V9.333C16.9989 8.97979 16.8582 8.64135 16.6084 8.39159C16.3587 8.14183 16.0202 8.00106 15.667 8H10.03V14.456L8.35 15.414L8.345 15.416L8.333 15.423C8.23172 15.4815 8.14763 15.5656 8.08917 15.6669C8.03071 15.7682 7.99996 15.8831 8 16V16.005V16V25H15.667C16.0202 24.9989 16.3587 24.8582 16.6084 24.6084C16.8582 24.3587 16.9989 24.0202 17 23.667Z" fill="black"/>
<path opacity="0.2" d="M16 23.667V9.333C15.9989 8.97979 15.8582 8.64135 15.6084 8.39159C15.3587 8.14183 15.0202 8.00106 14.667 8H10.03V14.456L8.35 15.414L8.345 15.416L8.333 15.423C8.23172 15.4815 8.14763 15.5656 8.08917 15.6669C8.03071 15.7682 7.99996 15.8831 8 16V16.005V16V25H14.667C15.0202 24.9989 15.3587 24.8582 15.6084 24.6084C15.8582 24.3587 15.9989 24.0202 16 23.667Z" fill="black"/>
<path d="M1.333 8H14.667C15.0205 8 15.3596 8.14044 15.6096 8.39043C15.8596 8.64041 16 8.97947 16 9.333V22.667C16 23.0205 15.8596 23.3596 15.6096 23.6096C15.3596 23.8596 15.0205 24 14.667 24H1.333C0.979466 24 0.640413 23.8596 0.390427 23.6096C0.140441 23.3596 0 23.0205 0 22.667L0 9.333C0 8.97947 0.140441 8.64041 0.390427 8.39043C0.640413 8.14044 0.979466 8 1.333 8Z" fill="#0078D4"/>
<path d="M3.8671 13.468C4.2213 12.7131 4.79312 12.0814 5.5091 11.654C6.30232 11.1999 7.20549 10.9736 8.1191 11C8.96505 10.9816 9.79978 11.1961 10.5321 11.62C11.2214 12.0306 11.7766 12.6327 12.1301 13.353C12.5152 14.147 12.7071 15.0207 12.6901 15.903C12.7086 16.8245 12.511 17.7376 12.1131 18.569C11.7519 19.3149 11.18 19.9387 10.4681 20.363C9.70705 20.8004 8.84064 21.0207 7.9631 21C7.09858 21.0206 6.24497 20.8037 5.4951 20.373C4.80024 19.9617 4.23853 19.359 3.8771 18.637C3.48939 17.8547 3.29495 16.9909 3.3101 16.118C3.29333 15.2039 3.48376 14.298 3.8671 13.468ZM5.6171 17.726C5.80579 18.2032 6.12582 18.6172 6.5401 18.92C6.96226 19.2155 7.46797 19.3679 7.9831 19.355C8.53186 19.3763 9.07269 19.2188 9.5241 18.906C9.93377 18.6033 10.2457 18.1872 10.4211 17.709C10.6178 17.1763 10.7148 16.6118 10.7071 16.044C10.7132 15.4708 10.6219 14.9007 10.4371 14.358C10.274 13.8698 9.97329 13.4392 9.5711 13.118C9.13159 12.7895 8.59234 12.6225 8.0441 12.645C7.51776 12.6317 7.00072 12.7854 6.5671 13.084C6.14468 13.3873 5.81728 13.8046 5.6231 14.287C5.19356 15.393 5.19106 16.6193 5.6161 17.727L5.6171 17.726Z" fill="white"/>
</svg>
