<svg width="33" height="33" viewBox="0 0 33 33" fill="none" xmlns="http://www.w3.org/2000/svg">
<path d="M7.36216 30.4893L7.96216 30.7893C10.4622 32.2893 13.2622 32.9893 16.0622 32.9893C24.8622 32.9893 32.0622 25.7893 32.0622 16.9893C32.0622 12.7893 30.3622 8.68926 27.3622 5.68926C24.3622 2.68926 20.3622 0.989258 16.0622 0.989258C7.26216 0.989258 0.062162 8.18926 0.162162 17.0893C0.162162 20.0893 1.06216 22.9893 2.56216 25.4893L2.96216 26.0893L1.36216 31.9893L7.36216 30.4893Z" fill="#00E676"/>
<path d="M24.9628 21.1892L23.8628 20.6892C23.8628 20.6892 22.2628 19.9892 21.2628 19.4892C21.1628 19.4892 21.0628 19.3892 20.9628 19.3892C20.6628 19.3892 20.4628 19.4892 20.2628 19.5892C20.2628 19.5892 20.1628 19.6892 18.7628 21.2892C18.6628 21.4892 18.4628 21.5892 18.2628 21.5892H18.1628C18.0628 21.5892 17.8628 21.4892 17.7628 21.3892L17.2628 21.1892C16.1628 20.6892 15.1628 20.0892 14.3628 19.2892C14.1628 19.0892 13.8628 18.8892 13.6628 18.6892C12.9628 17.9892 12.2628 17.1892 11.7628 16.2892L11.6628 16.0892C11.5628 15.9892 11.5628 15.8892 11.4628 15.6892C11.4628 15.4892 11.4628 15.2892 11.5628 15.1892C11.5628 15.1892 11.9628 14.6892 12.2628 14.3892C12.4628 14.1892 12.5628 13.8892 12.7628 13.6892C12.9628 13.3892 13.0628 12.9892 12.9628 12.6892C12.8628 12.1892 11.6628 9.48916 11.3628 8.88916C11.1628 8.58916 10.9628 8.48916 10.6628 8.38916H10.3628C10.1628 8.38916 9.86278 8.38916 9.56278 8.38916C9.36278 8.38916 9.16278 8.48916 8.96278 8.48916L8.86278 8.58916C8.66278 8.68916 8.46278 8.88916 8.26278 8.98916C8.06278 9.18916 7.96278 9.38916 7.76278 9.58916C7.06278 10.4892 6.66278 11.5892 6.66278 12.6892C6.66278 13.4892 6.86278 14.2892 7.16278 14.9892L7.26278 15.2892C8.16278 17.1892 9.36278 18.8892 10.9628 20.3892L11.3628 20.7892C11.6628 21.0892 11.9628 21.2892 12.1628 21.5892C14.2628 23.3892 16.6628 24.6892 19.3628 25.3892C19.6628 25.4892 20.0628 25.4892 20.3628 25.5892C20.6628 25.5892 21.0628 25.5892 21.3628 25.5892C21.8628 25.5892 22.4628 25.3892 22.8628 25.1892C23.1628 24.9892 23.3628 24.9892 23.5628 24.7892L23.7628 24.5892C23.9628 24.3892 24.1628 24.2892 24.3628 24.0892C24.5628 23.8892 24.7628 23.6892 24.8628 23.4892C25.0628 23.0892 25.1628 22.5892 25.2628 22.0892C25.2628 21.8892 25.2628 21.5892 25.2628 21.3892C25.2628 21.3892 25.1628 21.2892 24.9628 21.1892Z" fill="white"/>
</svg>
