<svg xmlns="http://www.w3.org/2000/svg" width="32" height="32" fill="none"><circle cx="16" cy="16" r="16" fill="#fff"/><path d="M16 0C7.163 0 0 7.163 0 16s7.163 16 16 16 16-7.163 16-16C32 7.164 24.837.001 16 0Zm7.338 23.076a.996.996 0 0 1-1.371.332c-3.757-2.296-8.487-2.815-14.056-1.543a.996.996 0 1 1-.444-1.944c6.094-1.392 11.322-.793 15.54 1.784.47.289.62.901.33 1.37Zm1.957-4.355c-.361.587-1.13.77-1.716.41-4.3-2.643-10.857-3.408-15.943-1.864a1.25 1.25 0 0 1-1.557-.831 1.25 1.25 0 0 1 .832-1.556c5.81-1.763 13.035-.91 17.973 2.126.587.36.773 1.128.411 1.715Zm.168-4.538c-5.157-3.062-13.664-3.344-18.588-1.85a1.495 1.495 0 1 1-.868-2.864c5.652-1.715 15.047-1.384 20.984 2.14a1.497 1.497 0 0 1-1.527 2.574Z" fill="#30BD59"/></svg>
