<svg width="32" height="32" viewBox="0 0 32 32" fill="none" xmlns="http://www.w3.org/2000/svg">
<path d="M2 0.213059C10.8143 0.378771 19.5655 0.670738 28.3482 0C28.3482 0.220949 28.3561 0.426116 28.3482 0.631283C28.1904 3.29056 28.0247 5.95773 27.8669 8.61701C27.8511 8.86163 27.7722 8.98 27.5118 8.9721C27.1961 8.96421 26.8805 8.95632 26.5649 8.9721C26.2729 8.98789 26.1387 8.86163 26.0677 8.58544C25.8152 7.60695 25.5548 6.62847 25.2786 5.65787C25.0182 4.7504 24.6473 3.90606 23.9766 3.21954C23.5031 2.72241 22.9192 2.48567 22.2563 2.47778C18.879 2.46989 15.4937 2.47778 12.1163 2.47778C11.5876 2.47778 11.414 2.65928 11.414 3.19587C11.414 6.95989 11.414 10.716 11.4061 14.48C11.4061 14.8351 11.5087 14.9535 11.8875 14.9377C13.2684 14.8904 14.6494 14.9141 16.0303 14.8588C16.8983 14.8272 17.7584 14.7326 18.6186 14.63C19.3366 14.5432 19.818 14.1486 19.9995 13.4148C20.252 12.4126 20.5282 11.4104 20.7649 10.4004C20.8281 10.1479 20.9464 10.0847 21.1674 10.0847C21.5461 10.0847 21.9328 10.0926 22.3116 10.069C22.6351 10.0453 22.714 10.1952 22.6982 10.4872C22.6193 12.2706 22.5167 14.0618 22.4931 15.8452C22.4694 17.4313 22.5404 19.0253 22.5641 20.6114C22.572 20.8876 22.5641 21.1559 22.5641 21.511C21.988 21.511 21.4357 21.5267 20.8912 21.4952C20.7965 21.4873 20.6781 21.29 20.6387 21.1559C20.4098 20.3194 20.2283 19.4751 19.9916 18.6386C19.6996 17.6128 18.9579 17.1551 17.9399 17.1314C16.1171 17.0762 14.2864 17.0446 12.4635 16.9973C12.3057 16.9973 12.1479 16.9973 11.9901 16.9815C11.4456 16.942 11.4219 16.9657 11.4219 17.526C11.4219 20.6666 11.4219 23.8151 11.4298 26.9558C11.4298 28.5576 12.1163 29.3546 13.6945 29.615C13.9392 29.6545 14.1917 29.6861 14.4363 29.6861C16.9772 29.694 19.5102 29.7018 22.0512 29.6782C23.369 29.6624 24.5842 29.2836 25.4917 28.2736C25.8704 27.8553 26.1861 27.3503 26.4307 26.8374C27.062 25.5275 27.638 24.186 28.222 22.8524C28.3167 22.6315 28.435 22.5447 28.656 22.5526C28.9874 22.5605 29.3109 22.5447 29.6424 22.5447C29.8554 22.5447 29.9422 22.6394 29.9185 22.8682C29.6345 25.1093 29.3583 27.3503 29.09 29.5914C29.0111 30.2463 28.9164 30.8934 28.869 31.5483C28.8454 31.935 28.6797 32.0139 28.3246 31.9981C26.194 31.9192 24.0713 31.8245 21.9407 31.8166C17.0009 31.793 12.0532 31.8088 7.1134 31.8324C5.6141 31.8403 4.12269 31.935 2.62339 31.9902C2.00789 32.0139 2.00789 32.0139 2.00789 31.3826C2.00789 31.2801 2.00789 31.1696 2.00789 31.067C2.03156 29.9859 1.81061 30.2542 2.89958 30.0175C3.65712 29.8518 4.42255 29.7176 5.1722 29.5282C6.00076 29.3152 6.42688 28.7786 6.43477 27.9421C6.49001 24.5017 6.55314 21.0533 6.56892 17.6128C6.5847 14.5353 6.56103 11.4578 6.52946 8.38028C6.51368 6.97567 6.46634 5.57107 6.38743 4.16646C6.3243 3.03016 5.67723 2.7303 4.89602 2.56459C4.03589 2.3752 3.16788 2.22527 2.30775 2.06745C2.11047 2.028 2 1.95698 2.00789 1.73603C2.00789 1.25467 2 0.75754 2 0.213059Z" fill="#F0641D"/>
</svg>
