<svg width="32" height="32" viewBox="0 0 32 32" fill="none" xmlns="http://www.w3.org/2000/svg">
<path d="M31.9939 4.23622C31.9969 4.29758 32 4.35895 32 4.42031C32 12.1273 32 19.8312 32 27.5382C32 27.6057 31.9969 27.6702 31.9939 27.7377C31.9172 27.7285 31.8435 27.71 31.7668 27.71C21.2556 27.71 10.7444 27.71 0.233174 27.71C0.156472 27.71 0.082838 27.7285 0.00613615 27.7377C0.00306807 27.6794 0 27.6241 0 27.5658C0 19.8404 0 12.115 0 4.38656C0 4.3344 0.00306807 4.28531 0.00613615 4.23315C0.0521572 4.2577 0.107383 4.27304 0.147268 4.30679C0.340556 4.47553 0.533845 4.64734 0.724065 4.82222C0.886673 4.96949 1.03701 5.1321 1.20882 5.26709C1.307 5.34073 1.3745 5.488 1.53404 5.46038C1.55551 5.50947 1.56472 5.56777 1.60153 5.60458C1.69051 5.69663 1.78869 5.77333 1.8838 5.85923C2.25503 6.19979 2.62627 6.54035 2.99751 6.87783C3.22454 7.08646 3.45158 7.29509 3.68169 7.50065C3.7185 7.5344 3.77373 7.54974 3.82282 7.57429L3.82896 7.56815L3.83509 7.57122C3.95475 7.70621 4.0652 7.85041 4.19712 7.97314C4.41496 8.17256 4.64813 8.35051 4.86903 8.5438C5.01016 8.66959 5.13595 8.81072 5.27402 8.94265C5.54094 9.19423 5.80479 9.44274 6.08092 9.68512C6.3325 9.90602 6.59942 10.1085 6.84487 10.3325C7.26213 10.7129 7.66405 11.1118 8.07517 11.4953C8.35436 11.7561 8.64276 12.0077 8.92809 12.2592C9.07843 12.3912 9.2349 12.5139 9.3791 12.6489C9.64909 12.9035 9.90987 13.1674 10.1829 13.419C10.4192 13.6368 10.6646 13.8424 10.9039 14.051C10.9776 14.1154 11.0543 14.1829 11.1248 14.2504C11.2844 14.3977 11.4439 14.548 11.6004 14.6984C11.852 14.9346 12.1005 15.1739 12.3551 15.4071C12.5085 15.5482 12.6773 15.674 12.8368 15.8121C12.9657 15.9225 13.0945 16.033 13.2111 16.1557C13.2357 16.1833 13.2387 16.2723 13.2142 16.2999C13.1099 16.4073 12.9902 16.5024 12.8767 16.6006C12.484 16.938 12.0882 17.2755 11.6955 17.6161C11.5083 17.7787 11.3243 17.9474 11.134 18.11C10.5726 18.5948 10.005 19.0765 9.44353 19.5612C9.20115 19.7699 8.96184 19.9846 8.71946 20.1933C8.41879 20.4541 8.11812 20.7118 7.81745 20.9726C7.46769 21.2763 7.12407 21.5862 6.7743 21.8899C6.32943 22.2765 5.8815 22.66 5.43663 23.0496C5.21572 23.2429 5.00096 23.4485 4.77699 23.6418C4.40882 23.9547 4.03452 24.2585 3.66942 24.5745C3.23375 24.9488 2.80422 25.3323 2.37469 25.7127C2.2489 25.8232 2.12617 25.9398 1.99732 26.0472C1.70278 26.2987 1.40518 26.5442 1.11064 26.7927C0.892809 26.9768 0.678044 27.1639 0.466347 27.3542C0.401918 27.4094 0.34976 27.4769 0.291467 27.5413C0.300671 27.5566 0.309875 27.572 0.31908 27.5873C0.389645 27.5873 0.457143 27.5873 0.527709 27.5873C10.7843 27.5873 21.0408 27.5873 31.2974 27.5873C31.3649 27.5873 31.4293 27.5904 31.4968 27.5843C31.5398 27.5812 31.5797 27.5628 31.6196 27.5505C31.6012 27.5076 31.595 27.4493 31.5643 27.4216C31.4662 27.3327 31.3588 27.256 31.2575 27.1701C30.9078 26.8663 30.5641 26.5565 30.2144 26.2558C29.8002 25.8968 29.3799 25.544 28.9657 25.185C28.7386 24.9887 28.5208 24.7831 28.2938 24.5868C27.9225 24.2677 27.5482 23.9578 27.177 23.6387C26.7567 23.2767 26.3425 22.9054 25.9221 22.5434C25.5325 22.209 25.1398 21.8807 24.7471 21.5463C24.3482 21.2088 23.9463 20.8713 23.5505 20.5308C23.1885 20.2178 22.8326 19.8987 22.4736 19.5797C22.2221 19.3588 21.9705 19.1348 21.7189 18.917C21.4581 18.6899 21.1912 18.4721 20.9273 18.245C20.7647 18.107 20.6082 17.9597 20.4487 17.8186C20.0713 17.4934 19.694 17.1651 19.3135 16.846C19.0926 16.6619 18.8594 16.4901 18.6355 16.306C18.6017 16.2784 18.5772 16.1833 18.5956 16.1649C18.7766 15.9747 18.9607 15.7906 19.157 15.6157C19.3105 15.4807 19.4853 15.3703 19.6357 15.2322C19.9425 14.9499 20.2401 14.6554 20.5407 14.3639C20.599 14.3087 20.6512 14.2443 20.7156 14.1983C20.8874 14.0694 21.0715 13.9528 21.2372 13.8147C21.4151 13.6675 21.5778 13.4987 21.7465 13.3423C21.9398 13.1612 22.1239 12.9741 22.3233 12.8023C22.489 12.6581 22.6731 12.5415 22.8357 12.3973C23.0382 12.2224 23.2253 12.0291 23.4247 11.8512C23.8205 11.4953 24.1918 11.1118 24.6244 10.7988C24.7778 10.6884 24.9066 10.5411 25.0477 10.4153C25.3116 10.176 25.5785 9.93977 25.8454 9.70353C25.9068 9.6483 25.9743 9.59615 26.0357 9.54092C26.2044 9.38138 26.3701 9.21877 26.5388 9.0623C26.8426 8.78311 27.1463 8.50698 27.45 8.23085C27.5329 8.15415 27.6065 8.06825 27.6955 8.00075C27.7875 7.92711 27.9041 7.88109 27.99 7.80439C28.1803 7.63258 28.3429 7.43009 28.5423 7.27055C28.7663 7.0926 28.9289 6.85329 29.1866 6.70602C29.3492 6.61398 29.4688 6.44524 29.6222 6.32558C29.8094 6.18138 29.9689 6.00343 30.1438 5.84389C30.4476 5.56163 30.7482 5.27937 31.055 5.00017C31.2391 4.8345 31.4293 4.67496 31.6226 4.51849C31.7423 4.4111 31.8711 4.3252 31.9939 4.23622Z" fill="#FECB02"/>
<path d="M3.83506 7.57124L3.82892 7.56818L3.82279 7.57431C3.78597 7.52829 3.75529 7.47307 3.71234 7.43318C3.21224 6.97604 2.71521 6.51889 2.21512 6.06482C1.99115 5.85926 1.76104 5.65983 1.534 5.46041C1.5156 5.43586 1.50332 5.40825 1.48185 5.38984C1.04618 4.99099 0.607446 4.59214 0.165643 4.19943C0.125758 4.16261 0.0582608 4.1534 0.00610352 4.13193C0.00610352 4.09204 0.00610352 4.04909 0.00610352 4C10.6646 4 21.32 4 31.9969 4C31.9969 4.03375 31.9969 4.07363 31.9969 4.11045C31.9509 4.12579 31.8926 4.12579 31.8558 4.1534C31.7545 4.23011 31.6625 4.31908 31.5674 4.40499C31.3219 4.62896 31.0795 4.85599 30.831 5.07383C30.3493 5.50029 29.8646 5.91755 29.386 6.34401C28.9902 6.69377 28.5944 7.04967 28.2017 7.4025C27.7599 7.80135 27.3181 8.20634 26.8763 8.60519C26.4928 8.94881 26.1093 9.29244 25.7258 9.63299C25.1582 10.1362 24.5875 10.6332 24.0199 11.1364C23.753 11.3726 23.4953 11.615 23.2314 11.8512C22.627 12.3881 22.0165 12.925 21.412 13.462C21.1513 13.6951 20.8966 13.9375 20.6328 14.1738C20.102 14.6493 19.5651 15.1187 19.0343 15.5943C18.4115 16.1527 17.7917 16.7141 17.172 17.2725C16.9695 17.4535 16.7302 17.6008 16.4694 17.6468C16.1472 17.702 15.8097 17.6898 15.4784 17.6928C15.2176 17.6959 14.9814 17.5763 14.7911 17.4259C14.3923 17.1099 14.0211 16.7601 13.6437 16.4165C13.3952 16.1925 13.162 15.9502 12.9104 15.7262C12.6097 15.4562 12.2968 15.1985 11.9961 14.9254C11.7936 14.7413 11.6126 14.5358 11.4132 14.3486C11.1984 14.1492 10.9714 13.9621 10.7505 13.7657C10.6063 13.6399 10.4682 13.511 10.3271 13.3822C9.73189 12.8453 9.13976 12.3114 8.54455 11.7745C8.30524 11.5597 8.07207 11.3419 7.83276 11.1271C7.20994 10.5626 6.58405 10.0012 5.96123 9.43664C5.78022 9.27096 5.60534 9.09915 5.42432 8.93654C4.9457 8.51008 4.46401 8.08668 3.98233 7.66329C3.93937 7.63261 3.88415 7.60499 3.83506 7.57124Z" fill="#ED0000"/>
<path d="M3.83513 7.57111C3.88422 7.60485 3.93944 7.63247 3.9824 7.66928C4.46408 8.09268 4.94577 8.51607 5.42439 8.94253C5.60847 9.10514 5.78029 9.27695 5.9613 9.44263C6.58412 10.0072 7.21001 10.5686 7.83283 11.1331C8.07214 11.3479 8.30531 11.5657 8.54462 11.7805C9.13676 12.3174 9.73196 12.8543 10.3272 13.3882C10.4683 13.517 10.6094 13.6428 10.7506 13.7717C10.9715 13.965 11.1985 14.1521 11.4133 14.3546C11.6127 14.5418 11.7968 14.7473 11.9962 14.9314C12.2969 15.2045 12.6098 15.4591 12.9105 15.7322C13.159 15.9561 13.3952 16.1955 13.6438 16.4225C14.0211 16.7631 14.3924 17.1159 14.7912 17.4319C14.9814 17.5822 15.2177 17.7019 15.4785 17.6988C15.8098 17.6957 16.1442 17.708 16.4695 17.6528C16.7302 17.6068 16.9695 17.4595 17.172 17.2785C17.7949 16.7201 18.4115 16.1586 19.0344 15.6003C19.5651 15.1247 20.1021 14.6553 20.6328 14.1797C20.8936 13.9466 21.1483 13.7042 21.4121 13.4679C22.0165 12.928 22.624 12.3941 23.2315 11.8572C23.4953 11.621 23.7561 11.3786 24.02 11.1423C24.5876 10.6392 25.1582 10.1421 25.7258 9.63899C26.1124 9.29843 26.4959 8.95481 26.8764 8.61118C27.3182 8.21233 27.76 7.80735 28.2018 7.4085C28.5945 7.0526 28.9903 6.69977 29.386 6.35001C29.8677 5.92662 30.3525 5.50629 30.8311 5.07983C31.0796 4.85893 31.322 4.63189 31.5674 4.41099C31.6625 4.32508 31.7546 4.23918 31.8558 4.15941C31.8927 4.1318 31.9479 4.12873 31.997 4.11646C31.997 4.15941 31.997 4.19929 31.997 4.24225C31.8712 4.33429 31.7423 4.41713 31.6227 4.5153C31.4294 4.67178 31.2392 4.83132 31.0551 4.99699C30.7483 5.27312 30.4445 5.55845 30.1439 5.84071C29.969 6.00332 29.8094 6.1782 29.6223 6.3224C29.4689 6.44205 29.3462 6.6108 29.1866 6.70284C28.9258 6.84704 28.7663 7.08942 28.5423 7.26737C28.3429 7.42691 28.1803 7.6294 27.9901 7.80121C27.9042 7.88098 27.7906 7.927 27.6955 7.99757C27.6066 8.06506 27.5329 8.15097 27.4501 8.22767C27.1463 8.50687 26.8395 8.77993 26.5389 9.05912C26.3671 9.21559 26.2044 9.3782 26.0357 9.53774C25.9743 9.59603 25.9068 9.64512 25.8455 9.70035C25.5786 9.93659 25.3116 10.1759 25.0478 10.4121C24.9067 10.541 24.7778 10.6852 24.6244 10.7956C24.1918 11.1117 23.8206 11.4921 23.4248 11.848C23.2253 12.0259 23.0382 12.2192 22.8357 12.3941C22.67 12.5383 22.4859 12.6549 22.3233 12.7991C22.1239 12.9709 21.9398 13.1581 21.7465 13.3391C21.5778 13.4986 21.4152 13.6643 21.2372 13.8116C21.0716 13.9496 20.8875 14.0631 20.7157 14.1951C20.6512 14.2442 20.5991 14.3055 20.5408 14.3608C20.2401 14.6491 19.9425 14.9437 19.6357 15.229C19.4854 15.3671 19.3074 15.4775 19.1571 15.6125C18.9607 15.7874 18.7766 15.9746 18.5956 16.1617C18.5772 16.1801 18.6048 16.2752 18.6355 16.3028C18.8564 16.4869 19.0896 16.6557 19.3136 16.8428C19.6971 17.1619 20.0714 17.4902 20.4487 17.8154C20.6114 17.9565 20.7648 18.1007 20.9274 18.2419C21.1912 18.4658 21.4581 18.6867 21.7189 18.9138C21.9736 19.1316 22.2221 19.3556 22.4737 19.5765C22.8326 19.8925 23.1885 20.2146 23.5506 20.5276C23.9463 20.8712 24.3483 21.2056 24.7471 21.5431C25.1398 21.8745 25.5325 22.2027 25.9222 22.5402C26.3425 22.9023 26.7567 23.2735 27.177 23.6355C27.5483 23.9546 27.9226 24.2645 28.2938 24.5836C28.5208 24.7799 28.7387 24.9855 28.9657 25.1818C29.3799 25.5408 29.8002 25.8936 30.2144 26.2526C30.5642 26.5563 30.9109 26.8631 31.2576 27.1669C31.3557 27.2528 31.4662 27.3295 31.5644 27.4185C31.5951 27.4491 31.6012 27.5044 31.6196 27.5473C31.5797 27.5596 31.5368 27.578 31.4969 27.5811C31.4324 27.5872 31.3649 27.5841 31.2974 27.5841C21.0409 27.5841 10.7843 27.5841 0.527746 27.5841C0.45718 27.5841 0.389682 27.5841 0.319117 27.5841C0.309912 27.5688 0.300708 27.5535 0.291504 27.5381C0.349797 27.4768 0.401955 27.4093 0.466384 27.351C0.678081 27.1607 0.895914 26.9767 1.11068 26.7895C1.40521 26.5379 1.70282 26.2925 1.99735 26.044C2.12621 25.9366 2.24893 25.82 2.37473 25.7096C2.80732 25.3291 3.23379 24.9456 3.66945 24.5713C4.03455 24.2553 4.41193 23.9515 4.77703 23.6386C5.001 23.4453 5.21576 23.2428 5.43666 23.0465C5.88153 22.6599 6.32947 22.2764 6.77434 21.8867C7.1241 21.583 7.47079 21.2731 7.81749 20.9694C8.11509 20.7086 8.41883 20.4509 8.7195 20.1901C8.96188 19.9815 9.20119 19.7667 9.44357 19.5581C10.005 19.0733 10.5726 18.5916 11.1341 18.1069C11.3243 17.9443 11.5053 17.7755 11.6955 17.6129C12.0882 17.2724 12.481 16.9349 12.8767 16.5974C12.9903 16.4992 13.1099 16.4041 13.2142 16.2967C13.2388 16.2722 13.2388 16.1801 13.2112 16.1525C13.0946 16.0298 12.9657 15.9193 12.8369 15.8089C12.6773 15.6739 12.5116 15.545 12.3552 15.4039C12.1005 15.1707 11.852 14.9314 11.6004 14.6952C11.4409 14.5448 11.2844 14.3945 11.1249 14.2472C11.0512 14.1797 10.9776 14.1153 10.904 14.0478C10.6647 13.8361 10.4192 13.6305 10.183 13.4158C9.90991 13.1642 9.64913 12.9003 9.37914 12.6457C9.23494 12.5107 9.0754 12.388 8.92813 12.2561C8.6428 12.0045 8.3544 11.7529 8.07521 11.4921C7.66102 11.1086 7.2591 10.7097 6.84491 10.3293C6.59946 10.1023 6.32947 9.90284 6.08096 9.68194C5.8079 9.43956 5.54098 9.18798 5.27405 8.93947C5.13599 8.81061 5.0102 8.66641 4.86907 8.54062C4.64817 8.34426 4.41499 8.16631 4.19716 7.96995C4.0683 7.8503 3.95785 7.7061 3.83513 7.57111Z" fill="#F1C102"/>
<path d="M0.00610352 27.7346C0.0828053 27.7254 0.156439 27.707 0.233141 27.707C10.7444 27.707 21.2556 27.707 31.7668 27.707C31.8435 27.707 31.9171 27.7254 31.9938 27.7346C31.9754 27.7592 31.9601 27.7929 31.9355 27.8021C31.8987 27.8144 31.8558 27.8052 31.8128 27.8052C21.2709 27.8052 10.729 27.8052 0.18712 27.8021C0.128826 27.8021 0.024512 27.8696 0.00610352 27.7346Z" fill="#F1C102"/>
<path d="M0.00610352 4.13184C0.0613288 4.15331 0.125758 4.16252 0.165643 4.19933C0.607446 4.59205 1.04618 4.9909 1.48185 5.38975C1.50332 5.40815 1.5156 5.43883 1.534 5.46031C1.3714 5.48792 1.3039 5.34066 1.20879 5.26702C1.03391 5.1351 0.88664 4.96942 0.724033 4.82215C0.533812 4.65034 0.340524 4.47546 0.147235 4.30672C0.10735 4.27297 0.0521246 4.25763 0.00610352 4.23615C0.00610352 4.19933 0.00610352 4.16558 0.00610352 4.13184Z" fill="#F1C102"/>
<path d="M1.53711 5.46021C1.76415 5.6627 1.99425 5.86212 2.21822 6.06462C2.71832 6.51869 3.21535 6.97277 3.71237 7.42991C3.75533 7.46979 3.78601 7.52502 3.82282 7.57104C3.7768 7.54649 3.72158 7.53115 3.68169 7.49741C3.45159 7.29184 3.22455 7.08322 2.99751 6.87459C2.62628 6.5371 2.25504 6.19654 1.8838 5.85905C1.78869 5.77315 1.69051 5.69338 1.60154 5.6044C1.56779 5.56759 1.55859 5.50929 1.53711 5.46021Z" fill="#F1C102"/>
</svg>
