<svg width="32" height="32" fill="none" xmlns="http://www.w3.org/2000/svg"><g clip-path="url(#clip0)"><path d="M24.421 7.579H7.58V24.42h16.842V7.579z" fill="#fff"/><path d="M24.42 32L32 24.421h-7.58V32z" fill="#EA4335"/><path d="M32 7.579h-7.58V24.42H32V7.579z" fill="#FBBC04"/><path d="M24.421 24.421H7.58V32h16.842v-7.579z" fill="#34A853"/><path d="M0 24.421v5.053A2.526 2.526 0 002.526 32H7.58v-7.579H0z" fill="#188038"/><path d="M32 7.579V2.526A2.526 2.526 0 0029.474 0H24.42v7.579H32z" fill="#1967D2"/><path d="M24.421 0H2.526A2.526 2.526 0 000 2.526v21.895h7.579V7.58H24.42V0z" fill="#4285F4"/><path d="M11.034 20.644c-.63-.425-1.066-1.046-1.304-1.867l1.461-.602c.133.505.365.897.695 1.174.329.278.729.415 1.196.415.478 0 .888-.145 1.232-.436.343-.29.515-.66.515-1.11 0-.458-.18-.833-.543-1.123-.362-.29-.817-.436-1.36-.436h-.844v-1.446h.758c.467 0 .861-.127 1.181-.38.32-.252.48-.597.48-1.037 0-.392-.143-.703-.43-.937-.286-.234-.648-.352-1.088-.352-.43 0-.77.114-1.023.344-.253.23-.442.52-.552.844l-1.446-.602c.192-.543.543-1.024 1.059-1.438.516-.415 1.175-.623 1.975-.623.591 0 1.124.113 1.595.343.472.23.843.547 1.11.951.267.407.4.861.4 1.367 0 .515-.124.951-.373 1.31a2.568 2.568 0 01-.915.822v.087c.467.192.873.509 1.174.915.306.41.46.901.46 1.474s-.146 1.084-.436 1.533a3.02 3.02 0 01-1.203 1.059 3.79 3.79 0 01-1.724.387 3.569 3.569 0 01-2.05-.636zm8.974-7.25l-1.604 1.16-.802-1.217 2.878-2.076h1.103v9.792h-1.575v-7.66z" fill="#4285F4"/></g><defs><clipPath id="clip0"><path fill="#fff" d="M0 0h32v32H0z"/></clipPath></defs></svg>