<svg width="32" height="32" viewBox="0 0 32 32" fill="none" xmlns="http://www.w3.org/2000/svg">
<path d="M2.58007 1.37985L20.3266 0.0729764C22.5059 -0.113938 23.0666 0.0112666 24.4363 1.00627L30.1012 4.98783C31.036 5.6725 31.3476 5.85891 31.3476 6.60529V28.4427C31.3476 29.8113 30.849 30.6207 29.1059 30.7445L8.49694 31.989C7.18848 32.0514 6.56573 31.8649 5.8805 30.9934L1.70876 25.5808C0.96124 24.5845 0.650391 23.8392 0.650391 22.9671V3.55652C0.650391 2.43733 1.14908 1.50378 2.58007 1.37985Z" fill="white"/>
<path d="M5.94378 5.61029C6.93911 6.41888 7.31249 6.35718 9.18144 6.2325L26.8013 5.17449C27.175 5.17449 26.8642 4.80168 26.7397 4.73972L23.8134 2.62425C23.2527 2.18896 22.5056 1.69044 21.0739 1.81513L4.01257 3.05954C3.39037 3.12124 3.26607 3.43233 3.5139 3.68172L5.94378 5.61029ZM7.00166 9.71655V28.2557C7.00166 29.2521 7.49957 29.6248 8.62022 29.5632L27.9844 28.4427C29.1056 28.3811 29.2305 27.6957 29.2305 26.8864V8.47162C29.2305 7.66355 28.9197 7.22775 28.2333 7.28996L7.9975 8.47162C7.25074 8.53437 7.00166 8.90793 7.00166 9.71655ZM26.118 10.711C26.2421 11.2715 26.118 11.8315 25.5565 11.8945L24.6234 12.0804V25.7672C23.8134 26.2026 23.0664 26.4515 22.4439 26.4515C21.4473 26.4515 21.1977 26.1402 20.4512 25.2075L14.3483 15.6266V24.8964L16.2794 25.3322C16.2794 25.3322 16.2794 26.4515 14.7214 26.4515L10.4261 26.7006C10.3013 26.4515 10.4261 25.8299 10.8618 25.7053L11.9827 25.3947V13.1384L10.4264 13.0137C10.3016 12.4532 10.6124 11.6451 11.4847 11.5824L16.0926 11.2718L22.4439 20.9773V12.3915L20.8246 12.2056C20.7003 11.5204 21.1977 11.0229 21.8204 10.9612L26.118 10.711ZM2.58007 1.37985L20.3266 0.0729764C22.5059 -0.113938 23.0666 0.0112666 24.4363 1.00627L30.1012 4.98783C31.036 5.6725 31.3476 5.85891 31.3476 6.60529V28.4427C31.3476 29.8113 30.849 30.6207 29.1059 30.7445L8.49694 31.989C7.18848 32.0514 6.56573 31.8649 5.8805 30.9934L1.70876 25.5808C0.96124 24.5845 0.650391 23.8392 0.650391 22.9671V3.55652C0.650391 2.43733 1.14908 1.50378 2.58007 1.37985Z" fill="black"/>
</svg>
