<svg width="32" height="32" viewBox="0 0 32 32" fill="none" xmlns="http://www.w3.org/2000/svg">
<path d="M16 32C24.8366 32 32 24.8366 32 16C32 7.16344 24.8366 0 16 0C7.16344 0 0 7.16344 0 16C0 24.8366 7.16344 32 16 32Z" fill="#2CA01C"/>
<path fill-rule="evenodd" clip-rule="evenodd" d="M4.44287 15.9993C4.44287 19.4357 7.22865 22.2215 10.6651 22.2215H11.554V19.9104H10.6651C8.50829 19.9104 6.75398 18.1561 6.75398 15.9993C6.75398 13.8429 8.50829 12.0882 10.6651 12.0882H12.8009V24.1771C12.8009 25.4535 13.8356 26.4882 15.112 26.4882V9.77707H10.6651C7.22865 9.77707 4.44287 12.5632 4.44287 15.9993ZM21.3353 9.77814H20.4464V12.0893H21.3353C23.4914 12.0893 25.2464 13.8439 25.2464 16.0004C25.2464 18.1568 23.4914 19.9115 21.3353 19.9115H19.1984V7.82259C19.1984 6.54614 18.1638 5.51147 16.8873 5.51147V22.2226H21.3353C24.7714 22.2226 27.5575 19.4368 27.5575 16.0004C27.5575 12.5639 24.7714 9.77814 21.3353 9.77814Z" fill="white"/>
</svg>
