<svg width="32" height="32" viewBox="0 0 32 32" fill="none" xmlns="http://www.w3.org/2000/svg">
<path d="M16 32C24.8366 32 32 24.8366 32 16C32 7.16344 24.8366 0 16 0C7.16344 0 0 7.16344 0 16C0 24.8366 7.16344 32 16 32Z" fill="url(#paint0_linear)"/>
<path d="M6.65899 15.8608L17.4336 11.4215C18.4971 10.9591 22.1041 9.47933 22.1041 9.47933C22.1041 9.47933 23.7688 8.83193 23.6301 10.4042C23.5838 11.0516 23.2139 13.3175 22.844 15.7683L21.6879 23.0285C21.6879 23.0285 21.5954 24.092 20.8093 24.277C20.0231 24.462 18.7284 23.6296 18.4971 23.4446C18.3122 23.3059 15.0289 21.225 13.8266 20.2076C13.5029 19.9302 13.133 19.3753 13.8729 18.7279C15.5376 17.2019 17.526 15.3059 18.7284 14.1036C19.2833 13.5487 19.8382 12.2539 17.526 13.8261L11.0058 18.2192C11.0058 18.2192 10.2659 18.6816 8.87865 18.2654C7.49136 17.8493 5.87287 17.2944 5.87287 17.2944C5.87287 17.2944 4.76304 16.6007 6.65899 15.8608Z" fill="white"/>
<defs>
<linearGradient id="paint0_linear" x1="21.3346" y1="5.33457" x2="13.3346" y2="24" gradientUnits="userSpaceOnUse">
<stop stop-color="#37AEE2"/>
<stop offset="1" stop-color="#1E96C8"/>
</linearGradient>
</defs>
</svg>
