<svg width="32" height="32" viewBox="0 0 32 32" fill="none" xmlns="http://www.w3.org/2000/svg">
<g clip-path="url(#clip0)">
<path d="M16.1978 25.0208C14.0702 25.026 12.427 23.6119 12.1406 21.6953C11.9973 20.7473 12.1796 19.8619 12.6848 19.052C14.9218 15.4713 17.164 11.8958 19.4061 8.31765C19.6822 7.87754 19.9452 7.42702 20.3332 7.06765C21.0337 6.41661 21.8618 6.05983 22.8176 6.00515C24.7212 5.89838 26.4504 7.19786 26.8436 9.11192C27.0571 10.1458 26.8696 11.1119 26.3123 12.0051C24.9478 14.19 23.578 16.3723 22.2082 18.5572C21.2369 20.1093 20.2759 21.6666 19.2889 23.2083C18.5259 24.3984 17.4035 24.9713 16.1978 25.0208Z" fill="#FECA00"/>
<path d="M9.61511e-05 21.2161C-0.0103205 20.3306 0.218846 19.6275 0.6277 18.9765C2.62249 15.7942 4.61728 12.6093 6.61207 9.42699C6.9376 8.90876 7.2553 8.38793 7.58603 7.87231C8.33082 6.70824 9.39072 6.07543 10.7761 6.00772C12.7501 5.91397 14.4975 7.36189 14.7813 9.32283C14.9194 10.2786 14.7345 11.1692 14.2214 11.9895C12.4662 14.7942 10.7084 17.5989 8.95062 20.4062C8.37249 21.328 7.79697 22.2525 7.21624 23.1744C5.70062 25.5911 2.21103 25.6405 0.638117 23.2681C0.216242 22.6301 9.61511e-05 21.8983 9.61511e-05 21.2161Z" fill="#FE3D57"/>
<path d="M24.1821 21.2863C24.1847 19.3358 25.591 17.716 27.4529 17.4425C29.1326 17.1951 30.7081 17.9425 31.518 19.367C32.3695 20.867 32.0701 22.7811 30.8018 23.9555C29.0284 25.5962 26.2472 25.3123 24.8514 23.341C24.4009 22.7029 24.1847 21.9842 24.1821 21.2863Z" fill="#01D547"/>
</g>
<defs>
<clipPath id="clip0">
<rect width="32" height="19.0234" fill="white" transform="translate(0 6)"/>
</clipPath>
</defs>
</svg>
