<svg width="32" height="32" fill="none" xmlns="http://www.w3.org/2000/svg"><g clip-path="url(#clip0)"><path d="M22.32 12.625h8.266c.781 0 1.414.66 1.414 1.473v7.84c0 2.989-2.326 5.412-5.197 5.412h-.024c-2.87 0-5.197-2.422-5.198-5.411v-8.544c0-.425.331-.77.74-.77zM27.907 11.075c1.85 0 3.349-1.561 3.349-3.487 0-1.927-1.5-3.488-3.35-3.488-1.849 0-3.348 1.561-3.348 3.488 0 1.926 1.5 3.487 3.349 3.487z" fill="#5059C9"/><path d="M17.489 11.075c2.671 0 4.837-2.255 4.837-5.037C22.326 3.255 20.16 1 17.489 1c-2.672 0-4.838 2.255-4.838 5.038 0 2.782 2.166 5.037 4.838 5.037zM23.938 12.625H10.294c-.771.02-1.382.687-1.364 1.49v8.943c-.108 4.822 3.556 8.824 8.186 8.942 4.63-.118 8.294-4.12 8.186-8.942v-8.943c.018-.803-.592-1.47-1.364-1.49z" fill="#7B83EB"/><path opacity=".1" d="M17.86 12.625v12.532a1.428 1.428 0 01-.848 1.31 1.272 1.272 0 01-.514.108H9.585a9.8 9.8 0 01-.655-3.518v-8.944c-.018-.802.592-1.468 1.362-1.488h7.568z" fill="#000"/><path opacity=".2" d="M17.116 12.625v13.307c0 .184-.035.365-.104.535-.21.53-.706.88-1.258.883h-5.82a10.25 10.25 0 01-.349-.775 7.904 7.904 0 01-.26-.775 9.8 9.8 0 01-.395-2.744v-8.943c-.018-.802.592-1.468 1.362-1.488h6.824z" fill="#000"/><path opacity=".2" d="M17.116 12.625v11.757c-.006.78-.612 1.412-1.362 1.418h-6.43a9.8 9.8 0 01-.394-2.744v-8.943c-.018-.802.592-1.468 1.362-1.488h6.824z" fill="#000"/><path opacity=".2" d="M16.372 12.625v11.757c-.006.78-.612 1.412-1.362 1.418H9.325a9.8 9.8 0 01-.395-2.744v-8.943c-.018-.802.592-1.468 1.362-1.488h6.08z" fill="#000"/><path opacity=".1" d="M17.86 8.618v2.441c-.126.008-.245.016-.372.016-.126 0-.245-.008-.372-.015a3.925 3.925 0 01-.744-.125c-1.507-.371-2.752-1.472-3.349-2.96a4.433 4.433 0 01-.238-.775H16.5c.75.003 1.359.636 1.361 1.418z" fill="#000"/><path opacity=".2" d="M17.116 9.393v1.666a3.941 3.941 0 01-.744-.123c-1.507-.372-2.752-1.473-3.35-2.961h2.732c.751.003 1.36.636 1.362 1.418z" fill="#000"/><path opacity=".2" d="M17.116 9.393v1.666a3.941 3.941 0 01-.744-.123c-1.507-.372-2.752-1.473-3.35-2.961h2.732c.751.003 1.36.636 1.362 1.418z" fill="#000"/><path opacity=".2" d="M16.372 9.393v1.542c-1.507-.371-2.752-1.472-3.349-2.96h1.987c.751.003 1.36.636 1.362 1.418z" fill="#000"/><path d="M1.364 7.975h13.644c.753 0 1.364.636 1.364 1.42v14.21c0 .784-.61 1.42-1.364 1.42H1.364c-.753 0-1.364-.636-1.364-1.42V9.394c0-.784.61-1.42 1.364-1.42z" fill="url(#paint0_linear)"/><path d="M11.776 13.383H9.05v7.734H7.31v-7.734H4.596v-1.5h7.18v1.5z" fill="#fff"/></g><defs><linearGradient id="paint0_linear" x1="2.844" y1="6.865" x2="14.191" y2="25.736" gradientUnits="userSpaceOnUse"><stop stop-color="#5A62C3"/><stop offset=".5" stop-color="#4D55BD"/><stop offset="1" stop-color="#3940AB"/></linearGradient><clipPath id="clip0"><path fill="#fff" transform="translate(0 1)" d="M0 0h32v31H0z"/></clipPath></defs></svg>