<svg xmlns="http://www.w3.org/2000/svg" xml:space="preserve" style="enable-background:new 0 0 48.2 36" viewBox="0 0 48.2 36"><path d="M24.1 0C33.2 0 41 6 43.6 14.2c2.7.8 4.6 3.3 4.6 6.3s-1.9 5.4-4.6 6.3c-.1 0-.2 0-.2.1-.6.1-1.1.1-1.7.1-.4 0-.8 0-1.2-.1.8-2 1.2-4.2 1.2-6.5s-.4-4.5-1.2-6.5c-2.6-6.4-8.9-11-16.4-11-7.4 0-13.8 4.6-16.4 11.1-.1.2-.2.5-.3.8-.6 1.8-.9 3.7-.9 5.7s.3 3.9.9 5.7c.1.3.2.5.3.8H6.6c-.7 0-1.3-.1-1.9-.3-2.8-.8-4.7-3.3-4.7-6.2 0-3 1.9-5.4 4.6-6.3C7.3 6 15 0 24.1 0z"/><path d="M39.6 20.5c0 2-.4 4-1.1 5.8C36.2 32 30.6 36 24.1 36S12 32 9.7 26.3c-.7-1.8-1.1-3.7-1.1-5.8 0-2 .4-4 1.1-5.8C12 9 17.6 5 24.1 5s12.1 4 14.4 9.7c.7 1.8 1.1 3.7 1.1 5.8zm-15.5 9.8c5.4 0 9.9-4.4 9.9-9.9H14.3c0 5.5 4.4 9.9 9.8 9.9z" style="fill-rule:evenodd;clip-rule:evenodd"/></svg>