<svg xmlns="http://www.w3.org/2000/svg" xml:space="preserve" style="enable-background:new 0 0 37.6 37.6" viewBox="0 0 37.6 37.6"><path d="M29.7 7.2c-2.9-2.8-6.8-4.3-10.9-4.3h-1C9 3.6 2.4 11.2 3.1 20c.6 8.3 7.4 14.7 15.7 14.8h15.9v-16c0-4.4-1.8-8.6-5-11.6zm-17.4 3.6h13c.5 0 1 .3 1.3.7s.3 1 0 1.4-.7.7-1.3.7h-13c-.5 0-1-.3-1.3-.7s-.3-1 0-1.4.8-.7 1.3-.7zm13 16h-13c-.8 0-1.4-.7-1.4-1.5 0-.7.6-1.3 1.4-1.4h13c.8 0 1.4.7 1.4 1.5-.1.7-.6 1.3-1.4 1.4zm5.8-8c0 .4-.2.8-.4 1s-.6.4-1 .4H8c-.5 0-1-.3-1.3-.7s-.3-1 0-1.4.7-.7 1.3-.7h21.7c.4 0 .8.2 1 .4s.4.6.4 1z" style="fill:#f27557"/><path d="M31.7 5.1c-7.4-6.9-19-6.8-26.2.4s-7.4 18.8-.4 26.2c3.6 3.8 8.5 5.9 13.7 5.9h17.4c.8 0 1.4-.6 1.4-1.4V18.8c0-5.2-2.1-10.2-5.9-13.7zm3 29.6H18.8C10 34.6 2.9 27.4 3 18.6c.1-8.2 6.5-15.1 14.8-15.7h1c8.8 0 15.9 7.1 15.9 15.9v15.9z" style="fill:#c34027"/><path d="M25.3 23.9h-13c-.8 0-1.4.7-1.4 1.5 0 .7.6 1.3 1.4 1.4h13c.8 0 1.4-.7 1.4-1.5-.1-.8-.6-1.4-1.4-1.4zm-13-10.2h13c.5 0 1-.3 1.3-.7s.3-1 0-1.4c-.3-.4-.7-.7-1.3-.7h-13c-.5 0-1 .3-1.3.7s-.3 1 0 1.4c.3.5.8.7 1.3.7zm-4.4 3.7c-.8 0-1.4.6-1.4 1.4s.6 1.4 1.4 1.4h21.7c.8 0 1.4-.6 1.4-1.4s-.6-1.4-1.4-1.4H7.9z" style="fill:#fff"/></svg>