<svg xmlns="http://www.w3.org/2000/svg" width="32" height="32" fill="none"><path d="M0 32V0h32v32H0Zm15.772-16.541c0 1.51-.002 3.018 0 4.529 0 .47.293.758.764.76h8.408c.753 0 1.442-.209 2.068-.628 1.678-1.13 2.007-3.429.683-4.953-.894-1.03-2.034-1.388-3.37-1.105-.088.018-.12.006-.14-.082a5.55 5.55 0 0 0-1.937-3.074 5.535 5.535 0 0 0-3.058-1.25c-.6-.056-1.2-.024-1.792.096-.423.086-.829.22-1.203.443-.2.12-.35.277-.398.512-.02.102-.022.208-.024.313-.003 1.479-.001 2.958-.001 4.439Zm-1.938.882c0 .238-.036.699.008 1.15.094 1.022.228 2.04.348 3.06.02.175.14.276.306.274.167 0 .277-.105.303-.286.102-.734.207-1.467.309-2.202a8.936 8.936 0 0 0 .069-2.052c-.063-.693-.102-1.386-.16-2.079-.07-.857-.147-1.713-.222-2.57-.012-.128-.075-.222-.201-.266-.197-.069-.38.056-.402.28-.023.234-.037.47-.055.707a1036.44 1036.44 0 0 0-.303 3.984Zm-3.55.403c.023.438.03.916.08 1.393.083.81.191 1.622.293 2.432.03.226.288.326.46.179a.387.387 0 0 0 .113-.217c.097-.652.184-1.305.272-1.96.109-.807.166-1.616.085-2.433-.126-1.25-.234-2.503-.35-3.754-.016-.175-.14-.299-.296-.295-.155.002-.272.126-.288.305-.025.294-.057.587-.08.883-.099 1.14-.191 2.282-.29 3.467Zm1.781.276c.01.19.012.327.026.465.11 1.02.225 2.042.339 3.062.018.16.138.274.281.278.148.004.274-.113.298-.274l.04-.272c.09-.707.176-1.412.27-2.119a7.898 7.898 0 0 0 .04-1.904c-.09-.829-.161-1.658-.244-2.487-.031-.327-.069-.652-.106-.979-.016-.147-.128-.27-.258-.287-.128-.016-.254.063-.307.198a.463.463 0 0 0-.022.107c-.08.857-.165 1.711-.24 2.568-.046.563-.08 1.13-.117 1.644Zm-3.503-.002c.01 0 .02 0 .03.002 0 .163-.014.329.002.492.092.924.189 1.848.287 2.771.012.114.028.229.057.339.032.118.191.214.308.203.114-.012.224-.122.246-.248.01-.062.021-.123.03-.186.106-.8.218-1.599.314-2.4.042-.349.08-.7.07-1.05-.013-.45-.064-.904-.111-1.353-.085-.825-.18-1.65-.272-2.475a.566.566 0 0 0-.035-.152c-.05-.126-.177-.21-.288-.198a.329.329 0 0 0-.26.25c-.013.07-.023.142-.031.214-.071.67-.148 1.337-.209 2.007-.053.593-.092 1.19-.138 1.784Zm-.459.217-.02-.002c0-.122.016-.244-.001-.363-.087-.573-.181-1.146-.278-1.717a2.697 2.697 0 0 0-.092-.392.257.257 0 0 0-.276-.19c-.114.005-.205.086-.24.212-.012.037-.018.077-.026.114-.057.306-.118.613-.17.92-.086.512-.169 1.026-.121 1.546.098 1.067.21 2.134.319 3.202.01.106.08.173.169.228.063.04.12.041.183.002a.348.348 0 0 0 .181-.276c.032-.277.07-.553.1-.83.09-.818.18-1.637.272-2.454Zm-3.005-.284.02.002c.008.134.014.268.026.402.055.575.11 1.148.169 1.723.04.384.089.768.136 1.152a.263.263 0 0 0 .498.085.625.625 0 0 0 .043-.182c.109-.905.221-1.81.32-2.715.027-.256.043-.52.015-.774-.06-.538-.151-1.071-.234-1.605a9.844 9.844 0 0 0-.118-.638c-.03-.134-.117-.195-.246-.199-.16-.006-.256.067-.282.227-.073.443-.146.886-.207 1.33-.055.398-.094.796-.14 1.192Zm-.458.128c-.032-.215-.054-.433-.099-.648a30.279 30.279 0 0 0-.256-1.11c-.031-.132-.128-.21-.23-.21-.105 0-.191.078-.235.206a.622.622 0 0 0-.025.104c-.063.32-.13.636-.19.955-.054.307-.112.614-.068.928.092.675.187 1.35.283 2.026.024.17.118.274.237.274.116 0 .204-.107.234-.274.067-.392.138-.782.199-1.174.057-.356.1-.714.15-1.077Z" fill="#FE5500"/><path d="M15.771 15.458v-4.44c0-.105.002-.21.024-.313.047-.235.195-.392.398-.512.374-.223.78-.357 1.203-.443a6.085 6.085 0 0 1 1.792-.097 5.563 5.563 0 0 1 3.058 1.25 5.542 5.542 0 0 1 1.936 3.074c.022.09.055.103.142.083 1.335-.283 2.477.075 3.37 1.105 1.323 1.526.994 3.822-.684 4.953a3.613 3.613 0 0 1-2.068.628h-8.408c-.471 0-.762-.288-.764-.76l.002-4.528ZM13.835 16.34c.11-1.472.204-2.729.3-3.985.018-.236.034-.47.056-.707.021-.224.205-.347.402-.28.126.044.189.138.2.266.075.857.152 1.713.223 2.57.057.693.098 1.388.16 2.08.06.687.025 1.37-.07 2.052-.102.734-.206 1.467-.309 2.201-.025.181-.136.286-.303.286-.163 0-.283-.1-.305-.274-.12-1.02-.252-2.038-.349-3.06-.041-.451-.005-.91-.005-1.148ZM10.283 16.744c.099-1.185.191-2.328.286-3.468.023-.293.055-.588.08-.882.016-.18.132-.303.288-.305.155-.002.28.12.295.295.117 1.25.225 2.503.35 3.754.084.817.026 1.624-.084 2.434-.088.653-.175 1.307-.272 1.959a.376.376 0 0 1-.114.217.278.278 0 0 1-.459-.18c-.102-.809-.21-1.62-.293-2.432-.045-.476-.053-.955-.077-1.392ZM12.065 17.02c.038-.515.071-1.08.12-1.648.075-.856.16-1.711.24-2.568.005-.035.009-.073.022-.106a.294.294 0 0 1 .308-.199c.128.016.24.138.258.288.037.326.072.651.106.978.08.83.154 1.66.244 2.487a7.9 7.9 0 0 1-.04 1.905c-.094.705-.18 1.412-.271 2.119-.012.09-.026.18-.04.271-.023.162-.149.278-.297.274-.143-.004-.264-.118-.281-.278-.114-1.02-.227-2.04-.339-3.062-.018-.132-.02-.272-.03-.46ZM8.563 17.018c.045-.594.082-1.191.137-1.786.061-.67.138-1.337.21-2.006.007-.071.015-.144.03-.215.026-.128.144-.238.26-.25.11-.012.24.075.288.199.02.047.03.1.036.151.092.825.185 1.65.271 2.476.048.45.099.902.11 1.353.008.348-.027.7-.068 1.05-.097.8-.21 1.6-.315 2.4-.008.06-.02.122-.03.185-.022.128-.13.238-.246.248-.116.012-.274-.085-.307-.203a2.174 2.174 0 0 1-.057-.339c-.099-.923-.197-1.845-.288-2.77-.016-.162-.002-.327-.002-.493h-.03ZM8.104 17.234c-.09.818-.181 1.637-.274 2.454-.031.278-.069.553-.1.831a.348.348 0 0 1-.181.276.16.16 0 0 1-.184-.002c-.086-.055-.157-.122-.169-.229-.108-1.067-.22-2.132-.319-3.202-.047-.52.035-1.034.122-1.545.051-.308.112-.613.17-.92.007-.04.015-.077.025-.114.038-.126.128-.207.24-.213a.255.255 0 0 1 .276.191c.041.128.07.26.093.392.096.573.19 1.144.277 1.717.018.118.002.242.002.362l.022.002ZM5.099 16.951c.045-.397.084-.795.14-1.191.06-.445.133-.888.206-1.331.026-.16.122-.23.282-.227.128.004.216.065.246.2.047.21.085.423.118.637.083.534.173 1.068.234 1.605.03.254.012.518-.015.774-.099.906-.211 1.812-.32 2.716a.64.64 0 0 1-.043.18.263.263 0 0 1-.498-.084 76.29 76.29 0 0 1-.136-1.152c-.06-.573-.114-1.148-.17-1.723-.013-.134-.017-.268-.025-.402-.008 0-.013 0-.02-.002ZM4.64 17.08c-.05.364-.095.72-.15 1.077-.061.392-.134.782-.199 1.174-.03.169-.118.273-.234.273-.117 0-.211-.102-.237-.273a358.02 358.02 0 0 1-.283-2.027c-.044-.313.014-.622.069-.927.057-.32.124-.636.189-.955.008-.036.015-.071.025-.105.044-.13.13-.205.235-.205.102 0 .197.077.23.209.09.368.18.739.256 1.11.045.213.067.434.099.649Z" fill="#FEFEFD"/></svg>
