<svg width="32" height="32" fill="none" xmlns="http://www.w3.org/2000/svg"><path d="M7.809 17.232V7.067H3.368A2.368 2.368 0 001 9.435v21.022c0 1.056 1.275 1.583 2.02.837l4.888-4.885h13.914a2.368 2.368 0 002.369-2.368V19.6H10.177A2.368 2.368 0 017.81 17.23z" fill="#00AC47"/><path d="M28.631.356H10.177A2.368 2.368 0 007.81 2.725v4.342h14.013a2.368 2.368 0 012.369 2.368V19.6h4.44A2.368 2.368 0 0031 17.23V2.726A2.368 2.368 0 0028.63.356z" fill="#5BB974"/><path d="M21.822 7.067H7.809v10.165a2.368 2.368 0 002.368 2.368h14.014V9.435a2.368 2.368 0 00-2.369-2.368z" fill="#00832D"/></svg>