<svg xmlns="http://www.w3.org/2000/svg" xml:space="preserve" style="enable-background:new 0 0 76.4 66" viewBox="0 0 76.4 66"><path d="M69.3 0H7.4C3.4 0 0 3 0 6.9v22.2C0 49.3 17.2 66 38.3 66c21 0 38.1-16.8 38.1-36.9V6.9C76.4 3 73.2 0 69.3 0z" style="fill-rule:evenodd;clip-rule:evenodd;fill:#ef4056"/><path d="M41.8 44.2 60 27.6c1.9-1.9 1.9-5.2 0-7.3-1.9-1.8-5.2-2.1-7.1 0L38.3 33.7 24 20.3c-2-2.1-5.4-1.8-7.4 0-2.1 2.1-1.9 5.3 0 7.3l18 16.6c1.1 1 2.4 1.4 3.8 1.4 1 0 2.5-.4 3.4-1.4z" style="fill:#fff"/></svg>