<svg width="32" height="32" viewBox="0 0 32 32" fill="none" xmlns="http://www.w3.org/2000/svg">
<path d="M26.5 6.22378C26.4814 6.05506 26.3324 5.98008 26.2207 5.98008C26.109 5.98008 23.6702 5.79262 23.6702 5.79262C23.6702 5.79262 21.976 4.0867 21.7713 3.91798C21.5851 3.73052 21.2314 3.78676 21.0824 3.82425C21.0638 3.82425 20.7101 3.93673 20.133 4.1242C19.5558 2.45577 18.5691 0.937317 16.8005 0.937317H16.633C16.1489 0.299941 15.5159 0 14.9947 0C10.8989 0 8.92553 5.15524 8.31117 7.77973C6.7101 8.28588 5.57447 8.62331 5.44415 8.67955C4.55053 8.96075 4.53191 8.9795 4.42021 9.82308C4.32713 10.4605 2 28.5882 2 28.5882L20.1143 32L29.9441 29.8629C29.9627 29.8254 26.5186 6.3925 26.5 6.22378ZM19.1276 4.38664C18.6808 4.51787 18.1409 4.68658 17.6011 4.87405V4.53661C17.6011 3.52431 17.4707 2.69947 17.2287 2.04335C18.1596 2.15583 18.7367 3.18688 19.1276 4.38664ZM16.0931 2.24956C16.3351 2.88694 16.5027 3.78676 16.5027 5.02402V5.21148C15.4973 5.53017 14.4362 5.84885 13.3378 6.20503C13.9521 3.843 15.125 2.68073 16.0931 2.24956ZM14.9016 1.08729C15.0878 1.08729 15.2739 1.16227 15.4229 1.27475C14.1011 1.89338 12.7048 3.44932 12.1277 6.59871C11.2527 6.8799 10.4149 7.12361 9.61436 7.38606C10.2846 4.98653 11.9601 1.08729 14.9016 1.08729Z" fill="#95BF47"/>
<path d="M26.2207 5.94264C26.109 5.94264 23.6702 5.75518 23.6702 5.75518C23.6702 5.75518 21.976 4.04926 21.7712 3.88055C21.6968 3.80556 21.6037 3.76807 21.5292 3.76807L20.1702 32.0001L29.9999 29.863C29.9999 29.863 26.5558 6.39256 26.5372 6.22384C26.4627 6.05512 26.3324 5.98014 26.2207 5.94264Z" fill="#5E8E3E"/>
<path d="M16.8005 11.4165L15.609 15.0345C15.609 15.0345 14.5292 14.4534 13.2446 14.4534C11.3271 14.4534 11.234 15.6719 11.234 15.9718C11.234 17.6215 15.5159 18.2589 15.5159 22.1394C15.5159 25.195 13.5983 27.1634 11.0106 27.1634C7.88292 27.1634 6.31909 25.2138 6.31909 25.2138L7.15686 22.4393C7.15686 22.4393 8.79515 23.864 10.1728 23.864C11.085 23.864 11.4574 23.1517 11.4574 22.6268C11.4574 20.4709 7.95739 20.3772 7.95739 16.8154C7.95739 13.8347 10.0797 10.9478 14.3803 10.9478C15.9813 10.929 16.8005 11.4165 16.8005 11.4165Z" fill="white"/>
</svg>
