<svg xmlns="http://www.w3.org/2000/svg" xml:space="preserve" style="enable-background:new 0 0 40.4 28.9" viewBox="0 0 40.4 28.9"><path d="M14 .4c.6-.5 1.4-.5 2 .1l4.3 4.3L18.2 7l-2.7-2.7c-.3-.3-.7-.3-1.1 0l-.1.1c-3.2 3.1-6.3 6.3-9.5 9.5-.3.3-.4.8-.1 1.1h.1l9 9c.2.3.5.5.8.7.3.1.7 0 .9-.2l2.6-2.6 2.1 2.2-4 4c-.3.3-.6.5-.9.7-.6.2-1.2 0-1.6-.4L1 15.7c-.6-.6-.6-1.6 0-2.2C5.4 9 9.7 4.7 14 .4z" style="fill:#9187f6"/><path d="M24.6.4c.6-.6 1.6-.6 2.2 0l12.7 12.7c.4.4.6 1 .4 1.6-.2.4-.5.7-.8 1l-11.9 12c-.3.3-.6.6-1 .8-.6.2-1.2 0-1.6-.4l-4.3-4.2-2.1-2.1-6.4-6.4c-.6-.6-.6-1.6 0-2.1L18.1 7l2.2-2.2c1.4-1.5 2.9-2.9 4.3-4.4z" style="fill:#8313dd"/></svg>