<svg width="32" height="32" viewBox="0 0 32 32" fill="none" xmlns="http://www.w3.org/2000/svg">
<path d="M31.3337 8.09487C30.9655 6.68196 29.8784 5.56415 28.5019 5.18857C26.0033 4.5 16 4.5 16 4.5C16 4.5 5.99671 4.5 3.49808 5.18857C2.12164 5.56415 1.03452 6.68196 0.666301 8.09487C-1.25415e-07 10.6524 0 16 0 16C0 16 -1.25415e-07 21.3476 0.666301 23.9051C1.03452 25.318 2.12164 26.4358 3.49808 26.8114C5.99671 27.5 16 27.5 16 27.5C16 27.5 26.0033 27.5 28.5019 26.8114C29.8784 26.4358 30.9655 25.318 31.3337 23.9051C32 21.3476 32 16 32 16C32 16 32 10.6524 31.3337 8.09487Z" fill="#FF0000"/>
<path d="M12.7295 20.856L21.0933 16.0003L12.7295 11.1445V20.856Z" fill="white"/>
</svg>
