<svg width="32" height="32" viewBox="0 0 32 32" fill="none" xmlns="http://www.w3.org/2000/svg">
<path d="M29.8716 31.9999C31.0418 31.9999 32.0004 31.0575 32.0004 29.9036V8.52007C32.0004 7.36611 31.0418 6.42371 29.8716 6.42371H9.0929L17.4319 31.9999H29.8716Z" fill="#DBDBDB"/>
<path d="M29.8716 7.38534C30.1826 7.38534 30.4775 7.50715 30.6987 7.72512C30.9168 7.93988 31.0386 8.22196 31.0386 8.52007V29.9036C31.0386 30.2017 30.92 30.4838 30.6987 30.6985C30.4775 30.9165 30.1826 31.0383 29.8716 31.0383H18.1309L10.417 7.38534H29.8716ZM29.8716 6.42371H9.0929L17.4319 31.9999H29.8716C31.0418 31.9999 32.0004 31.0575 32.0004 29.9036V8.52007C32.0004 7.36611 31.0418 6.42371 29.8716 6.42371Z" fill="#DCDCDC"/>
<path d="M15.4622 25.9576L17.4307 31.9999L22.9035 25.9576H15.4622Z" fill="#4352B8"/>
<path d="M30.0126 15.2611V14.0078H23.9691V11.9819H22.007V14.0078H18.15V15.2611H25.8254C25.415 16.7068 24.5077 18.0723 23.6228 19.1333C22.055 17.2773 22.0486 16.6747 22.0486 16.6747H20.4199C20.4199 16.6747 20.4873 17.5786 22.6866 20.1558C21.9717 20.8867 21.4299 21.3194 21.4299 21.3194L21.93 22.8837C21.93 22.8837 22.6866 22.233 23.6324 21.2297C24.5814 22.2586 25.8062 23.4959 27.39 24.9704L28.4191 23.9415C26.7231 22.4029 25.4792 21.1816 24.5654 20.2007C25.7901 18.7518 27.0341 16.9279 27.297 15.2579H30.0094V15.2611H30.0126Z" fill="#607988"/>
<path d="M2.12884 0C0.958621 0 0 0.958429 0 2.13162V23.8325C0 25.0025 0.958621 25.9609 2.12884 25.9609H22.9075L14.5685 0H2.12884Z" fill="#4285F4"/>
<path d="M17.1294 6.42371H29.8704C31.0406 6.42371 31.9992 7.36611 31.9992 8.52007V21.3483L17.1294 6.42371Z" fill="url(#paint0_linear)"/>
<path d="M11.9066 13.8026C11.8265 14.7739 10.9961 16.2131 8.98588 16.2131C7.24497 16.2131 5.83429 14.7739 5.83429 13.0013C5.83429 11.2287 7.24497 9.7894 8.98588 9.7894C9.97656 9.7894 10.637 10.2189 11.0153 10.5683L12.3362 9.29897C11.4674 8.49761 10.3356 7.99756 8.98588 7.99756C6.22543 7.99756 3.98438 10.2382 3.98438 12.9981C3.98438 15.758 6.22543 17.9986 8.98588 17.9986C11.8778 17.9986 13.7886 15.9695 13.7886 13.107C13.7886 12.6967 13.7373 12.3954 13.67 12.0877H8.98908V13.7994L11.9066 13.8026Z" fill="#EEEEEE"/>
<path d="M29.8712 6.42372H16.6332L14.5685 0H2.12884C0.958622 0 0 0.958429 0 2.13162V23.8325C0 25.0025 0.958622 25.9609 2.12884 25.9609H15.463L17.4315 32H29.8712C31.0414 32 32 31.0576 32 29.9036V21.3483V8.52008C32 7.36612 31.0414 6.42372 29.8712 6.42372Z" fill="url(#paint1_radial)"/>
<defs>
<linearGradient id="paint0_linear" x1="17.1294" y1="13.886" x2="31.9992" y2="13.886" gradientUnits="userSpaceOnUse">
<stop stop-color="white" stop-opacity="0.2"/>
<stop offset="1" stop-color="white" stop-opacity="0.02"/>
</linearGradient>
<radialGradient id="paint1_radial" cx="0" cy="0" r="1" gradientUnits="userSpaceOnUse" gradientTransform="translate(2.09062 0.620752) scale(44.8298 44.8209)">
<stop stop-color="white" stop-opacity="0.1"/>
<stop offset="1" stop-color="white" stop-opacity="0"/>
</radialGradient>
</defs>
</svg>
