<svg width="32" height="32" viewBox="0 0 32 32" fill="none" xmlns="http://www.w3.org/2000/svg">
<path d="M29.4298 0H23.6404C22.2281 0 21.0702 1.15789 21.0702 2.57018V10.1053V32H23.6404H29.4298C30.8421 32 32 30.8421 32 29.4298V2.57018C32 1.15789 30.8421 0 29.4298 0Z" fill="#F79836"/>
<path d="M10.1053 12.6315V21.0526H2.52631C1.14035 21.0526 0 22.1929 0 23.5789V29.4736C0 30.8596 1.14035 32 2.52631 32H21.0526V10.1052H12.6316C11.2368 10.1052 10.1053 11.2456 10.1053 12.6315Z" fill="#FFCF3D"/>
<path d="M21.0526 10.228V32H23.6228H29.4123C29.9649 32 30.4824 31.8245 30.9035 31.5175C31.5526 31.0526 31.9824 30.2894 31.9824 29.4298V21.1579L21.0526 10.228Z" fill="#EC852E"/>
</svg>
