<svg xmlns="http://www.w3.org/2000/svg" xml:space="preserve" style="enable-background:new 0 0 33.4 35.3" viewBox="0 0 33.4 35.3"><path d="M30.4-.2H3c-1.6 0-3 1.3-3 3v29.8c0 1.6 1.3 3 3 3h27.4c1.6 0 3-1.3 3-3v-1.4c0-1.8-.1-5.5-.1-7.2 0-.9-.7-1.7-1.6-1.7-1 0-1.6.6-2.1 1.1-1.5 1.3-3.7 1.6-5.7 1.2-.9-.2-1.7-.4-2.4-.9-2.1-1.2-3.5-3.6-3.5-6.1s1.4-4.8 3.5-6.1c.7-.4 1.6-.7 2.4-.9 1.9-.3 4.2-.1 5.7 1.2.5.5 1.2 1.1 2.1 1.1s1.6-.8 1.6-1.7c0-1.6 0-5.4.1-7.2V2.7c0-1.6-1.4-2.9-3-2.9z" style="fill:#f46a54"/></svg>