<svg xmlns="http://www.w3.org/2000/svg" xml:space="preserve" style="enable-background:new 0 0 98 98" viewBox="0 0 98 98"><path d="M16.06 16.71h67.47v64.33H16.06z" style="fill:#fff;stroke:#000;stroke-miterlimit:10"/><path d="M0 20v58c0 11 9 20 20 20h58c11 0 20-9 20-20V20C98 9 89 0 78 0H20C9 0 0 9 0 20zm80.3 35.8c-.3.7-.7 1.4-1.2 2s-1.2 1.1-1.9 1.3c-.7.3-1.5.5-2.3.5H74c-.2 0-.4-.1-.6-.1-.2-.1-.4-.2-.7-.2h-.1L72 59c-.4-.3-.8-.6-1.2-1-.4-.4-.7-.9-.9-1.3H54.3l-3-22.5L39.6 78h-5.4l-5.3-22.5H18.8v-5.1h14.3l4 17.1 12.4-47.9h5.6L59 51.3h10.7c.2-.5.5-.9.9-1.3.3-.4.7-.7 1.2-1h.1l.6-.3h.1c.2-.1.4-.2.7-.2.2 0 .4-.1.6-.1h.2c.8-.1 1.6 0 2.3.2s1.5.6 2.1 1.1 1.1 1.1 1.5 1.8c.3.6.5 1.3.6 2 .1.5 0 1.5-.3 2.3z" style="fill:#009fc1"/></svg>