<svg width="32" height="32" viewBox="0 0 32 32" fill="none" xmlns="http://www.w3.org/2000/svg">
<path d="M25.0407 16.8704C21.1968 16.8704 18.0812 19.9885 18.0812 23.8349C18.0812 27.6817 21.1968 30.8 25.0407 30.8C28.8842 30.8 32 27.6817 32 23.8349C32 19.9885 28.8842 16.8704 25.0407 16.8704ZM6.95941 16.8709C3.11595 16.8709 0 19.9885 0 23.8353C0 27.6817 3.11595 30.8 6.95941 30.8C10.8031 30.8 13.9192 27.6817 13.9192 23.8353C13.9192 19.9885 10.8031 16.8709 6.95941 16.8709ZM22.9592 8.16447C22.9592 12.0109 19.8436 15.1297 16.0002 15.1297C12.1564 15.1297 9.04065 12.0109 9.04065 8.16447C9.04065 4.31824 12.1564 1.19995 16.0002 1.19995C19.8436 1.19995 22.9592 4.31824 22.9592 8.16447Z" fill="url(#paint0_radial)"/>
<defs>
<radialGradient id="paint0_radial" cx="0" cy="0" r="1" gradientUnits="userSpaceOnUse" gradientTransform="translate(16 17.377) scale(21.2043 19.6139)">
<stop stop-color="#FFB900"/>
<stop offset="0.6" stop-color="#F95D8F"/>
<stop offset="0.9991" stop-color="#F95353"/>
</radialGradient>
</defs>
</svg>
