<svg width="32" height="32" fill="none" xmlns="http://www.w3.org/2000/svg"><g clip-path="url(#clip0)"><rect width="32.029" height="32" rx="5" fill="url(#paint0_linear)"/><path d="M8.385 12.65c0-1.654-.84-3.022-2.412-4.17h3.652a5.226 5.226 0 012.068 4.17 5.226 5.226 0 01-2.068 4.17c1.185.493 1.86 1.696 1.86 3.419v3.281H8.179V20.24c0-1.641-.785-2.79-2.205-3.419 1.571-1.148 2.412-2.515 2.412-4.17zm7.166 0c0-1.654-.84-3.022-2.411-4.17h3.652a5.226 5.226 0 012.067 4.17 5.226 5.226 0 01-2.067 4.17c1.185.493 1.86 1.696 1.86 3.419v3.281h-3.307V20.24c0-1.641-.786-2.79-2.205-3.419 1.57-1.148 2.411-2.515 2.411-4.17zm7.168 0c0-1.654-.84-3.022-2.412-4.17h3.653a5.226 5.226 0 012.067 4.17 5.226 5.226 0 01-2.067 4.17c1.185.493 1.86 1.696 1.86 3.419v3.281h-3.307V20.24c0-1.641-.786-2.79-2.206-3.419 1.572-1.148 2.412-2.515 2.412-4.17z" fill="#000"/></g><defs><linearGradient id="paint0_linear" x1="0" y1="16" x2="32.029" y2="16" gradientUnits="userSpaceOnUse"><stop stop-color="#F8A800"/><stop offset="1" stop-color="#FAC900"/></linearGradient><clipPath id="clip0"><path fill="#fff" d="M0 0h32v32H0z"/></clipPath></defs></svg>