<svg xmlns="http://www.w3.org/2000/svg" xml:space="preserve" id="Слой_1" x="0" y="0" style="enable-background:new 0 0 768.7 760" version="1.1" viewBox="0 0 768.7 760"><style>.st0{fill-rule:evenodd;clip-rule:evenodd;fill:red}</style><path d="M768.6 380c0 104.6-37.5 193.8-112.6 267.7-75 73.9-165.6 110.9-271.8 110.9-106.1 0-196.7-37-271.8-110.9C37.5 573.8 0 484.6 0 380s37.5-193.8 112.6-267.7c75-74 165.6-110.9 271.7-110.9s196.7 37 271.8 110.9S768.7 275.4 768.6 380z" class="st0"/><path d="M614.9 380c0 62.7-22.5 116.3-67.5 160.6-45 44.4-99.4 66.5-163.1 66.5s-118-22.2-163.1-66.5c-45-44.4-67.5-97.9-67.5-160.6s22.5-116.3 67.5-160.6c45-44.4 99.4-66.5 163.1-66.5 63.7 0 118 22.2 163.1 66.5 45 44.3 67.5 97.9 67.5 160.6z" class="st0"/><path d="M614.9 380c0 62.7-22.5 116.3-67.5 160.6-45 44.4-99.4 66.5-163.1 66.5s-118-22.2-163.1-66.5c-45-44.4-67.5-97.9-67.5-160.6s22.5-116.3 67.5-160.6c45-44.4 99.4-66.5 163.1-66.5 63.7 0 118 22.2 163.1 66.5 45 44.3 67.5 97.9 67.5 160.6z" style="fill:none;stroke:#fff;stroke-width:50.3413;stroke-miterlimit:10.9319"/><path d="M307.5 491.9 507.1 380 307.5 268.1v223.8z" style="fill-rule:evenodd;clip-rule:evenodd;fill:#fff"/></svg>