<svg width="32" height="32" viewBox="0 0 32 32" fill="none" xmlns="http://www.w3.org/2000/svg">
<path d="M16.0084 31.984C24.8404 31.984 32.0002 24.8242 32.0002 15.9922C32.0002 7.16014 24.8404 0.000366211 16.0084 0.000366211C7.17638 0.000366211 0.0166016 7.16014 0.0166016 15.9922C0.0166016 24.8242 7.17638 31.984 16.0084 31.984Z" fill="#1A73E8"/>
<path d="M21.8281 22.9H10.9306C9.38091 22.9 8.02904 21.7294 8.02904 20.1797V20.1632V21.07C8.02904 22.6197 9.38091 23.9716 10.9306 23.9716H21.8281C23.3943 23.9716 24.7297 22.6032 24.7297 21.07V20.1633C24.7297 21.7129 23.3779 22.9 21.8281 22.9ZM8.01253 15.0854V13.8489L5.98472 10.5022C5.86932 10.3209 5.81984 10.156 5.83635 9.99109V11.4089C5.83635 11.5408 5.88577 11.6727 5.96821 11.8211L8.01253 15.0854Z" fill="#185ABC"/>
<path d="M21.8281 9.44702H6.56169C5.95169 9.44702 5.60553 9.97458 6.01768 10.5351L8.01252 13.9972V20.1797C8.01252 21.7623 9.1666 23.0812 10.7328 23.0812H21.8116C23.3779 23.0812 24.7132 21.7459 24.7132 20.1797V12.3651C24.7297 10.7824 23.3943 9.44702 21.8281 9.44702Z" fill="white"/>
<path d="M21.6468 13.8159H11.1119C10.6502 13.8159 10.2051 13.5356 10.2051 13.0905C10.2051 12.6453 10.6503 12.3651 11.1119 12.3651H21.6467C22.1083 12.3651 22.5535 12.6453 22.5535 13.0905C22.5535 13.5356 22.1083 13.8159 21.6467 13.8159H21.6468ZM21.6468 16.7175H11.1119C10.6502 16.7175 10.2051 16.4372 10.2051 15.9921C10.2051 15.5469 10.6503 15.2667 11.1119 15.2667H21.6467C22.1083 15.2667 22.5535 15.547 22.5535 15.9921C22.5535 16.4372 22.1083 16.7175 21.6467 16.7175H21.6468ZM18.7287 19.6356H11.0954C10.6338 19.6356 10.1887 19.3553 10.1887 18.9102C10.1887 18.4651 10.6338 18.1848 11.0954 18.1848H18.7287C19.1902 18.1848 19.6354 18.465 19.6354 18.9102C19.6354 19.3554 19.1902 19.6356 18.7287 19.6356Z" fill="#8AB4F8"/>
<path d="M32 15.9097C31.9671 22.9164 27.4003 28.8679 21.1025 30.9782C19.5033 31.5222 17.7887 31.8025 16.0082 31.8025C7.20443 31.8025 0.065836 24.6969 0.0163574 15.9097V16.0086C0.0163574 24.8453 7.17147 32.0003 16.0082 32.0003C17.7887 32.0003 19.5033 31.7036 21.1025 31.176C27.4332 29.0493 32 23.0648 32 16.0086V15.9097Z" fill="#185ABC"/>
<path d="M21.0861 0.824792C19.4869 0.280842 17.7723 0.000610352 15.9918 0.000610352C7.15511 0.000547562 0 7.15559 0 15.9923V16.0912C0.0494157 7.30396 7.18801 0.198336 15.9918 0.198336C17.7723 0.198336 19.4869 0.495081 21.0861 1.02271C27.4004 3.13295 31.9506 9.0845 31.9836 16.0912V15.9923C32.0001 8.93613 27.4333 2.95161 21.0861 0.824792Z" fill="#8AB4F8"/>
</svg>
