<svg xmlns="http://www.w3.org/2000/svg" xml:space="preserve" style="enable-background:new -153-46 652 652" viewBox="-153 -46 652 652"><linearGradient id="a" x1="-145.669" x2="469.24" y1="287.966" y2="287.966" gradientTransform="matrix(1.0045 0 0 -1.0045 1.387 562.759)" gradientUnits="userSpaceOnUse"><stop offset="0" style="stop-color:#2d6dd0"/><stop offset=".99" style="stop-color:#6c139c"/></linearGradient><path d="M463.1 183.7h-32.4c-5.1.2-9.6 3.4-11.5 8.2l-7.3 21.2-5.9 16.4-8.2 23.7c-.9 2.8-2 5.6-3.5 8.2-1.5-2.6-2.7-5.4-3.5-8.2l-7.9-23.6c-1.5-4.6-4.1-11.9-5.7-16.5l-7.3-21.2c-1.9-4.8-6.5-8-11.6-8.2H233.6c-4.8 0-8.7 3.9-8.7 8.7v49.5c0 4.8-3.9 8.7-8.7 8.7H180c-4.8 0-8.7-3.9-8.7-8.7v-49.5c0-4.6-3.7-8.5-8.3-8.7h-30.1c-4.8 0-8.7 3.9-8.7 8.7v22.9c16 20.4 16 57.6 0 113v26.4c0 4.8 3.9 8.7 8.7 8.7H163c4.8 0 8.7-3.9 8.7-8.7v-53.9c0-4.7 3.7-8.5 8.4-8.7h36.2c4.8 0 8.7 3.8 8.7 8.6v54c0 4.8 3.9 8.7 8.7 8.7h101.6c4.8 0 8.7-3.9 8.7-8.7v-22.3c0-4.8-3.9-8.7-8.7-8.7h-53.9c-4.8 0-8.7-3.9-8.7-8.7v-14.7c0-4.8 3.9-8.7 8.7-8.7H314c4.8 0 8.7-3.9 8.7-8.7v-22.3c0-4.8-3.9-8.7-8.7-8.7h-32.6c-4.8 0-8.7-3.9-8.7-8.7v-10.7c0-4.8 3.8-8.7 8.6-8.7h44.2c5.2.3 9.9 3.3 12.3 7.9l28.6 62.1c2.2 5.3 3.5 10.9 3.7 16.6v44.5c0 4.8 3.9 8.7 8.7 8.7h30.1c4.8 0 8.7-3.8 8.7-8.6v-44.6c.2-5.7 1.4-11.3 3.6-16.6l47.2-101.9c1.5-2.4.8-5.6-1.6-7.1-1.2-1-2.4-1.3-3.7-1.1z" style="fill:url(#a)"/><linearGradient id="b" x1="-145.669" x2="469.24" y1="286.463" y2="286.463" gradientTransform="matrix(1.0045 0 0 -1.0045 1.387 562.759)" gradientUnits="userSpaceOnUse"><stop offset="0" style="stop-color:#2d6dd0"/><stop offset=".99" style="stop-color:#6c139c"/></linearGradient><path d="M82.1 214.3c-11.5 3.1-22 9.4-30.3 18-9.6-33.8-30.3-84.9-50.6-93.3-4.3-2-9.4-1.8-13.5.6-12.6 7.3-20.9 31-13.7 75.8-27.8-50.9-37.5-50.8-42-50.9-4.4.1-8.3 2.8-10 6.8-3 6.7-9 27.6 5.7 72.5-17.7-24.2-23.1-27.3-29.4-27-4.1.2-7.7 2.7-9.4 6.4-5.3 10-4.7 35.1 11.8 72.6-5.6-5-12.8-7.9-20.3-8.4-4.1.3-7.8 2.6-9.8 6.2-6.7 12.3 7.3 46.7 24.7 70.1 14 19.2 42.2 48.6 83 48.6 5.7 0 11.4-.5 17-1.6 4.1-.8 6.7-4.7 5.9-8.8-.8-4.1-4.7-6.7-8.8-5.9-33.9 6.6-59.5-12.1-75-28.8-23.1-25.1-33.3-55.2-33.9-64.4 4.8 2 18.8 10.2 46 45 2.4 3.3 7 4.1 10.4 1.7 3.3-2.4 4.1-7 1.7-10.4-38.2-58-42-93.1-40.7-104.9 11.2 11.5 39.3 53.5 60.5 85.2 2.2 3.4 6.7 4.4 10.1 2.3 3.5-2 4.7-6.5 2.7-10C-69.7 231-68.2 194.3-65.6 182c6.6 6.7 24.2 30 61.1 110.2 1.6 3.7 5.9 5.3 9.6 3.7 3.8-1.5 5.6-5.7 4.2-9.5C-26.5 189.1-10.9 156.1-5 152.3c7.7 0 29.4 37.2 42.9 85.9.8 3 1.6 6 2.4 8.8-1.9 3.3-3.4 6.9-4.4 10.6-7.3 27-14.7 88.2-.5 105 2.9 3.6 7.3 5.5 11.9 5.1 5.8-.6 10.9-3.8 14.1-8.7 13.2-19.2 5.4-67.3-5.1-109.4 7.2-10.1 17.5-17.6 29.4-21.1 5.2-1.6 10.8-.3 14.7 3.5 6 6.8 16.5 32-15.4 121.2-1.4 3.9.7 8.2 4.6 9.6 3.9 1.4 8.2-.7 9.6-4.6 25.4-71.1 29.4-116.8 12.4-136.1-7.5-8-19-11-29.5-7.8zm-33 136.4c-.5 1-1.4 1.7-2.5 2.1-5.5-6.5-5.5-45.3.5-77 11.4 55 4.7 71 2 74.9z" style="fill:url(#b)"/></svg>