<svg xmlns="http://www.w3.org/2000/svg" width="2500" height="1554" viewBox="-2.37 0.48 605.11 378.12"><path fill="#08cf65" d="M141.07 138.77c29.02 0 42.7 5.34 63.71 26.39l112.75 112.9c3.34 3.34 4.01 4.68 4.67 6.68.34.67.34 1.67.34 2.34s0 1.67-.34 2.34c-.66 2-1.33 3.34-4.67 6.68l-77.05 77.49c-3.34 3.34-4.67 4.01-6.68 4.68-.66.33-1.66.33-2.33.33s-1.67 0-2.34-.33c-2-.67-3.33-1.34-6.67-4.68L3.96 154.8c-6.33-6.35-4-16.03 6.68-16.03zM459.3.81c-29.02 0-42.7 5.34-63.71 26.39L282.84 140.1c-3.34 3.34-4.01 4.68-4.67 6.68-.34.67-.34 1.67-.34 2.34s0 1.67.34 2.34c.66 2 1.33 3.34 4.67 6.68l77.05 77.16c3.34 3.34 4.67 4.01 6.68 4.68.66.33 1.66.33 2.33.33s1.67 0 2.34-.33c2-.67 3.33-1.34 6.67-4.68L596.4 16.51c6.34-6.35 4.01-16.03-6.67-16.03H459.3z"/></svg>