<svg xmlns="http://www.w3.org/2000/svg" xml:space="preserve" style="enable-background:new 0 0 116 115" viewBox="0 0 116 115"><circle cx="58.52" cy="57.5" r="54.34" style="fill:#fff;stroke:#000;stroke-miterlimit:10"/><path d="M58.5 0C14.2 0-13.4 47.9 8.7 86.2s77.5 38.3 99.6 0c5-8.7 7.7-18.7 7.7-28.8C115.9 25.8 90.2.1 58.5 0zm27.6 81.5c-8.4 11.8-18.5 14.2-27.6 14.2-9 0-19.2-2.4-27.6-14.2-4.4-6.3-6.6-17.7-.8-27 11.1-18.1 19.8-24.7 28.4-35.2 8.7 10.5 17.3 17.1 28.4 35.2 5.8 9.3 3.7 20.7-.8 27z" style="fill:#34a1d5"/></svg>