<svg width="33" height="33" fill="none" xmlns="http://www.w3.org/2000/svg"><rect width="32.029" height="32.029" rx="7" fill="#FFE101"/><path d="M15.947 25.922a13.67 13.67 0 01-10.14-4.508 1.129 1.129 0 01-.2-1.11c.73-1.895 2.652-6.273 5.104-6.338 1.26 0 2.187.98 2.916 1.764.2.196.53.588.796.784.596-.588 1.723-2.417 2.585-4.312.265-.588.927-.784 1.524-.523.596.262.795.915.53 1.503-2.717 5.684-4.043 5.684-4.573 5.684-1.06 0-1.79-.784-2.519-1.568-.331-.327-.994-1.045-1.259-1.045-.596.065-1.856 2.09-2.717 4.246a11.39 11.39 0 008.218 3.267c2.651 0 7.357-.458 9.28-3.267-.465-5.553-3.646-13.131-9.28-13.131-4.772 0-8.35 3.266-10.67 9.734a1.083 1.083 0 01-1.459.653c-.596-.196-.928-.85-.662-1.437C6.07 8.805 10.38 5.016 16.212 5.016c7.622 0 11.135 9.538 11.533 15.614 0 .196-.067.457-.133.653-1.79 3.005-5.832 4.704-11.4 4.704-.066-.065-.132-.065-.265-.065z" fill="#1D2D35"/></svg>