<svg xmlns="http://www.w3.org/2000/svg" xml:space="preserve" id="Слой_1" x="0" y="0" style="enable-background:new 0 0 600 600" version="1.1" viewBox="0 0 600 600"><style>.st0{fill:#fff}</style><path d="M307 293h-14v14h14v-14z" class="st0"/><path d="M600 0H0v600h600V0z" class="st0"/><path d="M500 0H100C44.8 0 0 44.8 0 100v400c0 55.2 44.8 100 100 100h400c55.2 0 100-44.8 100-100V100C600 44.8 555.2 0 500 0z" style="fill:#0056d2"/><path d="M117.9 300.4c0-19.3 15.9-34.9 35.9-34.9 20.1 0 36 15.6 36 34.9 0 19.2-15.9 35-36 35-20 0-35.9-15.9-35.9-35zm54.7 0c0-9.6-8.4-18.1-18.9-18.1-10.3 0-18.6 8.5-18.6 18.1 0 9.7 8.4 18.2 18.6 18.2 10.5.1 18.9-8.4 18.9-18.2zM478.1 301c0-21.2 17.3-35.4 33-35.4 10.7 0 16.9 3.2 21.1 9.5l1.6-8.3H550v67.4h-16.1l-2-6.9c-4.7 5.1-10.6 8.3-20.5 8.3-15.8-.2-33.2-13.7-33.3-34.6zm54.8-.2c0-10.2-8.5-18.5-18.9-18.5-10.3 0-18.7 8.4-18.7 18.8 0 9.3 8.5 17.7 18.7 17.7 10.6-.1 18.9-8.5 18.9-18zM458.8 275v-7.7h-17.1v66.2h17.1v-35.7c0-10.7 5.2-16.4 14.5-16.4.7 0 1.2 0 1.7.1l3.1-16c-8.8.2-15.2 3.2-19.3 9.5zM284.2 275v-7.7h-17.6l.1 66.2h17.6l-.1-35.7c0-10.7 5.4-16.4 14.8-16.4.7 0 1.2 0 1.8.1l3.2-16c-9.2.2-15.8 3.2-19.8 9.5zM196.7 307.8v-41.2h17.2v39.1c0 8.6 4.7 13.7 13 13.7 9.2 0 14.6-5.7 14.6-16.6v-36.2h17.2v67.3h-17.2V326c-4.1 6.4-10.6 9.4-19.7 9.4-15.6.2-25.1-11.1-25.1-27.6zM365.9 300.4c0-18.9 13.6-34.9 35-34.8 19.9 0 33.9 15.9 33.9 34.5 0 1.9-.1 3.9-.4 5.6l-51.4-.1c2 8.1 8.7 13.8 18.7 13.9 6.1 0 12.7-2.3 16.7-7.3l11.9 9.6c-6.1 8.6-17 13.7-28.4 13.7-20.3-.3-36-15.5-36-35.1zm51.5-6.9c-.9-6.8-8.1-12.1-16.4-12.1-8.1 0-14.7 4.8-17.2 12l33.6.1zM303.9 319.6l15.5-8.1c2.5 5.6 7.8 8.7 15 8.7 6.7 0 9.2-2.1 9.2-5 0-10.7-36.9-4.2-36.9-28.9 0-13.6 12-20.8 26.9-20.8 11.2 0 21.3 4.9 26.8 14.2l-15.4 8.1c-2.3-4.5-6.6-7-12-7s-7.9 1.9-7.9 4.9c0 10.5 36.9 3.8 36.9 28.9 0 13-10.7 20.9-28 20.9-14.7-.2-25-5-30.1-15.9zM50 300.1c0-19.2 15.8-34.5 35.6-34.5 12.7 0 23.8 6.3 30.1 15.7l-14.9 8.5c-3.5-4.7-8.9-7.9-15.3-7.9-10.2 0-18.4 8.4-18.4 18s8.4 18 18.4 18c6.6 0 12.5-3.4 15.7-8.5l14.7 8.7c-6.2 9.8-17.5 16.4-30.4 16.4-19.7.1-35.5-15.7-35.5-34.4z" class="st0"/></svg>