<svg xmlns="http://www.w3.org/2000/svg" xml:space="preserve" style="enable-background:new 0 0 45.01 55.3" viewBox="0 0 45.01 55.3"><path d="M20.56 44.93h2.86L45 4.07V0H6.53v24.47z" style="fill:#fff"/><path d="M8.4 22.5s2.4-3.3 5.5-3.4c4.9-.1 8.8 8.6 9.4 9.9C28.7 17 37.6 6.8 44.8 0H.5v49.7c0 2.7-.4 4.7-.6 5.5 2-.3 9.4-1.6 17-4.3 13.5-4.8 18.7-10 18.8-10l.3-.3.2.4s1.7 3.7 3.4 5.7c1.9 2.2 2.9 2.4 3.5 2.3.8-.2 1.3-1.5 1.5-3.5s.4-6.5.4-12V3.9c-13.1 16-22.7 40-22.7 40S16 22.4 8.4 22.5z" style="fill:#0e2947"/></svg>