<svg xmlns="http://www.w3.org/2000/svg" xmlns:xlink="http://www.w3.org/1999/xlink" data-name="Layer 1" viewBox="0 0 120 120"><defs><linearGradient id="b" x1="113.957" x2="113.957" y1="32.807" y2="42.245" gradientUnits="userSpaceOnUse"><stop offset="0" stop-opacity=".3"/><stop offset="1" stop-color="#fff" stop-opacity="0"/></linearGradient><linearGradient id="a" x1="113.958" x2="113.958" y1="62.639" y2="72.831" gradientUnits="userSpaceOnUse"><stop offset="0" stop-opacity=".2"/><stop offset="1" stop-color="#fff" stop-opacity="0"/></linearGradient><linearGradient xlink:href="#a" id="c" x1="113.957" x2="113.957" y1="92.875" y2="100.46"/><linearGradient xlink:href="#a" id="d" x1="107.918" x2="113.918" y1="60" y2="60"/></defs><path fill="#d8d6cc" fill-rule="evenodd" d="M94 120H26A25.948 25.948 0 0 1 0 94V26A25.948 25.948 0 0 1 26 0h68a25.948 25.948 0 0 1 26 26v68a25.948 25.948 0 0 1-26 26Z"/><path fill="#4cd964" fill-rule="evenodd" d="M119.998 92.875v1.12a25.914 25.914 0 0 1-8.08 18.869 25.27 25.27 0 0 1-4 3.12v-23.11Z"/><path fill="#ff9500" d="M107.914 62.873H120v30h-12.086z"/><path fill="#5ac8fa" d="M107.914 32.873H120v30h-12.086z"/><path fill="url(#b)" d="M107.914 32.873H120v10h-12.086z"/><path fill="url(#a)" d="M107.915 62.874h12.086v10h-12.086z"/><path fill="url(#c)" fill-rule="evenodd" d="M107.914 92.875v8h11.143A26.105 26.105 0 0 0 120 94v-1.125Z"/><path fill="#c4c2ba" fill-rule="evenodd" d="M120 26a25.916 25.916 0 0 0-12.086-21.959v28.832H120Z"/><path fill="#a9a29a" d="M56.184 99.998a37.52 37.52 0 1 0-37.48-37.52 37.657 37.657 0 0 0 37.48 37.52Zm0-24.975c-12.774 0-22.297 5.928-25.318 11.015a34.595 34.595 0 1 1 50.637.038c-3.021-5.125-12.506-11.053-25.319-11.053Zm0-6.616c7.343 0 12.966-6.235 12.966-14.38 0-7.65-5.737-14.075-12.966-14.075-7.19 0-12.965 6.425-12.927 14.074 0 8.146 5.622 14.342 12.927 14.38Z"/><path fill="url(#d)" fill-rule="evenodd" d="M107.918 115.956a25.986 25.986 0 0 0 6-5.227V9.271a25.987 25.987 0 0 0-6-5.227Z"/></svg>