<svg width="32" height="32" viewBox="0 0 32 32" fill="none" xmlns="http://www.w3.org/2000/svg">
<path d="M3.86136 27.7373L11.0082 31.8714C11.4131 32.1059 11.9215 32.0007 12.2201 31.6407C13.1196 30.5555 14.4778 29.8623 16.0005 29.8623C17.5242 29.8623 18.8832 30.5566 19.7833 31.6435C20.0817 32.0038 20.589 32.1092 20.9947 31.8751L28.1781 27.7263C28.6541 27.4512 28.7888 26.8329 28.4818 26.3778C28.1338 25.8624 27.7541 25.3689 27.3449 24.9003C26.2631 23.6606 24.9567 22.6351 23.5311 21.8104L22.5742 21.2566L22.5143 21.2252C22.458 21.1982 22.4018 21.1719 22.3447 21.1455C22.1993 21.0789 22.0364 21.0602 21.8796 21.0921C21.7228 21.124 21.5803 21.2049 21.4727 21.323C20.1182 22.8045 18.169 23.7357 16.0002 23.7357C13.8367 23.7357 11.8922 22.8095 10.5377 21.3345C10.4308 21.2175 10.2891 21.1376 10.1334 21.1065C9.97769 21.0754 9.81609 21.0948 9.67221 21.1618L9.66659 21.1643L8.54828 21.811C6.7509 22.8488 5.14726 24.2085 3.91816 25.8773C3.78966 26.0517 3.66509 26.2289 3.54418 26.4089C3.2433 26.8565 3.39402 27.4667 3.86136 27.7373Z" fill="#294DFF"/>
<path d="M5.02407 4.22811C4.83013 4.33897 4.68211 4.51507 4.60652 4.72487C4.53093 4.93467 4.53272 5.16445 4.61156 5.37305C5.10815 6.69857 5.02913 8.22572 4.26063 9.5448C3.49241 10.8628 2.19443 11.6866 0.793245 11.9132C0.572429 11.9478 0.371241 12.0599 0.225841 12.2292C0.0804413 12.3985 0.000363459 12.614 0 12.8369L0.000562386 21.0452C0.000562386 21.5833 0.453845 22.0183 0.992611 21.9838C3.10178 21.8492 5.15828 21.2697 7.02616 20.2836L7.90096 19.7845C8.139 19.6383 8.37268 19.4853 8.60169 19.3254C8.73284 19.2348 8.83177 19.105 8.88422 18.9548C8.93668 18.8045 8.93995 18.6415 8.89357 18.4892C8.31403 16.5931 8.49343 14.472 9.57124 12.6232C10.6541 10.7652 12.4251 9.55686 14.3757 9.12614C14.6887 9.05715 14.9291 8.79945 14.9592 8.48146C14.9952 8.10514 15.0174 7.7249 15.0244 7.34101L15.025 6.76167C14.9879 4.59712 14.4783 2.46662 13.5316 0.518482C13.2956 0.0336429 12.6899 -0.142458 12.2209 0.124778L5.02407 4.22811Z" fill="#1F95FF"/>
<path d="M27.7403 9.54522C26.9715 8.22615 26.8925 6.699 27.3894 5.37347C27.4682 5.16487 27.47 4.93509 27.3944 4.7253C27.3188 4.5155 27.1708 4.3394 26.9768 4.22853L19.7794 0.125204C19.3104 -0.142313 18.7044 0.0337886 18.4688 0.518909C17.5221 2.46727 17.0124 4.59792 16.9751 6.76265L16.9757 7.34087C16.983 7.7219 17.0048 8.10251 17.0412 8.48189C17.0715 8.79988 17.312 9.0573 17.6247 9.12656C19.5753 9.557 21.346 10.7656 22.4291 12.6236C23.5066 14.4727 23.6866 16.5935 23.1068 18.4897C23.0603 18.6419 23.0636 18.805 23.116 18.9553C23.1685 19.1057 23.2675 19.2355 23.3987 19.3261C23.628 19.4853 23.8616 19.6384 24.0991 19.7852L24.9745 20.284C26.8424 21.2702 28.899 21.8497 31.0083 21.9842C31.5468 22.0187 31.9998 21.5841 31.9998 21.0457L32.0001 12.837C31.9999 12.6142 31.9199 12.3987 31.7746 12.2294C31.6293 12.0601 31.4282 11.9482 31.2074 11.9136C29.8059 11.6868 28.5085 10.8629 27.7403 9.54522Z" fill="#5FBBFF"/>
</svg>
