<svg xmlns="http://www.w3.org/2000/svg" xml:space="preserve" style="enable-background:new 0 0 64 64" viewBox="0 0 64 64"><path d="M54 0H10C4.5 0 0 4.5 0 10v44c0 5.5 4.5 10 10 10h44c5.5 0 10-4.5 10-10V10c0-5.5-4.5-10-10-10z" style="fill-rule:evenodd;clip-rule:evenodd;fill:#55b76f"/><path d="M48.1 11.4v11.9c-1.9-1.5-4.3-2.4-7-2.4-3.7 0-7 1.8-9.1 4.6-1.4 1.9-2.2 4.2-2.2 6.6 0 3.9-3.1 7-7 7s-7-3.1-7-7V32c0-3.9 3.1-7 7-7 2.6 0 4.9 1.4 6.1 3.6.1-.5.5-1.5.9-2.4.4-.8.9-1.5 1.2-1.8-2.1-2.3-5.1-3.6-8.2-3.6-6.1 0-11.1 4.9-11.2 11v20.9h4.3V40.9c1.9 1.5 4.4 2.4 7 2.4 3.8 0 7.1-1.8 9.1-4.7 1.3-1.8 2.1-4.1 2.1-6.5v.1-.1c0-3.9 3.1-7 7-7s7 3.1 7 7v.1c0 3.8-3.1 7-7 7-2.6 0-4.9-1.4-6.1-3.6-.1.5-.5 1.5-1 2.5-.4.8-.9 1.4-1.2 1.8 2.1 2.3 5.1 3.6 8.2 3.6 6.1 0 11.1-4.9 11.2-11V11.4h-4.1z" style="fill:#fff"/></svg>