<svg width="32" height="32" viewBox="0 0 32 32" fill="none" xmlns="http://www.w3.org/2000/svg">
<path d="M32 6.07979C30.8199 6.6007 29.5575 6.95712 28.231 7.11248C29.5849 6.29912 30.6278 5.01054 31.1218 3.48436C29.8502 4.23374 28.4505 4.78207 26.9503 5.07452C25.7519 3.79508 24.0412 3 22.1567 3C18.5249 3 15.5883 5.94271 15.5883 9.56169C15.5883 10.0735 15.6432 10.5761 15.7622 11.0605C10.3007 10.7863 5.46141 8.17258 2.22299 4.20633C1.6558 5.17504 1.33562 6.29912 1.33562 7.50545C1.33562 9.78102 2.49743 11.7916 4.25386 12.9705C3.17439 12.9339 2.1681 12.6415 1.28073 12.148C1.28073 12.1754 1.28073 12.2028 1.28073 12.2302C1.28073 15.4105 3.54946 18.0608 6.55003 18.664C6.00114 18.8102 5.41567 18.8924 4.82104 18.8924C4.40023 18.8924 3.98857 18.8467 3.58605 18.7736C4.41853 21.3782 6.85192 23.2791 9.72441 23.3339C7.47399 25.0977 4.64723 26.1395 1.56432 26.1395C1.03373 26.1395 0.512293 26.1121 0 26.0482C2.90909 27.9125 6.35792 29 10.072 29C22.1567 29 28.7616 19.0021 28.7616 10.3293C28.7616 10.046 28.7524 9.76274 28.7433 9.47944C30.0057 8.54728 31.1218 7.39578 32 6.07979Z" fill="#55ACEE"/>
</svg>
