<svg xmlns="http://www.w3.org/2000/svg" width="16" height="16" viewBox="0 0 16 16"><path d="M8 12.126c-2.162 0-3.892-1.794-3.892-3.947 0-1.794 1.225-3.3 2.883-3.732v1.148c-1.08.36-1.8 1.435-1.8 2.583 0 1.578 1.224 2.87 2.81 2.87s2.883-1.292 2.883-2.87c0-1.15-.793-2.225-1.802-2.584V4.448c1.66.43 2.884 1.938 2.884 3.73 0 2.154-1.802 3.948-3.964 3.948zm-.577-8.97h1.154v5.526H7.423V3.157zM8 0C3.604 0 0 3.587 0 8.036 0 12.413 3.604 16 8 16c4.468 0 8-3.587 8-7.964C16 3.586 12.468 0 8 0z" fill="black"/></svg>
