<svg width="32" height="32" viewBox="0 0 32 32" fill="none" xmlns="http://www.w3.org/2000/svg">
<path d="M29.6371 0H2.36416C1.05856 0 0 1.02656 0 2.29248V29.7062C0 30.9734 1.05856 32 2.36416 32H29.6371C30.9427 32 32 30.9722 32 29.7062V2.29248C32 1.02656 30.9427 0 29.6371 0V0Z" fill="#6FDA44"/>
<path d="M23.1699 17.0451C21.9104 17.0451 20.7315 16.5114 19.6589 15.6422L19.92 14.416L19.9315 14.3712C20.1645 13.0656 20.9018 10.873 23.1699 10.873C24.8711 10.873 26.2547 12.2592 26.2547 13.9616C26.2496 15.6589 24.8659 17.0451 23.1699 17.0451ZM23.1699 7.74336C20.272 7.74336 18.0256 9.6288 17.113 12.729C15.7178 10.6336 14.6631 8.1184 14.0448 6H10.9268V14.1254C10.9268 15.7267 9.62243 17.0323 8.02243 17.0323C6.42243 17.0323 5.1194 15.7267 5.1194 14.1254V6H2.00004V14.1254C1.98852 17.4534 4.69443 20.185 8.01731 20.185C11.3402 20.185 14.0461 17.4534 14.0461 14.1254V12.7622C14.6528 14.0282 15.3952 15.3056 16.2976 16.4422L14.3866 25.4368H17.5802L18.9639 18.9126C20.1773 19.6909 21.5725 20.1786 23.1725 20.1786C26.5927 20.1786 29.3767 17.3728 29.3767 13.9488C29.3741 10.5312 26.5901 7.74336 23.1699 7.74336Z" fill="white"/>
</svg>
