<svg width="32" height="32" viewBox="0 0 32 32" fill="none" xmlns="http://www.w3.org/2000/svg">
<g clip-path="url(#clip0_2262_81)">
<path d="M6.08828e-06 6.00024C6.37797e-06 2.68653 2.6863 0.000245393 6.00001 0.000245682L25.9993 0.000247431C29.313 0.00024772 31.9993 2.6866 31.9994 6.00034C31.9995 12.6662 31.9998 19.332 31.9999 25.9978C32 29.3128 29.3118 31.9995 25.9969 32.0002C19.3285 32.0016 12.6601 32.0088 5.99174 32.0066C2.68126 32.0055 4.04956e-06 29.3204 4.33897e-06 26.0099C4.92207e-06 19.34 5.50518e-06 12.6701 6.08828e-06 6.00024Z" fill="url(#paint0_linear_2262_81)"/>
<path d="M24.8889 6.22223H7.11111C6.62044 6.22223 6.22222 6.62045 6.22222 7.11112V17.7778C6.22222 18.2685 6.62044 18.6667 7.11111 18.6667H24.8889C25.3796 18.6667 25.7778 18.2685 25.7778 17.7778V7.11112C25.7778 6.62045 25.3796 6.22223 24.8889 6.22223ZM24 9.77778L16 13.3333L8 9.77778V8.00001H24V9.77778Z" fill="white"/>
<path d="M4.76389 23.9549H6.10101L6.87974 25.9463L7.66856 23.9549H8.97037L7.01037 28.6698H5.70016L6.23669 27.4207L4.76389 23.9549Z" fill="white"/>
<path d="M10.3251 23.875C9.32042 23.875 8.68576 24.7759 8.68576 25.673C8.68576 26.6827 9.38208 27.4827 10.306 27.4827C10.9956 27.4827 11.2552 27.0628 11.2552 27.0628V27.3902H12.4213V23.9546H11.2552V24.2669C11.2552 24.2669 10.9653 23.875 10.3251 23.875ZM10.5734 24.9795C11.0371 24.9795 11.2759 25.3461 11.2759 25.6769C11.2759 26.0335 11.0197 26.3827 10.5734 26.3827C10.2034 26.3827 9.86928 26.0806 9.86928 25.692C9.86872 25.2979 10.1378 24.9795 10.5734 24.9795Z" fill="white"/>
<path d="M12.8229 27.3902V22.4375H14.0423V24.2786C14.0423 24.2786 14.3322 23.8755 14.9388 23.8755C15.6811 23.8755 16.1156 24.4283 16.1156 25.2188V27.3902H14.9051V25.516C14.9051 25.2486 14.7779 24.9901 14.4891 24.9901C14.1954 24.9901 14.0423 25.2525 14.0423 25.516V27.3902H12.8229Z" fill="white"/>
<path d="M18.1949 23.875C17.0445 23.875 16.3594 24.7496 16.3594 25.687C16.3594 26.7533 17.1886 27.4827 18.1988 27.4827C19.1783 27.4827 20.0349 26.787 20.0349 25.7049C20.0355 24.5214 19.1385 23.875 18.1949 23.875ZM18.2061 24.989C18.6126 24.989 18.8935 25.3276 18.8935 25.6881C18.8935 25.9959 18.6317 26.3755 18.2061 26.3755C17.8165 26.3755 17.5238 26.0626 17.5238 25.6847C17.5238 25.3209 17.7666 24.989 18.2061 24.989Z" fill="white"/>
<path d="M22.0682 23.875C20.9177 23.875 20.2326 24.7496 20.2326 25.687C20.2326 26.7533 21.0618 27.4827 22.0721 27.4827C23.0515 27.4827 23.9082 26.787 23.9082 25.7049C23.9088 24.5214 23.0117 23.875 22.0682 23.875ZM22.0794 24.989C22.4859 24.989 22.7667 25.3276 22.7667 25.6881C22.7667 25.9959 22.5049 26.3755 22.0794 26.3755C21.6897 26.3755 21.3971 26.0626 21.3971 25.6847C21.3965 25.3209 21.6398 24.989 22.0794 24.989Z" fill="white"/>
<path d="M24.8709 27.464C25.3183 27.464 25.681 27.1013 25.681 26.6539C25.681 26.2065 25.3183 25.8438 24.8709 25.8438C24.4235 25.8438 24.0608 26.2065 24.0608 26.6539C24.0608 27.1013 24.4235 27.464 24.8709 27.464Z" fill="white"/>
<path d="M25.9478 25.5462H24.4896L25.7835 22.4375H27.2362L25.9478 25.5462Z" fill="white"/>
</g>
<defs>
<linearGradient id="paint0_linear_2262_81" x1="16" y1="32" x2="16" y2="1.22316e-05" gradientUnits="userSpaceOnUse">
<stop stop-color="#6620E4"/>
<stop offset="1" stop-color="#744FFD"/>
</linearGradient>
<clipPath id="clip0_2262_81">
<rect width="32" height="32" fill="white"/>
</clipPath>
</defs>
</svg>
