<svg width="32" height="32" viewBox="0 0 32 32" fill="none" xmlns="http://www.w3.org/2000/svg">
<circle cx="16" cy="16" r="13" fill="white"/>
<path d="M14.1001 7.2C14.0001 7.1 13.9001 7 13.8001 7C13.7001 7 13.6501 7.05 13.5501 7.1C12.7001 7.75 11.5501 10.6 10.6001 14.35H11.4501C13.1001 14.35 14.8501 14.4 16.5501 14.4C16.1001 12.7 15.7001 11.2 15.3001 10.05C14.7001 8.3 14.3501 7.55 14.1001 7.2Z" fill="#00A7CF"/>
<path d="M16 0C7.15 0 0 7.15 0 16C0 24.85 7.15 32 16 32C24.85 32 32 24.85 32 16C32 7.15 24.85 0 16 0ZM27.5 16.3L27.45 16.35H27.4H27.35C27.25 16.4 27.1 16.45 26.95 16.45H19.4C19.45 16.7 19.55 17 19.6 17.3C20 19.1 21.1 23.85 22.3 23.85H22.35C23.25 23.85 23.75 22.55 24.75 19.65V19.6C24.9 19.15 25.1 18.6 25.3 18.05L25.35 17.9C25.4 17.7 25.6 17.6 25.8 17.65C26 17.7 26.1 17.9 26.05 18.1L26 18.3C25.9 18.65 25.8 19.1 25.65 19.65C25.05 22.2 24.1 26 21.75 26C20.2 26 19.3 23.55 18.9 22.5C18.15 20.55 17.6 18.45 17.1 16.45H10.1L8.65 21.1C8.45 21.45 8 21.55 7.65 21.35C7.45 21.2 7.3 21 7.3 20.75V20.7L7.4 20.2C7.6 19 7.85 17.75 8.1 16.5H5.15C4.6 16.4 4.2 15.95 4.2 15.4C4.2 14.85 4.6 14.4 5.1 14.3H5.45H5.6C6.55 14.3 7.5 14.35 8.6 14.35C10.15 8.1 11.9 4.95 13.9 4.9C16 4.9 17.6 9.75 18.85 14.45C21.45 14.5 24.2 14.6 26.85 14.75H26.95H27.1C27.55 14.85 27.85 15.3 27.75 15.75C27.75 16 27.65 16.15 27.5 16.3Z" fill="#00A7CF"/>
</svg>
