<svg width="32" height="32" fill="none" xmlns="http://www.w3.org/2000/svg"><g clip-path="url(#a)"><path d="M2.25 2.25C.066 4.431.001 7.903 0 14.72c6.108 0 9.922-2.622 13.267-4.923C15.88 8 18.207 6.4 21.12 6.4c4.335 0 8.12 3.065 10.126 4.69.283.229.53.43.74.589-.064-4.86-.405-7.599-2.235-9.43C27.5 0 23.88 0 16.64 0h-1.28C8.12 0 4.499 0 2.25 2.25Z" fill="#07F"/><path d="M0 14.72c6.108 0 9.922-2.622 13.267-4.923C15.88 8 18.207 6.4 21.12 6.4c4.334 0 8.12 3.065 10.126 4.69.283.229.53.43.74.589C32 12.79 32 14.012 32 15.36v1.28c0 7.24 0 10.861-2.25 13.111C27.6 31.901 24.2 31.996 17.58 32h-3.16C7.8 31.996 4.4 31.9 2.25 29.751 0 27.501 0 23.881 0 16.641V14.72Z" fill="#F45FFF"/><path d="M24.8 16.312c0-.79.65-1.432 1.44-1.432.791 0 1.44.641 1.44 1.432v5.776c0 .791-.649 1.432-1.44 1.432-.79 0-1.44-.64-1.44-1.432v-5.776ZM19.68 12.632c0-.79.65-1.432 1.44-1.432.791 0 1.44.641 1.44 1.432v13.136c0 .791-.649 1.432-1.44 1.432-.79 0-1.44-.64-1.44-1.432V12.632ZM14.56 16.312c0-.79.65-1.432 1.44-1.432.791 0 1.44.641 1.44 1.432v5.776c0 .79-.649 1.432-1.44 1.432-.79 0-1.44-.641-1.44-1.432v-5.776ZM9.44 18.392c0-.791.649-1.432 1.44-1.432.79 0 1.44.641 1.44 1.432v1.616c0 .79-.65 1.432-1.44 1.432-.792 0-1.44-.641-1.44-1.432v-1.616ZM4.32 18.392c0-.791.648-1.432 1.44-1.432.79 0 1.44.641 1.44 1.432v1.616c0 .79-.65 1.432-1.44 1.432-.792 0-1.44-.641-1.44-1.432v-1.616Z" fill="#fff"/></g><defs><clipPath id="a"><path fill="#fff" d="M0 0h32v32H0z"/></clipPath></defs></svg>
