<svg width="32" height="32" fill="none" xmlns="http://www.w3.org/2000/svg"><path d="M15.813 32c7.077 0 12.813-5.73 12.813-12.798S22.89 6.405 15.813 6.405C8.737 6.405 3 12.135 3 19.202 3 26.27 8.737 32 15.813 32Z" fill="#FC0"/><path fill-rule="evenodd" clip-rule="evenodd" d="M22.23 6.158V18.13l-.029.01v.015c0 1.17-.085 2.263-.244 2.82a6.392 6.392 0 0 1-6.163 4.626 6.363 6.363 0 0 1-6.369-6.39c0-3.533 2.831-6.389 6.37-6.389 1.667 0 3.185.636 4.325 1.679.372.34.704.724.988 1.144-.079-.376-.157-.848-.157-1.251V0l8.34 2.552v5.78l-7.062-2.174Z" fill="#F33"/></svg>
