<svg width="32" height="32" viewBox="0 0 32 32" fill="none" xmlns="http://www.w3.org/2000/svg">
<path d="M29.6364 13.8182C29.6364 6.18655 23.4498 0 15.8182 0C8.18655 0 2 6.18655 2 13.8182C2 21.0545 8.6 26.9091 15.8182 26.9091V32C24.2182 27.7455 29.6364 20.8909 29.6364 13.8182Z" fill="#00897B"/>
<path opacity="0.2" d="M15.8182 26.727C8.61818 26.727 2.05455 20.9089 2 13.7271V13.818C2 21.0543 8.6 26.9089 15.8182 26.9089V26.727Z" fill="#263238"/>
<path opacity="0.2" d="M15.8181 31.818V31.9998C24.2181 27.7452 29.6363 20.8907 29.6363 13.818V13.7271C29.5818 20.7634 24.1818 27.5816 15.8181 31.818Z" fill="#263238"/>
<path opacity="0.2" d="M15.8182 0.181818C23.4122 0.187091 29.5811 6.31527 29.6364 13.9091V13.8182C29.6364 6.18655 23.4498 0 15.8182 0C8.18655 0 2 6.18655 2 13.8182V13.9091C2.05527 6.31527 8.22418 0.187091 15.8182 0.181818Z" fill="white"/>
<g opacity="0.2">
<path opacity="0.2" d="M22.931 16.2472C21.961 16.1159 20.9753 15.9562 19.9528 15.7568C19.6566 15.6519 19.3268 15.7532 19.1404 16.0061L17.6697 17.477C15.4846 16.3306 13.6966 14.5513 12.5395 12.3721L14.0479 10.8635C14.2408 10.7144 14.3323 10.4688 14.2841 10.2299C14.0301 8.8937 13.8788 8.04679 13.7533 7.06988C13.7639 6.78879 13.5446 6.55243 13.2637 6.54188C13.2363 6.54079 13.2088 6.54207 13.1815 6.54552H9.51844C9.18516 6.55116 8.91553 6.81861 8.90698 7.15188C8.9208 8.95316 9.27026 10.7361 9.93735 12.4093C10.1792 13.0019 10.4604 13.5773 10.7795 14.1321C12.0148 16.2519 13.7815 18.013 15.9053 19.2413C18.0081 20.4497 20.3913 21.085 22.8166 21.0833C23.147 21.1044 23.4321 20.8539 23.4532 20.5233C23.4541 20.5093 23.4544 20.4952 23.4544 20.4812V16.7548C23.4546 16.5042 23.2988 16.297 22.931 16.2472Z" fill="#263238"/>
</g>
<path opacity="0.2" d="M22.8166 21.0834C20.3913 21.0851 18.0081 20.45 15.9053 19.2416C13.7815 18.0132 12.0148 16.2522 10.7795 14.1323C10.4604 13.5776 10.179 13.002 9.93735 12.4096C9.28935 10.7818 8.94153 9.05016 8.9108 7.29834C8.91007 7.31034 8.90698 7.32198 8.90698 7.33398C8.9208 9.13525 9.27026 10.9182 9.93735 12.5914C10.1792 13.184 10.4604 13.7596 10.7795 14.3142C12.0148 16.434 13.7815 18.1951 15.9053 19.4234C18.0081 20.6318 20.3913 21.2669 22.8166 21.2652C23.147 21.2863 23.4321 21.0358 23.4532 20.7052C23.4541 20.6912 23.4544 20.6771 23.4544 20.6631V20.4812C23.4566 20.8123 23.1899 21.0825 22.8588 21.0845C22.8448 21.0847 22.8306 21.0843 22.8166 21.0834Z" fill="#263238"/>
<path d="M13.6148 6.70361L11.7966 8.5218L12.9824 16.9943L23.0544 27.0371C25.0803 25.1638 26.7008 23.0962 27.8254 20.916L13.6148 6.70361Z" fill="url(#paint0_linear)"/>
<path d="M12.5392 12.3716L10.7795 14.1318C12.0148 16.2516 13.7815 18.0127 15.9054 19.241L17.6695 17.4767C15.4843 16.3305 13.6963 14.551 12.5392 12.3716Z" fill="#E0E0E0"/>
<path opacity="0.1" d="M12.6035 12.4897C12.5825 12.4506 12.5597 12.411 12.5394 12.3721L10.7795 14.1321C10.8012 14.1699 10.825 14.2083 10.8474 14.2461L12.6035 12.4897Z" fill="#191919"/>
<path opacity="0.4" d="M12.5393 12.5534C13.6757 14.6919 15.42 16.4459 17.5524 17.5939L17.6695 17.4769C15.4844 16.3305 13.6964 14.551 12.5393 12.3716C12.5393 12.3725 12.4702 12.4256 12.4702 12.4256C12.4702 12.4256 12.5393 12.5514 12.5393 12.5534Z" fill="white"/>
<path d="M22.931 16.2472C21.961 16.1159 20.9753 15.9563 19.9528 15.7568C19.6566 15.6519 19.3268 15.7532 19.1404 16.0061L15.9055 19.2413C18.0082 20.4497 20.3915 21.0848 22.8168 21.0832C23.1472 21.1043 23.4322 20.8537 23.4533 20.5232C23.4542 20.5092 23.4546 20.495 23.4546 20.481V16.7548C23.4546 16.5043 23.2988 16.297 22.931 16.2472Z" fill="#F5F5F5"/>
<path opacity="0.4" d="M22.931 16.2472C21.961 16.1159 20.9753 15.9563 19.9528 15.7568C19.6566 15.6519 19.3268 15.7532 19.1404 16.0061L15.9055 19.2413C15.9441 19.2637 15.9835 19.2844 16.0224 19.3063L19.1404 16.1879C19.3268 15.935 19.6566 15.8337 19.9528 15.9386C20.9753 16.1383 21.961 16.2977 22.931 16.429C23.2988 16.4788 23.4546 16.6861 23.4546 16.9366V16.7548C23.4546 16.5043 23.2988 16.297 22.931 16.2472Z" fill="white"/>
<path opacity="0.2" d="M12.5396 12.372C12.5599 12.4111 12.5826 12.4505 12.6037 12.4896L14.0479 11.0452C14.2281 10.9051 14.3203 10.6798 14.2899 10.4536C14.2599 10.6143 14.1743 10.7594 14.0479 10.8633L12.5396 12.372Z" fill="#263238"/>
<path d="M10.7797 14.1321L14.0479 10.8635C14.2408 10.7144 14.3323 10.4688 14.2841 10.2299C14.0301 8.8937 13.8788 8.04679 13.7533 7.06988C13.7639 6.78879 13.5446 6.55243 13.2637 6.54188C13.2363 6.54079 13.2088 6.54207 13.1815 6.54552H9.51844C9.18516 6.55116 8.91553 6.81861 8.90698 7.15188C8.9208 8.95316 9.27026 10.7361 9.93735 12.4093C10.1792 13.0019 10.4606 13.5775 10.7797 14.1321Z" fill="#F5F5F5"/>
<path opacity="0.4" d="M9.51844 6.72716H13.1813C13.4604 6.69243 13.7148 6.89043 13.7497 7.16952C13.7532 7.19679 13.7543 7.22425 13.7533 7.2517C13.8788 8.22843 14.0303 9.07534 14.2841 10.4117C14.2866 10.4255 14.2881 10.4397 14.2901 10.4537C14.301 10.3793 14.299 10.3035 14.2841 10.2299C14.0301 8.8937 13.8788 8.04679 13.7533 7.06988C13.7639 6.78879 13.5446 6.55243 13.2637 6.54188C13.2363 6.54079 13.2088 6.54207 13.1815 6.54552H9.51844C9.18516 6.55116 8.91553 6.81861 8.90698 7.15188C8.90698 7.1997 8.91026 7.24988 8.9108 7.29807C8.9368 6.97988 9.19953 6.73334 9.51844 6.72716Z" fill="white"/>
<path d="M29.6364 13.8182C29.6364 6.18655 23.4498 0 15.8182 0C8.18655 0 2 6.18655 2 13.8182C2 21.0545 8.6 26.9091 15.8182 26.9091V32C24.2182 27.7455 29.6364 20.8909 29.6364 13.8182Z" fill="url(#paint1_radial)"/>
<defs>
<linearGradient id="paint0_linear" x1="11.2678" y1="9.81815" x2="29.5877" y2="28.138" gradientUnits="userSpaceOnUse">
<stop stop-color="#263238" stop-opacity="0.2"/>
<stop offset="1" stop-color="#263238" stop-opacity="0.02"/>
</linearGradient>
<radialGradient id="paint1_radial" cx="0" cy="0" r="1" gradientUnits="userSpaceOnUse" gradientTransform="translate(6 4) scale(28.1323)">
<stop stop-color="white" stop-opacity="0.1"/>
<stop offset="1" stop-color="white" stop-opacity="0"/>
</radialGradient>
</defs>
</svg>
