<svg xmlns="http://www.w3.org/2000/svg" xml:space="preserve" id="Слой_1" x="0" y="0" style="enable-background:new 0 0 106 86" version="1.1" viewBox="0 0 106 86"><style>.st1{fill-rule:evenodd;clip-rule:evenodd;fill:url(#SVGID_00000015344685200738278200000013786263277938991540_)}.st2{fill:url(#SVGID_00000093884612651238290850000011637872612447344823_)}</style><linearGradient id="SVGID_1_" x1="106.183" x2="84.508" y1="-69.851" y2="145.307" gradientTransform="matrix(1 0 0 -1 0 88)" gradientUnits="userSpaceOnUse"><stop offset=".271" style="stop-color:#e3d9ff"/><stop offset="1" style="stop-color:#7341ff"/></linearGradient><path d="M83.5 16.2V86H95c6.1 0 11-5 11-11.1V2.5c0-2.1-2.4-3.2-4-1.9L83.5 16.2z" style="fill-rule:evenodd;clip-rule:evenodd;fill:url(#SVGID_1_)"/><linearGradient id="SVGID_00000142864295854523125650000011119052224834903169_" x1="50.06" x2="5.978" y1="-1.983" y2="172.096" gradientTransform="matrix(1 0 0 -1 0 88)" gradientUnits="userSpaceOnUse"><stop offset="0" style="stop-color:#e3d9ff"/><stop offset="1" style="stop-color:#7341ff"/></linearGradient><path d="m67.3 29.7-21.1 19c-3.6 3.2-9 3.3-12.7.2L0 20.7V2.5C0 .4 2.4-.7 4 .6l42 35.3c4.1 3.4 10 3.4 14 0l7.3-6.2z" style="fill-rule:evenodd;clip-rule:evenodd;fill:url(#SVGID_00000142864295854523125650000011119052224834903169_)"/><radialGradient id="SVGID_00000103235643495832088660000011232772621864714144_" cx="-51.579" cy="437.185" r="1" gradientTransform="matrix(123.614 0 0 -125.045 6481.466 54678.328)" gradientUnits="userSpaceOnUse"><stop offset=".556" style="stop-color:#6d4aff"/><stop offset=".994" style="stop-color:#aa8eff"/></radialGradient><path d="M83.5 16.2 67.3 29.7l-21.1 19c-3.6 3.2-9 3.3-12.7.2L0 20.7v54.2C0 81 4.9 86 11 86h72.5V16.2z" style="fill:url(#SVGID_00000103235643495832088660000011232772621864714144_)"/></svg>