<svg width="32" height="32" viewBox="0 0 32 32" fill="none" xmlns="http://www.w3.org/2000/svg">
<path fill-rule="evenodd" clip-rule="evenodd" d="M6.78788 20.8485C6.78788 22.7162 5.26158 24.2425 3.39394 24.2425C2.49452 24.2402 1.6326 23.8819 0.996607 23.2459C0.360619 22.6099 0.00230392 21.7479 0 20.8485C0 18.9809 1.5263 17.4546 3.39394 17.4546H6.78788V20.8485ZM7.75758 20.6837C7.75758 18.9062 9.28388 17.4546 11.1515 17.4546C13.0192 17.4546 14.5455 18.9062 14.5455 20.6837V28.771C14.5455 30.5484 13.0192 32 11.1515 32C9.28388 32 7.75758 30.5484 7.75758 28.771V20.6837Z" fill="#E01E5A"/>
<path fill-rule="evenodd" clip-rule="evenodd" d="M11.1515 6.78788C10.2521 6.78557 9.39017 6.42726 8.75418 5.79127C8.11819 5.15528 7.75988 4.29336 7.75758 3.39394C7.75758 1.5263 9.28388 0 11.1515 0C13.0192 0 14.5455 1.5263 14.5455 3.39394V6.78788H11.1515ZM11.3164 7.75758C13.0938 7.75758 14.5455 9.28388 14.5455 11.1515C14.5455 13.0192 13.0938 14.5455 11.3164 14.5455H3.22909C1.45164 14.5455 0 13.0192 0 11.1515C0 9.28388 1.45164 7.75758 3.22909 7.75758H11.3164Z" fill="#36C5F0"/>
<path fill-rule="evenodd" clip-rule="evenodd" d="M25.2121 11.1515C25.2121 9.28388 26.7384 7.75758 28.606 7.75758C30.4737 7.75758 32 9.28388 32 11.1515C32 13.0192 30.4737 14.5455 28.606 14.5455H25.2121V11.1515ZM24.2424 11.3164C24.2424 13.0938 22.7161 14.5455 20.8485 14.5455C18.9808 14.5455 17.4545 13.0938 17.4545 11.3164V3.22909C17.4545 1.45164 18.9808 0 20.8485 0C22.7161 0 24.2424 1.45164 24.2424 3.22909V11.3164Z" fill="#2EB67D"/>
<path fill-rule="evenodd" clip-rule="evenodd" d="M20.8485 25.2122C22.7161 25.2122 24.2424 26.7385 24.2424 28.6061C24.2424 30.4737 22.7161 32 20.8485 32C19.949 31.9977 19.0871 31.6394 18.4511 31.0034C17.8151 30.3674 17.4568 29.5055 17.4545 28.6061V25.2122H20.8485ZM20.6836 24.2425C18.9062 24.2425 17.4545 22.7162 17.4545 20.8485C17.4545 18.9809 18.9062 17.4546 20.6836 17.4546H28.7709C30.5483 17.4546 32 18.9809 32 20.8485C32 22.7162 30.5483 24.2425 28.7709 24.2425H20.6836Z" fill="#ECB22E"/>
</svg>
