<svg xmlns="http://www.w3.org/2000/svg" xmlns:xlink="http://www.w3.org/1999/xlink" width="32px" height="32px" viewBox="0 0 32 32">
<defs>
<linearGradient id="linear0" gradientUnits="userSpaceOnUse" x1="0.980309" y1="0.001606" x2="0.588877" y2="0.407655" gradientTransform="matrix(16.703125,0,0,16.605469,7.609375,7.65625)">
<stop offset="0.18" style="stop-color:rgb(0%,32.156863%,80%);stop-opacity:1;"/>
<stop offset="1" style="stop-color:rgb(14.901961%,51.764706%,100%);stop-opacity:1;"/>
</linearGradient>
<linearGradient id="linear1" gradientUnits="userSpaceOnUse" x1="1.006652" y1="0.00455032" x2="0.554018" y2="0.44727" gradientTransform="matrix(16.703125,0,0,16.601562,0,15.3125)">
<stop offset="0.18" style="stop-color:rgb(0%,32.156863%,80%);stop-opacity:1;"/>
<stop offset="1" style="stop-color:rgb(14.901961%,51.764706%,100%);stop-opacity:1;"/>
</linearGradient>
</defs>
<g id="surface1">
<path style=" stroke:none;fill-rule:nonzero;fill:rgb(14.901961%,51.764706%,100%);fill-opacity:1;" d="M 30.582031 0 L 15.214844 0 C 15.214844 1.839844 15.945312 3.605469 17.246094 4.90625 C 18.546875 6.207031 20.3125 6.9375 22.152344 6.9375 L 24.980469 6.9375 L 24.980469 9.671875 C 24.984375 13.5 28.085938 16.601562 31.914062 16.605469 L 31.914062 1.332031 C 31.914062 0.597656 31.320312 0 30.582031 0 Z M 30.582031 0 "/>
<path style=" stroke:none;fill-rule:nonzero;fill:url(#linear0);" d="M 22.976562 7.65625 L 7.609375 7.65625 C 7.613281 11.484375 10.714844 14.589844 14.542969 14.589844 L 17.375 14.589844 L 17.375 17.332031 C 17.378906 21.160156 20.484375 24.261719 24.3125 24.261719 L 24.3125 8.992188 C 24.3125 8.253906 23.714844 7.65625 22.976562 7.65625 Z M 22.976562 7.65625 "/>
<path style=" stroke:none;fill-rule:nonzero;fill:url(#linear1);" d="M 15.367188 15.3125 L 0 15.3125 C 0 19.144531 3.105469 22.25 6.9375 22.25 L 9.777344 22.25 L 9.777344 24.980469 C 9.78125 28.808594 12.878906 31.910156 16.703125 31.914062 L 16.703125 16.644531 C 16.703125 15.90625 16.105469 15.3125 15.367188 15.3125 Z M 15.367188 15.3125 "/>
</g>
</svg>
