<svg width="32" height="32" viewBox="0 0 32 32" fill="none" xmlns="http://www.w3.org/2000/svg">
<path d="M15.1549 0.0591188C19.2824 -0.279695 22.2467 0.812524 25.4363 3.99077C28.8799 7.42214 31.1693 11.8689 31.7863 16.6056C32.4727 21.8732 31.5285 25.8041 28.6204 28.682C25.8397 31.4339 21.778 32.3416 16.3522 31.8893L16.1276 31.8697C11.5073 31.4461 8.23928 29.9358 5.07288 26.7384C1.69069 23.3232 -0.0915463 19.4456 0.00362275 15.3756C0.0501711 13.3832 0.616261 11.685 1.70799 10.0189C2.42372 8.92655 3.15059 8.07445 4.67101 6.51176L5.17844 5.99354L5.73778 5.42828C9.34113 1.81703 11.7134 0.341633 15.1549 0.0591188ZM25.191 4.23545C22.0733 1.1288 19.209 0.0734318 15.1834 0.403882C11.7909 0.682373 9.46106 2.16008 5.81486 5.84217L5.55108 6.109C3.77458 7.90963 2.94206 8.83026 2.20871 9.89497L2.102 10.0519L1.99846 10.2081C0.940876 11.8221 0.395469 13.4582 0.350486 15.3837C0.257677 19.3527 1.99974 23.1429 5.31977 26.4954C8.47813 29.6846 11.7228 31.1565 16.3811 31.5446L16.6122 31.5631C21.8303 31.9632 25.7206 31.0643 28.376 28.4365C31.1973 25.6445 32.1159 21.8201 31.4422 16.6502C30.8354 11.9913 28.5818 7.61419 25.191 4.23545Z" fill="#262627"/>
<path d="M9.2838 2.58919L12 1L15.0338 0.249268H17.9995L21.3713 1.0714L24.4249 3.09512L27.5 6.5L29.5 10L30.5 12L31 14L32 19.5L31.5 22.5L30.5 26L29 28L27.5 29.5L25.5 30.5L24 31L21.1638 31.8066H17L12.5 31L10 30L9 29.5L7.5 28.5L4.5 26L2.5 23.5L0.758946 19.7908L0.25 16.8184V14.2256L1.07704 11.6327L2.28579 9.60895L4 7.5L5.65755 5.94097L7.5 4L9.2838 2.58919Z" fill="#262627"/>
<path d="M20.4981 11.9582V10.2683H11.5056V11.9582H15.1053V21.6435H16.8984V11.9582H20.4981Z" fill="white"/>
</svg>
