<svg width="32" height="32" viewBox="0 0 32 32" fill="none" xmlns="http://www.w3.org/2000/svg">
<g clip-path="url(#clip0)">
<path d="M19.9249 22.9285C17.9083 24.7837 14.8886 24.8941 12.7126 22.9612C12.5655 23.0756 12.4102 23.186 12.2652 23.3086C11.642 23.8296 11.0188 24.3567 10.3977 24.8797C10.0606 25.1617 9.73368 25.4559 9.38431 25.7215C8.62834 26.2977 7.67827 25.9156 7.3575 25.3313C7.25125 25.1392 7.20222 24.9124 7.15114 24.6959C6.79359 23.1819 6.41765 21.672 6.09483 20.1519C5.79653 18.7442 6.20924 17.5203 7.23082 16.5192C7.61493 16.1432 8.06443 15.8306 8.48736 15.4935C8.78362 15.2585 9.08396 15.0317 9.38635 14.8029C9.47625 14.7355 9.48033 14.6456 9.47625 14.5475C9.46603 14.1634 9.44764 13.7793 9.45173 13.3931C9.46807 11.873 9.72756 10.3938 10.1791 8.94519C10.8983 6.63846 12.0179 4.54219 13.4951 2.63593C14.0121 1.96986 14.5474 1.32013 15.1971 0.780741C15.5199 0.509002 15.8754 0.278125 16.2146 0.0268173C16.2759 -0.0181321 16.3249 -0.00995947 16.3882 0.0268173C17.1646 0.492657 17.8225 1.09539 18.411 1.7778C19.5817 3.1365 20.5665 4.61779 21.3511 6.23188C22.0396 7.64983 22.5565 9.12703 22.863 10.6737C23.1123 11.9343 23.2165 13.2092 23.1347 14.4924C23.1245 14.6497 23.1715 14.7355 23.29 14.8274C23.9459 15.3382 24.614 15.8347 25.2412 16.3761C26.4079 17.3814 26.8574 18.6645 26.5713 20.1805C26.3486 21.3676 26.0871 22.5465 25.8399 23.7295C25.7561 24.136 25.656 24.5406 25.5804 24.9472C25.4762 25.4988 25.137 25.8216 24.6181 25.9749C24.1461 26.1138 23.715 26.028 23.3268 25.7072C22.2255 24.8001 21.1202 23.9011 20.0148 22.998C19.9862 22.9776 19.9576 22.9551 19.9249 22.9285ZM16.1962 13.105C17.1033 13.0928 17.798 12.8333 18.3864 12.2776C19.3855 11.3357 19.5224 9.72771 18.6766 8.6428C17.7326 7.42917 16.0205 7.12269 14.7129 7.93178C13.4951 8.68366 13.017 10.1588 13.6198 11.4276C14.1489 12.5493 15.0847 13.0642 16.1962 13.105Z" fill="#764ABB"/>
<path d="M14.3368 29.066C14.0855 29.305 13.8444 29.5318 13.6074 29.7606C13.4481 29.9139 13.2744 30.0262 13.0374 30.0079C12.6512 29.9772 12.3856 29.6953 12.3856 29.3111C12.3856 28.3366 12.3958 27.364 12.3795 26.3894C12.3713 25.9379 12.9168 25.5681 13.3684 25.7908C14.0079 26.1095 14.6821 26.3138 15.3891 26.4099C16.474 26.557 17.5364 26.4487 18.5662 26.0748C18.7929 25.9931 19.0116 25.8909 19.2302 25.7887C19.649 25.5946 20.2456 25.8929 20.217 26.3976C20.2068 26.5917 20.2191 26.7858 20.2191 26.9799C20.2191 27.7706 20.217 28.5593 20.2191 29.35C20.2191 29.6319 20.0781 29.8199 19.8329 29.9343C19.5816 30.0508 19.3303 30.0508 19.1158 29.8607C18.8522 29.6299 18.6029 29.3827 18.3475 29.1436C18.323 29.1211 18.2985 29.0987 18.2638 29.066C18.2147 29.1579 18.1677 29.2396 18.1248 29.3234C17.7182 30.1018 17.3096 30.8782 16.903 31.6567C16.7743 31.8998 16.5598 31.9979 16.2962 31.9958C16.0367 31.9938 15.8304 31.8916 15.7037 31.6506C15.2746 30.8333 14.8456 30.0181 14.4165 29.2029C14.3899 29.1579 14.3675 29.1191 14.3368 29.066Z" fill="#764ABB"/>
<path d="M16.1963 13.1052C15.0848 13.0643 14.149 12.5495 13.6198 11.4298C13.0191 10.161 13.4972 8.68587 14.7129 7.93399C16.0205 7.1249 17.7327 7.43137 18.6766 8.64501C19.5205 9.72992 19.3856 11.3379 18.3865 12.2798C17.7981 12.8335 17.1034 13.093 16.1963 13.1052ZM17.7123 10.3286C17.7082 10.2714 17.7061 10.2121 17.698 10.1549C17.5836 9.33968 16.7581 8.7962 15.9409 8.99643C15.1563 9.18849 14.6986 9.91789 14.8907 10.6698C15.0684 11.3685 15.8285 11.8262 16.562 11.675C17.2403 11.534 17.7082 10.9865 17.7123 10.3286Z" fill="#FEFEFE"/>
<path d="M17.7122 10.3284C17.7102 10.9863 17.2423 11.5339 16.5619 11.6748C15.8284 11.826 15.0684 11.3704 14.8906 10.6696C14.6986 9.91772 15.1562 9.18831 15.9408 8.99625C16.7601 8.79602 17.5835 9.3395 17.6979 10.1547C17.704 10.2119 17.7061 10.2712 17.7122 10.3284Z" fill="#764ABB"/>
</g>
<defs>
<clipPath id="clip0">
<rect width="32" height="32" fill="white"/>
</clipPath>
</defs>
</svg>
