<svg width="32" height="32" fill="none" xmlns="http://www.w3.org/2000/svg"><path d="M24.034 10.536v-3.81a2.898 2.898 0 001.207-1.077 2.975 2.975 0 00.454-1.568v-.088c0-1.62-1.29-2.934-2.88-2.934h-.086c-1.59 0-2.88 1.314-2.88 2.934v.088c.002.556.16 1.1.454 1.568.294.468.712.841 1.206 1.077v3.81a8.082 8.082 0 00-3.877 1.74L7.374 4.136c.073-.27.112-.546.116-.823a3.35 3.35 0 00-.544-1.839A3.26 3.26 0 005.492.254 3.19 3.19 0 003.617.062c-.63.127-1.208.44-1.663.903a3.326 3.326 0 00-.89 1.691 3.364 3.364 0 00.181 1.91c.245.605.66 1.123 1.193 1.487.534.364 1.16.558 1.803.56a3.165 3.165 0 001.598-.444l10.1 8.008a8.465 8.465 0 00.125 9.39l-3.072 3.13a2.597 2.597 0 00-.767-.127c-1.472.001-2.664 1.217-2.663 2.716 0 1.499 1.193 2.714 2.664 2.714s2.664-1.214 2.666-2.713a2.722 2.722 0 00-.126-.782l3.04-3.098a8.072 8.072 0 009.349.46c2.904-1.853 4.37-5.352 3.674-8.771-.696-3.419-3.407-6.036-6.795-6.56zm-1.26 12.533a4.134 4.134 0 01-1.643-.292c-.523-.208-1-.521-1.402-.92a4.289 4.289 0 01-.94-1.404 4.352 4.352 0 010-3.332 4.289 4.289 0 01.94-1.404c.402-.399.88-.712 1.402-.92a4.134 4.134 0 011.644-.292c2.262.08 4.056 1.972 4.057 4.279.001 2.306-1.79 4.2-4.053 4.283" fill="#FF7A59"/></svg>