<svg width="32" height="32" viewBox="0 0 32 32" fill="none" xmlns="http://www.w3.org/2000/svg">
<rect width="32" height="32" fill="white"/>
<path d="M0 32C0 21.3324 0 10.6676 0 0C10.6676 0 21.3324 0 32 0C32 10.6676 32 21.3324 32 32C21.3324 32 10.6676 32 0 32ZM11.603 14.6844C11.6003 14.6844 11.6003 14.6844 11.5976 14.6844C11.5976 16.2965 11.5976 17.9087 11.5976 19.5235C11.5976 19.7958 11.5949 19.7958 11.8726 19.7958C13.536 19.7958 15.1966 19.7958 16.86 19.7931C17.6768 19.7904 18.491 19.7257 19.2836 19.5208C19.634 19.4318 19.9818 19.3159 20.308 19.1596C20.7366 18.9547 21.1249 18.6716 21.4618 18.3346C21.7934 18.003 22.0765 17.631 22.2976 17.2104C22.5159 16.8007 22.6777 16.3666 22.7747 15.9191C22.8853 15.4258 22.9095 14.9163 22.8906 14.4067C22.8772 14.0131 22.8313 13.6276 22.7262 13.2529C22.6588 13.0157 22.5914 12.7784 22.4971 12.5547C22.3892 12.3013 22.2652 12.0532 22.1223 11.816C21.9147 11.4682 21.6586 11.1501 21.3378 10.9048C20.9847 10.6352 20.6288 10.3629 20.2056 10.1985C19.7877 10.0367 19.3887 9.82645 18.9358 9.77793C18.4586 9.72401 17.9842 9.61887 17.5097 9.61618C15.5956 9.5973 13.6816 9.60809 11.7675 9.6027C11.6327 9.6027 11.5922 9.64583 11.5922 9.78062C11.603 11.4143 11.603 13.0507 11.603 14.6844ZM11.6084 24.1604H11.6057C11.6057 24.8479 11.6084 25.5353 11.603 26.2227C11.603 26.3602 11.6489 26.4007 11.781 26.398C12.4145 26.3926 13.048 26.4007 13.6816 26.3926C14.032 26.3899 13.997 26.4384 13.9997 26.0691C14.0051 24.8748 14.0024 23.6805 13.9997 22.4836C13.9997 22.3434 13.9889 22.2059 13.9889 22.0657C13.9889 21.9552 13.935 21.9174 13.8298 21.9174C13.6088 21.9228 13.3904 21.9201 13.1693 21.9174C12.7191 21.9147 12.2716 21.9067 11.8214 21.9067C11.6138 21.9067 11.6084 21.9147 11.6084 22.1196C11.6057 22.8044 11.6084 23.481 11.6084 24.1604Z" fill="#05AB38"/>
<path d="M11.6028 14.6844C11.6028 13.048 11.6055 11.4143 11.6001 9.77791C11.6001 9.64312 11.6405 9.59729 11.7753 9.59998C13.6894 9.60268 15.6035 9.5919 17.5175 9.61346C17.9947 9.61886 18.4692 9.72399 18.9437 9.77522C19.3993 9.82644 19.7982 10.034 20.2134 10.1958C20.6367 10.3602 20.9925 10.6298 21.3457 10.9021C21.6665 11.1474 21.9226 11.4682 22.1302 11.8133C22.2704 12.0505 22.3971 12.2986 22.5049 12.552C22.5993 12.7784 22.6667 13.0157 22.734 13.2502C22.8419 13.6276 22.885 14.0131 22.8985 14.404C22.9147 14.9135 22.8904 15.4231 22.7826 15.9164C22.6828 16.3639 22.5238 16.7953 22.3054 17.2077C22.0816 17.6256 21.8013 18.0003 21.4697 18.3319C21.1327 18.6689 20.7445 18.952 20.3159 19.1568C19.9923 19.3132 19.6419 19.4291 19.2914 19.5181C18.4988 19.723 17.6847 19.7877 16.8678 19.7904C15.2045 19.7958 13.5438 19.7931 11.8805 19.7931C11.6028 19.7931 11.6055 19.7931 11.6055 19.5208C11.6055 17.9087 11.6055 16.2965 11.6055 14.6817C11.6001 14.6844 11.6001 14.6844 11.6028 14.6844ZM14.0048 14.6979C14.0048 15.6064 14.0048 16.5122 14.0048 17.4207C14.0048 17.6013 14.0291 17.6283 14.2151 17.6283C15.1667 17.6283 16.1211 17.631 17.0727 17.6229C17.6065 17.6175 18.1403 17.5852 18.6336 17.3506C18.8439 17.2509 19.0515 17.1511 19.2564 17.0406C19.7443 16.7737 20.0355 16.3478 20.208 15.8301C20.2781 15.6172 20.3752 15.4042 20.3886 15.1858C20.4291 14.555 20.4426 13.9269 20.1784 13.3203C19.96 12.8135 19.5907 12.4549 19.1297 12.2096C18.639 11.9481 18.0891 11.8052 17.5283 11.7971C16.4068 11.7782 15.2827 11.7944 14.1585 11.7917C14.0345 11.7917 13.9994 11.8403 13.9994 11.9616C14.0075 12.8755 14.0048 13.7867 14.0048 14.6979Z" fill="#FCFCFD"/>
<path d="M11.6085 24.1605C11.6085 23.4812 11.6058 22.8045 11.6085 22.1251C11.6085 21.9229 11.6139 21.9149 11.8215 21.9122C12.2717 21.9095 12.7192 21.9175 13.1695 21.9229C13.3905 21.9256 13.6089 21.9256 13.83 21.9229C13.9351 21.9202 13.989 21.9607 13.989 22.0712C13.989 22.2114 13.9998 22.3489 13.9998 22.4891C14.0025 23.6834 14.0052 24.8776 13.9998 26.0746C13.9971 26.4439 14.0322 26.3927 13.6817 26.3981C13.0481 26.4035 12.4146 26.3981 11.7811 26.4035C11.649 26.4035 11.6004 26.3658 11.6031 26.2283C11.6085 25.5408 11.6058 24.8534 11.6058 24.1659C11.6058 24.1605 11.6058 24.1605 11.6085 24.1605Z" fill="#FCFCFD"/>
<path d="M14.0051 14.6981C14.0051 13.7869 14.0078 12.873 14.0024 11.9618C14.0024 11.8405 14.0348 11.792 14.1615 11.792C15.2857 11.7947 16.4071 11.7785 17.5313 11.7974C18.092 11.8082 18.642 11.9483 19.1326 12.2098C19.5909 12.4552 19.9603 12.8137 20.1813 13.3205C20.4428 13.9271 20.4293 14.5553 20.3916 15.1861C20.3781 15.4045 20.2811 15.6174 20.211 15.8304C20.0384 16.3453 19.7446 16.7713 19.2593 17.0409C19.0572 17.1514 18.8469 17.2538 18.6366 17.3509C18.1406 17.5854 17.6095 17.6178 17.0757 17.6232C16.1241 17.6313 15.1697 17.6286 14.2181 17.6286C14.0321 17.6286 14.0078 17.5989 14.0078 17.421C14.0051 16.5152 14.0051 15.6067 14.0051 14.6981Z" fill="#05AB38"/>
</svg>
