<svg width="32" height="32" viewBox="0 0 32 32" fill="none" xmlns="http://www.w3.org/2000/svg">
<rect x="2" y="1" width="28" height="26" fill="black"/>
<path fill-rule="evenodd" clip-rule="evenodd" d="M15.9922 8.14826C16.3099 7.46025 16.8033 6.86607 17.4077 6.4125L17.7263 6.19368C18.156 5.92799 18.633 5.72428 19.1425 5.61492C19.4759 5.5367 19.8263 5.48983 20.1762 5.48983H20.2403H20.2728C21.5454 5.50577 22.7066 6.05297 23.5183 6.91325L24.0911 6.78775L24.1868 6.75661C24.9347 6.55372 25.6659 6.28741 26.3349 5.9433C26.0006 6.91325 25.3324 7.74176 24.4726 8.28979L24.441 8.30511H24.4726H24.5372C25.4438 8.30511 26.3028 8.03921 27.0351 7.57012C26.5733 8.24241 26.0482 8.83648 25.4598 9.3843C25.2209 9.61895 24.9667 9.83757 24.6958 10.0411L24.7114 10.6983C24.7114 17.5014 19.2857 23.0689 12.459 23.4294H11.011C8.79917 23.3194 6.7463 22.6628 4.96407 21.5828C7.38305 21.5828 9.62655 20.817 11.4566 19.5181C9.4837 19.3625 7.81263 18.112 7.09651 16.375L8.06716 16.4223L9.22896 16.3593C8.22653 16.078 7.35147 15.4991 6.69893 14.7328C6.0145 13.9199 5.58502 12.9036 5.50544 11.7929C6.04661 12.0275 6.58746 12.1993 7.16052 12.3403L7.58999 12.4338L7.25589 12.1521C6.57167 11.5111 6.06218 10.6826 5.80787 9.77508C5.75997 9.6502 5.74418 9.50939 5.71208 9.3843C5.64871 9.08685 5.61713 8.75847 5.61713 8.44571C5.61713 7.58564 5.83955 6.77192 6.22156 6.05297C6.57167 6.58466 6.96946 7.06958 7.41483 7.52305C8.09905 8.24241 8.89496 8.86804 9.76992 9.3843C9.89739 9.46231 10.0404 9.55626 10.1838 9.61895L10.9634 10.0097C12.3 10.5885 13.7801 10.9171 15.3393 10.9326H15.4667H15.6576H15.6736L15.594 10.4163L15.5782 10.0097L15.594 9.77508C15.594 9.6502 15.6096 9.50939 15.6255 9.3843C15.6576 9.10237 15.7374 8.82137 15.8323 8.55517L15.9922 8.14826ZM15.9922 32L20.2244 27.8385H27.5123C29.979 27.8385 32 25.853 32 23.4132V4.42636C32 2.00228 29.979 0 27.5123 0H4.48732C2.02076 0 0 2.00238 0 4.42636V23.4133C0 25.8531 2.02076 27.8386 4.48732 27.8386H11.775L15.9922 32Z" fill="#3BACE2"/>
</svg>
