<svg width="32" height="32" viewBox="0 0 32 32" fill="none" xmlns="http://www.w3.org/2000/svg">
<rect x="2" y="2" width="28" height="29" rx="3" fill="white"/>
<path fill-rule="evenodd" clip-rule="evenodd" d="M27.7857 3.26809H4.21429C3.40065 3.26809 2.74107 3.93871 2.74107 4.76596V28.7319C2.74107 29.5592 3.40065 30.2298 4.21429 30.2298H27.7857C28.5993 30.2298 29.2589 29.5592 29.2589 28.7319V4.76596C29.2589 3.93871 28.5993 3.26809 27.7857 3.26809ZM4.21429 1.49787C2.43908 1.49787 1 2.96104 1 4.76596V28.7319C1 30.5368 2.43909 32 4.21429 32H27.7857C29.5609 32 31 30.5368 31 28.7319V4.76596C31 2.96104 29.5609 1.49787 27.7857 1.49787H4.21429Z" fill="#666A73"/>
<path d="M8.23214 0.953191C8.23214 0.426758 8.65188 0 9.16964 0C9.68741 0 10.1071 0.426758 10.1071 0.953191V5.44681C10.1071 5.97324 9.68741 6.4 9.16964 6.4C8.65188 6.4 8.23214 5.97324 8.23214 5.44681V0.953191Z" fill="#666A73"/>
<path d="M21.7589 0.953191C21.7589 0.426758 22.1787 0 22.6964 0C23.2142 0 23.6339 0.426758 23.6339 0.953191V5.44681C23.6339 5.97324 23.2142 6.4 22.6964 6.4C22.1787 6.4 21.7589 5.97324 21.7589 5.44681V0.953191Z" fill="#666A73"/>
<path fill-rule="evenodd" clip-rule="evenodd" d="M20.1452 20.4255C20.0675 20.4255 19.9925 20.4528 19.9307 20.5006C19.1116 21.1343 18.0739 21.5149 16.9375 21.5149C14.251 21.5149 12.1161 19.3879 12.1161 16.817C12.1161 14.2462 14.251 12.1191 16.9375 12.1191C18.0963 12.1191 19.1525 12.5149 19.979 13.1713C20.0302 13.2119 20.0915 13.2374 20.1562 13.2429C20.3606 13.2602 20.5285 13.0814 20.502 12.8746L20.4983 12.846C20.4869 12.7571 20.4428 12.6757 20.3731 12.6209C19.4325 11.881 18.2378 11.4383 16.9375 11.4383C13.9049 11.4383 11.4464 13.8464 11.4464 16.817C11.4464 19.7876 13.9049 22.1957 16.9375 22.1957C18.2334 22.1957 19.4245 21.756 20.3637 21.0205C20.4424 20.9589 20.4866 20.8628 20.4866 20.7619C20.4866 20.5761 20.3385 20.4255 20.1558 20.4255H20.1452Z" fill="#666A73"/>
</svg>
