<svg width="32" height="32" viewBox="0 0 32 32" fill="none" xmlns="http://www.w3.org/2000/svg">
<rect width="32" height="32" rx="7" fill="white"/>
<path d="M25.4272 6.05732C22.7256 4.37222 19.1677 4.76949 15.9954 6.76454C12.8326 4.77094 9.27323 4.37222 6.5746 6.05732C2.3051 8.72539 1.78706 15.5967 5.41555 21.4044C8.09089 25.6877 12.2753 28.1964 16.0005 28.1498C19.725 28.1964 23.9094 25.6877 26.5848 21.4051C30.2118 15.596 29.6967 8.72612 25.4272 6.05732ZM7.38004 20.1798C6.63108 18.9929 6.06613 17.6993 5.7044 16.3433C5.38278 15.1665 5.25983 13.9444 5.3406 12.7271C5.50286 10.5829 6.37596 8.91093 7.80058 8.01963C9.22448 7.12906 11.1068 7.0774 13.1113 7.87193C13.4161 7.99489 13.7144 8.13241 14.0047 8.2852C12.8906 9.30017 11.922 10.4642 11.1264 11.7442C8.92253 15.2708 8.24951 19.1961 9.01857 22.324C8.406 21.6624 7.85788 20.9445 7.38004 20.1798ZM26.2995 16.3433C25.9375 17.6989 25.3728 18.9921 24.6246 20.1791C24.1468 20.9455 23.5977 21.6651 22.9846 22.3284C23.6729 19.5235 23.2051 16.0886 21.5193 12.8661C21.4925 12.8129 21.4549 12.7659 21.4088 12.7283C21.3627 12.6906 21.3092 12.663 21.2518 12.6474C21.1943 12.6317 21.1342 12.6283 21.0754 12.6374C21.0166 12.6465 20.9603 12.6679 20.9103 12.7002L15.6535 15.9853C15.6056 16.0151 15.5642 16.0541 15.5314 16.1C15.4986 16.1459 15.4752 16.1978 15.4625 16.2527C15.4498 16.3076 15.4481 16.3645 15.4574 16.4201C15.4667 16.4758 15.4868 16.529 15.5167 16.5768L16.2879 17.8101C16.3178 17.858 16.3568 17.8996 16.4027 17.9324C16.4487 17.9652 16.5006 17.9886 16.5557 18.0013C16.6107 18.014 16.6677 18.0158 16.7233 18.0064C16.779 17.9971 16.8323 17.9768 16.8802 17.9469L20.2875 15.8187C20.3973 16.149 20.5079 16.4742 20.5902 16.8104C20.9117 17.9869 21.0347 19.2092 20.9539 20.4265C20.7917 22.5729 19.9179 24.2441 18.4947 25.1347C17.7601 25.584 16.9183 25.8278 16.0573 25.8405H15.9481C15.0871 25.8281 14.2452 25.5843 13.5107 25.1347C12.0861 24.2441 11.2123 22.5729 11.0507 20.4258C10.9707 19.2092 11.0929 17.9869 11.4145 16.8104C12.1533 14.0888 13.6797 11.6462 15.8019 9.78913C16.7173 8.9849 17.7601 8.33847 18.8876 7.87629C20.887 7.08177 22.7729 7.13415 24.1975 8.024C25.6222 8.91456 26.4945 10.5866 26.6568 12.7315C26.7389 13.9469 26.6177 15.1674 26.2995 16.3433Z" fill="#1ADBDC"/>
</svg>
