<svg width="32" height="32" viewBox="0 0 32 32" fill="none" xmlns="http://www.w3.org/2000/svg">
<path fill-rule="evenodd" clip-rule="evenodd" d="M18.5115 3C18.4195 3 18.3307 3.03354 18.2616 3.0941L16.2501 4.51926C16.1068 4.64428 15.8931 4.64428 15.7501 4.51926L13.7386 3.0941C13.6694 3.03354 13.5807 3 13.4887 3H4.60367C4.49859 3 4.39742 3.04298 4.32563 3.11949C1.65657 5.95972 0.0167668 9.7745 0.000123933 13.9712C-0.0341407 22.6824 7.04102 29.8765 15.771 29.9984C24.7123 30.1231 32 22.9285 32 14.0357C32 9.81324 30.3569 5.97438 27.6742 3.11949C27.6025 3.04298 27.5016 3 27.3965 3H18.5115ZM26.495 14.2016C26.495 20.2077 21.4353 25.1071 15.3459 24.7862C9.91614 24.4999 5.74451 20.0067 5.55623 14.5847C5.45897 11.7865 6.37816 9.21338 8.07607 7.27507C8.20627 7.12628 8.1968 6.90193 8.05713 6.76224L4.91902 3.68977L15.5536 11.2902C15.8313 11.513 16.2268 11.513 16.5045 11.2902L27.1341 3.68977L23.939 6.76256C23.7999 6.90225 23.7893 7.1266 23.9193 7.27507C25.5417 9.12645 26.495 11.5486 26.495 14.2016Z" fill="#FF0B63"/>
</svg>
