<svg width="32" height="32" viewBox="0 0 32 32" fill="none" xmlns="http://www.w3.org/2000/svg">
<path d="M22.7368 32H2.52632C1.13276 31.9959 0.00408001 30.8672 0 29.4737V2.52631C0.00408001 1.13276 1.13276 0.00407735 2.52632 0H29.4737C30.8672 0.00407735 31.9959 1.13276 32 2.52631V22.7368L26.5263 26.5263L22.7368 32Z" fill="#F4B400"/>
<path d="M10.6441 7.26507C7.68268 10.2218 7.67884 15.0194 10.6356 17.9809C10.637 17.9823 10.6385 17.9838 10.6399 17.9852L12.2105 19.56V25.2631L18.9473 32H22.7368L31.9999 22.7368V17.9136L21.3599 7.27365C18.4032 4.3122 13.6056 4.30836 10.6441 7.26507Z" fill="url(#paint0_linear)"/>
<g opacity="0.2">
<path opacity="0.2" d="M22.7368 32V25.2631C22.7364 23.8683 23.8669 22.7372 25.2617 22.7368C25.2622 22.7368 25.2627 22.7368 25.2631 22.7368H32L22.7368 32Z" fill="#3E2723"/>
</g>
<path d="M22.7368 32V25.2631C22.7364 23.8683 23.8669 22.7372 25.2617 22.7368C25.2622 22.7368 25.2627 22.7368 25.2631 22.7368H32L22.7368 32Z" fill="#FADA80"/>
<path d="M25.2617 22.7368C23.8669 22.7372 22.7364 23.8683 22.7368 25.2631V25.4723C22.7372 24.0774 23.8683 22.947 25.2631 22.9473H31.7894L32 22.7368H25.2631C25.2627 22.7368 25.2622 22.7368 25.2617 22.7368Z" fill="white" fill-opacity="0.2"/>
<path opacity="0.1" d="M16.0012 5.05261C11.816 5.0521 8.42287 8.44451 8.42236 12.6298C8.42203 15.3377 9.86662 17.84 12.2118 19.1937V25.2632H13.896V26.9475H18.5275V25.2632H20.2116V18.9327C23.6918 16.6075 24.6282 11.9013 22.303 8.42105C20.8968 6.31621 18.5325 5.05246 16.0012 5.05261ZM18.5275 23.579H13.896V21.8948H18.5275V23.579ZM18.5275 17.9558V20.2106H13.896V18.1369C10.8541 16.9749 9.33025 13.5669 10.4923 10.525C11.6543 7.48317 15.0621 5.95925 18.1039 7.12127C21.1458 8.2833 22.6696 11.6912 21.5076 14.7331C20.966 16.1509 19.8986 17.3052 18.5275 17.9558Z" fill="#3E2723"/>
<path d="M16.0012 5.05261C11.816 5.0521 8.42287 8.44451 8.42236 12.6298C8.42203 15.3377 9.86662 17.84 12.2118 19.1937V25.2632H13.896V26.9475H18.5275V25.2632H20.2116V18.9327C23.6918 16.6075 24.6282 11.9013 22.303 8.42105C20.8968 6.31621 18.5325 5.05246 16.0012 5.05261ZM18.5275 23.579H13.896V21.8948H18.5275V23.579ZM18.5275 17.9558V20.2106H13.896V18.1369C10.8541 16.9749 9.33025 13.5669 10.4923 10.525C11.6543 7.48317 15.0621 5.95925 18.1039 7.12127C21.1458 8.2833 22.6696 11.6912 21.5076 14.7331C20.966 16.1509 19.8986 17.3052 18.5275 17.9558Z" fill="#F1F1F1"/>
<path d="M13.896 23.7891H18.5276V23.5786H13.896V23.7891ZM13.896 20.4207H18.5276V20.2102H13.896V20.4207ZM13.896 18.1366C11.6451 17.2728 10.1463 15.1263 10.1108 12.7156C10.1108 12.7577 10.1066 12.7998 10.1066 12.844C10.11 15.2861 11.6161 17.4741 13.896 18.3492V18.1366H13.896ZM18.5276 17.9555V18.166C20.5829 17.1891 21.8935 15.1176 21.896 12.8419C21.896 12.7998 21.8939 12.7598 21.8918 12.7177C21.8586 14.9616 20.5545 16.9921 18.5276 17.9555ZM16.0013 5.05261C11.8157 5.05295 8.42269 8.44589 8.42236 12.6314C8.42236 12.6609 8.42447 12.6904 8.42447 12.7219C8.49009 8.53745 11.9355 5.19845 16.1201 5.26407C20.213 5.32825 23.5151 8.63121 23.5782 12.724C23.5782 12.6925 23.5803 12.663 23.5803 12.6314C23.5799 8.44589 20.1869 5.05295 16.0013 5.05261Z" fill="white" fill-opacity="0.4"/>
<path d="M12.2107 19.1928C9.89451 17.8553 8.45506 15.3957 8.42337 12.7212C8.42337 12.7612 8.42127 12.8012 8.42127 12.8412C8.42025 15.5488 9.86513 18.0509 12.2107 19.4033V19.1928ZM13.8949 22.1044H18.5265V21.8939H13.8949V22.1044ZM16.0002 6.94649C19.2055 6.95003 21.8212 9.51253 21.8907 12.717C21.8907 12.6875 21.895 12.6602 21.895 12.6307C21.895 9.37513 19.2558 6.73596 16.0002 6.73596C12.7446 6.73596 10.1055 9.37513 10.1055 12.6307C10.1055 12.6581 10.1076 12.6854 10.1097 12.7128C10.181 9.50978 12.7964 6.94954 16.0002 6.94649ZM18.5265 25.4728H20.2107V25.2623H18.5265V25.4728ZM23.5771 12.7233C23.549 15.2217 22.2892 17.5451 20.2107 18.9318V19.1423C22.3167 17.7374 23.5808 15.3727 23.5792 12.8412C23.5792 12.8012 23.5771 12.7633 23.5771 12.7233ZM13.8949 25.2623H12.2107V25.4728H13.8949V25.2623ZM13.8949 27.157H18.5265V26.9465H13.8949V27.157Z" fill="#BF360C" fill-opacity="0.1"/>
<path d="M29.4737 0H2.52632C1.13276 0.00407735 0.00408001 1.13276 0 2.52631V2.73684C0.00408001 1.34329 1.13276 0.214605 2.52632 0.210527H29.4737C30.8672 0.214605 31.9959 1.34329 32 2.73684V2.52631C31.9959 1.13276 30.8672 0.00407735 29.4737 0Z" fill="white" fill-opacity="0.2"/>
<path d="M2.52632 31.7894C1.13276 31.7854 0.00408001 30.6567 0 29.2631V29.4737C0.00408001 30.8672 1.13276 31.9959 2.52632 32H22.7368L32 22.7368H31.7895L22.7368 31.7894H2.52632Z" fill="#BF360C" fill-opacity="0.1"/>
<path d="M22.7368 32H2.52632C1.13276 31.9959 0.00408001 30.8672 0 29.4737V2.52631C0.00408001 1.13276 1.13276 0.00407735 2.52632 0H29.4737C30.8672 0.00407735 31.9959 1.13276 32 2.52631V22.7368L22.7368 32Z" fill="url(#paint1_radial)"/>
<defs>
<linearGradient id="paint0_linear" x1="10.2269" y1="9.70968" x2="27.5349" y2="27.018" gradientUnits="userSpaceOnUse">
<stop stop-color="#BF360C" stop-opacity="0.1"/>
<stop offset="1" stop-color="#BF360C" stop-opacity="0.02"/>
</linearGradient>
<radialGradient id="paint1_radial" cx="0" cy="0" r="1" gradientUnits="userSpaceOnUse" gradientTransform="translate(0.965346 1.03016) scale(37.2839 37.2833)">
<stop stop-color="white" stop-opacity="0.1"/>
<stop offset="1" stop-color="white" stop-opacity="0"/>
</radialGradient>
</defs>
</svg>
