<svg width="32" height="32" viewBox="0 0 32 32" fill="none" xmlns="http://www.w3.org/2000/svg">
<path d="M10.6633 31.9987C13.6073 31.9987 15.9967 29.6093 15.9967 26.6653V21.332H10.6633C7.71933 21.332 5.33008 23.7213 5.33008 26.6653C5.33008 29.6093 7.71933 31.9987 10.6633 31.9987Z" fill="#0ACF83"/>
<path d="M5.33008 16.0013C5.33008 13.0573 7.71933 10.668 10.6633 10.668H15.9967V21.3347H10.6633C7.71933 21.3347 5.33008 18.9453 5.33008 16.0013Z" fill="#A259FF"/>
<path d="M5.33008 5.33338C5.33008 2.38938 7.71933 0 10.6633 0H15.9967V10.6666H10.6633C7.71933 10.6666 5.33008 8.27738 5.33008 5.33338Z" fill="#F24E1E"/>
<path d="M15.9961 0H21.3295C24.2735 0 26.6627 2.38938 26.6627 5.33338C26.6627 8.27738 24.2735 10.6666 21.3295 10.6666H15.9961V0Z" fill="#FF7262"/>
<path d="M26.6627 16.0013C26.6627 18.9453 24.2735 21.3347 21.3295 21.3347C18.3855 21.3347 15.9961 18.9453 15.9961 16.0013C15.9961 13.0573 18.3855 10.668 21.3295 10.668C24.2735 10.668 26.6627 13.0573 26.6627 16.0013Z" fill="#1ABCFE"/>
</svg>
