<svg xmlns="http://www.w3.org/2000/svg" xml:space="preserve" id="Слой_1" x="0" y="0" style="enable-background:new 0 0 201.75 201.22" version="1.1" viewBox="0 0 201.75 201.22"><style>.st3{fill-rule:evenodd;clip-rule:evenodd;fill:#fff}</style><g id="Tile"><g id="Scrapbox-Logo3"><g id="Scrapbox-nocircle"><circle id="circle" cx="100.87" cy="100.01" r="129.5" style="fill:none"/><g id="Rectangle" transform="translate(65 33)"><g id="Mask"><path id="path-1_00000182515663684232391100000003282384590598088861_" d="m30.07-28.29-53 26.9c-3.1 1.6-5.7 5.8-5.7 9.4v52.6c0 3.5 2.6 7.7 5.8 9.3l55.3 28.1c1.9 1 1.9 2.5 0 3.5l-55.3 28.1c-3.2 1.6-3.2 4.2 0 5.8l53 26.9c3.2 1.6 8.3 1.6 11.5 0l53-26.9c3.2-1.6 5.8-5.8 5.8-9.3v-52.6c0-3.5-2.6-7.7-5.8-9.3l-55.4-28.2c-1.9-1-1.9-2.5 0-3.5l55.3-28.1c3.2-1.6 3.2-4.2 0-5.8l-53-26.9c-3.1-1.6-8.3-1.6-11.5 0z" style="fill-rule:evenodd;clip-rule:evenodd;fill:#05ec40"/></g><defs><filter id="Adobe_OpacityMaskFilter" width="64" height="193" x="36.37" y="-29.49" filterUnits="userSpaceOnUse"><feColorMatrix values="1 0 0 0 0 0 1 0 0 0 0 0 1 0 0 0 0 0 1 0"/></filter></defs><mask id="mask-2_00000010286797136112896360000008698089552185130885_" width="64" height="193" x="36.37" y="-29.49" maskUnits="userSpaceOnUse"><g style="filter:url(#Adobe_OpacityMaskFilter)"><path id="path-1_00000109744531128055799690000008787485233819243176_" d="m30.07-28.29-53 26.9c-3.1 1.6-5.7 5.8-5.7 9.4v52.6c0 3.5 2.6 7.7 5.8 9.3l55.3 28.1c1.9 1 1.9 2.5 0 3.5l-55.3 28.1c-3.2 1.6-3.2 4.2 0 5.8l53 26.9c3.2 1.6 8.3 1.6 11.5 0l53-26.9c3.2-1.6 5.8-5.8 5.8-9.3v-52.6c0-3.5-2.6-7.7-5.8-9.3l-55.4-28.2c-1.9-1-1.9-2.5 0-3.5l55.3-28.1c3.2-1.6 3.2-4.2 0-5.8l-53-26.9c-3.1-1.6-8.3-1.6-11.5 0z" class="st3"/></g></mask><path d="M36.37-29.49h64v193h-64v-193z" style="mask:url(#mask-2_00000010286797136112896360000008698089552185130885_);fill-rule:evenodd;clip-rule:evenodd;fill:#00b52e"/><defs><filter id="Adobe_OpacityMaskFilter_00000128466395693482816690000016194953177866300037_" width="62.03" height="65" x="38.35" y="67.51" filterUnits="userSpaceOnUse"><feColorMatrix values="1 0 0 0 0 0 1 0 0 0 0 0 1 0 0 0 0 0 1 0"/></filter></defs><mask id="mask-2_00000057149260793839016910000015230268192479392419_" width="62.03" height="65" x="38.35" y="67.51" maskUnits="userSpaceOnUse"><g style="filter:url(#Adobe_OpacityMaskFilter_00000128466395693482816690000016194953177866300037_)"><path id="path-1_00000005982934863940912280000015115145109089283490_" d="m30.07-28.29-53 26.9c-3.1 1.6-5.7 5.8-5.7 9.4v52.6c0 3.5 2.6 7.7 5.8 9.3l55.3 28.1c1.9 1 1.9 2.5 0 3.5l-55.3 28.1c-3.2 1.6-3.2 4.2 0 5.8l53 26.9c3.2 1.6 8.3 1.6 11.5 0l53-26.9c3.2-1.6 5.8-5.8 5.8-9.3v-52.6c0-3.5-2.6-7.7-5.8-9.3l-55.4-28.2c-1.9-1-1.9-2.5 0-3.5l55.3-28.1c3.2-1.6 3.2-4.2 0-5.8l-53-26.9c-3.1-1.6-8.3-1.6-11.5 0z" class="st3"/></g></mask><path id="Mask-Copy" d="m100.37 132.51-60.6-30.8c-1.9-1-1.9-2.5 0-3.5l60.6-30.7v65z" style="mask:url(#mask-2_00000057149260793839016910000015230268192479392419_);fill-rule:evenodd;clip-rule:evenodd;fill:#004d3f"/><defs><filter id="Adobe_OpacityMaskFilter_00000116924694457220732120000001159956695547669417_" width="67.93" height="65" x="-34.63" y=".51" filterUnits="userSpaceOnUse"><feColorMatrix values="1 0 0 0 0 0 1 0 0 0 0 0 1 0 0 0 0 0 1 0"/></filter></defs><mask id="mask-2_00000106848278464601286810000007603306867141678238_" width="67.93" height="65" x="-34.63" y=".51" maskUnits="userSpaceOnUse"><g style="filter:url(#Adobe_OpacityMaskFilter_00000116924694457220732120000001159956695547669417_)"><path id="path-1_00000081618200933531303460000013775573334764461466_" d="m30.07-28.29-53 26.9c-3.1 1.6-5.7 5.8-5.7 9.4v52.6c0 3.5 2.6 7.7 5.8 9.3l55.3 28.1c1.9 1 1.9 2.5 0 3.5l-55.3 28.1c-3.2 1.6-3.2 4.2 0 5.8l53 26.9c3.2 1.6 8.3 1.6 11.5 0l53-26.9c3.2-1.6 5.8-5.8 5.8-9.3v-52.6c0-3.5-2.6-7.7-5.8-9.3l-55.4-28.2c-1.9-1-1.9-2.5 0-3.5l55.3-28.1c3.2-1.6 3.2-4.2 0-5.8l-53-26.9c-3.1-1.6-8.3-1.6-11.5 0z" class="st3"/></g></mask><path id="Mask_00000071542312713245948890000011603125032710933652_" d="m-28.63 65.51 60.5-30.8c1.9-1 1.9-2.5 0-3.5L-28.63.51s-6 22.5-6 33.6 6 31.4 6 31.4z" style="mask:url(#mask-2_00000106848278464601286810000007603306867141678238_);fill-rule:evenodd;clip-rule:evenodd;fill:#fcff19"/></g></g></g></g></svg>