<svg width="32" height="32" fill="none" xmlns="http://www.w3.org/2000/svg"><g clip-path="url(#a)"><rect width="32" height="32" rx="12" fill="#000"/><path fill-rule="evenodd" clip-rule="evenodd" d="M14.013 25.387c.065.314.098.471 0 .582-.1.11-.264.096-.592.067-1.838-.164-2.865-.5-3.67-.834a5.457 5.457 0 0 1-2.953-2.954c-.333-.803-.67-1.831-.834-3.67-.029-.328-.044-.492.067-.59.11-.099.268-.066.582 0a9.553 9.553 0 0 1 7.4 7.399Zm3.552.716c-.255.012-.383.018-.47-.054-.088-.073-.107-.206-.144-.471A12.411 12.411 0 0 0 6.422 15.049c-.265-.037-.398-.056-.47-.144-.073-.087-.067-.215-.055-.47.05-1.07.15-1.91.28-2.595.043-.225.065-.338.154-.406.089-.069.204-.06.435-.043 7.389.556 13.287 6.454 13.843 13.843.017.23.026.346-.043.435-.068.09-.18.11-.406.154-.685.13-1.526.23-2.595.28Zm6.624-2.261c-.291.318-.436.477-.613.424-.177-.053-.215-.288-.29-.758-1.223-7.583-7.21-13.57-14.794-14.793-.47-.076-.705-.114-.758-.29-.053-.178.106-.323.424-.614a5.456 5.456 0 0 1 1.594-1.013c1.12-.464 2.674-.936 6.248-.936 3.574 0 5.129.472 6.249.936a5.458 5.458 0 0 1 2.953 2.953c.464 1.12.936 2.675.936 6.249s-.472 5.129-.936 6.248a5.454 5.454 0 0 1-1.013 1.594ZM3 16c0-3.877.52-5.815 1.153-7.344a8.32 8.32 0 0 1 4.503-4.503C10.186 3.52 12.123 3 16 3c3.877 0 5.815.52 7.344 1.153a8.32 8.32 0 0 1 4.503 4.503C28.48 10.185 29 12.123 29 16c0 3.877-.52 5.815-1.153 7.344a8.32 8.32 0 0 1-4.503 4.503C21.815 28.48 19.877 29 16 29c-3.877 0-5.815-.52-7.344-1.153a8.32 8.32 0 0 1-4.503-4.503C3.52 21.815 3 19.877 3 16Z" fill="#fff"/></g><defs><clipPath id="a"><path fill="#fff" d="M0 0h32v32H0z"/></clipPath></defs></svg>
