<svg width="33" height="33" fill="none" xmlns="http://www.w3.org/2000/svg"><rect width="32.029" height="32.029" rx="7" fill="#273242"/><path d="M9.85 14.482c0 .347.037.629.103.835.075.206.168.431.3.675.046.075.065.15.065.215 0 .094-.056.188-.178.282l-.59.394a.45.45 0 01-.244.084c-.094 0-.188-.047-.282-.131a2.9 2.9 0 01-.337-.44 7.271 7.271 0 01-.29-.554c-.732.862-1.65 1.294-2.757 1.294-.788 0-1.416-.225-1.875-.675-.46-.45-.694-1.05-.694-1.8 0-.797.281-1.444.853-1.932.572-.487 1.331-.731 2.297-.731.319 0 .647.028.994.075s.703.122 1.078.206v-.684c0-.713-.15-1.21-.44-1.5-.3-.291-.807-.432-1.529-.432-.328 0-.666.038-1.012.122a7.468 7.468 0 00-1.013.319c-.15.066-.263.103-.328.122a.577.577 0 01-.15.028c-.131 0-.197-.094-.197-.29v-.46c0-.15.019-.263.066-.328a.702.702 0 01.262-.197c.328-.169.722-.31 1.181-.422.46-.122.947-.178 1.463-.178 1.116 0 1.931.253 2.456.76.516.506.779 1.274.779 2.306v3.037h.018zm-3.807 1.426c.31 0 .628-.057.966-.17a2.09 2.09 0 00.89-.6c.15-.177.263-.374.319-.6.056-.224.094-.496.094-.815v-.394a7.836 7.836 0 00-.863-.16c-.3-.037-.59-.055-.881-.055-.628 0-1.088.121-1.397.375-.31.253-.46.609-.46 1.078 0 .44.113.769.347.994.225.234.554.347.985.347zm7.529 1.012c-.17 0-.282-.028-.357-.094-.075-.056-.14-.187-.197-.365l-2.203-7.248a1.64 1.64 0 01-.084-.375c0-.15.075-.234.225-.234h.918c.179 0 .3.028.366.094.075.056.131.187.188.365l1.575 6.207 1.462-6.207c.047-.187.104-.31.179-.365.075-.057.206-.094.375-.094h.75c.178 0 .3.028.375.094.075.056.14.187.178.365l1.481 6.282 1.622-6.282c.056-.187.122-.31.188-.365.075-.057.197-.094.365-.094h.872c.15 0 .235.075.235.234 0 .047-.01.094-.02.15-.009.057-.027.132-.065.235l-2.26 7.247c-.055.188-.121.31-.196.366a.6.6 0 01-.356.094h-.807c-.178 0-.3-.029-.375-.094-.075-.066-.14-.188-.178-.375l-1.453-6.048-1.444 6.038c-.047.188-.103.31-.178.375-.075.066-.206.094-.375.094h-.806zm12.047.253c-.487 0-.975-.056-1.444-.168-.468-.113-.834-.235-1.078-.376-.15-.084-.253-.178-.29-.262a.662.662 0 01-.057-.263v-.478c0-.197.075-.29.216-.29.056 0 .112.009.169.028.056.018.14.056.234.093.319.141.666.254 1.031.329.376.075.741.112 1.116.112.59 0 1.05-.103 1.369-.31a1.01 1.01 0 00.487-.89.913.913 0 00-.253-.656c-.168-.178-.487-.338-.947-.488l-1.359-.422c-.684-.215-1.19-.534-1.5-.956a2.234 2.234 0 01-.469-1.36c0-.393.084-.74.253-1.04.169-.3.394-.563.675-.769.282-.216.6-.375.975-.488.375-.112.77-.159 1.182-.159.206 0 .422.01.628.038.216.028.412.065.61.103.187.047.365.094.534.15.168.056.3.112.393.169a.81.81 0 01.282.234.505.505 0 01.084.31v.44c0 .197-.075.3-.216.3-.075 0-.196-.037-.356-.113-.534-.243-1.134-.365-1.8-.365-.534 0-.956.084-1.247.262-.29.178-.44.45-.44.835 0 .262.093.487.28.665.188.179.535.357 1.032.516l1.331.422c.675.216 1.163.516 1.454.9.29.384.43.825.43 1.313 0 .403-.084.768-.243 1.087-.169.319-.394.6-.684.825-.291.235-.638.404-1.041.525a4.457 4.457 0 01-1.34.197z" fill="#fff"/><path fill-rule="evenodd" clip-rule="evenodd" d="M27.391 21.73c-3.084 2.278-7.566 3.488-11.42 3.488-5.4 0-10.266-1.997-13.94-5.317-.291-.262-.029-.618.318-.412 3.975 2.306 8.879 3.703 13.95 3.703 3.423 0 7.183-.712 10.642-2.175.516-.234.957.338.45.713z" fill="#F90"/><path fill-rule="evenodd" clip-rule="evenodd" d="M28.676 20.267c-.394-.506-2.606-.244-3.61-.122-.3.038-.346-.225-.075-.422 1.763-1.237 4.66-.88 4.998-.468.337.422-.094 3.319-1.744 4.706-.253.216-.497.103-.385-.178.375-.928 1.21-3.019.816-3.516z" fill="#F90"/></svg>