<svg width="32" height="32" viewBox="0 0 32 32" fill="none" xmlns="http://www.w3.org/2000/svg">
<path d="M20.3714 0L6.65714 0.0437757C5.32857 0.0437757 4 1.09439 4 2.45144V29.5486C4 30.9056 5.32857 32 6.65714 32H25.6771C27.0057 32 28 30.8969 28 29.5486V15.2077V7.74829L20.3714 0Z" fill="#2196F3"/>
<path d="M22.9599 15.1289H9.40845V16.8274H22.9599V15.1289Z" fill="white"/>
<path d="M22.9599 18.2368H9.40845V19.9353H22.9599V18.2368Z" fill="white"/>
<path d="M22.9599 21.2227H9.40845V22.9212H22.9599V21.2227Z" fill="white"/>
<path d="M16.797 24.252H9.40845V25.9504H16.797V24.252Z" fill="white"/>
<path d="M28.0003 8.01074H20.6117L28.0003 15.2075V8.01074Z" fill="#1975D1"/>
<path d="M20.3718 7.74805L20.6118 8.0107H28.0004V7.74805H20.3718Z" fill="#0054B9"/>
<path d="M28.0004 7.74829L20.3718 0V7.74829H28.0004Z" fill="#BBDEFB"/>
</svg>
