<svg width="32" height="32" fill="none" xmlns="http://www.w3.org/2000/svg"><g clip-path="url(#a)" fill-rule="evenodd" clip-rule="evenodd"><path d="M32 10.014V8.867c0-.318 0-.649-.013-.967-.012-.7-.063-1.412-.19-2.099a6.97 6.97 0 0 0-.662-1.998A6.79 6.79 0 0 0 29.902 2.1 6.564 6.564 0 0 0 28.2.865a6.952 6.952 0 0 0-1.996-.661c-.7-.128-1.399-.166-2.098-.191C23.787 0 23.456 0 23.139 0H8.874c-.318 0-.648 0-.966.013-.7.012-1.411.063-2.098.19-.7.128-1.36.331-1.996.662A6.28 6.28 0 0 0 2.11 2.1 6.77 6.77 0 0 0 .865 3.792a6.965 6.965 0 0 0-.662 1.997c-.127.7-.165 1.4-.19 2.1C0 8.207 0 8.538 0 8.856v14.276c0 .318 0 .648.013.967.012.7.063 1.412.19 2.099.128.7.331 1.361.662 1.998A6.786 6.786 0 0 0 2.098 29.9 6.562 6.562 0 0 0 3.8 31.135c.636.33 1.297.534 1.996.661.7.128 1.399.166 2.098.191.318.013.649.013.966.013h14.265c.318 0 .648 0 .966-.013a12.85 12.85 0 0 0 2.098-.19 6.95 6.95 0 0 0 1.996-.662A6.781 6.781 0 0 0 29.89 29.9a6.565 6.565 0 0 0 1.233-1.705 6.97 6.97 0 0 0 .66-1.998c.128-.7.166-1.4.192-2.1.012-.317.012-.648.012-.966v-1.146L32 10.013Z" fill="url(#b)"/><path d="M22.63 4.886c-.076.013-.763.127-.852.14l-9.51 1.921a1.3 1.3 0 0 0-.597.267c-.178.153-.28.37-.318.624-.012.05-.025.165-.025.318v11.91c0 .28-.026.546-.216.775-.191.23-.42.306-.7.357l-.623.127c-.788.152-1.296.267-1.754.445-.445.178-.776.395-1.043.662a2.5 2.5 0 0 0-.66 1.985c.063.598.33 1.158.788 1.59.305.28.699.496 1.157.598.47.102.978.064 1.716-.089a3.404 3.404 0 0 0 1.106-.407c.343-.204.648-.484.877-.814.229-.331.382-.7.47-1.095.09-.407.102-.776.102-1.183V12.698c0-.56.153-.7.598-.801 0 0 7.908-1.59 8.276-1.667.509-.102.763.05.763.585v7.049c0 .28 0 .56-.19.789-.191.229-.42.305-.7.356-.203.038-.42.09-.623.127-.788.153-1.297.268-1.754.446-.445.178-.776.394-1.043.661a2.568 2.568 0 0 0-.686 1.985c.063.598.343 1.158.813 1.59.306.28.7.497 1.157.586.47.102.98.064 1.717-.09.394-.075.762-.19 1.106-.406.343-.204.648-.484.877-.815.229-.33.381-.7.47-1.094.09-.407.09-.776.09-1.183V5.726c.012-.547-.28-.878-.789-.84Z" fill="#fff"/></g><defs><linearGradient id="b" x1="16" y1="31.891" x2="16" y2=".688" gradientUnits="userSpaceOnUse"><stop stop-color="#FA233B"/><stop offset="1" stop-color="#FB5C74"/></linearGradient><clipPath id="a"><path fill="#fff" d="M0 0h32v32H0z"/></clipPath></defs></svg>
