<svg xmlns="http://www.w3.org/2000/svg" xml:space="preserve" style="enable-background:new 0 0 481.01 481.01" viewBox="0 0 481.01 481.01"><style>.st1{fill:#fff}</style><circle id="Слой_2" cx="240.51" cy="240.51" r="240.51" style="fill:#bb494a"/><g id="Слой_1"><path d="M199.01 357.51 87.05 245.55c-3.91-3.91-3.91-10.24 0-14.14l40.64-40.64c3.91-3.91 10.24-3.91 14.14 0l111.96 111.96c3.91 3.91 3.91 10.24 0 14.14l-40.64 40.64c-3.91 3.91-10.24 3.91-14.14 0z" class="st1"/><path d="m158.31 302.78 184.43-184.43c3.91-3.91 10.24-3.91 14.14 0L397.52 159c3.91 3.91 3.91 10.24 0 14.14L213.09 357.57c-3.91 3.91-10.24 3.91-14.14 0l-40.64-40.64a10 10 0 0 1 0-14.15z" class="st1"/></g></svg>