<svg xmlns="http://www.w3.org/2000/svg" xml:space="preserve" style="enable-background:new 0 0 35.26 21" viewBox="0 0 35.26 21"><path d="M-61.67-178.15c0-2.58-1.59-4.46-4.63-4.46h-9.83v13.37h3.23v-4.56h3.82l3.74 4.56h3.64v-.29l-3.64-4.35c2.29-.46 3.67-2.13 3.67-4.27zm-4.99 1.65h-6.23v-3.33h6.23c1.15 0 1.89.61 1.89 1.67 0 1.08-.71 1.66-1.89 1.66zm53.77-6.11h-3.03v5.08h-8.13v-5.08h-3.27v13.38h3.27v-5.28h8.13v5.28h3.03v-13.38zm-71.87 0-3.6 11.25h-.2l-3.61-11.25h-5.75v13.38h3.08v-10.99h.18l3.6 10.99h4.96l3.61-10.99h.18v10.99h3.17v-13.38h-5.62zm-35.15 5.48c-1.14-.12-3.27-.32-4.4-.44-1.12-.12-1.77-.45-1.77-1.19 0-.71.69-1.31 3.46-1.31 2.46 0 4.72.53 6.69 1.48v-2.99c-1.97-.94-4.15-1.4-6.86-1.4-3.81 0-6.44 1.59-6.44 4.29 0 2.27 1.55 3.52 4.64 3.86 1.12.12 3.03.29 4.36.4 1.45.12 1.88.57 1.88 1.23 0 .91-1.02 1.47-3.6 1.47-2.62 0-5.28-.86-7.17-2.06v3.08c1.52 1.02 4.14 1.88 7.06 1.88 4.15 0 6.82-1.6 6.82-4.47.04-2.18-1.39-3.49-4.67-3.83zm6.82-5.48v13.38h12.47v-2.74h-9.39v-2.71h9.23v-2.71h-9.23v-2.49h9.39v-2.74h-12.47v.01zm79.1 5.48c-1.14-.12-3.27-.32-4.4-.44-1.12-.12-1.77-.45-1.77-1.19 0-.71.69-1.31 3.46-1.31 2.46 0 4.72.53 6.69 1.48v-2.99c-1.97-.94-4.15-1.4-6.86-1.4-3.81 0-6.44 1.59-6.44 4.29 0 2.27 1.55 3.52 4.64 3.86 1.12.12 3.03.29 4.36.4 1.46.12 1.88.57 1.88 1.23 0 .91-1.02 1.47-3.6 1.47-2.62 0-5.28-.86-7.17-2.06v3.08c1.52 1.02 4.14 1.88 7.06 1.88 4.15 0 6.82-1.6 6.82-4.47.03-2.18-1.4-3.49-4.67-3.83zm-14.75-5.48v6.85c0 2.59-1.57 4.02-3.94 4.02-2.38 0-3.94-1.4-3.94-4.06v-6.81h-3.21v6.51c0 4.85 3.03 7.26 7.21 7.26 4.01 0 7.11-2.3 7.11-7.1v-6.67h-3.23z" style="fill:#fff"/><path d="M30.45 10.37c0 .65-.33.75-1.15.75-.87 0-1.03-.15-1.12-.81-.18-1.67-1.31-3.1-3.22-3.26-.61-.05-.75-.28-.75-1.03 0-.7.11-1.03.65-1.03 3.3.01 5.59 2.67 5.59 5.38zm4.81 0C35.26 5.33 31.85 0 23.97 0H8.31C8 0 7.8.16 7.8.45c0 .16.12.3.23.38.57.45 1.41.95 2.52 1.51 1.09.54 1.93.9 2.78 1.24.36.14.49.3.49.5 0 .28-.2.45-.58.45H.8c-.37 0-.54.24-.54.48 0 .2.07.37.24.54 1.01 1.06 2.62 2.33 4.96 3.8 2.14 1.33 4.34 2.54 6.61 3.64.34.16.45.34.45.54-.01.23-.19.41-.58.41h-5.7c-.32 0-.5.17-.5.44 0 .15.12.33.28.48 1.3 1.18 3.37 2.46 6.14 3.64 3.68 1.56 7.42 2.5 11.63 2.5 7.97 0 11.47-5.96 11.47-10.63zm-10.4 7.44c-4.07 0-7.49-3.32-7.49-7.46 0-4.07 3.4-7.35 7.49-7.35 4.18 0 7.46 3.27 7.46 7.35-.02 4.14-3.29 7.46-7.46 7.46z" style="fill:#ff642d"/></svg>