<svg width="32" height="32" viewBox="0 0 32 32" fill="none" xmlns="http://www.w3.org/2000/svg">
<path d="M0 32C0 21.3333 0 10.6667 0 0C10.6667 0 21.3333 0 32 0C32 10.6667 32 21.3333 32 32C21.3333 32 10.6667 32 0 32ZM14.3644 10.0978C14.1796 9.95556 13.9947 9.81333 13.824 9.65689C12.0747 7.99289 10.3396 6.31467 8.576 4.65067C8.39111 4.48 8.10667 4.29511 7.86489 4.28089C6.86933 4.23822 5.87378 4.26667 4.83556 4.26667C4.92089 4.50844 4.97778 4.70756 5.04889 4.90667C5.90222 7.18222 6.75556 9.45778 7.59467 11.7333C7.68 11.9893 7.75111 12.288 7.70844 12.544C7.11111 15.744 6.48533 18.944 5.87378 22.144C5.51822 23.9929 5.17689 25.8418 4.80711 27.7333C5.77422 27.7333 6.67022 27.7049 7.56622 27.7476C8.04978 27.776 8.24889 27.6196 8.41956 27.1644C10.1404 22.6418 11.8898 18.1333 13.6249 13.6249C13.8667 12.9849 14.1227 12.3449 14.3787 11.7191C14.4213 11.7333 14.464 11.7476 14.5067 11.7618C13.5396 17.0667 12.5724 22.3716 11.6053 27.6907C12.8 27.6907 13.9093 27.6907 15.0044 27.6907C17.024 21.9733 19.0436 16.2987 21.0489 10.624C21.1058 10.6382 21.1769 10.6667 21.2338 10.6809C20.2809 16.3413 19.3422 22.016 18.3893 27.7333C19.3991 27.7333 20.3093 27.7049 21.2053 27.7476C21.6889 27.776 21.8453 27.5769 21.9876 27.1502C23.9929 20.9067 26.0267 14.6773 28.0604 8.448C28.2169 7.99289 28.1458 7.79378 27.7191 7.56622C26.0124 6.64178 24.3058 5.74578 22.6418 4.736C21.2764 3.91111 19.8827 4.45156 18.3751 4.23822C19.3849 5.80267 20.2809 7.19644 21.1769 8.60444C20.9067 8.576 20.7076 8.47644 20.5227 8.33422C18.8444 7.09689 17.1662 5.87378 15.488 4.63644C15.3031 4.49422 15.0898 4.29511 14.8907 4.28089C13.8382 4.25244 12.7716 4.26667 11.6196 4.26667C12.5867 6.25778 13.4969 8.14933 14.4071 10.0409C14.3929 10.0551 14.3787 10.0836 14.3644 10.0978Z" fill="#FDCF2F"/>
<path d="M14.4223 10.0409C13.4978 8.14939 12.5876 6.27206 11.6205 4.26673C12.7583 4.26673 13.8249 4.2525 14.9058 4.28095C15.1049 4.28095 15.3183 4.49428 15.5032 4.6365C17.1814 5.85961 18.8596 7.09695 20.5378 8.33428C20.7227 8.46228 20.9076 8.57606 21.192 8.6045C20.296 7.21073 19.4 5.80273 18.3903 4.23828C19.8978 4.43739 21.3058 3.91117 22.6569 4.73606C24.3209 5.73161 26.0276 6.64184 27.7343 7.56628C28.1467 7.79384 28.2178 7.99295 28.0756 8.44806C26.0276 14.6774 24.008 20.9209 22.0027 27.1503C21.8605 27.5769 21.704 27.7618 21.2205 27.7476C20.3245 27.7049 19.4285 27.7334 18.4045 27.7334C19.3574 22.0161 20.3103 16.3414 21.2489 10.6809C21.192 10.6667 21.1209 10.6383 21.064 10.6241C19.0587 16.2987 17.0392 21.9734 15.0196 27.6907C13.9245 27.6907 12.8294 27.6907 11.6205 27.6907C12.5876 22.3716 13.5547 17.0667 14.5218 11.7618C14.4792 11.7476 14.4365 11.7334 14.3938 11.7192C14.1378 12.3592 13.896 12.9849 13.64 13.6249C11.9049 18.1334 10.1556 22.6418 8.43471 27.1645C8.26404 27.6196 8.06493 27.7761 7.58138 27.7476C6.68538 27.7049 5.78938 27.7334 4.82227 27.7334C5.17782 25.8276 5.53338 23.9929 5.88893 22.1441C6.50049 18.9441 7.12627 15.7441 7.7236 12.5441C7.76627 12.2881 7.70938 11.9894 7.60982 11.7334C6.77071 9.45784 5.91738 7.18228 5.06404 4.90673C4.99293 4.70761 4.93604 4.5085 4.85071 4.26673C5.88893 4.26673 6.88449 4.23828 7.88004 4.28095C8.12182 4.29517 8.39204 4.46584 8.59115 4.65073C10.3405 6.31473 12.0898 7.99295 13.8392 9.65695C13.9956 9.81339 14.1805 9.95562 14.3654 10.0978C14.3938 10.1263 14.4365 10.1689 14.4649 10.1974C14.4507 10.1405 14.4365 10.0978 14.4223 10.0409Z" fill="#060138"/>
<path d="M14.4221 10.0391C14.4363 10.096 14.4506 10.1386 14.4648 10.1955C14.4363 10.1671 14.3937 10.1244 14.3652 10.096C14.3795 10.0817 14.3937 10.0533 14.4221 10.0391Z" fill="#FDCF2F"/>
</svg>
