<svg width="32" height="32" viewBox="0 0 32 32" fill="none" xmlns="http://www.w3.org/2000/svg">
<path d="M32 27.2C32 29.8511 29.851 32 27.2 32H4.8C2.14891 32 0 29.8511 0 27.2V4.8C0 2.14901 2.14901 0 4.8 0H27.2C29.851 0 32 2.14901 32 4.8V27.2Z" fill="#2DC100"/>
<path d="M21.4191 11.934C18.8364 12.0689 16.5905 12.8519 14.7672 14.6207C12.925 16.4078 12.084 18.5977 12.3139 21.3124C11.3044 21.1873 10.3849 21.0497 9.46021 20.9719C9.14085 20.945 8.76186 20.9832 8.49135 21.1358C7.59343 21.6425 6.73263 22.2145 5.71237 22.8523C5.89957 22.0056 6.02074 21.2641 6.23525 20.551C6.39301 20.0268 6.31994 19.7351 5.83706 19.3937C2.73669 17.2048 1.42981 13.929 2.40783 10.5564C3.31269 7.43641 5.53477 5.54425 8.55407 4.55791C12.6751 3.21177 17.3065 4.58489 19.8124 7.85679C20.7175 9.03865 21.2725 10.3652 21.4191 11.934ZM9.53252 10.8831C9.55631 10.2663 9.0218 9.71055 8.38693 9.69199C7.7369 9.67289 7.20229 10.1696 7.1833 10.8102C7.1641 11.4593 7.66063 11.9796 8.31535 11.9962C8.96442 12.0126 9.50852 11.5152 9.53252 10.8831ZM15.7342 9.69156C15.097 9.7033 14.5586 10.246 14.5699 10.8653C14.5815 11.5072 15.1097 12.0094 15.7649 12.0015C16.4219 11.9936 16.9202 11.4861 16.914 10.8307C16.9085 10.1872 16.3827 9.67972 15.7342 9.69156Z" fill="white"/>
<path d="M27.2219 28.0352C26.4041 27.671 25.6539 27.1247 24.8552 27.0413C24.0596 26.9582 23.2232 27.4172 22.3908 27.5023C19.8552 27.7617 17.5837 27.055 15.7106 25.3229C12.1483 22.0279 12.6573 16.9758 16.7788 14.2756C20.4418 11.8758 25.8138 12.6758 28.3964 16.0056C30.6502 18.9112 30.3853 22.7683 27.634 25.2093C26.8378 25.9157 26.5513 26.4971 27.0621 27.4284C27.1564 27.6003 27.1672 27.818 27.2219 28.0352ZM17.9128 19.022C18.4334 19.0225 18.8621 18.615 18.8818 18.1008C18.9026 17.5564 18.4648 17.0997 17.9196 17.0975C17.3799 17.095 16.9277 17.5581 16.9465 18.0944C16.9642 18.6068 17.3959 19.0213 17.9128 19.022ZM23.9139 17.0996C23.4087 17.0961 22.9795 17.5096 22.9589 18.02C22.937 18.5659 23.3612 19.0141 23.9014 19.0155C24.4239 19.0172 24.8367 18.6221 24.8556 18.1022C24.8759 17.5551 24.4515 17.1034 23.9139 17.0996Z" fill="white"/>
</svg>
