<svg width="32" height="32" fill="none" xmlns="http://www.w3.org/2000/svg"><g clip-path="url(#clip0)"><path d="M2.42 26.14l1.41 2.302c.294.485.715.866 1.21 1.143l5.04-8.239H0c0 .537.147 1.073.44 1.558l1.98 3.236z" fill="#0066DA"/><path d="M16 11.654l-5.04-8.239a3.242 3.242 0 00-1.21 1.143L.44 19.788A3.002 3.002 0 000 21.346h10.08L16 11.654z" fill="#00AC47"/><path d="M26.96 29.585a3.243 3.243 0 001.21-1.143l.586-.952 2.804-4.586c.293-.485.44-1.021.44-1.558H21.919l2.145 3.98 2.896 4.259z" fill="#EA4335"/><path d="M16 11.654l5.04-8.239A3.37 3.37 0 0019.39 3h-6.78c-.587 0-1.155.156-1.65.415L16 11.654z" fill="#00832D"/><path d="M21.92 21.346H10.08l-5.04 8.239A3.37 3.37 0 006.69 30h18.62a3.57 3.57 0 001.65-.415l-5.04-8.239z" fill="#2684FC"/><path d="M26.905 12.173L22.25 4.558a3.242 3.242 0 00-1.21-1.143L16 11.654l5.92 9.692h10.062c0-.536-.147-1.073-.44-1.558l-4.637-7.615z" fill="#FFBA00"/></g><defs><clipPath id="clip0"><path fill="#fff" transform="translate(0 3)" d="M0 0h32v27H0z"/></clipPath></defs></svg>