<svg width="32" height="32" viewBox="0 0 32 32" fill="none" xmlns="http://www.w3.org/2000/svg">
<rect x="3" y="2" width="26" height="28" fill="white"/>
<path d="M27.7075 17.6089C27.7075 17.8941 27.5954 18.1677 27.3958 18.3694C27.1962 18.5711 26.9255 18.6844 26.6432 18.6844C26.3609 18.6844 26.0902 18.5711 25.8906 18.3694C25.691 18.1677 25.5789 17.8941 25.5789 17.6089V8.00006C25.5789 7.7148 25.691 7.44122 25.8906 7.23951C26.0902 7.03784 26.3609 6.92449 26.6432 6.92449C26.9255 6.92449 27.1962 7.03784 27.3958 7.23951C27.5954 7.44122 27.7075 7.7148 27.7075 8.00006V17.6089ZM27.3381 24.2666C27.1974 24.4089 23.2391 27.7422 15.9824 27.7422C8.72567 27.7422 4.79388 24.4266 4.62673 24.2844C4.5214 24.1947 4.43468 24.0848 4.37146 23.9611C4.30824 23.8374 4.26981 23.7023 4.25838 23.5636C4.24691 23.4249 4.26272 23.2852 4.30479 23.1527C4.34686 23.0201 4.41441 22.8972 4.50358 22.7911C4.68728 22.5763 4.94759 22.4436 5.22768 22.4219C5.50782 22.4003 5.78502 22.4914 5.99893 22.6755C6.06048 22.72 9.59647 25.6178 15.9736 25.6178C22.3507 25.6178 25.9131 22.7022 25.9483 22.6755C26.1646 22.4931 26.4427 22.4032 26.7236 22.4247C27.0045 22.4463 27.2659 22.5777 27.4524 22.7911C27.6319 23.0027 27.7214 23.2773 27.7017 23.5552C27.6819 23.8332 27.5544 24.092 27.3469 24.2755L27.3381 24.2666ZM4.24849 8.00006C4.26442 7.71388 4.39177 7.44574 4.60274 7.25421C4.81371 7.06264 5.09114 6.96329 5.37438 6.97783C5.63697 6.99288 5.88475 7.1057 6.06994 7.29447C6.25507 7.48323 6.36452 7.73455 6.37713 8.00006V17.5911C6.37713 17.8764 6.26501 18.1499 6.06543 18.3516C5.8658 18.5534 5.59511 18.6667 5.31283 18.6667C5.03055 18.6667 4.75982 18.5534 4.56023 18.3516C4.36065 18.1499 4.24849 17.8764 4.24849 17.5911V8.00006ZM9.58772 5.86674C9.60361 5.58057 9.73096 5.31243 9.94193 5.12086C10.1529 4.92932 10.4303 4.82998 10.7136 4.84451C10.9762 4.85957 11.2239 4.97239 11.4091 5.16111C11.5943 5.34988 11.7037 5.60124 11.7163 5.86674V20.0889C11.7163 20.3741 11.6042 20.6477 11.4046 20.8494C11.205 21.0511 10.9343 21.1644 10.652 21.1644C10.3697 21.1644 10.099 21.0511 9.89942 20.8494C9.69983 20.6477 9.58772 20.3741 9.58772 20.0889V5.86674ZM14.9533 5.33341C14.9533 5.04816 15.0654 4.77458 15.265 4.57287C15.4646 4.37115 15.7353 4.25785 16.0176 4.25785C16.2999 4.25785 16.5706 4.37115 16.7702 4.57287C16.9698 4.77458 17.0819 5.04816 17.0819 5.33341V20.8C17.0819 21.0852 16.9698 21.3588 16.7702 21.5605C16.5706 21.7622 16.2999 21.8755 16.0176 21.8755C15.7353 21.8755 15.4646 21.7622 15.265 21.5605C15.0654 21.3588 14.9533 21.0852 14.9533 20.8V5.33341ZM20.2309 5.86674C20.2309 5.58149 20.343 5.30791 20.5426 5.10619C20.7422 4.90448 21.0129 4.79117 21.2952 4.79117C21.5775 4.79117 21.8482 4.90448 22.0478 5.10619C22.2474 5.30791 22.3595 5.58149 22.3595 5.86674V20.0889C22.3595 20.3741 22.2474 20.6477 22.0478 20.8494C21.8482 21.0511 21.5775 21.1644 21.2952 21.1644C21.0129 21.1644 20.7422 21.0511 20.5426 20.8494C20.343 20.6477 20.2309 20.3741 20.2309 20.0889V5.86674ZM27.9978 8.87495e-05H4.00223C3.47939 -0.00342317 2.96096 0.0973252 2.47668 0.296539C1.99245 0.495796 1.55182 0.789567 1.18005 1.16113C0.808283 1.53269 0.51269 1.97466 0.310214 2.46181C0.107739 2.94896 0.00232026 3.4717 0 4.00007V27.9999C0.00232026 28.5283 0.107739 29.051 0.310214 29.5382C0.51269 30.0253 0.808283 30.4674 1.18005 30.8389C1.55182 31.2104 1.99245 31.5042 2.47668 31.7035C2.96096 31.9027 3.47939 32.0034 4.00223 31.9999H27.9978C28.5199 32.0034 29.0376 31.903 29.5213 31.7043C30.005 31.5057 30.4452 31.2126 30.8168 30.842C31.1885 30.4714 31.4842 30.0305 31.6872 29.5443C31.8902 29.0582 31.9965 28.5365 32 28.0088V4.00007C31.9977 3.47245 31.8926 2.95045 31.6906 2.46387C31.4887 1.97734 31.1939 1.53572 30.8231 1.16429C30.4523 0.79286 30.0127 0.498868 29.5294 0.299128C29.0461 0.0993443 28.5287 -0.00223789 28.0066 8.87495e-05" fill="#286EFA"/>
</svg>
