<svg height="256pt" preserveAspectRatio="xMidYMid meet" viewBox="0 0 256 256" width="256pt" xmlns="http://www.w3.org/2000/svg"><g transform="matrix(.1 0 0 -.1 0 256)"><path d="m1109 2548c-332-42-647-228-854-503-87-117-184-315-211-432-63-282-53-528 31-763 134-371 433-664 800-783 157-51 232-62 425-62 326 2 631 128 867 361 63 63 153 170 153 183 0 5 4 11 8 13 27 11 126 211 162 326 55 175 75 404 50 572-33 215-115 413-245 589-52 70-180 202-234 240l-34 24 6-132c6-122 11-146 37-171 43-41 138-216 168-310 33-106 44-172 44-280 0-79-2-101-18-185-29-159-126-331-259-460-170-165-385-254-626-260-96-2-137 1-234 19-84 15-239 80-333 140-169 106-316 295-383 490-171 499 106 1020 617 1165 98 28 86 19 202 156 14 17 34 40 46 53l21 23-75-3c-41-1-100-6-131-10z"/><path d="m1435 2179c-115-143-217-269-227-280-156-186-197-254-217-364-23-125 34-262 140-334 157-108 348-99 470 22 45 45 97 145 107 205 8 46 7 249-3 592-4 146-8 294-9 330-2 72-9 90-34 90-10 0-104-108-227-261z"/></g></svg>