<svg width="32" height="32" fill="none" xmlns="http://www.w3.org/2000/svg"><g clip-path="url(#clip0)"><path d="M2.182 28h5.09V15.636L0 10.182v15.636C0 27.025.978 28 2.182 28z" fill="#4285F4"/><path d="M24.727 28h5.091A2.181 2.181 0 0032 25.818V10.182l-7.273 5.454" fill="#34A853"/><path d="M24.727 6.182v9.454L32 10.182v-2.91c0-2.697-3.08-4.236-5.237-2.617" fill="#FBBC04"/><path d="M7.273 15.636V6.182L16 12.727l8.727-6.545v9.454L16 22.182" fill="#EA4335"/><path d="M0 7.272v2.91l7.273 5.454V6.18L5.236 4.654C3.076 3.036 0 4.574 0 7.272z" fill="#C5221F"/></g><defs><clipPath id="clip0"><path fill="#fff" transform="translate(0 4)" d="M0 0h32v24H0z"/></clipPath></defs></svg>