<svg xmlns="http://www.w3.org/2000/svg" xml:space="preserve" id="Layer_1" x="0" y="0" style="enable-background:new 0 0 95 95" version="1.1" viewBox="0 0 95 95"><style>.st1{fill:#173647}</style><path d="M2.5 2.5h90v90h-90z" style="fill:#84a7ff"/><path d="M90 5v85H5V5h85m5-5H0v95h95V0z" class="st1"/><circle cx="48.5" cy="57.1" r="3.6" class="st1"/><path d="M46.6 33.9h2c13.2 0 22.5 8.7 23.7 20.5C73.5 68 63.5 80.3 49 80.1c-15.5 0-24.3-10.9-24.3-23.5v-13h9.9V20.1l-5.2 2.6v16h-4.5V19.5l10.6-6.1 3.6 2.1v28.2h8.5c10.2-.1 14.3 6.6 14.4 13.6.1 9.3-9.8 16.2-19.8 11.5-4.4-2.1-7.7-7.2-7.7-12v-8.5h-5.4v7.6c-.2 9.1 6.6 18.7 18.1 19.7 11.6 1 20.6-7.3 20.6-18.6 0-10.7-7.5-18.2-18.2-18.2h-2.9m-7.6 9.5v8.4c0 5.3 4.4 9.4 9.7 9.4 5.3 0 8.8-4.4 8.7-8.7 0-5.3-4-9.1-9.3-9.1h-9.1z" class="st1"/></svg>