<svg xmlns="http://www.w3.org/2000/svg" width="48" height="48"><path fill="#007BC7" fill-rule="nonzero" d="M24 0c13.255 0 24 10.745 24 24S37.255 48 24 48 0 37.255 0 24 10.745 0 24 0Zm-5.326 20.653a8.673 8.673 0 1 0 0 17.347 8.674 8.674 0 0 0 0-17.347Zm2.445 3.71a2.485 2.485 0 1 1-.003 4.97 2.485 2.485 0 0 1 .003-4.97Zm-2.446-9.838v3.125c6.438 0 11.678 5.238 11.678 11.676h3.125c0-8.161-6.64-14.801-14.803-14.801Zm0-6.525v3.125c4.862 0 9.432 1.894 12.871 5.332a18.08 18.08 0 0 1 5.33 12.869H40a21.19 21.19 0 0 0-6.247-15.08A21.187 21.187 0 0 0 18.673 8Z"/></svg>