<svg width="32" height="32" viewBox="0 0 32 32" fill="none" xmlns="http://www.w3.org/2000/svg">
<path fill-rule="evenodd" clip-rule="evenodd" d="M11.0933 0H20.9067C29.8667 0 32 2.13333 32 11.0933V20.9067C32 29.8667 29.8667 32 20.9067 32H11.0933C2.13333 32 0 29.8667 0 20.9067V11.0933C0 2.13333 2.13333 0 11.0933 0Z" fill="#5181B8"/>
<path fill-rule="evenodd" clip-rule="evenodd" d="M26.2057 11.0243C26.3539 10.5299 26.2057 10.1666 25.5 10.1666H23.1667C22.5734 10.1666 22.2999 10.4805 22.1516 10.8265C22.1516 10.8265 20.965 13.7188 19.284 15.5975C18.7402 16.1413 18.493 16.3144 18.1963 16.3144C18.048 16.3144 17.8333 16.1413 17.8333 15.647V11.0243C17.8333 10.431 17.6612 10.1666 17.1667 10.1666H13.5C13.1293 10.1666 12.9063 10.442 12.9063 10.703C12.9063 11.2654 13.7467 11.3951 13.8334 12.9772V16.4133C13.8334 17.1666 13.6973 17.3032 13.4007 17.3032C12.6097 17.3032 10.6855 14.398 9.54433 11.0737C9.32069 10.4276 9.09637 10.1666 8.50004 10.1666H6.16671C5.50004 10.1666 5.3667 10.4805 5.3667 10.8265C5.3667 11.4445 6.15775 14.5098 9.04997 18.5639C10.9781 21.3325 13.6947 22.8333 16.1667 22.8333C17.6499 22.8333 17.8334 22.5 17.8334 21.9258V19.8333C17.8334 19.1666 17.9739 19.0336 18.4436 19.0336C18.7896 19.0336 19.3829 19.2066 20.7673 20.5415C22.3493 22.1236 22.6101 22.8333 23.5 22.8333H25.8334C26.5 22.8333 26.8334 22.5 26.6411 21.8421C26.4307 21.1865 25.6753 20.2353 24.673 19.1077C24.1292 18.465 23.3134 17.7729 23.0662 17.4267C22.7201 16.9818 22.819 16.784 23.0662 16.3885C23.0662 16.3885 25.909 12.3839 26.2057 11.0243Z" fill="white"/>
</svg>
