<svg width="32" height="32" viewBox="0 0 32 32" fill="none" xmlns="http://www.w3.org/2000/svg">
<g clip-path="url(#clip0_2_143732)">
<rect width="32.0285" height="32.0285" rx="9" fill="#F9CE2C"/>
<path d="M23.6576 8.85938H20.3828L22.0828 11.7172L23.6576 8.85938Z" fill="black"/>
<path d="M16.5856 6L5 25H11C11.8287 25 12.848 24.7518 13.5658 24.3644C14.3426 23.9446 14.9305 23.3345 15.3885 22.5946C15.9245 21.7294 16.4463 20.8549 16.9728 19.985L18.3233 17.7582L16.5808 14.8911L15.8087 16.1112C14.9281 17.5563 14.0947 19.0363 13.1833 20.4628C12.7253 21.1773 12.1256 21.8547 11.2425 22.0286C11.1103 22.0541 10.9734 22.068 10.8365 22.0727C10.6547 22.0797 10.4729 22.075 10.2911 22.075L16.5856 11.5532L24.6626 25H27V23.0237L26.9457 22.9356L16.5856 6Z" fill="black"/>
</g>
<defs>
<clipPath id="clip0_2_143732">
<rect width="32" height="32" fill="white"/>
</clipPath>
</defs>
</svg>
