<svg width="32" height="32" viewBox="0 0 32 32" fill="none" xmlns="http://www.w3.org/2000/svg">
<path d="M5.69636 6.1979H8.72681C8.8098 6.19771 8.88933 6.16495 8.94803 6.10678C9.00673 6.0486 9.03982 5.96975 9.04008 5.88745C9.04008 5.88627 9.00339 3.31172 9.00339 2.59656V2.58782C9.00339 2.00024 9.1275 1.48778 9.34477 1.05779L9.44792 0.865234C9.4347 0.86768 9.42261 0.874214 9.41337 0.883899L3.52924 6.67066C3.51846 6.67949 3.51079 6.69148 3.50732 6.70492C3.62906 6.64514 3.79558 6.56316 3.81892 6.553C4.33086 6.32335 4.95239 6.1979 5.69636 6.1979Z" fill="#74BB44"/>
<path d="M29.2595 5.56769C29.0189 4.29093 28.253 3.66153 27.5607 3.41392C26.8143 3.14624 25.2997 2.86887 23.3977 2.64678C21.8669 2.46769 20.0676 2.48234 18.9808 2.51518C18.8505 1.6292 18.224 0.819764 17.5226 0.539557C15.6554 -0.205614 12.7684 -0.0255822 12.028 0.180202C11.4389 0.343696 10.7871 0.678007 10.4248 1.19329C10.1815 1.538 10.0238 1.97887 10.0226 2.59527C10.0226 2.944 10.0324 3.76548 10.0415 4.49577C10.05 5.22771 10.0603 5.88286 10.0603 5.88759C10.0598 6.20134 9.93393 6.50211 9.71019 6.72392C9.48644 6.94573 9.18313 7.07048 8.86677 7.07079H5.83799C5.19217 7.07079 4.69833 7.17829 4.32122 7.34816C3.94363 7.51827 3.67611 7.74744 3.4729 8.01867C3.06864 8.55688 2.99836 9.22148 3.00003 9.90003C3.00003 9.90003 3.00575 10.4541 3.14034 11.5269C3.25255 12.3567 4.16018 18.155 5.02231 19.9185C5.35654 20.6041 5.57952 20.8907 6.23583 21.1931C7.699 21.8145 11.0408 22.5058 12.6076 22.7038C14.1708 22.9022 15.1523 23.319 15.7369 22.103C15.7388 22.0992 15.8544 21.801 16.0125 21.3602C16.5204 19.8349 16.5912 18.4808 16.5912 17.5015C16.5912 17.4016 16.7386 17.3973 16.7386 17.5015C16.7386 18.1933 16.605 20.641 18.4696 21.2971C19.2059 21.5556 20.7322 21.7866 22.2843 21.9671C23.6867 22.1275 24.7044 22.6743 24.7044 26.2439C24.7044 28.4152 24.2446 28.7126 21.8407 28.7126C19.8918 28.7126 19.1488 28.7625 19.1488 27.228C19.1488 25.9864 20.3866 26.1168 21.3037 26.1168C21.7137 26.1168 21.4159 25.8149 21.4159 25.0487C21.4159 24.2863 21.8971 23.8461 21.4421 23.8352C18.2707 23.7483 16.4042 23.8315 16.4042 27.7659C16.4042 31.337 17.7821 32.0002 22.2843 32.0002C25.8135 32.0002 27.0568 31.8859 28.5145 27.4011C28.803 26.5159 29.501 23.8145 29.9224 19.2777C30.189 16.41 29.6704 7.75241 29.2595 5.56769ZM23.1066 15.1363C22.6707 15.1214 22.2514 15.1486 21.8605 15.211C21.9708 14.3297 22.3374 13.2472 23.6374 13.2925C25.0765 13.3419 25.2775 14.6907 25.2826 15.6039C24.676 15.3359 23.9249 15.1649 23.1066 15.1363Z" fill="#74BB44"/>
</svg>
