<svg xmlns="http://www.w3.org/2000/svg" xmlns:xlink="http://www.w3.org/1999/xlink" width="32px" height="31px" viewBox="0 0 32 31">
<defs>
<linearGradient id="linear0" gradientUnits="userSpaceOnUse" x1="0.991401" y1="1.127081" x2="0.33859" y2="0.37755" gradientTransform="matrix(30.375,0,0,15.1875,0.140625,15.707031)">
<stop offset="0.18" style="stop-color:rgb(0%,32.156863%,80%);stop-opacity:1;"/>
<stop offset="1" style="stop-color:rgb(14.901961%,51.764706%,100%);stop-opacity:1;"/>
</linearGradient>
<linearGradient id="linear1" gradientUnits="userSpaceOnUse" x1="0.00925692" y1="-0.125823" x2="0.661801" y2="0.623057" gradientTransform="matrix(30.394531,0,0,15.203125,1.386719,0.0273438)">
<stop offset="0.18" style="stop-color:rgb(0%,32.156863%,80%);stop-opacity:1;"/>
<stop offset="1" style="stop-color:rgb(14.901961%,51.764706%,100%);stop-opacity:1;"/>
</linearGradient>
</defs>
<g id="surface1">
<path style=" stroke:none;fill-rule:nonzero;fill:url(#linear0);" d="M 1.15625 23.605469 C 0.828125 24.148438 0.457031 24.777344 0.140625 25.28125 C -0.140625 25.761719 0.0117188 26.378906 0.480469 26.671875 L 7.085938 30.769531 C 7.316406 30.914062 7.597656 30.957031 7.859375 30.894531 C 8.125 30.828125 8.351562 30.65625 8.492188 30.421875 C 8.757812 29.976562 9.097656 29.398438 9.46875 28.777344 C 12.082031 24.425781 14.714844 24.957031 19.457031 27.242188 L 26.003906 30.382812 C 26.253906 30.5 26.539062 30.511719 26.796875 30.417969 C 27.050781 30.320312 27.261719 30.121094 27.371094 29.867188 L 30.515625 22.699219 C 30.738281 22.1875 30.511719 21.589844 30.007812 21.359375 C 28.625 20.703125 25.878906 19.398438 23.402344 18.195312 C 14.503906 13.835938 6.941406 14.117188 1.15625 23.605469 Z M 1.15625 23.605469 "/>
<path style=" stroke:none;fill-rule:nonzero;fill:url(#linear1);" d="M 30.765625 7.339844 C 31.09375 6.796875 31.464844 6.164062 31.78125 5.664062 C 32.0625 5.183594 31.910156 4.5625 31.441406 4.269531 L 24.835938 0.175781 C 24.601562 0.015625 24.316406 -0.0390625 24.039062 0.0273438 C 23.765625 0.0898438 23.53125 0.265625 23.390625 0.511719 C 23.125 0.957031 22.785156 1.535156 22.414062 2.15625 C 19.796875 6.507812 17.167969 5.976562 12.421875 3.691406 L 5.898438 0.570312 C 5.648438 0.449219 5.363281 0.4375 5.105469 0.535156 C 4.847656 0.628906 4.640625 0.828125 4.53125 1.082031 L 1.386719 8.25 C 1.164062 8.761719 1.390625 9.359375 1.894531 9.589844 C 3.277344 10.246094 6.023438 11.550781 8.496094 12.753906 C 17.417969 17.109375 24.980469 16.816406 30.765625 7.339844 Z M 30.765625 7.339844 "/>
</g>
</svg>
