<svg xmlns="http://www.w3.org/2000/svg" width="380" height="240" fill="none">
  <path fill="#EDF9F4" d="M0 10C0 4.477 4.477 0 10 0h360c5.523 0 10 4.477 10 10v230H0V10Z"/>
  <g clip-path="url(#b)">
    <path fill="#fff" d="M-74.066 273.32V-27.87h491.068v301.19z"/>
    <g filter="url(#c)">
      <path fill="url(#d)" d="M358.365 142.827c-1.759 57.24-16.124 114.48-214.751 135.604l482.273 66.439-36.646-410.9-477.143 23.85c82.578 30.437 248.026 127.767 246.267 185.007Z"/>
    </g>
    <g filter="url(#e)">
      <path fill="url(#f)" d="M-304.209 6.414v-129.609l442.138-4.162C206.081-77.614 322.195 31.503 241.435 70.03c-80.761 38.525-397.413-26.358-545.644-63.616Z"/>
    </g>
    <g filter="url(#g)">
      <path fill="url(#h)" d="m-149.862 115.912-111.836 215.014H44.548c15.9-14.811 135.117-27.967 92.902-111.629-42.214-83.662-209.13-88.349-287.312-103.385Z"/>
    </g>
  </g>
  <g filter="url(#i)">
    <rect width="54.551" height="36.367" x="42" y="57" fill="#fff" fill-opacity=".7" rx="4.849"/>
    <g filter="url(#j)">
      <path fill="#000" fill-opacity=".85" d="M55.763 80.698h2.294v-6.52h1.286l-2.365-3.446 3.551 9.966h1.492l3.551-9.966-2.365 3.445h1.286v6.52h2.294V70.449H63.81l-2.465 6.947h-.128l-2.486-6.947h-2.969v10.25Zm16.848.184c.848 0 1.572-.163 2.174-.49a3.325 3.325 0 0 0 1.378-1.42c.322-.62.483-1.362.483-2.223v-.015c0-.857-.163-1.593-.49-2.209a3.358 3.358 0 0 0-1.392-1.42c-.602-.332-1.32-.498-2.153-.498-.828 0-1.543.168-2.145.505a3.412 3.412 0 0 0-1.392 1.42c-.327.616-.49 1.35-.49 2.202v.015c0 .861.159 1.602.476 2.223.322.615.784 1.089 1.385 1.42.606.327 1.328.49 2.166.49Zm0-1.91c-.303 0-.563-.088-.78-.263-.219-.175-.385-.429-.498-.76-.114-.332-.17-.732-.17-1.2v-.015c0-.459.056-.852.17-1.179.118-.331.286-.587.504-.767.218-.18.476-.27.774-.27.308 0 .569.09.782.27.213.18.376.436.49.767.118.327.177.72.177 1.18v.014c0 .464-.056.861-.17 1.193-.114.331-.28.587-.497.767a1.19 1.19 0 0 1-.782.263Zm5.59 1.726h2.522V76.18c0-.303.052-.568.156-.795.105-.228.254-.405.448-.533s.426-.192.696-.192c.426 0 .739.13.938.39.203.257.305.624.305 1.102v4.546h2.521V75.59c0-.952-.227-1.686-.681-2.202-.45-.521-1.113-.782-1.99-.782-.558 0-1.032.13-1.42.391a2.21 2.21 0 0 0-.838 1.03h-.135v-1.236h-2.522v7.906Z" shape-rendering="crispEdges"/>
    </g>
    <rect width="54.551" height="36.367" x="102.612" y="57" fill="#fff" fill-opacity=".7" rx="4.849"/>
    <g filter="url(#k)">
      <path fill="#000" fill-opacity=".85" d="M119.924 80.698h2.607v-8.154h2.954v-2.096h-8.516v2.096h2.955v8.154Zm9.198.184c.559 0 1.032-.127 1.421-.383a2.18 2.18 0 0 0 .845-1.037h.135v1.236h2.522v-7.906h-2.522v4.51c0 .304-.052.571-.156.803-.1.227-.249.405-.448.533a1.263 1.263 0 0 1-.71.192c-.426 0-.739-.128-.938-.384-.194-.26-.291-.63-.291-1.108v-4.546h-2.521V77.9c0 .63.099 1.17.298 1.62.203.445.502.783.895 1.015.398.232.888.348 1.47.348Zm10.477 0c.635 0 1.177-.08 1.627-.241.45-.161.819-.367 1.108-.618.293-.251.518-.516.674-.796.162-.284.268-.542.32-.774l.021-.085-2.301.007-.021.028a1.12 1.12 0 0 1-.22.263 1.58 1.58 0 0 1-.455.299 1.71 1.71 0 0 1-.703.127 1.61 1.61 0 0 1-.845-.213 1.399 1.399 0 0 1-.533-.632c-.123-.274-.185-.603-.185-.987v-1.016c0-.393.062-.727.185-1.001a1.376 1.376 0 0 1 1.3-.845c.293 0 .549.07.767.213.222.141.395.35.518.624.123.27.185.607.185 1.01v1l1.165-1.399h-5.349v1.464h6.542v-.725c0-.805-.158-1.506-.476-2.102a3.367 3.367 0 0 0-1.349-1.386c-.583-.326-1.272-.49-2.067-.49-.796 0-1.485.168-2.067.505a3.403 3.403 0 0 0-1.357 1.428c-.317.615-.476 1.349-.476 2.201v.008c0 .857.161 1.593.483 2.209a3.436 3.436 0 0 0 1.371 1.427c.597.332 1.309.497 2.138.497Z" shape-rendering="crispEdges"/>
    </g>
    <rect width="54.551" height="36.367" x="163.225" y="57" fill="#fff" fill-opacity=".7" rx="4.849"/>
    <g filter="url(#l)">
      <path fill="#000" fill-opacity=".85" d="M176.296 80.698h2.458l1.683-6.272h.128l1.712 6.272h2.443l2.678-10.25h-2.685l-1.342 6.79h-.128l-1.698-6.79h-2.088l-1.641 6.79h-.128l-1.364-6.79h-2.706l2.678 10.25Zm15.371.184c.634 0 1.177-.08 1.626-.241.45-.161.82-.367 1.109-.618.293-.251.518-.516.674-.796a2.89 2.89 0 0 0 .32-.774l.021-.085-2.301.007-.021.028a1.13 1.13 0 0 1-.221.263 1.56 1.56 0 0 1-.454.299c-.19.085-.424.127-.703.127-.327 0-.609-.07-.846-.213a1.403 1.403 0 0 1-.532-.632c-.123-.274-.185-.603-.185-.987v-1.016c0-.393.062-.727.185-1.001a1.375 1.375 0 0 1 1.299-.845c.294 0 .55.07.768.213.222.141.395.35.518.624.123.27.185.607.185 1.01v1l1.165-1.399h-5.349v1.464h6.542v-.725c0-.805-.159-1.506-.476-2.102a3.367 3.367 0 0 0-1.349-1.386c-.583-.326-1.272-.49-2.067-.49-.796 0-1.485.168-2.067.505a3.403 3.403 0 0 0-1.357 1.428c-.317.615-.476 1.349-.476 2.201v.008c0 .857.161 1.593.483 2.209a3.436 3.436 0 0 0 1.371 1.427c.597.332 1.309.497 2.138.497Zm8.14-.064c.563 0 1.044-.115 1.442-.347a2.07 2.07 0 0 0 .874-.98h.134v1.207h2.522V69.823h-2.522v4.24h-.134a2.192 2.192 0 0 0-.895-1.022c-.403-.246-.876-.37-1.421-.37-.668 0-1.236.161-1.705.483-.469.318-.828.78-1.079 1.386-.247.606-.37 1.337-.37 2.194v.015c0 .852.126 1.581.377 2.187.255.606.62 1.073 1.094 1.4.473.322 1.034.483 1.683.483Zm.93-2.052c-.312 0-.582-.08-.809-.242a1.578 1.578 0 0 1-.533-.689c-.123-.303-.185-.665-.185-1.086v-.015c0-.412.062-.767.185-1.065.128-.303.305-.535.533-.696.232-.166.502-.249.809-.249.313 0 .583.08.81.242.232.16.412.393.54.696.128.298.192.658.192 1.08v.014c0 .416-.064.776-.192 1.08a1.515 1.515 0 0 1-.533.688 1.375 1.375 0 0 1-.817.242Z" shape-rendering="crispEdges"/>
    </g>
    <rect width="54.551" height="36.367" x="223.837" y="57" fill="#fff" fill-opacity=".7" rx="4.849"/>
    <g filter="url(#m)">
      <path fill="#000" fill-opacity=".85" d="M239.655 80.698h2.607v-8.154h2.955v-2.096H236.7v2.096h2.955v8.154Zm7.26 0h2.521V76.18c0-.303.052-.568.156-.795.105-.228.254-.405.448-.533s.426-.192.696-.192c.426 0 .739.13.938.39.203.257.305.624.305 1.102v4.546h2.522V75.59c0-.635-.102-1.172-.306-1.613a2.194 2.194 0 0 0-.902-1.015c-.393-.237-.881-.356-1.463-.356-.559 0-1.032.13-1.421.391a2.212 2.212 0 0 0-.838 1.03h-.135v-4.205h-2.521v10.875Zm12.053.184c.559 0 1.033-.127 1.421-.383a2.18 2.18 0 0 0 .845-1.037h.135v1.236h2.522v-7.906h-2.522v4.51c0 .304-.052.571-.156.803-.1.227-.249.405-.448.533a1.26 1.26 0 0 1-.71.192c-.426 0-.739-.128-.937-.384-.195-.26-.292-.63-.292-1.108v-4.546h-2.521V77.9c0 .63.099 1.17.298 1.62.204.445.502.783.895 1.015.398.232.888.348 1.47.348Z" shape-rendering="crispEdges"/>
    </g>
    <rect width="54.551" height="36.367" x="284.449" y="57" fill="#fff" fill-opacity=".7" rx="4.849"/>
    <g filter="url(#n)">
      <path fill="#000" fill-opacity=".85" d="M304.275 80.698h2.607v-3.822h3.971V74.88h-3.971v-2.337h4.369v-2.095h-6.976v10.25Zm8.659 0h2.521V76.52c0-.37.074-.682.221-.937.151-.26.367-.457.646-.59.279-.137.616-.206 1.009-.206.175 0 .352.012.532.036.18.023.353.059.519.106V72.8a2.025 2.025 0 0 0-.405-.093 2.849 2.849 0 0 0-.455-.036c-.501 0-.921.121-1.257.363-.331.241-.556.58-.675 1.015h-.135v-1.257h-2.521v7.906Zm6.755 0h2.521v-7.906h-2.521v7.906Zm1.264-8.957a1.3 1.3 0 0 0 .945-.384c.26-.255.391-.566.391-.93 0-.365-.131-.675-.391-.93a1.3 1.3 0 0 0-.945-.384c-.364 0-.679.128-.944.383a1.254 1.254 0 0 0-.391.93c0 .365.13.676.391.931.265.256.58.384.944.384Z" shape-rendering="crispEdges"/>
    </g>
    <rect width="145.469" height="36.367" x="42" y="101.853" fill="#000" fill-opacity=".32" rx="4.849"/>
    <g filter="url(#o)">
      <path fill="#F5F5F5" d="M105.821 125.828c.9 0 1.672-.14 2.316-.419.644-.284 1.136-.682 1.477-1.194.346-.516.519-1.122.519-1.818v-.007c0-.829-.256-1.475-.768-1.939-.511-.469-1.314-.81-2.408-1.023l-1.058-.206c-.554-.104-.956-.241-1.207-.412a.82.82 0 0 1-.37-.703v-.007c0-.204.059-.381.178-.533.123-.156.296-.277.518-.362.223-.09.488-.135.796-.135.317 0 .597.045.838.135.242.09.433.215.575.376.147.156.24.344.277.561l.015.078h2.415l-.007-.085a3.218 3.218 0 0 0-.569-1.605c-.326-.469-.788-.836-1.385-1.101-.592-.27-1.316-.405-2.173-.405-.786 0-1.485.137-2.096.412-.611.27-1.091.654-1.442 1.151-.35.492-.528 1.072-.532 1.74v.007c0 .8.246 1.454.738 1.961.498.506 1.286.866 2.366 1.079l1.058.206c.601.119 1.028.256 1.279.412a.743.743 0 0 1 .376.668v.007a.874.874 0 0 1-.213.575 1.327 1.327 0 0 1-.583.398c-.25.095-.546.142-.887.142-.346 0-.651-.047-.917-.142a1.627 1.627 0 0 1-.632-.383.967.967 0 0 1-.27-.562l-.007-.064h-2.493l.007.128c.038.635.232 1.182.583 1.641.355.455.845.807 1.47 1.058.625.247 1.364.37 2.216.37Zm8.048-.156c.336 0 .648-.045.937-.135.294-.09.547-.218.76-.384.218-.166.386-.36.505-.582h.135v.98h2.471v-5.391c0-.569-.132-1.054-.397-1.457-.266-.402-.654-.71-1.165-.923-.507-.213-1.127-.32-1.861-.32-.711 0-1.331.102-1.861.306-.531.199-.95.478-1.257.838-.303.36-.479.784-.526 1.271l-.007.086h2.28l.014-.036a.873.873 0 0 1 .412-.454c.204-.109.471-.164.803-.164.345 0 .613.076.802.228.195.146.292.355.292.625v2.55c0 .227-.064.433-.192.618a1.333 1.333 0 0 1-.505.433 1.567 1.567 0 0 1-.71.156c-.317 0-.573-.073-.767-.22a.702.702 0 0 1-.291-.59v-.014a.67.67 0 0 1 .291-.568c.194-.142.476-.225.845-.249l2.565-.163v-1.414l-2.962.178c-1.019.062-1.8.298-2.344.71-.545.408-.817.969-.817 1.684v.014c0 .478.106.897.319 1.257.218.355.519.632.902.831.384.199.827.299 1.329.299Zm10.256-.107c.242 0 .469-.009.682-.028.218-.019.393-.043.526-.071v-1.805l-.277.029a7.024 7.024 0 0 1-.355.007c-.327 0-.568-.073-.725-.22-.151-.147-.227-.367-.227-.661v-3.324h1.584v-1.847h-1.584v-1.811h-2.529v1.811h-1.207v1.847h1.207v3.892c0 .772.225 1.329.675 1.67.45.341 1.193.511 2.23.511Z"/>
    </g>
    <rect width="145.469" height="36.367" x="42" y="146.706" fill="#000" fill-opacity=".08" rx="4.849"/>
    <g filter="url(#p)">
      <path fill="#000" fill-opacity=".85" d="M83.894 170.404h2.735l4.134-8.233v-2.024h-7.629v2.01h5.015v.135l-4.255 8.112Zm10.207-1.257c.427 0 .77-.133 1.03-.398s.39-.599.39-1.002c0-.402-.13-.734-.39-.994-.26-.265-.603-.398-1.03-.398-.421 0-.764.133-1.03.398-.265.26-.397.592-.397.994 0 .403.132.737.397 1.002.266.265.609.398 1.03.398Zm0-4.951c.427 0 .77-.133 1.03-.398.26-.27.39-.604.39-1.002 0-.402-.13-.736-.39-1.001-.26-.265-.603-.398-1.03-.398-.421 0-.764.133-1.03.398-.265.265-.397.599-.397 1.001 0 .398.132.732.397 1.002.266.265.609.398 1.03.398Zm7.764 6.485c.895 0 1.662-.218 2.301-.654.644-.44 1.139-1.063 1.485-1.868.345-.809.518-1.768.518-2.876v-.015c0-1.108-.173-2.064-.518-2.869-.346-.805-.841-1.426-1.485-1.861-.639-.441-1.406-.661-2.301-.661-.89 0-1.657.22-2.301.661-.644.435-1.142 1.056-1.492 1.861-.346.805-.519 1.761-.519 2.869v.015c0 1.108.173 2.067.519 2.876.35.805.847 1.428 1.492 1.868.644.436 1.411.654 2.301.654Zm0-2.003c-.355 0-.658-.133-.909-.398-.247-.27-.436-.656-.569-1.158-.127-.506-.191-1.12-.191-1.839v-.015c0-.724.064-1.337.191-1.839.133-.502.322-.883.569-1.144.251-.265.554-.398.909-.398.36 0 .663.133.909.398.251.261.44.642.568 1.144.128.502.192 1.115.192 1.839v.015c0 .719-.064 1.333-.192 1.839-.128.502-.317.888-.568 1.158a1.192 1.192 0 0 1-.909.398Zm10.384 2.003c.895 0 1.663-.218 2.302-.654.644-.44 1.139-1.063 1.484-1.868.346-.809.519-1.768.519-2.876v-.015c0-1.108-.173-2.064-.519-2.869-.345-.805-.84-1.426-1.484-1.861-.639-.441-1.407-.661-2.302-.661-.89 0-1.657.22-2.301.661-.644.435-1.141 1.056-1.492 1.861-.345.805-.518 1.761-.518 2.869v.015c0 1.108.173 2.067.518 2.876.351.805.848 1.428 1.492 1.868.644.436 1.411.654 2.301.654Zm0-2.003c-.355 0-.658-.133-.909-.398-.246-.27-.435-.656-.568-1.158-.128-.506-.192-1.12-.192-1.839v-.015c0-.724.064-1.337.192-1.839.133-.502.322-.883.568-1.144.251-.265.554-.398.909-.398.36 0 .663.133.91.398.251.261.44.642.568 1.144.128.502.192 1.115.192 1.839v.015c0 .719-.064 1.333-.192 1.839-.128.502-.317.888-.568 1.158-.247.265-.55.398-.91.398Zm9.277 1.726h2.742l2.23-7.991h.753v-2.259h-2.28l-3.445 10.25Zm2.01-2.245h5.981l-.59-1.882h-4.794l-.597 1.882Zm5.334 2.245h2.742l-3.452-10.25h-1.527v2.259l2.237 7.991Zm4.454 0h2.294v-6.521h1.286l-2.365-3.445 3.551 9.966h1.492l3.551-9.966-2.365 3.445h1.286v6.521h2.294v-10.25h-2.976l-2.465 6.947h-.128l-2.486-6.947h-2.969v10.25Z" shape-rendering="crispEdges"/>
    </g>
    <rect width="145.469" height="36.367" x="193.531" y="101.853" fill="#000" fill-opacity=".32" rx="4.849"/>
    <g filter="url(#q)">
      <path fill="#F5F5F5" d="M255.024 125.828c.9 0 1.671-.14 2.315-.419.644-.284 1.137-.682 1.478-1.194.346-.516.518-1.122.518-1.818v-.007c0-.829-.255-1.475-.767-1.939-.511-.469-1.314-.81-2.408-1.023l-1.058-.206c-.554-.104-.957-.241-1.208-.412a.822.822 0 0 1-.369-.703v-.007c0-.204.059-.381.178-.533.123-.156.296-.277.518-.362.223-.09.488-.135.796-.135.317 0 .596.045.838.135.241.09.433.215.575.376.147.156.239.344.277.561l.014.078h2.415l-.007-.085a3.208 3.208 0 0 0-.568-1.605c-.327-.469-.788-.836-1.385-1.101-.592-.27-1.316-.405-2.173-.405-.787 0-1.485.137-2.096.412-.611.27-1.091.654-1.442 1.151-.35.492-.528 1.072-.532 1.74v.007c0 .8.246 1.454.738 1.961.497.506 1.286.866 2.366 1.079l1.058.206c.601.119 1.027.256 1.278.412a.744.744 0 0 1 .377.668v.007a.874.874 0 0 1-.213.575 1.333 1.333 0 0 1-.583.398 2.506 2.506 0 0 1-.888.142c-.345 0-.651-.047-.916-.142a1.627 1.627 0 0 1-.632-.383.967.967 0 0 1-.27-.562l-.007-.064h-2.493l.007.128c.038.635.232 1.182.582 1.641.356.455.846.807 1.471 1.058.625.247 1.363.37 2.216.37Zm8.644-.093c.559 0 1.032-.127 1.421-.383a2.18 2.18 0 0 0 .845-1.037h.135v1.236h2.522v-7.906h-2.522v4.511c0 .303-.052.57-.156.802-.1.227-.249.405-.448.533a1.262 1.262 0 0 1-.71.192c-.426 0-.739-.128-.938-.384-.194-.26-.291-.63-.291-1.108v-4.546h-2.521v5.107c0 .63.099 1.17.298 1.62.204.445.502.783.895 1.015.398.232.888.348 1.47.348Zm6.869-.184h2.521v-4.518c0-.303.052-.568.157-.795.104-.228.253-.405.447-.533s.426-.192.696-.192c.426 0 .739.13.938.391.203.256.305.623.305 1.101v4.546h2.522v-5.107c0-.952-.228-1.686-.682-2.202-.45-.521-1.113-.782-1.989-.782-.559 0-1.032.131-1.421.391a2.22 2.22 0 0 0-.838 1.03h-.135v-1.236h-2.521v7.906Z"/>
    </g>
    <rect width="145.469" height="36.367" x="193.531" y="146.706" fill="#000" fill-opacity=".08" rx="4.849"/>
    <g filter="url(#r)">
      <path fill="#000" fill-opacity=".85" d="M239.097 170.681c.815 0 1.53-.161 2.145-.483a3.649 3.649 0 0 0 1.442-1.314c.346-.559.519-1.191.519-1.897v-.014c0-.644-.137-1.215-.412-1.712a2.934 2.934 0 0 0-1.151-1.179c-.497-.289-1.087-.433-1.768-.433-.479 0-.888.069-1.229.206-.341.132-.623.31-.846.533a2.493 2.493 0 0 0-.518.717h-.249v1.939h.427v-.014c0-.303.073-.571.22-.803.147-.237.343-.421.589-.554.246-.132.521-.199.824-.199.317 0 .597.071.838.213.242.138.431.325.569.562.142.236.213.511.213.824v.014c0 .298-.074.568-.22.809a1.62 1.62 0 0 1-1.407.782 1.62 1.62 0 0 1-1.413-.796 1.671 1.671 0 0 1-.213-.838l-.334-1.726v-.22c0-.076.002-.149.007-.22a6.096 6.096 0 0 1 .255-1.535c.147-.449.36-.802.64-1.058.279-.26.632-.391 1.058-.391.242 0 .457.041.646.121.19.076.351.182.483.32.138.132.24.286.306.461l.028.057h2.529l-.007-.057a3.152 3.152 0 0 0-.696-1.484 3.76 3.76 0 0 0-1.392-1.044c-.569-.256-1.206-.384-1.911-.384-.9 0-1.679.218-2.337.654-.658.431-1.167 1.053-1.527 1.868-.36.81-.54 1.78-.54 2.912v.014c0 .867.104 1.634.313 2.302.213.663.516 1.221.909 1.676.393.45.859.791 1.399 1.023a4.576 4.576 0 0 0 1.811.348Zm7.735-1.534c.427 0 .77-.133 1.03-.398.261-.265.391-.599.391-1.002 0-.402-.13-.734-.391-.994-.26-.265-.603-.398-1.03-.398-.421 0-.764.133-1.029.398-.266.26-.398.592-.398.994 0 .403.132.737.398 1.002.265.265.608.398 1.029.398Zm0-4.951c.427 0 .77-.133 1.03-.398.261-.27.391-.604.391-1.002 0-.402-.13-.736-.391-1.001-.26-.265-.603-.398-1.03-.398-.421 0-.764.133-1.029.398-.266.265-.398.599-.398 1.001 0 .398.132.732.398 1.002.265.265.608.398 1.029.398Zm7.764 6.485c.895 0 1.662-.218 2.301-.654.644-.44 1.139-1.063 1.485-1.868.346-.809.518-1.768.518-2.876v-.015c0-1.108-.172-2.064-.518-2.869-.346-.805-.841-1.426-1.485-1.861-.639-.441-1.406-.661-2.301-.661-.89 0-1.657.22-2.301.661-.644.435-1.142 1.056-1.492 1.861-.346.805-.518 1.761-.518 2.869v.015c0 1.108.172 2.067.518 2.876.35.805.848 1.428 1.492 1.868.644.436 1.411.654 2.301.654Zm0-2.003c-.355 0-.658-.133-.909-.398-.246-.27-.436-.656-.568-1.158-.128-.506-.192-1.12-.192-1.839v-.015c0-.724.064-1.337.192-1.839.132-.502.322-.883.568-1.144.251-.265.554-.398.909-.398.36 0 .663.133.909.398.251.261.441.642.568 1.144.128.502.192 1.115.192 1.839v.015c0 .719-.064 1.333-.192 1.839-.127.502-.317.888-.568 1.158a1.192 1.192 0 0 1-.909.398Zm10.385 2.003c.895 0 1.662-.218 2.301-.654.644-.44 1.139-1.063 1.485-1.868.345-.809.518-1.768.518-2.876v-.015c0-1.108-.173-2.064-.518-2.869-.346-.805-.841-1.426-1.485-1.861-.639-.441-1.406-.661-2.301-.661-.891 0-1.658.22-2.302.661-.644.435-1.141 1.056-1.491 1.861-.346.805-.519 1.761-.519 2.869v.015c0 1.108.173 2.067.519 2.876.35.805.847 1.428 1.491 1.868.644.436 1.411.654 2.302.654Zm0-2.003c-.356 0-.659-.133-.91-.398-.246-.27-.435-.656-.568-1.158-.128-.506-.192-1.12-.192-1.839v-.015c0-.724.064-1.337.192-1.839.133-.502.322-.883.568-1.144.251-.265.554-.398.91-.398.36 0 .663.133.909.398.251.261.44.642.568 1.144.128.502.192 1.115.192 1.839v.015c0 .719-.064 1.333-.192 1.839-.128.502-.317.888-.568 1.158a1.192 1.192 0 0 1-.909.398Zm11.272-1.272h3.111c.763 0 1.426-.146 1.989-.44a3.18 3.18 0 0 0 1.307-1.257c.313-.545.469-1.182.469-1.911v-.014c0-.734-.156-1.371-.469-1.911a3.172 3.172 0 0 0-1.307-1.264c-.563-.303-1.226-.455-1.989-.455h-3.111v2.003h2.479c.554 0 .985.138 1.293.412.312.275.469.68.469 1.215v.014c0 .53-.157.935-.469 1.215-.308.279-.739.419-1.293.419h-2.479v1.974Zm-1.307 2.998h2.607v-10.25h-2.607v10.25Zm10.101 0h2.294v-6.521h1.286l-2.366-3.445 3.552 9.966h1.491l3.552-9.966-2.365 3.445h1.285v6.521h2.294v-10.25h-2.976l-2.464 6.947h-.128l-2.486-6.947h-2.969v10.25Z" shape-rendering="crispEdges"/>
    </g>
  </g>
  <defs>
    <filter id="c" width="643.953" height="541.064" x="47.016" y="-131.112" color-interpolation-filters="sRGB" filterUnits="userSpaceOnUse">
      <feFlood flood-opacity="0" result="BackgroundImageFix"/>
      <feBlend in="SourceGraphic" in2="BackgroundImageFix" result="shape"/>
      <feGaussianBlur result="effect1_foregroundBlur_1071_17408" stdDeviation="32.541"/>
    </filter>
    <filter id="e" width="866.749" height="502.79" x="-451.005" y="-274.153" color-interpolation-filters="sRGB" filterUnits="userSpaceOnUse">
      <feFlood flood-opacity="0" result="BackgroundImageFix"/>
      <feBlend in="SourceGraphic" in2="BackgroundImageFix" result="shape"/>
      <feGaussianBlur result="effect1_foregroundBlur_1071_17408" stdDeviation="73.398"/>
    </filter>
    <filter id="g" width="503.596" height="310.468" x="-309.424" y="68.185" color-interpolation-filters="sRGB" filterUnits="userSpaceOnUse">
      <feFlood flood-opacity="0" result="BackgroundImageFix"/>
      <feBlend in="SourceGraphic" in2="BackgroundImageFix" result="shape"/>
      <feGaussianBlur result="effect1_foregroundBlur_1071_17408" stdDeviation="23.863"/>
    </filter>
    <filter id="i" width="297" height="130.073" x="42" y="57" color-interpolation-filters="sRGB" filterUnits="userSpaceOnUse">
      <feFlood flood-opacity="0" result="BackgroundImageFix"/>
      <feBlend in="SourceGraphic" in2="BackgroundImageFix" result="shape"/>
      <feColorMatrix in="SourceAlpha" result="hardAlpha" values="0 0 0 0 0 0 0 0 0 0 0 0 0 0 0 0 0 0 127 0"/>
      <feOffset dy="4"/>
      <feGaussianBlur stdDeviation="3.5"/>
      <feComposite in2="hardAlpha" k2="-1" k3="1" operator="arithmetic"/>
      <feColorMatrix values="0 0 0 0 1 0 0 0 0 1 0 0 0 0 1 0 0 0 0.22 0"/>
      <feBlend in2="shape" result="effect1_innerShadow_1071_17408"/>
    </filter>
    <filter id="j" width="31.024" height="11.534" x="55.263" y="70.448" color-interpolation-filters="sRGB" filterUnits="userSpaceOnUse">
      <feFlood flood-opacity="0" result="BackgroundImageFix"/>
      <feColorMatrix in="SourceAlpha" result="hardAlpha" values="0 0 0 0 0 0 0 0 0 0 0 0 0 0 0 0 0 0 127 0"/>
      <feOffset dy=".6"/>
      <feGaussianBlur stdDeviation=".25"/>
      <feComposite in2="hardAlpha" operator="out"/>
      <feColorMatrix values="0 0 0 0 0 0 0 0 0 0 0 0 0 0 0 0 0 0 0.2 0"/>
      <feBlend in2="BackgroundImageFix" result="effect1_dropShadow_1071_17408"/>
      <feBlend in="SourceGraphic" in2="effect1_dropShadow_1071_17408" result="shape"/>
    </filter>
    <filter id="k" width="27.43" height="11.534" x="116.469" y="70.448" color-interpolation-filters="sRGB" filterUnits="userSpaceOnUse">
      <feFlood flood-opacity="0" result="BackgroundImageFix"/>
      <feColorMatrix in="SourceAlpha" result="hardAlpha" values="0 0 0 0 0 0 0 0 0 0 0 0 0 0 0 0 0 0 127 0"/>
      <feOffset dy=".6"/>
      <feGaussianBlur stdDeviation=".25"/>
      <feComposite in2="hardAlpha" operator="out"/>
      <feColorMatrix values="0 0 0 0 0 0 0 0 0 0 0 0 0 0 0 0 0 0 0.2 0"/>
      <feBlend in2="BackgroundImageFix" result="effect1_dropShadow_1071_17408"/>
      <feBlend in="SourceGraphic" in2="effect1_dropShadow_1071_17408" result="shape"/>
    </filter>
    <filter id="l" width="32.161" height="12.159" x="173.118" y="69.823" color-interpolation-filters="sRGB" filterUnits="userSpaceOnUse">
      <feFlood flood-opacity="0" result="BackgroundImageFix"/>
      <feColorMatrix in="SourceAlpha" result="hardAlpha" values="0 0 0 0 0 0 0 0 0 0 0 0 0 0 0 0 0 0 127 0"/>
      <feOffset dy=".6"/>
      <feGaussianBlur stdDeviation=".25"/>
      <feComposite in2="hardAlpha" operator="out"/>
      <feColorMatrix values="0 0 0 0 0 0 0 0 0 0 0 0 0 0 0 0 0 0 0.2 0"/>
      <feBlend in2="BackgroundImageFix" result="effect1_dropShadow_1071_17408"/>
      <feBlend in="SourceGraphic" in2="effect1_dropShadow_1071_17408" result="shape"/>
    </filter>
    <filter id="m" width="28.19" height="12.159" x="236.201" y="69.823" color-interpolation-filters="sRGB" filterUnits="userSpaceOnUse">
      <feFlood flood-opacity="0" result="BackgroundImageFix"/>
      <feColorMatrix in="SourceAlpha" result="hardAlpha" values="0 0 0 0 0 0 0 0 0 0 0 0 0 0 0 0 0 0 127 0"/>
      <feOffset dy=".6"/>
      <feGaussianBlur stdDeviation=".25"/>
      <feComposite in2="hardAlpha" operator="out"/>
      <feColorMatrix values="0 0 0 0 0 0 0 0 0 0 0 0 0 0 0 0 0 0 0.2 0"/>
      <feBlend in2="BackgroundImageFix" result="effect1_dropShadow_1071_17408"/>
      <feBlend in="SourceGraphic" in2="effect1_dropShadow_1071_17408" result="shape"/>
    </filter>
    <filter id="n" width="19.013" height="12.685" x="303.775" y="69.113" color-interpolation-filters="sRGB" filterUnits="userSpaceOnUse">
      <feFlood flood-opacity="0" result="BackgroundImageFix"/>
      <feColorMatrix in="SourceAlpha" result="hardAlpha" values="0 0 0 0 0 0 0 0 0 0 0 0 0 0 0 0 0 0 127 0"/>
      <feOffset dy=".6"/>
      <feGaussianBlur stdDeviation=".25"/>
      <feComposite in2="hardAlpha" operator="out"/>
      <feColorMatrix values="0 0 0 0 0 0 0 0 0 0 0 0 0 0 0 0 0 0 0.2 0"/>
      <feBlend in2="BackgroundImageFix" result="effect1_dropShadow_1071_17408"/>
      <feBlend in="SourceGraphic" in2="effect1_dropShadow_1071_17408" result="shape"/>
    </filter>
    <filter id="o" width="24.788" height="11.904" x="101.045" y="115.024" color-interpolation-filters="sRGB" filterUnits="userSpaceOnUse">
      <feFlood flood-opacity="0" result="BackgroundImageFix"/>
      <feColorMatrix in="SourceAlpha" result="hardAlpha" values="0 0 0 0 0 0 0 0 0 0 0 0 0 0 0 0 0 0 127 0"/>
      <feOffset dy=".6"/>
      <feGaussianBlur stdDeviation=".25"/>
      <feComposite in2="hardAlpha" operator="out"/>
      <feColorMatrix values="0 0 0 0 0 0 0 0 0 0 0 0 0 0 0 0 0 0 0.2 0"/>
      <feBlend in2="BackgroundImageFix" result="effect1_dropShadow_1071_17408"/>
      <feBlend in="SourceGraphic" in2="effect1_dropShadow_1071_17408" result="shape"/>
    </filter>
    <filter id="p" width="62.214" height="11.904" x="82.634" y="159.877" color-interpolation-filters="sRGB" filterUnits="userSpaceOnUse">
      <feFlood flood-opacity="0" result="BackgroundImageFix"/>
      <feColorMatrix in="SourceAlpha" result="hardAlpha" values="0 0 0 0 0 0 0 0 0 0 0 0 0 0 0 0 0 0 127 0"/>
      <feOffset dy=".6"/>
      <feGaussianBlur stdDeviation=".25"/>
      <feComposite in2="hardAlpha" operator="out"/>
      <feColorMatrix values="0 0 0 0 0 0 0 0 0 0 0 0 0 0 0 0 0 0 0.2 0"/>
      <feBlend in2="BackgroundImageFix" result="effect1_dropShadow_1071_17408"/>
      <feBlend in="SourceGraphic" in2="effect1_dropShadow_1071_17408" result="shape"/>
    </filter>
    <filter id="q" width="28.375" height="11.904" x="250.248" y="115.024" color-interpolation-filters="sRGB" filterUnits="userSpaceOnUse">
      <feFlood flood-opacity="0" result="BackgroundImageFix"/>
      <feColorMatrix in="SourceAlpha" result="hardAlpha" values="0 0 0 0 0 0 0 0 0 0 0 0 0 0 0 0 0 0 127 0"/>
      <feOffset dy=".6"/>
      <feGaussianBlur stdDeviation=".25"/>
      <feComposite in2="hardAlpha" operator="out"/>
      <feColorMatrix values="0 0 0 0 0 0 0 0 0 0 0 0 0 0 0 0 0 0 0.2 0"/>
      <feBlend in2="BackgroundImageFix" result="effect1_dropShadow_1071_17408"/>
      <feBlend in="SourceGraphic" in2="effect1_dropShadow_1071_17408" result="shape"/>
    </filter>
    <filter id="r" width="62.405" height="11.904" x="234.165" y="159.877" color-interpolation-filters="sRGB" filterUnits="userSpaceOnUse">
      <feFlood flood-opacity="0" result="BackgroundImageFix"/>
      <feColorMatrix in="SourceAlpha" result="hardAlpha" values="0 0 0 0 0 0 0 0 0 0 0 0 0 0 0 0 0 0 127 0"/>
      <feOffset dy=".6"/>
      <feGaussianBlur stdDeviation=".25"/>
      <feComposite in2="hardAlpha" operator="out"/>
      <feColorMatrix values="0 0 0 0 0 0 0 0 0 0 0 0 0 0 0 0 0 0 0.2 0"/>
      <feBlend in2="BackgroundImageFix" result="effect1_dropShadow_1071_17408"/>
      <feBlend in="SourceGraphic" in2="effect1_dropShadow_1071_17408" result="shape"/>
    </filter>
    <linearGradient id="d" x1="345.905" x2="491.76" y1="123.577" y2="123.577" gradientUnits="userSpaceOnUse">
      <stop stop-color="#FF97B2"/>
      <stop offset="1" stop-color="#FF819F"/>
    </linearGradient>
    <linearGradient id="f" x1="-236.483" x2="-40.57" y1="-110.195" y2="229.387" gradientUnits="userSpaceOnUse">
      <stop stop-color="#7769F2"/>
      <stop offset="1" stop-color="#A874EA"/>
    </linearGradient>
    <linearGradient id="h" x1="-217.21" x2="-34.328" y1="294.943" y2="60.032" gradientUnits="userSpaceOnUse">
      <stop stop-color="#9CD9FF"/>
      <stop offset="1" stop-color="#CEECFF"/>
    </linearGradient>
    <clipPath id="b">
      <path fill="#fff" d="M-77 267.87V-27.869h494V267.87z"/>
    </clipPath>
  </defs>
</svg>

