<svg width="380" height="240" fill="none" xmlns="http://www.w3.org/2000/svg">
    <path d="M0 10C0 4.477 4.477 0 10 0h360c5.523 0 10 4.477 10 10v230H0V10Z" fill="#EDF9F4"/>
    <g clip-path="url(#b)">
      <path fill="#fff" d="M-66.782 266.964V-22.414h471.809v289.378z"/>
      <g filter="url(#c)">
        <path d="M348.69 141.588c-1.69 54.995-15.492 109.99-206.329 130.286l463.359 63.834-35.209-394.786-458.43 22.915C191.42-6.92 350.38 86.593 348.69 141.588Z" fill="url(#d)"/>
      </g>
      <g filter="url(#e)">
        <path d="M-287.899 10.525v-124.526L136.899-118c65.479 47.792 177.04 152.63 99.446 189.645-77.593 37.016-381.827-25.323-524.244-61.12Z" fill="url(#f)"/>
      </g>
      <g filter="url(#g)">
        <path d="M-139.606 115.728-247.055 322.31H47.181c15.276-14.231 129.817-26.87 89.258-107.251-40.56-80.381-200.93-84.884-276.045-99.331Z" fill="url(#h)"/>
      </g>
      <g filter="url(#i)">
        <rect x="277" y="178" width="34.773" height="34.773" rx="6.404" fill="#fff" fill-opacity=".6" shape-rendering="crispEdges"/>
        <path d="M304.819 190.327a7.835 7.835 0 0 1-2.252.617 3.964 3.964 0 0 0 1.727-2.169 7.865 7.865 0 0 1-2.493.951 3.917 3.917 0 0 0-2.865-1.24 3.924 3.924 0 0 0-3.822 4.817 11.157 11.157 0 0 1-8.092-4.096 3.931 3.931 0 0 0 1.214 5.238 3.915 3.915 0 0 1-1.777-.492v.049a3.928 3.928 0 0 0 3.15 3.846 4.049 4.049 0 0 1-1.034.136c-.251 0-.497-.027-.738-.071a3.936 3.936 0 0 0 3.669 2.726 7.869 7.869 0 0 1-4.877 1.677c-.317 0-.629-.017-.935-.055a11.115 11.115 0 0 0 6.02 1.764c7.222 0 11.17-5.975 11.17-11.159 0-.169-.006-.338-.011-.508a8.206 8.206 0 0 0 1.946-2.031Z" fill="#55ACEE"/>
        <g filter="url(#j)">
          <circle cx="310.492" cy="178.955" r="5.123" fill="#E40914"/>
          <circle cx="310.492" cy="178.955" r="4.933" stroke="url(#k)" stroke-opacity=".33" stroke-width=".379"/>
          <g filter="url(#l)">
            <path d="M313.339 178.385v1.518h-5.693v-1.518h5.693Z" fill="#fff"/>
          </g>
        </g>
      </g>
      <g filter="url(#m)">
        <rect x="242" y="155" width="47.485" height="49.385" rx="7.946" fill="#fff" fill-opacity=".6" shape-rendering="crispEdges"/>
        <path d="M265.407 166.416h-5.592l9.901 27.993c2.783.071 5.759.475 5.759.475l-10.068-28.468Z" fill="#E50914"/>
        <path d="m269.94 166.42-.012 6.296-.012 6.295-.528-1.461v-.004l-.685 14.016a509.206 509.206 0 0 0 1.037 2.856c.003.004.387.027.849.049 1.4.068 3.138.215 4.458.375.306.038.567.056.585.041.019-.015.024-6.424.019-14.245l-.011-14.218h-5.7ZM259.627 166.399v14.234c0 7.829.009 14.242.019 14.253.011.011.505-.038 1.102-.101.597-.064 1.42-.146 1.829-.179.628-.053 2.511-.169 2.724-.173.066 0 .069-.318.076-6.03l.012-6.03.456 1.259c.069.195.092.255.161.446l.685-13.994c-.145-.401-.069-.208-.233-.666-.559-1.549-1.034-2.857-1.053-2.917l-.038-.105h-5.74v.003Z" fill="#B1060F"/>
        <path d="m269.94 166.42-.012 6.296-.012 6.295-.528-1.461v-.004l-.685 14.016a509.206 509.206 0 0 0 1.037 2.856c.003.004.387.027.849.049 1.4.068 3.138.215 4.458.375.306.038.567.056.585.041.019-.015.024-6.424.019-14.245l-.011-14.218h-5.7ZM259.627 166.399v14.234c0 7.829.009 14.242.019 14.253.011.011.505-.038 1.102-.101.597-.064 1.42-.146 1.829-.179.628-.053 2.511-.169 2.724-.173.066 0 .069-.318.076-6.03l.012-6.03.456 1.259c.069.195.091.266.16.457l.685-14.004c-.145-.4-.068-.212-.233-.668-.558-1.548-1.033-2.856-1.052-2.916l-.038-.105h-5.74v.003Z" fill="#B1060F"/>
        <path opacity=".38" d="M259.627 166.399v7.99l5.748 14.931c0-.341 0-.529.004-.918l.011-6.03.456 1.259a3420.07 3420.07 0 0 0 3.892 10.786c.003.003.387.026.849.049 1.401.067 3.138.214 4.458.374.306.038.567.056.585.041.012-.011.019-3.152.019-7.585l-5.717-16.106-.004 1.524-.011 6.296-.529-1.462-2.938-8.131c-.558-1.548-1.033-2.856-1.053-2.916l-.037-.105h-5.733v.003Z" fill="url(#n)"/>
        <path opacity=".38" d="M259.627 166.399v7.99l5.748 14.931c0-.341 0-.529.004-.918l.011-6.03.456 1.259a3420.07 3420.07 0 0 0 3.892 10.786c.003.003.387.026.849.049 1.401.067 3.138.214 4.458.374.306.038.567.056.585.041.012-.011.019-3.152.019-7.585l-5.717-16.106-.004 1.524-.011 6.296-.529-1.462-2.938-8.131c-.558-1.548-1.033-2.856-1.053-2.916l-.037-.105h-5.733v.003Z" fill="url(#o)"/>
        <path d="m259.627 166.399 5.76 15.984v-.008l.456 1.259a3965.516 3965.516 0 0 0 3.895 10.783c.003.003.387.026.849.049 1.401.067 3.138.214 4.458.374.303.038.567.056.582.041l-5.71-15.875v.004l-.529-1.462-2.938-8.131c-.558-1.548-1.033-2.856-1.053-2.916l-.037-.105h-2.867l-2.866.003Z" fill="#E50914"/>
        <g filter="url(#p)">
          <circle cx="287.696" cy="156.099" r="6.14" fill="#E40914"/>
          <circle cx="287.696" cy="156.099" r="5.913" stroke="url(#q)" stroke-opacity=".33" stroke-width=".455"/>
          <g filter="url(#r)">
            <path d="M291.108 155.417v1.819h-6.823v-1.819h6.823Z" fill="#fff"/>
          </g>
        </g>
      </g>
      <g filter="url(#s)">
        <rect x="195" y="129" width="66.159" height="66.159" rx="10.377" fill="#fff" fill-opacity=".6" shape-rendering="crispEdges"/>
        <path d="M248.636 155.016c-.097-2.089-.431-3.521-.915-4.77-.506-1.292-1.173-2.39-2.26-3.478a9.542 9.542 0 0 0-3.476-2.261c-1.249-.485-2.68-.818-4.768-.915-2.099-.097-2.766-.119-8.093-.119-5.338 0-6.005.022-8.093.119s-3.52.43-4.768.915c-1.291.506-2.389 1.174-3.476 2.261a9.546 9.546 0 0 0-2.26 3.478c-.484 1.249-.818 2.681-.915 4.77-.097 2.1-.118 2.768-.118 8.098 0 5.341.021 6.009.118 8.098.097 2.089.431 3.521.915 4.77.506 1.292 1.173 2.39 2.26 3.478a9.529 9.529 0 0 0 3.476 2.261c1.248.485 2.68.819 4.768.916 2.098.096 2.766.118 8.093.118 5.338 0 6.005-.022 8.093-.118 2.088-.097 3.519-.431 4.768-.916 1.291-.506 2.389-1.173 3.476-2.261a9.546 9.546 0 0 0 2.26-3.478c.484-1.249.818-2.681.915-4.77.096-2.1.118-2.768.118-8.098 0-5.33-.022-6.009-.118-8.098Zm-3.53 16.034c-.087 1.917-.409 2.961-.678 3.65a6.108 6.108 0 0 1-1.475 2.262c-.689.689-1.345 1.109-2.26 1.475-.689.269-1.733.592-3.648.678-2.067.097-2.691.119-7.932.119-5.241 0-5.865-.022-7.932-.119-1.915-.086-2.959-.409-3.648-.678a6.096 6.096 0 0 1-2.26-1.475c-.689-.689-1.109-1.346-1.474-2.262-.27-.689-.592-1.733-.679-3.65-.096-2.067-.118-2.692-.118-7.936s.022-5.869.118-7.936c.087-1.917.409-2.961.679-3.65a6.102 6.102 0 0 1 1.474-2.262c.689-.689 1.345-1.109 2.26-1.475.689-.269 1.733-.592 3.648-.678 2.067-.097 2.691-.119 7.932-.119 5.241 0 5.865.022 7.932.119 1.915.086 2.959.409 3.648.678a6.096 6.096 0 0 1 2.26 1.475c.689.69 1.109 1.346 1.475 2.262.269.689.591 1.733.678 3.65.096 2.067.118 2.692.118 7.936s-.032 5.869-.118 7.936Z" fill="url(#t)"/>
        <path d="M229.112 153.024c-5.574 0-10.084 4.523-10.084 10.09 0 5.578 4.52 10.09 10.084 10.09s10.085-4.523 10.085-10.09a10.08 10.08 0 0 0-10.085-10.09Zm0 16.637a6.542 6.542 0 0 1-6.543-6.547 6.542 6.542 0 0 1 6.543-6.547 6.542 6.542 0 0 1 6.544 6.547 6.542 6.542 0 0 1-6.544 6.547Z" fill="url(#u)"/>
        <path d="M239.595 154.984a2.358 2.358 0 1 0-.001-4.715 2.358 2.358 0 0 0 .001 4.715Z" fill="#BC30A0"/>
        <path d="M209.472 163.114c0 5.341.021 6.009.118 8.098.097 2.089.431 3.521.915 4.77.506 1.292 1.173 2.39 2.26 3.478a9.529 9.529 0 0 0 3.476 2.261c1.248.485 2.68.819 4.768.916 2.098.096 2.766.118 8.093.118 5.338 0 6.005-.022 8.093-.118 2.088-.097 3.519-.431 4.768-.916 1.291-.506 2.389-1.173 3.476-2.261a9.546 9.546 0 0 0 2.26-3.478c.484-1.249.818-2.681.915-4.77.096-2.1.118-2.768.118-8.098 0-5.341-.022-6.009-.118-8.098-.097-2.089-.431-3.521-.915-4.77-.506-1.292-1.173-2.39-2.26-3.478a9.542 9.542 0 0 0-3.476-2.261c-1.249-.485-2.68-.818-4.768-.915-2.099-.097-2.766-.119-8.093-.119-5.338 0-6.005.022-8.093.119s-3.52.43-4.768.915c-1.291.506-2.389 1.174-3.476 2.261a9.546 9.546 0 0 0-2.26 3.478c-.484 1.249-.818 2.681-.915 4.77-.097 2.089-.118 2.757-.118 8.098Zm3.54 0c0-5.244.022-5.869.119-7.936.086-1.917.409-2.961.678-3.65a6.102 6.102 0 0 1 1.474-2.262c.689-.689 1.346-1.109 2.26-1.475.689-.269 1.733-.592 3.649-.678 2.066-.097 2.69-.119 7.931-.119 5.242 0 5.866.022 7.932.119 1.916.086 2.96.409 3.648.678a6.088 6.088 0 0 1 2.26 1.475c.689.69 1.109 1.346 1.475 2.262.269.689.592 1.733.678 3.65.097 2.067.118 2.692.118 7.936s-.021 5.869-.118 7.936c-.086 1.917-.409 2.961-.678 3.65a6.096 6.096 0 0 1-1.475 2.262c-.688.689-1.345 1.109-2.26 1.475-.688.269-1.732.592-3.648.678-2.066.097-2.69.119-7.932.119-5.241 0-5.865-.022-7.931-.119-1.916-.086-2.96-.409-3.649-.678a6.105 6.105 0 0 1-2.26-1.475c-.689-.689-1.108-1.346-1.474-2.262-.269-.689-.592-1.733-.678-3.65-.097-2.067-.119-2.692-.119-7.936Z" fill="url(#v)"/>
        <g filter="url(#w)">
          <circle cx="257.824" cy="130.422" r="8.781" fill="#E40914"/>
          <circle cx="257.824" cy="130.422" r="8.455" stroke="url(#x)" stroke-opacity=".33" stroke-width=".65"/>
          <g filter="url(#y)">
            <path d="M262.703 129.446v2.602h-9.756v-2.602h9.756Z" fill="#fff"/>
          </g>
        </g>
      </g>
      <g filter="url(#z)">
        <rect x="136" y="94" width="86.865" height="86.865" rx="15.493" fill="#fff" fill-opacity=".6" shape-rendering="crispEdges"/>
        <path d="M180.64 166.388c15.325 0 27.748-12.424 27.748-27.749s-12.423-27.748-27.748-27.748c-15.325 0-27.749 12.423-27.749 27.748 0 15.325 12.424 27.749 27.749 27.749Z" fill="#FF4500"/>
        <path d="M199.148 138.639a4.043 4.043 0 0 0-.731-2.177 4.043 4.043 0 0 0-4.083-1.653 4.043 4.043 0 0 0-2.039 1.055 19.76 19.76 0 0 0-10.684-3.413l1.804-8.658 5.938 1.249a2.778 2.778 0 0 0 2.617 2.474 2.774 2.774 0 1 0-2.256-4.167l-6.798-1.359a.854.854 0 0 0-1.027.666l-2.054 9.628a19.814 19.814 0 0 0-10.821 3.414 4.053 4.053 0 0 0-6.137.687 4.043 4.043 0 0 0-.54 3.358 4.045 4.045 0 0 0 2.209 2.586 8.027 8.027 0 0 0 0 1.221c0 6.216 7.242 11.266 16.177 11.266 8.935 0 16.178-5.05 16.178-11.266a8.027 8.027 0 0 0 0-1.221 4.048 4.048 0 0 0 2.247-3.69Zm-27.748 2.775a2.774 2.774 0 1 1 5.549 0 2.774 2.774 0 0 1-5.549 0Zm16.122 7.631a10.66 10.66 0 0 1-6.854 2.136 10.66 10.66 0 0 1-6.854-2.136.751.751 0 0 1 .542-1.224.748.748 0 0 1 .512.169 9.07 9.07 0 0 0 5.772 1.748 9.1 9.1 0 0 0 5.8-1.692.77.77 0 0 1 .846-.158.784.784 0 0 1 .415.425.79.79 0 0 1-.179.843v-.111Zm-.5-4.745a2.774 2.774 0 0 1-2.721-3.317 2.773 2.773 0 0 1 3.783-2.022 2.78 2.78 0 0 1 1.713 2.564 2.762 2.762 0 0 1-.782 2.044c-.262.27-.576.484-.924.628-.347.145-.72.218-1.096.214l.027-.111Z" fill="#fff"/>
        <g filter="url(#A)">
          <circle cx="220.27" cy="95.722" r="11.621" fill="#E40914"/>
          <circle cx="220.27" cy="95.722" r="11.191" stroke="url(#B)" stroke-opacity=".33" stroke-width=".861"/>
          <g filter="url(#C)">
            <path d="M226.726 94.43v3.444h-12.912v-3.443h12.912Z" fill="#fff"/>
          </g>
        </g>
      </g>
      <g filter="url(#D)">
        <rect x="71" y="52" width="114.32" height="114.32" rx="20.006" fill="#fff" fill-opacity=".6" shape-rendering="crispEdges"/>
        <circle cx="128.159" cy="109.16" r="37.154" fill="#fff"/>
        <path d="M165.313 109.16c0-20.518-16.636-37.154-37.154-37.154-20.518 0-37.154 16.636-37.154 37.154 0 18.543 13.585 33.915 31.35 36.705v-25.962h-9.437V109.16h9.437v-8.187c0-9.31 5.548-14.457 14.034-14.457 4.064 0 8.318.726 8.318.726v9.144h-4.687c-4.614 0-6.056 2.863-6.056 5.804v6.97h10.304l-1.646 10.743h-8.658v25.962c17.765-2.785 31.349-18.156 31.349-36.705Z" fill="#1977F3"/>
        <g filter="url(#E)">
          <circle cx="178.5" cy="53.5" r="16.5" fill="#E40914"/>
          <circle cx="178.5" cy="53.5" r="15.889" stroke="url(#F)" stroke-opacity=".33" stroke-width="1.222"/>
          <g filter="url(#G)">
            <path d="M187.667 51.667v4.889h-18.334v-4.889h18.334Z" fill="#fff"/>
          </g>
        </g>
      </g>
  </g>
  <defs>
    <filter id="c" x="49.552" y="-121.607" width="618.698" height="519.844" filterUnits="userSpaceOnUse" color-interpolation-filters="sRGB">
      <feFlood flood-opacity="0" result="BackgroundImageFix"/>
      <feBlend in="SourceGraphic" in2="BackgroundImageFix" result="shape"/>
      <feGaussianBlur stdDeviation="31.265" result="effect1_foregroundBlur_1071_17340"/>
    </filter>
    <filter id="e" x="-428.938" y="-259.039" width="832.756" height="483.071" filterUnits="userSpaceOnUse" color-interpolation-filters="sRGB">
      <feFlood flood-opacity="0" result="BackgroundImageFix"/>
      <feBlend in="SourceGraphic" in2="BackgroundImageFix" result="shape"/>
      <feGaussianBlur stdDeviation="70.519" result="effect1_foregroundBlur_1071_17340"/>
    </filter>
    <filter id="g" x="-292.91" y="69.873" width="483.845" height="298.291" filterUnits="userSpaceOnUse" color-interpolation-filters="sRGB">
      <feFlood flood-opacity="0" result="BackgroundImageFix"/>
      <feBlend in="SourceGraphic" in2="BackgroundImageFix" result="shape"/>
      <feGaussianBlur stdDeviation="22.927" result="effect1_foregroundBlur_1071_17340"/>
    </filter>
    <filter id="i" x="266.568" y="163.4" width="59.479" height="59.806" filterUnits="userSpaceOnUse" color-interpolation-filters="sRGB">
      <feFlood flood-opacity="0" result="BackgroundImageFix"/>
      <feGaussianBlur in="BackgroundImageFix" stdDeviation="5.216"/>
      <feComposite in2="SourceAlpha" operator="in" result="effect1_backgroundBlur_1071_17340"/>
      <feColorMatrix in="SourceAlpha" values="0 0 0 0 0 0 0 0 0 0 0 0 0 0 0 0 0 0 127 0" result="hardAlpha"/>
      <feOffset dy="1.739"/>
      <feGaussianBlur stdDeviation="3.477"/>
      <feComposite in2="hardAlpha" operator="out"/>
      <feColorMatrix values="0 0 0 0 0 0 0 0 0 0 0 0 0 0 0 0 0 0 0.05 0"/>
      <feBlend in2="effect1_backgroundBlur_1071_17340" result="effect2_dropShadow_1071_17340"/>
      <feBlend in="SourceGraphic" in2="effect2_dropShadow_1071_17340" result="shape"/>
    </filter>
    <filter id="j" x="300.815" y="170.037" width="19.354" height="19.354" filterUnits="userSpaceOnUse" color-interpolation-filters="sRGB">
      <feFlood flood-opacity="0" result="BackgroundImageFix"/>
      <feColorMatrix in="SourceAlpha" values="0 0 0 0 0 0 0 0 0 0 0 0 0 0 0 0 0 0 127 0" result="hardAlpha"/>
      <feOffset dy=".759"/>
      <feGaussianBlur stdDeviation="2.277"/>
      <feComposite in2="hardAlpha" operator="out"/>
      <feColorMatrix values="0 0 0 0 0 0 0 0 0 0 0 0 0 0 0 0 0 0 0.25 0"/>
      <feBlend in2="BackgroundImageFix" result="effect1_dropShadow_1071_17340"/>
      <feBlend in="SourceGraphic" in2="effect1_dropShadow_1071_17340" result="shape"/>
    </filter>
    <filter id="l" x="307.457" y="178.385" width="6.072" height="2.087" filterUnits="userSpaceOnUse" color-interpolation-filters="sRGB">
      <feFlood flood-opacity="0" result="BackgroundImageFix"/>
      <feColorMatrix in="SourceAlpha" values="0 0 0 0 0 0 0 0 0 0 0 0 0 0 0 0 0 0 127 0" result="hardAlpha"/>
      <feOffset dy=".379"/>
      <feGaussianBlur stdDeviation=".095"/>
      <feComposite in2="hardAlpha" operator="out"/>
      <feColorMatrix values="0 0 0 0 0 0 0 0 0 0 0 0 0 0 0 0 0 0 0.09 0"/>
      <feBlend in2="BackgroundImageFix" result="effect1_dropShadow_1071_17340"/>
      <feBlend in="SourceGraphic" in2="effect1_dropShadow_1071_17340" result="shape"/>
    </filter>
    <filter id="m" x="234.402" y="144.26" width="67.032" height="69.622" filterUnits="userSpaceOnUse" color-interpolation-filters="sRGB">
      <feFlood flood-opacity="0" result="BackgroundImageFix"/>
      <feGaussianBlur in="BackgroundImageFix" stdDeviation="2.065"/>
      <feComposite in2="SourceAlpha" operator="in" result="effect1_backgroundBlur_1071_17340"/>
      <feColorMatrix in="SourceAlpha" values="0 0 0 0 0 0 0 0 0 0 0 0 0 0 0 0 0 0 127 0" result="hardAlpha"/>
      <feOffset dy="1.899"/>
      <feGaussianBlur stdDeviation="3.799"/>
      <feComposite in2="hardAlpha" operator="out"/>
      <feColorMatrix values="0 0 0 0 0 0 0 0 0 0 0 0 0 0 0 0 0 0 0.05 0"/>
      <feBlend in2="effect1_backgroundBlur_1071_17340" result="effect2_dropShadow_1071_17340"/>
      <feBlend in="SourceGraphic" in2="effect2_dropShadow_1071_17340" result="shape"/>
    </filter>
    <filter id="p" x="276.098" y="145.41" width="23.197" height="23.197" filterUnits="userSpaceOnUse" color-interpolation-filters="sRGB">
      <feFlood flood-opacity="0" result="BackgroundImageFix"/>
      <feColorMatrix in="SourceAlpha" values="0 0 0 0 0 0 0 0 0 0 0 0 0 0 0 0 0 0 127 0" result="hardAlpha"/>
      <feOffset dy=".91"/>
      <feGaussianBlur stdDeviation="2.729"/>
      <feComposite in2="hardAlpha" operator="out"/>
      <feColorMatrix values="0 0 0 0 0 0 0 0 0 0 0 0 0 0 0 0 0 0 0.25 0"/>
      <feBlend in2="BackgroundImageFix" result="effect1_dropShadow_1071_17340"/>
      <feBlend in="SourceGraphic" in2="effect1_dropShadow_1071_17340" result="shape"/>
    </filter>
    <filter id="r" x="284.058" y="155.417" width="7.278" height="2.502" filterUnits="userSpaceOnUse" color-interpolation-filters="sRGB">
      <feFlood flood-opacity="0" result="BackgroundImageFix"/>
      <feColorMatrix in="SourceAlpha" values="0 0 0 0 0 0 0 0 0 0 0 0 0 0 0 0 0 0 127 0" result="hardAlpha"/>
      <feOffset dy=".455"/>
      <feGaussianBlur stdDeviation=".114"/>
      <feComposite in2="hardAlpha" operator="out"/>
      <feColorMatrix values="0 0 0 0 0 0 0 0 0 0 0 0 0 0 0 0 0 0 0.09 0"/>
      <feBlend in2="BackgroundImageFix" result="effect1_dropShadow_1071_17340"/>
      <feBlend in="SourceGraphic" in2="effect1_dropShadow_1071_17340" result="shape"/>
    </filter>
    <filter id="s" x="186.73" y="115.439" width="88.145" height="90.057" filterUnits="userSpaceOnUse" color-interpolation-filters="sRGB">
      <feFlood flood-opacity="0" result="BackgroundImageFix"/>
      <feGaussianBlur in="BackgroundImageFix" stdDeviation="2.281"/>
      <feComposite in2="SourceAlpha" operator="in" result="effect1_backgroundBlur_1071_17340"/>
      <feColorMatrix in="SourceAlpha" values="0 0 0 0 0 0 0 0 0 0 0 0 0 0 0 0 0 0 127 0" result="hardAlpha"/>
      <feOffset dy="2.067"/>
      <feGaussianBlur stdDeviation="4.135"/>
      <feComposite in2="hardAlpha" operator="out"/>
      <feColorMatrix values="0 0 0 0 0 0 0 0 0 0 0 0 0 0 0 0 0 0 0.05 0"/>
      <feBlend in2="effect1_backgroundBlur_1071_17340" result="effect2_dropShadow_1071_17340"/>
      <feBlend in="SourceGraphic" in2="effect2_dropShadow_1071_17340" result="shape"/>
    </filter>
    <filter id="w" x="241.239" y="115.138" width="33.171" height="33.171" filterUnits="userSpaceOnUse" color-interpolation-filters="sRGB">
      <feFlood flood-opacity="0" result="BackgroundImageFix"/>
      <feColorMatrix in="SourceAlpha" values="0 0 0 0 0 0 0 0 0 0 0 0 0 0 0 0 0 0 127 0" result="hardAlpha"/>
      <feOffset dy="1.301"/>
      <feGaussianBlur stdDeviation="3.902"/>
      <feComposite in2="hardAlpha" operator="out"/>
      <feColorMatrix values="0 0 0 0 0 0 0 0 0 0 0 0 0 0 0 0 0 0 0.25 0"/>
      <feBlend in2="BackgroundImageFix" result="effect1_dropShadow_1071_17340"/>
      <feBlend in="SourceGraphic" in2="effect1_dropShadow_1071_17340" result="shape"/>
    </filter>
    <filter id="y" x="252.622" y="129.446" width="10.407" height="3.577" filterUnits="userSpaceOnUse" color-interpolation-filters="sRGB">
      <feFlood flood-opacity="0" result="BackgroundImageFix"/>
      <feColorMatrix in="SourceAlpha" values="0 0 0 0 0 0 0 0 0 0 0 0 0 0 0 0 0 0 127 0" result="hardAlpha"/>
      <feOffset dy=".65"/>
      <feGaussianBlur stdDeviation=".163"/>
      <feComposite in2="hardAlpha" operator="out"/>
      <feColorMatrix values="0 0 0 0 0 0 0 0 0 0 0 0 0 0 0 0 0 0 0.09 0"/>
      <feBlend in2="BackgroundImageFix" result="effect1_dropShadow_1071_17340"/>
      <feBlend in="SourceGraphic" in2="effect1_dropShadow_1071_17340" result="shape"/>
    </filter>
    <filter id="z" x="126.348" y="76.862" width="115.194" height="116.068" filterUnits="userSpaceOnUse" color-interpolation-filters="sRGB">
      <feFlood flood-opacity="0" result="BackgroundImageFix"/>
      <feGaussianBlur in="BackgroundImageFix" stdDeviation="2.555"/>
      <feComposite in2="SourceAlpha" operator="in" result="effect1_backgroundBlur_1071_17340"/>
      <feColorMatrix in="SourceAlpha" values="0 0 0 0 0 0 0 0 0 0 0 0 0 0 0 0 0 0 127 0" result="hardAlpha"/>
      <feOffset dy="2.413"/>
      <feGaussianBlur stdDeviation="4.826"/>
      <feComposite in2="hardAlpha" operator="out"/>
      <feColorMatrix values="0 0 0 0 0 0 0 0 0 0 0 0 0 0 0 0 0 0 0.05 0"/>
      <feBlend in2="effect1_backgroundBlur_1071_17340" result="effect2_dropShadow_1071_17340"/>
      <feBlend in="SourceGraphic" in2="effect2_dropShadow_1071_17340" result="shape"/>
    </filter>
    <filter id="A" x="198.319" y="75.493" width="43.902" height="43.902" filterUnits="userSpaceOnUse" color-interpolation-filters="sRGB">
      <feFlood flood-opacity="0" result="BackgroundImageFix"/>
      <feColorMatrix in="SourceAlpha" values="0 0 0 0 0 0 0 0 0 0 0 0 0 0 0 0 0 0 127 0" result="hardAlpha"/>
      <feOffset dy="1.722"/>
      <feGaussianBlur stdDeviation="5.165"/>
      <feComposite in2="hardAlpha" operator="out"/>
      <feColorMatrix values="0 0 0 0 0 0 0 0 0 0 0 0 0 0 0 0 0 0 0.25 0"/>
      <feBlend in2="BackgroundImageFix" result="effect1_dropShadow_1071_17340"/>
      <feBlend in="SourceGraphic" in2="effect1_dropShadow_1071_17340" result="shape"/>
    </filter>
    <filter id="C" x="213.384" y="94.431" width="13.773" height="4.735" filterUnits="userSpaceOnUse" color-interpolation-filters="sRGB">
      <feFlood flood-opacity="0" result="BackgroundImageFix"/>
      <feColorMatrix in="SourceAlpha" values="0 0 0 0 0 0 0 0 0 0 0 0 0 0 0 0 0 0 127 0" result="hardAlpha"/>
      <feOffset dy=".861"/>
      <feGaussianBlur stdDeviation=".215"/>
      <feComposite in2="hardAlpha" operator="out"/>
      <feColorMatrix values="0 0 0 0 0 0 0 0 0 0 0 0 0 0 0 0 0 0 0.09 0"/>
      <feBlend in2="BackgroundImageFix" result="effect1_dropShadow_1071_17340"/>
      <feBlend in="SourceGraphic" in2="effect1_dropShadow_1071_17340" result="shape"/>
    </filter>
    <filter id="D" x="59.568" y="28.426" width="146.864" height="152.184" filterUnits="userSpaceOnUse" color-interpolation-filters="sRGB">
      <feFlood flood-opacity="0" result="BackgroundImageFix"/>
      <feGaussianBlur in="BackgroundImageFix" stdDeviation="2.858"/>
      <feComposite in2="SourceAlpha" operator="in" result="effect1_backgroundBlur_1071_17340"/>
      <feColorMatrix in="SourceAlpha" values="0 0 0 0 0 0 0 0 0 0 0 0 0 0 0 0 0 0 127 0" result="hardAlpha"/>
      <feOffset dy="2.858"/>
      <feGaussianBlur stdDeviation="5.716"/>
      <feComposite in2="hardAlpha" operator="out"/>
      <feColorMatrix values="0 0 0 0 0 0 0 0 0 0 0 0 0 0 0 0 0 0 0.05 0"/>
      <feBlend in2="effect1_backgroundBlur_1071_17340" result="effect2_dropShadow_1071_17340"/>
      <feBlend in="SourceGraphic" in2="effect2_dropShadow_1071_17340" result="shape"/>
    </filter>
    <filter id="E" x="147.333" y="24.778" width="62.333" height="62.333" filterUnits="userSpaceOnUse" color-interpolation-filters="sRGB">
      <feFlood flood-opacity="0" result="BackgroundImageFix"/>
      <feColorMatrix in="SourceAlpha" values="0 0 0 0 0 0 0 0 0 0 0 0 0 0 0 0 0 0 127 0" result="hardAlpha"/>
      <feOffset dy="2.444"/>
      <feGaussianBlur stdDeviation="7.333"/>
      <feComposite in2="hardAlpha" operator="out"/>
      <feColorMatrix values="0 0 0 0 0 0 0 0 0 0 0 0 0 0 0 0 0 0 0.25 0"/>
      <feBlend in2="BackgroundImageFix" result="effect1_dropShadow_1071_17340"/>
      <feBlend in="SourceGraphic" in2="effect1_dropShadow_1071_17340" result="shape"/>
    </filter>
    <filter id="G" x="168.722" y="51.667" width="19.556" height="6.722" filterUnits="userSpaceOnUse" color-interpolation-filters="sRGB">
      <feFlood flood-opacity="0" result="BackgroundImageFix"/>
      <feColorMatrix in="SourceAlpha" values="0 0 0 0 0 0 0 0 0 0 0 0 0 0 0 0 0 0 127 0" result="hardAlpha"/>
      <feOffset dy="1.222"/>
      <feGaussianBlur stdDeviation=".306"/>
      <feComposite in2="hardAlpha" operator="out"/>
      <feColorMatrix values="0 0 0 0 0 0 0 0 0 0 0 0 0 0 0 0 0 0 0.09 0"/>
      <feBlend in2="BackgroundImageFix" result="effect1_dropShadow_1071_17340"/>
      <feBlend in="SourceGraphic" in2="effect1_dropShadow_1071_17340" result="shape"/>
    </filter>
    <linearGradient id="d" x1="336.718" y1="123.093" x2="476.853" y2="123.093" gradientUnits="userSpaceOnUse">
      <stop stop-color="#FF97B2"/>
      <stop offset="1" stop-color="#FF819F"/>
    </linearGradient>
    <linearGradient id="f" x1="-222.829" y1="-101.51" x2="-34.599" y2="224.754" gradientUnits="userSpaceOnUse">
      <stop stop-color="#7769F2"/>
      <stop offset="1" stop-color="#A874EA"/>
    </linearGradient>
    <linearGradient id="h" x1="-204.312" y1="287.738" x2="-28.603" y2="62.04" gradientUnits="userSpaceOnUse">
      <stop stop-color="#9CD9FF"/>
      <stop offset="1" stop-color="#CEECFF"/>
    </linearGradient>
    <linearGradient id="k" x1="305.559" y1="175.919" x2="320.169" y2="183.129" gradientUnits="userSpaceOnUse">
      <stop stop-color="#fff"/>
      <stop offset="1" stop-color="#fff" stop-opacity="0"/>
    </linearGradient>
    <linearGradient id="q" x1="281.784" y1="152.46" x2="299.295" y2="161.102" gradientUnits="userSpaceOnUse">
      <stop stop-color="#fff"/>
      <stop offset="1" stop-color="#fff" stop-opacity="0"/>
    </linearGradient>
    <linearGradient id="t" x1="222.304" y1="140.322" x2="235.181" y2="183.378" gradientUnits="userSpaceOnUse">
      <stop stop-color="#4367DC"/>
      <stop offset=".043" stop-color="#4C62D6"/>
      <stop offset=".114" stop-color="#6654C7"/>
      <stop offset=".204" stop-color="#8F3DAE"/>
      <stop offset=".234" stop-color="#9E35A5"/>
      <stop offset=".451" stop-color="#D42F7F"/>
      <stop offset=".824" stop-color="#D73578"/>
    </linearGradient>
    <linearGradient id="u" x1="233.924" y1="155.019" x2="223.603" y2="172.364" gradientUnits="userSpaceOnUse">
      <stop offset=".33" stop-color="#D42F7F"/>
      <stop offset="1" stop-color="#F7772E"/>
    </linearGradient>
    <linearGradient id="v" x1="238.017" y1="141.865" x2="220.633" y2="183.305" gradientUnits="userSpaceOnUse">
      <stop offset=".234" stop-color="#9E35A5" stop-opacity="0"/>
      <stop offset=".451" stop-color="#D42F7F" stop-opacity=".5"/>
      <stop offset=".752" stop-color="#F7772E"/>
      <stop offset=".962" stop-color="#FEF780"/>
    </linearGradient>
    <linearGradient id="x" x1="249.369" y1="125.219" x2="274.41" y2="137.577" gradientUnits="userSpaceOnUse">
      <stop stop-color="#fff"/>
      <stop offset="1" stop-color="#fff" stop-opacity="0"/>
    </linearGradient>
    <linearGradient id="B" x1="209.079" y1="88.836" x2="242.221" y2="105.191" gradientUnits="userSpaceOnUse">
      <stop stop-color="#fff"/>
      <stop offset="1" stop-color="#fff" stop-opacity="0"/>
    </linearGradient>
    <linearGradient id="F" x1="162.611" y1="43.722" x2="209.667" y2="66.944" gradientUnits="userSpaceOnUse">
      <stop stop-color="#fff"/>
      <stop offset="1" stop-color="#fff" stop-opacity="0"/>
    </linearGradient>
    <radialGradient id="n" cx="0" cy="0" r="1" gradientUnits="userSpaceOnUse" gradientTransform="rotate(-14.164 859.999 -980.213) scale(2.78632 100.421)">
      <stop/>
      <stop offset="1" stop-opacity="0"/>
    </radialGradient>
    <radialGradient id="o" cx="0" cy="0" r="1" gradientUnits="userSpaceOnUse" gradientTransform="rotate(165.556 123.274 106.907) scale(2.33071 84.0008)">
      <stop/>
      <stop offset="1" stop-opacity="0"/>
    </radialGradient>
    <clipPath id="b">
      <path fill="#fff" d="M-129 299V-59h598v358z"/>
    </clipPath>
  </defs>
</svg>


