<svg width="32" height="32" viewBox="0 0 32 32" fill="none" xmlns="http://www.w3.org/2000/svg">
<path d="M30.2411 22.6862C30.0812 22.2965 29.9313 21.8867 29.7714 21.537L29.0319 19.8681L29.0019 19.8381C26.8034 15.0413 24.455 10.1646 21.9666 5.36782L21.8667 5.16796C21.6169 4.69827 21.367 4.17862 21.1072 3.69895C20.7874 3.12933 20.4776 2.51974 19.968 1.94013C19.4712 1.33366 18.846 0.84505 18.1374 0.509542C17.4289 0.174034 16.6547 0 15.8707 0C15.0868 0 14.3126 0.174034 13.604 0.509542C12.8955 0.84505 12.2703 1.33366 11.7735 1.94013C11.3038 2.51974 10.954 3.12933 10.6342 3.69895C10.3844 4.2186 10.1346 4.72825 9.87475 5.19794L9.77482 5.3978C7.32646 10.1946 4.93807 15.0713 2.73954 19.8681L2.67958 19.928C2.45973 20.4477 2.19991 20.9873 1.95007 21.5669C1.79018 21.9167 1.63029 22.2965 1.4704 22.7162C1.03872 23.8152 0.900869 25.0078 1.07044 26.1763C1.24 27.3449 1.71113 28.4491 2.43739 29.3801C3.16365 30.3111 4.11997 31.0368 5.21211 31.4857C6.30424 31.9346 7.4945 32.0912 8.66556 31.94C9.78828 31.7922 10.8694 31.4182 11.8434 30.8407C13.1426 30.1112 14.3917 29.0519 15.7908 27.5229C17.1898 29.0519 18.469 30.1112 19.7381 30.8507C20.9586 31.5671 22.3407 31.9625 23.7554 31.9999C25.3937 32.0067 26.9791 31.4206 28.2189 30.3498C29.4587 29.2789 30.2693 27.7957 30.5009 26.1739C30.7686 25.0084 30.678 23.7893 30.2411 22.6762V22.6862ZM15.8907 24.3451C14.1719 22.1466 13.0526 20.1279 12.6729 18.3991C12.5155 17.7584 12.4816 17.0937 12.5729 16.4404C12.6429 15.9307 12.8328 15.481 13.0926 15.1013C13.6922 14.2319 14.7415 13.6922 15.8907 13.6922C16.4365 13.6756 16.9778 13.7947 17.4662 14.0389C17.9546 14.283 18.3747 14.6447 18.6888 15.0913C18.9487 15.491 19.1385 15.9307 19.1985 16.4404C19.2984 17.02 19.2585 17.6896 19.0986 18.3991C18.7188 20.0979 17.5996 22.1366 15.8907 24.3451ZM28.6222 25.8241C28.5086 26.6475 28.1813 27.4268 27.6728 28.0843C27.1644 28.7418 26.4925 29.2546 25.7241 29.5716C24.9646 29.8914 24.1252 29.9813 23.3057 29.8914C22.5063 29.7914 21.7068 29.5316 20.8874 29.0519C19.5268 28.211 18.3033 27.1662 17.2598 25.954C19.3584 23.3557 20.6275 20.9873 21.1072 18.8788C21.3371 17.8794 21.367 16.98 21.2671 16.1506C21.1423 15.3644 20.8492 14.6145 20.4077 13.9521C19.9036 13.2338 19.2308 12.6504 18.4484 12.2531C17.666 11.8558 16.798 11.6568 15.9207 11.6736C14.0719 11.6736 12.423 12.533 11.4237 13.9421C10.9739 14.6028 10.6831 15.3587 10.5743 16.1506C10.4444 16.99 10.4743 17.9194 10.7342 18.8788C11.2139 20.9873 12.513 23.3857 14.5816 25.974C13.5558 27.2093 12.3295 28.2633 10.954 29.0919C10.1246 29.5716 9.33511 29.8214 8.53565 29.9213C7.29237 30.0806 6.03648 29.7427 5.04096 28.9811C4.04544 28.2195 3.39076 27.0957 3.21922 25.8541C3.11929 25.0546 3.18924 24.2551 3.50903 23.3557C3.60896 23.036 3.75886 22.7162 3.91875 22.3364C4.1386 21.8168 4.39843 21.2771 4.64826 20.7375L4.68823 20.6676C6.84679 15.9008 9.2052 11.034 11.6536 6.26722L11.7535 6.06736C12.0033 5.58768 12.2532 5.07802 12.513 4.59834C12.7728 4.08868 13.0526 3.59901 13.4124 3.19928C13.7238 2.82755 14.1129 2.5286 14.5523 2.32349C14.9917 2.11837 15.4707 2.01207 15.9557 2.01207C16.4406 2.01207 16.9196 2.11837 17.359 2.32349C17.7985 2.5286 18.1876 2.82755 18.499 3.19928C18.8487 3.59901 19.1385 4.08868 19.3984 4.59834C19.6482 5.07802 19.898 5.59767 20.1578 6.06736L20.2578 6.26722C22.6961 11.034 25.0546 15.9008 27.2531 20.6676L27.2831 20.6975C27.5429 21.2172 27.7627 21.7968 28.0126 22.2965C28.1725 22.6862 28.3324 22.996 28.4323 23.3258C28.6222 24.2252 28.7221 25.0246 28.6222 25.8241Z" fill="#FF385B"/>
</svg>
