<svg width="32" height="32" viewBox="0 0 32 32" fill="none" xmlns="http://www.w3.org/2000/svg">
<path d="M14.2886 2.988L2.35792 7.9247C1.69446 8.19928 1.70133 9.14183 2.36895 9.40646L14.3494 14.1574C15.402 14.5749 16.5743 14.5749 17.6269 14.1574L29.6075 9.40628C30.275 9.14183 30.2822 8.19946 29.6184 7.92488L17.688 2.98782C16.5996 2.53743 15.3769 2.53743 14.2884 2.98782" fill="#FCB400"/>
<path d="M17.0515 16.7515V28.6201C17.0515 29.1845 17.6207 29.5712 18.1455 29.3632L31.4953 24.1814C31.6442 24.1224 31.772 24.02 31.8619 23.8875C31.9519 23.755 32 23.5985 32 23.4384V11.5699C32 11.0053 31.4308 10.6188 30.906 10.8268L17.5562 16.0086C17.4073 16.0677 17.2796 16.1701 17.1896 16.3026C17.0996 16.4351 17.0515 16.5915 17.0515 16.7517" fill="#18BFFF"/>
<path d="M13.9345 17.3635L9.97253 19.2765L9.57025 19.4709L1.20682 23.4783C0.676845 23.734 0 23.3477 0 22.7588V11.6192C0 11.4061 0.10925 11.2222 0.255761 11.0838C0.315867 11.024 0.384057 10.9728 0.458345 10.9319C0.658034 10.8119 0.943098 10.7799 1.18547 10.8758L13.8679 15.9009C14.5126 16.1567 14.5632 17.06 13.9345 17.3637" fill="#F82B60"/>
<path d="M13.9352 17.3635L9.97323 19.2765L0.25647 11.0836C0.316587 11.0238 0.384776 10.9728 0.459053 10.9319C0.658742 10.8119 0.943806 10.7799 1.18618 10.8758L13.8686 15.9009C14.5133 16.1567 14.5639 17.06 13.9352 17.3637" fill="black" fill-opacity="0.25"/>
</svg>
