<svg width="32" height="32" viewBox="0 0 32 32" fill="none" xmlns="http://www.w3.org/2000/svg">
<path fill-rule="evenodd" clip-rule="evenodd" d="M16 0C7.16343 0 0 7.16343 0 16C0 24.8366 7.16343 32 16 32C24.8366 32 32 24.8366 32 16C32 7.16343 24.8366 0 16 0Z" fill="#00C4CC"/>
<path fill-rule="evenodd" clip-rule="evenodd" d="M26.6971 16.4572C26.5142 16.4572 26.1942 16.4115 26.1942 16.2286C26.1942 16.0457 26.6057 16.1372 26.5599 15.7257C26.5142 15.4515 26.2399 15.36 25.9657 15.36C25.0514 15.36 24.4571 16.5486 24.5942 17.5086C24.6399 17.8743 24.8228 18.2857 25.1885 18.2857C25.4628 18.2857 25.8742 17.8743 26.0571 17.28C26.1485 16.9143 26.5142 16.5943 26.8342 16.5943C26.9714 16.5943 27.0628 16.64 27.1085 16.8229C27.1085 16.9143 27.1085 17.0972 26.9257 17.6915C26.6971 18.1029 26.6971 18.3315 26.7428 18.5143C26.7885 18.88 26.9714 19.1543 27.1542 19.2915C27.1999 19.3372 27.2457 19.4286 27.2457 19.4286C27.2457 19.52 27.1999 19.6115 27.0628 19.6115C27.0171 19.6115 26.9714 19.6115 26.9257 19.5657C26.2399 19.2915 25.9657 18.8343 25.8742 18.3772C25.5999 18.6972 25.2799 18.88 24.9142 18.88C24.3199 18.88 23.7257 18.3314 23.6342 17.6457C23.6022 17.3705 23.6434 17.0743 23.7334 16.7804C23.4623 16.9541 23.1711 17.0515 22.9033 17.0515H22.6747C22.0804 17.92 21.4404 18.5143 20.9833 18.7886C20.8004 18.88 20.6175 18.9257 20.4804 18.9257C20.389 18.9257 20.2518 18.88 20.2061 18.7886C20.0804 18.5856 19.9986 18.2647 19.9487 17.8985C19.3074 18.6012 18.4219 18.9715 18.0123 18.9715C17.5551 18.9715 17.2809 18.6972 17.2351 18.24V17.7372C17.3723 16.7315 17.738 16.1372 17.738 15.9543C17.738 15.9086 17.6923 15.8629 17.6466 15.8629C17.3266 15.8629 16.2751 16.96 16.0923 17.6915L15.9551 18.2857C15.8637 18.6972 15.4523 18.9715 15.178 18.9715C15.0409 18.9715 14.9494 18.9257 14.9037 18.7429V18.56L14.9659 18.2492C14.3862 18.6624 13.8047 18.9257 13.5327 18.9257C13.1213 18.9257 12.8927 18.6972 12.847 18.3772C12.5727 18.7429 12.2527 18.9257 11.8413 18.9257C11.3723 18.9257 10.9133 18.6057 10.6916 18.1363C10.367 18.502 9.99537 18.8723 9.55651 19.1548C8.91651 19.5662 8.18508 19.8862 7.31651 19.8862C6.53937 19.8862 5.85365 19.4748 5.48794 19.109C4.93937 18.6062 4.61937 17.8291 4.57365 17.0976C4.29937 14.8576 5.67079 11.9776 7.77365 10.6976C8.27651 10.4233 8.77937 10.2405 9.28222 10.2405C10.2879 10.2405 11.0651 10.9719 11.1565 11.8405C11.2479 12.6176 10.9279 13.3033 10.0594 13.7148C9.60222 13.9433 9.41937 13.9433 9.32794 13.8062C9.28222 13.7148 9.32794 13.6233 9.41937 13.5319C10.2422 12.8462 10.2422 12.2976 10.1508 11.5205C10.1051 11.0176 9.73937 10.6976 9.37365 10.6976C7.77365 10.6976 5.48794 14.2633 5.80794 16.8691C5.94508 17.8748 6.53937 19.0633 7.81937 19.0633C8.23079 19.0633 8.68794 18.9262 9.09937 18.7433C9.7668 18.3913 10.1645 18.1171 10.5622 17.6782C10.4649 16.4974 11.5012 14.9491 13.0308 14.9491C13.7165 14.9491 14.2651 15.2233 14.3108 15.7262C14.4022 16.4119 13.8079 16.5033 13.6251 16.5033C13.4422 16.5033 13.1222 16.4576 13.1222 16.2748C13.0765 16.0919 13.5337 16.1833 13.4879 15.7719C13.4422 15.4976 13.1679 15.4062 12.8937 15.4062C11.9337 15.4062 11.3851 16.7319 11.5222 17.5548C11.5679 17.9205 11.7508 18.2862 12.1165 18.2862C12.3908 18.2862 12.8022 17.8748 12.9394 17.2805C13.0308 16.8691 13.3965 16.5948 13.7165 16.5948C13.8537 16.5948 13.9451 16.6405 13.9908 16.8233V17.0062C13.9451 17.1891 13.8079 17.7376 13.8537 17.8748C13.8537 17.9662 13.8994 18.1033 14.0822 18.1033C14.2034 18.1033 14.6628 17.8629 15.1172 17.4908C15.2726 16.7045 15.4541 15.7605 15.4541 15.6814C15.4998 15.3614 15.637 15.0414 16.277 15.0414C16.4141 15.0414 16.5055 15.0871 16.5513 15.27V15.4528L16.3684 16.2757C16.9627 15.4985 17.8313 14.95 18.3798 14.95C18.6084 14.95 18.7913 15.0871 18.7913 15.3157C18.7913 15.4528 18.7913 15.6814 18.6998 15.91C18.517 16.4128 18.2884 17.19 18.1513 17.8757C18.1513 18.0585 18.197 18.2414 18.4255 18.2414C18.6541 18.2414 19.3398 17.9671 19.8884 17.2357L19.8975 17.2302C19.8948 17.1406 19.8884 17.0519 19.8884 16.9619C19.8884 16.4133 19.9341 15.9561 20.0255 15.6361C20.117 15.2704 20.5741 14.9504 20.8484 14.9504C20.9855 14.9504 21.1227 15.0418 21.1227 15.179C21.1227 15.2247 21.1227 15.3161 21.077 15.3619C20.8941 15.9561 20.757 16.5047 20.757 17.0533C20.757 17.3733 20.8027 17.8304 20.8941 18.1047C20.8941 18.1504 20.9398 18.1961 20.9855 18.1961C21.077 18.1961 21.717 17.6019 22.1741 16.8247C21.7627 16.5504 21.5341 16.0933 21.5341 15.5447C21.5341 14.5847 22.1284 14.0819 22.677 14.0819C23.1341 14.0819 23.4998 14.4019 23.4998 15.0419C23.4998 15.4533 23.3627 15.9104 23.1341 16.3218H23.2713C23.637 16.3218 23.8655 16.1847 24.0484 16.0019C24.0907 15.9326 24.1535 15.8783 24.2281 15.8464C24.6742 15.2796 25.3343 14.859 26.1069 14.859C26.7469 14.859 27.3398 15.1333 27.3869 15.6361C27.4783 16.3218 26.8831 16.459 26.6998 16.459L26.6971 16.4572Z" fill="white"/>
<path fill-rule="evenodd" clip-rule="evenodd" d="M22.3086 14.6287C22.1715 14.6287 22.0801 14.8572 22.0801 15.0858C22.0801 15.4515 22.2629 15.8629 22.4915 16.0915C22.5829 15.8172 22.6286 15.5887 22.6286 15.3144C22.6286 14.8572 22.4458 14.6287 22.3086 14.6287Z" fill="#00C4CC"/>
</svg>
