<svg width="32" height="33" viewBox="0 0 32 33" fill="none" xmlns="http://www.w3.org/2000/svg">
<path d="M1 16.9965C1 12.5889 1 8.17764 1 3.76999C1.00356 2.63425 1.53405 1.80826 2.52025 1.27065C2.85492 1.09264 3.22519 1.00363 3.59902 1.00363C11.7699 0.996511 19.9408 0.996511 28.1117 1.00363C29.2652 1.00363 30.3155 1.78334 30.6288 2.87635C30.7072 3.14693 30.7463 3.43176 30.757 3.71302C30.7748 4.30403 30.7641 4.8986 30.7606 5.49317C30.7534 6.38325 30.7356 7.27332 30.725 8.15984C30.7107 9.12468 30.7036 10.0895 30.6858 11.0544C30.6787 11.3712 30.6466 11.6845 30.5149 11.9907C30.255 12.5853 29.4682 12.9556 28.8985 12.8025C28.3752 12.6601 27.9408 12.4037 27.5563 12.0406C26.7125 11.2395 25.7014 10.8158 24.555 10.6734C23.6684 10.563 22.7962 10.6129 21.931 10.8229C20.8629 11.0828 19.8803 11.535 19.0828 12.3076C18.7018 12.6743 18.3351 13.0731 18.036 13.5074C17.4949 14.2871 17.1567 15.1594 17.0142 16.11C16.8611 17.1318 16.9929 18.118 17.3453 19.0757C17.7583 20.2008 18.449 21.1336 19.3925 21.8777C20.1544 22.4794 21.0089 22.8674 21.9559 23.0846C22.6858 23.2555 23.4192 23.3303 24.1598 23.2769C25.4628 23.1808 26.652 22.7891 27.5919 21.8172C27.98 21.4184 28.4571 21.1656 29.016 21.0837C29.632 20.9912 30.2514 21.3258 30.5042 21.9382C30.6075 22.1839 30.668 22.4616 30.6751 22.725C30.7 23.4656 30.6822 24.2097 30.6894 24.9502C30.7 25.9507 30.7143 26.9547 30.7285 27.9551C30.7392 28.7597 30.7712 29.5679 30.757 30.3726C30.7392 31.3232 30.2942 32.0673 29.5038 32.58C29.0587 32.8683 28.5461 33.0001 28.0013 33.0001C19.9123 32.9965 11.8269 32.9965 3.73787 32.9965C2.6235 32.9965 1.62305 32.3414 1.19582 31.3125C1.06409 30.9921 1 30.6503 1 30.2942C1.00356 25.8617 1 21.4291 1 16.9965Z" fill="#F36A54"/>
</svg>
