<svg width="32" height="32" viewBox="0 0 32 32" fill="none" xmlns="http://www.w3.org/2000/svg">
<path d="M31.9913 15.9132C31.9859 15.7876 31.9773 15.6653 31.9675 15.5409C31.9675 15.5409 31.9675 15.5398 31.9675 15.5387C31.9675 15.5387 31.9675 15.5376 31.9675 15.5365C31.8485 14.187 31.4026 12.9241 30.6461 11.7834C30.3085 11.2748 29.9221 10.8127 29.4903 10.3982C28.8594 9.79107 28.1289 9.28892 27.3054 8.89174C26.0662 8.29977 24.6972 8.00108 23.2362 8.00108C23.0934 8.00108 22.944 8.00325 22.7936 8.00866C21.7677 8.05519 20.7753 8.24999 19.8424 8.59305C18.902 8.93287 18.0827 9.38199 17.4128 9.92093C17.2765 10.0292 17.1282 10.1623 16.9691 10.3084L16.8544 10.4209L16.6975 10.5876H16.6986H16.6996L16.6261 10.6601L16.5903 10.699L16.4031 10.896C16.2646 11.0518 16.1326 11.2077 16.0092 11.3603L16.0081 11.3581L16.0038 11.3538C15.7473 11.6655 15.5103 11.988 15.3361 12.278C15.2181 12.4641 15.1023 12.6557 14.9919 12.8472L13.4627 15.9391L13.4649 15.9413L13.3848 16.0982L13.216 16.4402C12.8805 17.1187 12.5212 17.7951 12.1197 18.3535C11.2247 19.3351 10.2129 19.8156 8.91204 19.8156C8.82113 19.8156 8.72806 19.8113 8.63282 19.8059C7.8493 19.7745 7.17725 19.5894 6.58095 19.2366C6.5171 19.1988 6.45541 19.1598 6.39589 19.1198C5.90889 18.7962 5.53553 18.3806 5.25632 17.8622C4.94139 17.2746 4.80179 16.6739 4.82127 16.0376C4.82235 16.0203 4.82343 16.0051 4.82343 15.9911C4.86564 14.9781 5.25199 14.1903 6.0301 13.5096C6.21949 13.3461 6.41753 13.2076 6.62423 13.0842C6.65345 13.0669 6.68267 13.0507 6.71189 13.0355C7.2898 12.7206 7.94778 12.5637 8.70209 12.5637L8.93693 12.5702C10.1349 12.6156 11.0591 12.9901 11.7961 13.7206L14.1077 9.57029C13.5547 9.20018 12.9303 8.882 12.242 8.62336C12.216 8.61362 12.189 8.60279 12.1619 8.59414C12.0797 8.56492 11.9985 8.53461 11.9141 8.50756C11.1825 8.26298 10.4152 8.11255 9.62522 8.04437C9.60574 8.04112 9.58409 8.03896 9.56461 8.0368C9.4434 8.02922 9.32003 8.01407 9.19882 8.00866C9.06679 8.00325 8.93368 8.00108 8.80381 8H8.72914C7.27573 8.00541 5.92512 8.30302 4.69032 8.89283C3.30725 9.55947 2.18607 10.5302 1.35493 11.7813C0.525957 13.0323 0.0735917 14.4208 0.00865887 15.911C0.0032478 16.0387 1.15457e-06 16.1653 1.15457e-06 16.2898C-0.00108106 18.3741 0.758633 20.2074 2.2694 21.7463C3.84619 23.361 5.89699 24.2311 8.35903 24.3339C8.51703 24.3404 8.67287 24.3447 8.82871 24.3447C10.2215 24.3447 11.5104 24.0969 12.6662 23.6012C12.9552 23.4778 13.2355 23.3328 13.5223 23.1716C13.6781 23.0817 13.8253 22.9865 13.9714 22.8848L14.0796 22.8123L14.2614 22.6878C14.48 22.5309 14.6846 22.361 14.8837 22.1803L14.953 22.1142C15.0698 22.0028 15.1867 21.8902 15.2971 21.7744L15.7116 21.3058L15.8696 21.1078L15.9432 20.9996L16.0168 20.8935C16.6326 19.8589 18.6368 16.0939 18.6368 16.0939V16.0863L18.7559 15.8569L18.8554 15.6772C19.1509 15.1394 19.3641 14.7573 19.6465 14.3558L19.6541 14.3439C20.3132 13.3883 21.4462 12.7076 22.7817 12.5929C25.0219 12.4003 26.985 13.8721 27.1657 15.8807C27.3454 17.8893 25.6745 19.6738 23.4343 19.8676C22.9678 19.9076 22.5144 19.8762 22.0869 19.7821L22.0761 19.7864C20.4322 19.4444 19.3857 18.2453 18.8695 17.7096L16.7137 21.6738C16.7137 21.6738 17.3836 22.3491 17.8425 22.6867C18.3024 23.0233 18.8965 23.3545 19.3706 23.5601C20.521 24.0514 21.772 24.3458 23.154 24.3458C23.3141 24.3458 23.2817 24.3458 23.4483 24.3393C25.9082 24.2365 28.1008 23.2939 29.6819 21.6792C31.1797 20.1457 31.9924 18.3947 32 16.3222V16.2605C31.9989 16.1458 31.9957 16.03 31.9913 15.9132Z" fill="#2A73CC"/>
</svg>
