<svg width="32" height="32" viewBox="0 0 32 32" fill="none" xmlns="http://www.w3.org/2000/svg">
<path d="M28.8 0H3.2C2.35239 0.00350983 1.54049 0.341779 0.941136 0.941136C0.341779 1.54049 0.00350983 2.35239 0 3.2L0 28.8C0.00350983 29.6476 0.341779 30.4595 0.941136 31.0589C1.54049 31.6582 2.35239 31.9965 3.2 32H28.8C29.6476 31.9965 30.4595 31.6582 31.0589 31.0589C31.6582 30.4595 31.9965 29.6476 32 28.8V3.2C31.9965 2.35239 31.6582 1.54049 31.0589 0.941136C30.4595 0.341779 29.6476 0.00350983 28.8 0V0Z" fill="#1669FF"/>
<path d="M13.1199 17.8933C12.8535 18.4779 12.395 18.9537 11.8207 19.2417C11.2463 19.5296 10.5908 19.6122 9.96294 19.4759C9.33511 19.3396 8.77285 18.9925 8.36963 18.4924C7.96641 17.9922 7.74653 17.3691 7.74653 16.7267C7.74653 16.0842 7.96641 15.4611 8.36963 14.9609C8.77285 14.4608 9.33511 14.1137 9.96294 13.9774C10.5908 13.8411 11.2463 13.9237 11.8207 14.2116C12.395 14.4996 12.8535 14.9754 13.1199 15.56H15.3332C15.0479 14.3912 14.3443 13.3674 13.3553 12.6823C12.3663 11.9972 11.1605 11.6982 9.96601 11.8419C8.7715 11.9855 7.67103 12.5619 6.87271 13.462C6.07439 14.3621 5.63354 15.5235 5.63354 16.7267C5.63354 17.9298 6.07439 19.0912 6.87271 19.9913C7.67103 20.8914 8.7715 21.4678 9.96601 21.6114C11.1605 21.7551 12.3663 21.4561 13.3553 20.771C14.3443 20.0859 15.0479 19.0621 15.3332 17.8933H13.1199Z" fill="white"/>
<path d="M21.3335 11.8002H20.9735C20.1143 11.8681 19.2875 12.1575 18.5735 12.6402V7.16016H16.5735V21.2535H18.5868V20.7468C19.2434 21.1898 19.9975 21.4673 20.7846 21.5555C21.5717 21.6437 22.3685 21.5401 23.1068 21.2535C23.6233 21.0581 24.1016 20.7738 24.5202 20.4135C25.2812 19.7631 25.8245 18.895 26.0767 17.9261C26.3288 16.9573 26.2778 15.9345 25.9304 14.9956C25.5831 14.0567 24.9561 13.2469 24.1341 12.6755C23.3121 12.1041 22.3346 11.7986 21.3335 11.8002ZM24.1335 17.1335C24.14 17.1643 24.14 17.196 24.1335 17.2268C24.1196 17.345 24.0927 17.4612 24.0535 17.5735C24.0172 17.692 23.9726 17.8078 23.9202 17.9202C23.646 18.5073 23.174 18.9794 22.5868 19.2535C22.4124 19.3399 22.2291 19.407 22.0402 19.4535H21.7735H21.3335H20.9602H20.8668C20.6173 19.4125 20.3749 19.3361 20.1468 19.2268C19.9173 19.1176 19.7059 18.9737 19.5202 18.8002C19.3273 18.6253 19.1611 18.4232 19.0268 18.2002C19.0268 18.0802 18.8935 17.9735 18.8402 17.8535C18.6898 17.4946 18.6128 17.1093 18.6135 16.7202C18.6115 16.3052 18.7026 15.8952 18.8802 15.5202C19.0896 15.0819 19.408 14.7046 19.8048 14.4245C20.2016 14.1444 20.6637 13.9707 21.1468 13.9202H21.4268C22.1765 13.9202 22.8955 14.218 23.4256 14.7481C23.9557 15.2782 24.2535 15.9971 24.2535 16.7468C24.2191 16.8555 24.179 16.9623 24.1335 17.0668V17.1335Z" fill="white"/>
</svg>
