<svg width="32" height="32" viewBox="0 0 32 32" fill="none" xmlns="http://www.w3.org/2000/svg">
<g clip-path="url(#clip0)">
<path d="M4.14559 12.8062C1.89004 12.8062 0.010498 13.7631 0.010498 16.65C0.010498 18.9372 1.27435 20.3774 4.20383 20.3774C7.65195 20.3774 7.87299 18.1061 7.87299 18.1061H6.20221C6.20221 18.1061 5.84398 19.3291 4.10191 19.3291C2.68303 19.3291 1.66252 18.3706 1.66252 17.0272H8.04771V16.1841C8.04771 14.855 7.20397 12.8062 4.14559 12.8062ZM4.08735 13.8836C5.43796 13.8836 6.35873 14.711 6.35873 15.9511H1.69948C1.69948 14.6346 2.90131 13.8836 4.08735 13.8836Z" fill="#E53238"/>
<path d="M8.04662 10.0107V18.9278C8.04662 19.4339 8.0105 20.1446 8.0105 20.1446H9.60407C9.60407 20.1446 9.66127 19.6342 9.66127 19.1677C9.66127 19.1677 10.4486 20.3994 12.5894 20.3994C14.8438 20.3994 16.3751 18.8343 16.3751 16.5919C16.3751 14.5059 14.9685 12.8281 12.593 12.8281C10.3686 12.8281 9.67737 14.0293 9.67737 14.0293V10.0107H8.04662ZM12.1817 13.9311C13.7126 13.9311 14.6861 15.0672 14.6861 16.5919C14.6861 18.2269 13.5617 19.2965 12.1926 19.2965C10.5587 19.2965 9.67737 18.0207 9.67737 16.6065C9.67737 15.2887 10.4682 13.9311 12.1817 13.9311Z" fill="#0064D2"/>
<path d="M20.3355 12.8062C16.9422 12.8062 16.7246 14.6642 16.7246 14.9611H18.4136C18.4136 14.9611 18.5022 13.8763 20.219 13.8763C21.3347 13.8763 22.1992 14.387 22.1992 15.3687V15.7182H20.219C17.5902 15.7182 16.2004 16.4872 16.2004 18.0478C16.2004 19.5837 17.4845 20.4193 19.2199 20.4193C21.5848 20.4193 22.3467 19.1125 22.3467 19.1125C22.3467 19.6323 22.3867 20.1445 22.3867 20.1445H23.8882C23.8882 20.1445 23.83 19.5096 23.83 19.1034V15.5926C23.83 13.2906 21.9732 12.8062 20.3355 12.8062ZM22.1992 16.7665V17.2324C22.1992 17.8401 21.8242 19.3509 19.6166 19.3509C18.4077 19.3509 17.8894 18.7476 17.8894 18.0478C17.8894 16.7747 19.6349 16.7665 22.1992 16.7665Z" fill="#F5AF02"/>
<path d="M22.9204 13.0977H24.8205L27.5474 18.5608L30.2681 13.0977H31.9893L27.0337 22.8238H25.2282L26.6582 20.1125L22.9204 13.0977Z" fill="#86B817"/>
</g>
<defs>
<clipPath id="clip0">
<rect width="32" height="12.8346" fill="white" transform="translate(0 10)"/>
</clipPath>
</defs>
</svg>
