<svg width="33" height="32" viewBox="0 0 33 32" fill="none" xmlns="http://www.w3.org/2000/svg">
<path d="M30.4549 6.60481V25.4274C30.4549 27.6663 28.646 29.4574 26.4209 29.4734H7.57943C5.35431 29.4734 3.54541 27.6663 3.54541 25.4274V6.60481C3.54541 4.36593 5.35431 2.55884 7.57943 2.55884H26.4369C28.646 2.57483 30.4549 4.36593 30.4549 6.60481Z" fill="white"/>
<path d="M33.0001 8.044V25.0115C32.9521 25.939 32.776 26.8666 32.3918 27.7302C32.0076 28.6097 31.5113 29.3453 30.919 29.937L27.9255 26.9625C28.6299 26.2909 29.0301 25.3473 29.0141 24.3718V7.61221C29.0141 6.65269 28.6299 5.72516 27.9415 5.05349L30.935 2.06299C31.9756 3.07048 32.6159 4.41381 32.84 6.06099C32.936 6.71666 32.9841 7.38833 33.0001 8.044Z" fill="#2ECB70"/>
<path d="M30.919 29.937C29.9105 30.9445 28.6138 31.5682 27.045 31.8241C25.6363 32.048 24.2116 31.984 22.8029 31.984C20.8499 31.984 18.913 31.984 16.96 31.984C16.96 31.984 11.4853 31.984 8.74789 31.968C7.72338 31.968 6.71487 31.8721 5.73838 31.5202C4.68186 31.1364 3.78541 30.5927 3.08105 29.9051L6.07455 26.9146C6.74689 27.5862 7.65934 27.954 8.61982 27.954H25.4442C26.3727 27.954 27.2852 27.5862 27.9575 26.9465L30.919 29.937Z" fill="#2EAAE2"/>
<path d="M30.935 2.07896L27.9575 5.05347C27.2852 4.38181 26.3727 4.01399 25.4283 4.01399H8.58783C6.60284 4.01399 4.98603 5.62919 4.98603 7.61219V24.3718C4.98603 25.3313 5.37022 26.2429 6.04256 26.9305L3.06507 29.905C2.04056 28.9135 1.41625 27.6022 1.16012 26.003C1.01605 25.1394 1.00004 24.2439 1.00004 23.3483C0.984031 18.1989 1.00004 13.0655 1.01605 7.91604C1.01605 6.68466 1.1281 5.45327 1.64036 4.28586C2.68088 1.87106 4.53781 0.47976 7.1311 0.143928C7.88348 0.047976 8.65186 0.015992 9.42025 0H25.6204C26.5168 0.031984 27.4132 0.127936 28.2777 0.447776C29.3342 0.847576 30.2307 1.37531 30.935 2.07896Z" fill="#FFC600"/>
<path d="M29.0141 7.61224V24.4038C29.0141 26.4028 27.3973 28.002 25.4123 28.018H8.58789C6.60289 28.018 4.98608 26.4028 4.98608 24.4038V7.61224C4.98608 5.61324 6.60289 3.99805 8.58789 3.99805H25.4123C27.3973 4.01404 29.0141 5.61324 29.0141 7.61224Z" fill="white"/>
<path d="M11.5173 23.972H22.4828V20.6936H15.5353V17.6072H21.4263V14.2488H15.5353V11.3063H22.4828V8.04395H11.5173V23.972Z" fill="#313E48"/>
</svg>
