<svg width="32" height="32" viewBox="0 0 32 32" fill="none" xmlns="http://www.w3.org/2000/svg">
<g clip-path="url(#clip0)">
<path d="M7.45262e-05 15.7659C7.45262e-05 14.288 7.45262e-05 12.8101 7.45262e-05 11.3321C7.45262e-05 11.083 0.0332868 11.0498 0.282379 11.0498C1.9596 11.0498 3.63682 11.0498 5.29743 11.0498C5.4801 11.0498 5.54652 11.0996 5.54652 11.2823C5.54652 11.8469 5.54652 12.4115 5.54652 12.9761C5.54652 13.1422 5.44688 13.1256 5.33064 13.1256C4.46712 13.1256 3.6036 13.1256 2.74008 13.1256C2.45778 13.1256 2.45778 13.1256 2.45778 13.4079C2.45778 13.7068 2.45778 14.0223 2.45778 14.3212C2.45778 14.4707 2.5076 14.5205 2.65705 14.5205C3.43754 14.5205 4.21803 14.5205 5.01512 14.5039C5.2144 14.5039 5.28082 14.5703 5.26422 14.753C5.24761 14.9855 5.24761 15.2346 5.24761 15.467C5.24761 15.5169 5.231 15.5833 5.29743 15.5999C5.36385 15.6331 5.38046 15.5667 5.41367 15.5335C5.69597 15.1515 6.01149 14.8194 6.44325 14.5869C6.64252 14.4873 6.8584 14.3876 7.07428 14.3212C7.35659 14.2216 7.62228 14.205 7.90459 14.1718C8.36956 14.0887 8.83453 14.1385 9.26629 14.2382C9.94714 14.4042 10.5284 14.7364 10.9601 15.3176C11.176 15.5999 11.3753 15.8988 11.4417 16.2641C11.4417 16.2973 11.4583 16.3472 11.5081 16.3472C11.5579 16.3472 11.5911 16.314 11.6244 16.2641C11.7572 16.0981 11.7904 15.8656 11.9067 15.6829C12.2222 15.2013 12.5875 14.7862 13.1023 14.5039C13.7832 14.1219 14.4972 14.1219 15.2279 14.2382C15.5932 14.3046 15.9087 14.5039 16.1744 14.7696C16.2243 14.8028 16.2409 14.8858 16.3073 14.8526C16.3737 14.8194 16.3571 14.753 16.3571 14.6866C16.3571 14.4042 16.3571 14.1219 16.3571 13.823C16.3571 12.9927 16.3571 12.1458 16.3571 11.3155C16.3571 11.0498 16.3903 11.0332 16.6394 11.0332C17.1874 11.0332 17.7354 11.0332 18.2668 11.0332C18.4993 11.0332 18.5491 11.083 18.5491 11.2989C18.5491 11.3321 18.5491 11.3653 18.5491 11.3985C18.5491 14.3046 18.5491 17.2107 18.5491 20.1334C18.5491 20.4157 18.5159 20.4489 18.2336 20.4655C17.669 20.4655 17.1044 20.4655 16.5398 20.4821C16.3571 20.4821 16.3571 20.3658 16.3405 20.2496C16.3239 20.15 16.4069 20.0005 16.2907 19.9673C16.1744 19.9175 16.1246 20.0835 16.0582 20.15C15.4604 20.7478 14.7629 20.9471 13.916 20.7644C13.1521 20.6149 12.5543 20.2164 12.0893 19.602C11.9233 19.3861 11.7904 19.1204 11.6742 18.8713C11.5579 18.6056 11.5247 18.3233 11.4251 18.041C11.3919 17.958 11.3421 17.9247 11.2424 17.9247C9.88072 17.9247 8.53562 17.9247 7.17392 17.9247C6.97465 17.9247 6.95804 17.9746 7.00786 18.1738C7.09089 18.6056 7.33998 18.9045 7.70532 19.1038C7.90459 19.22 8.12047 19.22 8.33635 19.2366C8.70168 19.2366 9.05041 19.1536 9.26629 18.8215C9.33272 18.7384 9.41575 18.7218 9.51538 18.7218C10.08 18.7218 10.6446 18.7218 11.2092 18.7218C11.3919 18.7218 11.4417 18.7883 11.3753 18.9377C11.0598 19.5854 10.6114 20.1334 9.93054 20.4489C9.16665 20.8142 8.38617 20.864 7.57247 20.7478C6.67574 20.6149 5.96167 20.1666 5.43028 19.4359C5.08155 18.9543 4.88227 18.4229 4.86567 17.8251C4.84906 17.4598 4.84906 17.0944 4.91549 16.7291C4.93209 16.5963 4.89888 16.5298 4.74943 16.5298C4.01876 16.5298 3.30469 16.5298 2.57402 16.5298C2.42457 16.5298 2.40796 16.6129 2.40796 16.7291C2.40796 17.8915 2.40796 19.0374 2.40796 20.1998C2.40796 20.4987 2.40796 20.4987 2.10905 20.4987C1.44481 20.4987 0.797168 20.4987 0.132924 20.5153C7.45312e-05 20.5153 -0.0497438 20.4489 -0.06635 20.3492C-0.0829561 20.2662 -0.06635 20.1832 -0.06635 20.0835C7.45268e-05 18.6222 7.45262e-05 17.1941 7.45262e-05 15.7659ZM16.3073 17.5262C16.2907 17.0612 16.2409 16.6295 15.942 16.2807C15.5434 15.7992 14.9124 15.6663 14.3478 16.0483C13.999 16.2973 13.8164 16.6461 13.7167 17.0612C13.5839 17.6258 13.7001 18.1406 14.0322 18.589C14.4806 19.22 15.4936 19.2366 15.9586 18.6222C16.2243 18.2901 16.2741 17.9081 16.3073 17.5262ZM8.28653 16.563C8.4858 16.563 8.68508 16.563 8.88435 16.563C9.05041 16.563 9.19987 16.563 9.36593 16.5464C9.44896 16.5464 9.51538 16.5132 9.48217 16.397C9.26629 15.6331 8.43598 15.3674 7.77174 15.6829C7.50604 15.8158 7.32337 16.0483 7.19053 16.314C7.09089 16.4966 7.10749 16.563 7.32337 16.563C7.6555 16.563 7.97101 16.563 8.28653 16.563Z" fill="#3C2E79"/>
<path d="M18.5659 15.766C18.5659 14.288 18.5659 12.8101 18.5659 11.3155C18.5659 11.0332 18.5991 10.9834 18.8814 10.9834C20.459 10.9834 22.0366 10.9834 23.5976 10.9834C23.7636 10.9834 23.8301 11.0498 23.8301 11.1993C23.8301 11.7971 23.8301 12.3783 23.8301 12.9761C23.8301 13.1422 23.7138 13.1422 23.5976 13.1422C22.7673 13.1422 21.937 13.1422 21.1067 13.1422C21.0402 13.1422 20.9904 13.1422 20.924 13.1422C20.841 13.1588 20.7911 13.2086 20.8077 13.2916C20.841 13.6072 20.8244 13.9227 20.8244 14.2216C20.8244 14.4043 20.9074 14.4707 21.0734 14.4707C21.9038 14.4707 22.7175 14.4707 23.5478 14.4707C23.8467 14.4707 23.8301 14.4707 23.8301 14.7696C23.8301 15.2678 23.8301 15.7826 23.8301 16.2808C23.8301 16.48 23.7636 16.5298 23.581 16.5298C22.7507 16.5132 21.9204 16.5298 21.0901 16.5298C20.8244 16.5298 20.8244 16.5464 20.8244 16.8121C20.8244 17.2439 20.841 17.6923 20.8244 18.124C20.8244 18.3067 20.8908 18.3565 21.0734 18.3565C21.9204 18.3565 22.7673 18.3565 23.5976 18.3565C23.8467 18.3565 23.8467 18.3565 23.8467 18.6056C23.8467 19.0872 23.8467 19.5688 23.8467 20.0337C23.8467 20.1002 23.8135 20.1998 23.9131 20.233C23.9961 20.2662 24.0625 20.1998 24.1124 20.1334C24.8596 19.3031 25.5903 18.4562 26.3376 17.6258C26.4538 17.5096 26.4372 17.4266 26.3376 17.3269C25.7232 16.6461 25.1087 15.9486 24.5109 15.2678C24.3282 15.0685 24.1954 14.8526 23.9961 14.67C23.9629 14.6367 23.9297 14.6035 23.9463 14.5537C23.9795 14.4707 24.0459 14.4873 24.1124 14.4873C24.7268 14.4873 25.3412 14.4873 25.9723 14.4873C26.7195 14.4873 26.7195 14.4873 27.2177 15.0519C27.4336 15.2844 27.6495 15.5003 27.8487 15.7327C27.9484 15.849 28.0148 15.849 28.1144 15.7327C28.4134 15.384 28.7289 15.0353 29.0278 14.6866C29.1772 14.5205 29.3267 14.4209 29.5758 14.4375C30.3065 14.4541 31.0205 14.4375 31.7512 14.4375C31.801 14.4375 31.9006 14.3877 31.9173 14.4707C31.9339 14.5371 31.9173 14.6201 31.8674 14.67C31.0537 15.5169 30.3231 16.4136 29.526 17.2605C29.3931 17.3934 29.3765 17.493 29.526 17.6425C30.1404 18.3067 30.7382 18.9709 31.336 19.6518C31.5353 19.8843 31.7346 20.1168 31.9339 20.3659C31.9671 20.3991 32.0335 20.4323 31.9837 20.4987C31.9505 20.5651 31.8674 20.5319 31.8176 20.5319C31.1368 20.5319 30.4559 20.5319 29.7917 20.5319C29.692 20.5319 29.5924 20.5319 29.4928 20.5319C29.2769 20.5485 29.1274 20.4821 28.978 20.2994C28.6791 19.9341 28.3469 19.5854 28.0314 19.2366C27.9152 19.1038 27.8155 19.1204 27.6993 19.2366C27.3838 19.5854 27.0849 19.9507 26.7694 20.2994C26.6365 20.4489 26.487 20.5153 26.2878 20.5153C25.5903 20.4987 24.8763 20.5153 24.1788 20.5153C22.4019 20.5153 20.6251 20.5153 18.8482 20.5153C18.5825 20.5153 18.5659 20.4821 18.5659 20.2164C18.5659 18.7385 18.5659 17.2605 18.5659 15.766Z" fill="#E4712E"/>
</g>
<defs>
<clipPath id="clip0">
<rect width="32" height="9.83083" fill="white" transform="translate(0 11)"/>
</clipPath>
</defs>
</svg>
