<svg width="32" height="32" viewBox="0 0 32 32" fill="none" xmlns="http://www.w3.org/2000/svg">
<path d="M10.6632 32.0001C13.6072 32.0001 15.9966 29.6107 15.9966 26.6667V21.3335H10.6632C7.7192 21.3335 5.32996 23.7227 5.32996 26.6667C5.32996 29.6107 7.7192 32.0001 10.6632 32.0001Z" fill="#0ACF83"/>
<path d="M5.32996 15.9999C5.32996 13.0559 7.7192 10.6665 10.6632 10.6665H15.9966V21.3333H10.6632C7.7192 21.3333 5.32996 18.9439 5.32996 15.9999Z" fill="#A259FF"/>
<path d="M5.32996 5.33338C5.32996 2.38938 7.7192 0 10.6632 0H15.9966V10.6666H10.6632C7.7192 10.6666 5.32996 8.27738 5.32996 5.33338Z" fill="#F24E1E"/>
<path d="M15.9965 0H21.3298C24.2738 0 26.6631 2.38938 26.6631 5.33338C26.6631 8.27738 24.2738 10.6666 21.3298 10.6666H15.9965V0Z" fill="#FF7262"/>
<path d="M26.6631 15.9999C26.6631 18.9439 24.2738 21.3333 21.3298 21.3333C18.3858 21.3333 15.9965 18.9439 15.9965 15.9999C15.9965 13.0559 18.3858 10.6665 21.3298 10.6665C24.2738 10.6665 26.6631 13.0559 26.6631 15.9999Z" fill="#1ABCFE"/>
</svg>
