<svg width="32" height="34" viewBox="0 0 32 34" fill="none" xmlns="http://www.w3.org/2000/svg">
<path d="M30.2324 0.985076L30.218 0.5H29.7327H3H2.5V1V2.33612V2.79078L2.95261 2.83387L4.33315 2.96529C5.30614 3.15118 5.90579 3.50279 6.27336 3.96936C6.6545 4.52081 6.91313 5.46984 6.97824 6.90163L6.97856 6.90875L6.97909 6.91586C7.51204 14.108 7.5116 20.828 6.97966 27.0102C6.84891 28.4469 6.59277 29.418 6.25608 29.9885C5.8892 30.5034 5.30175 30.8473 4.34147 30.9673L4.34146 30.9672L4.33278 30.9685L2.92932 31.1689L2.5 31.2302V31.6639V33V33.5H3H20.2426H20.7426V33V31.6639V31.1995L20.2795 31.1652L18.488 31.0326C17.5563 30.9134 16.9492 30.5151 16.5683 30.0307C16.1871 29.4793 15.9285 28.5302 15.8633 27.0984L15.863 27.091L15.8625 27.0837C15.6729 24.5571 15.5433 21.6695 15.5307 18.478L18.6253 18.5353C19.4542 18.5648 20.1432 18.8872 20.7125 19.5282C21.2958 20.1851 21.7702 21.1976 22.0941 22.6223L22.1826 23.0115H22.5817H23.9183H24.4183V22.5115V11.6221V11.1221H23.9183H22.5817H22.1847L22.0947 11.5088C21.7701 12.9041 21.3117 13.8994 20.7373 14.5472C20.1787 15.1771 19.4911 15.5018 18.6255 15.5315L15.53 15.5888C15.5369 10.1874 15.6539 6.24467 15.8288 3.70459H20.6436C22.3961 3.70459 23.8423 4.26305 25.0305 5.37363C26.2306 6.49542 27.1976 8.20935 27.9179 10.5658L28.0622 11.0378L28.536 10.8996L30.1399 10.432L30.5113 10.3237L30.4998 9.93706L30.2324 0.985076Z" fill="black" stroke="white"/>
</svg>
