<svg class="unified360-icon" xmlns="http://www.w3.org/2000/svg" viewBox="0 0 34 34"><defs><style>.s360-cls-2{fill:#fff}</style></defs><g id="Layer_2" data-name="Layer 2"><g id="Layer_1-2" data-name="Layer 1"><path d="M17 34A17 17 0 010 17 17 17 0 0117 0h12.75A4.25 4.25 0 0134 4.25V17a17 17 0 01-17 17z" fill="#ffa800"/><circle class="s360-cls-2" cx="16.98" cy="22.95" r="1.98"/><path class="s360-cls-2" d="M17 8.79a8 8 0 00-5 14.33v-.17a5 5 0 011.77-3.79 3.88 3.88 0 01-.77-2.32 4 4 0 117.21 2.32A5 5 0 0122 23v.17a8 8 0 00-5-14.38z"/></g></g></svg>
