<svg width="32" height="32" viewBox="0 0 32 32" fill="none" xmlns="http://www.w3.org/2000/svg">
<path d="M16.009 30.9467L21.897 12.5569H10.121L16.009 30.9467Z" fill="#E24329"/>
<path d="M16.0093 30.9465L10.1213 12.5566H1.86938L16.0093 30.9465Z" fill="#FC6D26"/>
<path d="M1.86915 12.5569L0.0798956 18.1454C-0.0833043 18.6551 0.0954385 19.2135 0.522714 19.5285L16.009 30.9467L1.86915 12.5569Z" fill="#FCA326"/>
<path d="M1.86938 12.556H10.1213L6.57491 1.47993C6.39251 0.909932 5.59799 0.910087 5.41559 1.47993L1.86938 12.556Z" fill="#E24329"/>
<path d="M16.0093 30.9465L21.8973 12.5566H30.1492L16.0093 30.9465Z" fill="#FC6D26"/>
<path d="M30.1492 12.5569L31.9384 18.1454C32.1016 18.6551 31.9229 19.2135 31.4956 19.5285L16.0093 30.9467L30.1492 12.5569Z" fill="#FCA326"/>
<path d="M30.1495 12.556H21.8976L25.4439 1.47993C25.6263 0.909932 26.4209 0.910087 26.6033 1.47993L30.1495 12.556Z" fill="#E24329"/>
</svg>
