<svg width="32" height="32" viewBox="0 0 32 32" fill="none" xmlns="http://www.w3.org/2000/svg">
<path d="M27.1888 19.7566V0.441042H21.9506V1.73417C20.1856 0.599708 18.1312 -0.00234729 16.033 6.87764e-06C9.94986 6.87764e-06 5 4.97271 5 11.0858C5 17.1989 9.94986 22.1716 16.0344 22.1716C18.1074 22.1747 20.1385 21.5881 21.8906 20.4803C21.8906 20.6501 21.8821 20.8029 21.8821 20.9056C21.8821 24.1185 19.2758 26.7376 16.0772 26.7376C14.9897 26.7351 13.9249 26.4253 13.0057 25.8441L10.4152 30.4014C12.1234 31.4434 14.0849 31.9964 16.0858 32C22.1704 32 27.1888 27.0259 27.1888 20.9128C27.1888 20.6758 27.2045 19.9779 27.1888 19.7566ZM16.0344 16.9163C12.8373 16.9163 10.2296 14.2987 10.2296 11.0858C10.2296 7.87155 12.8359 5.25389 16.0344 5.25389C19.233 5.25389 21.8392 7.87155 21.8392 11.0858C21.8392 14.2987 19.233 16.9178 16.0344 16.9178V16.9163Z" fill="#F45D48"/>
</svg>
