<svg width="32" height="32" viewBox="0 0 32 32" fill="none" xmlns="http://www.w3.org/2000/svg">
<path d="M27.84 0H4.88C3.28 0 2 1.28 2 2.88V29.12C2 30.72 3.28 32 4.88 32H27.84C29.44 32 30.72 30.72 30.72 29.12V2.88C30.72 1.28 29.44 0 27.84 0ZM29.12 29.12C29.12 29.84 28.56 30.4 27.84 30.4H4.88C4.16 30.4 3.6 29.84 3.6 29.12V2.88C3.6 2.16 4.16 1.6 4.88 1.6H27.84C28.56 1.6 29.12 2.16 29.12 2.88V29.12ZM9.2 27.2L12.8 24L9.2 20.8V27.2ZM22.16 14.24C21.52 13.6 20.32 12.8 18.32 12.8C16.16 12.8 13.92 13.36 12.32 13.92V4.8H9.12V18.64L11.36 17.6C11.36 17.6 15.04 15.92 18.24 15.92C19.84 15.92 20.24 16.8 20.24 17.6V27.2H23.44V17.6C23.52 17.36 23.52 15.6 22.16 14.24ZM17.92 10H21.12C22.56 8.32 23.28 6.64 23.52 4.8H20.32C20 6.64 19.2 8.32 17.92 10Z" fill="#430098"/>
</svg>
