<svg width="32" height="32" viewBox="0 0 32 32" fill="none" xmlns="http://www.w3.org/2000/svg">
<path d="M24.0344 10.5364V6.72584C24.5286 6.49048 24.9471 6.11694 25.2411 5.64869C25.5351 5.18045 25.6925 4.63676 25.695 4.08091V3.99348C25.695 2.37281 24.4055 1.059 22.815 1.059H22.729C21.1384 1.059 19.8489 2.37281 19.8489 3.99348V4.08091C19.8514 4.63676 20.0088 5.18045 20.3028 5.64869C20.5968 6.11694 21.0153 6.49048 21.5095 6.72584V10.5364C20.089 10.7581 18.7512 11.3582 17.6316 12.2761L7.37427 4.13593C7.44741 3.86691 7.48556 3.59028 7.48987 3.31262C7.49112 2.65863 7.30198 2.01895 6.94637 1.4745C6.59076 0.930049 6.08466 0.505284 5.49208 0.253934C4.8995 0.00258335 4.24707 -0.0640598 3.61731 0.0624339C2.98755 0.188928 2.40876 0.502875 1.95415 0.964565C1.49953 1.42625 1.18952 2.01495 1.06333 2.65617C0.937137 3.2974 1.00043 3.96235 1.2452 4.56692C1.48998 5.17149 1.90523 5.68852 2.43844 6.05261C2.97166 6.41669 3.59887 6.61147 4.24075 6.61232C4.80228 6.60962 5.35329 6.45688 5.83876 6.16934L15.9393 14.1774C14.0823 17.0355 14.132 20.7605 16.0644 23.5663L12.9923 26.6972C12.7439 26.6164 12.4853 26.5734 12.2246 26.5698C10.7533 26.5711 9.56143 27.7867 9.56181 29.2857C9.56219 30.7846 10.7548 31.9996 12.226 32C13.6972 32.0004 14.8904 30.786 14.8916 29.287C14.8882 29.0214 14.846 28.7578 14.7664 28.5049L17.8055 25.4073C20.521 27.5372 24.2505 27.7207 27.1548 25.8673C30.059 24.0138 31.5247 20.5147 30.8288 17.0959C30.1329 13.677 27.4225 11.0604 24.0344 10.5363V10.5364ZM22.7747 23.0692C22.2132 23.0846 21.6544 22.9853 21.1313 22.777C20.6082 22.5687 20.1313 22.2557 19.7288 21.8566C19.3264 21.4574 19.0065 20.9801 18.7881 20.4529C18.5696 19.9257 18.4571 19.3592 18.4571 18.787C18.4571 18.2147 18.5696 17.6483 18.7881 17.1211C19.0065 16.5939 19.3264 16.1166 19.7288 15.7174C20.1313 15.3183 20.6082 15.0053 21.1313 14.797C21.6544 14.5887 22.2132 14.4893 22.7747 14.5047C25.0373 14.5855 26.8308 16.4771 26.8321 18.7839C26.8331 21.0905 25.0414 22.984 22.7789 23.067" fill="#FF7A59"/>
</svg>
