<svg width="32" height="32" viewBox="0 0 32 32" fill="none" xmlns="http://www.w3.org/2000/svg">
<path d="M0.201416 18.6995L13.3004 31.7984C6.61116 30.6677 1.33212 25.3887 0.201416 18.6995Z" fill="#5E6AD2"/>
<path d="M0 15.1434L16.8566 32C17.8591 31.9465 18.8371 31.8007 19.7822 31.571L0.428995 12.2178C0.199339 13.163 0.053565 14.1409 0 15.1434Z" fill="#5E6AD2"/>
<path d="M1.26782 9.7021L22.2977 30.732C23.0637 30.4033 23.7988 30.0165 24.4976 29.5773L2.42257 7.5022C1.98331 8.201 1.59655 8.93615 1.26782 9.7021Z" fill="#5E6AD2"/>
<path d="M3.84741 5.57235C6.78375 2.16046 11.1338 0 15.9883 0C24.8313 0 31.9999 7.1686 31.9999 16.0115C31.9999 20.8661 29.8394 25.2161 26.4275 28.1525L3.84741 5.57235Z" fill="#5E6AD2"/>
</svg>
