<svg width="32" height="32" viewBox="0 0 32 32" fill="none" xmlns="http://www.w3.org/2000/svg">
<path d="M29.2174 0H2.78261C1.24582 0 0 1.24582 0 2.78261V29.2174C0 30.7542 1.24582 32 2.78261 32H29.2174C30.7542 32 32 30.7542 32 29.2174V2.78261C32 1.24582 30.7542 0 29.2174 0Z" fill="white"/>
<path fill-rule="evenodd" clip-rule="evenodd" d="M0 2.67326C0 1.19686 1.19604 0 2.67326 0H29.3267C30.8031 0 32 1.19604 32 2.67326V29.3267C32 30.8031 30.804 32 29.3267 32H2.67326C1.19686 32 0 30.804 0 29.3267V2.67326ZM12.6667 12.2H17V14.3773C17.6247 13.1253 19.2253 12 21.63 12C26.2393 12 27.3333 14.492 27.3333 19.0647V27.5333H22.6667V20.106C22.6667 17.502 22.042 16.0333 20.4533 16.0333C18.25 16.0333 17.3333 17.6167 17.3333 20.106V27.5333H12.6667V12.2ZM4.66667 27.3333H9.33333V12H4.66667V27.3333ZM10 7C10 8.65667 8.65667 10 7 10C5.34333 10 4 8.65667 4 7C4 5.34333 5.34333 4 7 4C8.65667 4 10 5.34333 10 7Z" fill="#0077B5"/>
</svg>
