<svg width="33" height="33" fill="none" xmlns="http://www.w3.org/2000/svg"><rect width="32.029" height="32.029" rx="7" fill="#FBDF00"/><path d="M10.246 20.195a.111.111 0 01.011.125.547.547 0 01-.515.257.717.717 0 01-.64-.74 1.906 1.906 0 01.133-.725.676.676 0 00-.508-.916.687.687 0 00-.703.302 1.59 1.59 0 00-.158.372l-.017.053c-.06.161-.156.209-.22.2-.031-.004-.073-.025-.1-.099a1.424 1.424 0 01.366-1.195 1.148 1.148 0 01.985-.356 1.169 1.169 0 01.894.653 1.5 1.5 0 01-.11 1.323 3.744 3.744 0 00-.04.092.548.548 0 00-.012.506.347.347 0 00.293.149.637.637 0 00.16-.023c.068-.016.139-.032.181.022zM27 20.613a7.19 7.19 0 01-.488 2.276c-1.423 3.42-4.818 5.323-8.863 5.203-3.77-.112-6.987-2.108-8.394-5.362a3.707 3.707 0 01-2.396-.967 3.548 3.548 0 01-1.22-2.276 3.908 3.908 0 01.22-1.8l-.791-.67C1.451 13.952 12.764 1.34 16.382 4.505c.018.016 1.231 1.209 1.234 1.212l.672-.286c3.174-1.319 5.75-.682 5.753 1.421.001 1.094-.694 2.369-1.807 3.526a3.54 3.54 0 01.912 1.633c.123.43.19.874.197 1.32.02.447.041 1.485.043 1.503.029.01.35.097.447.125.648.142 1.25.441 1.755.871.266.26.44.6.496.969.069.477-.05.963-.332 1.354.073.168.137.339.19.514.094.3.162.55.173.588.344 0 .885.398.885 1.357zm-15.984-1.877c-.246-1.596-1.323-2.16-2.054-2.2a2.215 2.215 0 00-.547.04c-1.305.264-2.041 1.377-1.896 2.822a2.921 2.921 0 002.672 2.445c.125.003.25-.006.375-.026 1.322-.227 1.668-1.666 1.45-3.08zM13.246 8.6a25.762 25.762 0 013.522-2.436s-.984-1.145-1.282-1.23c-1.828-.496-5.78 2.237-8.302 5.848-1.02 1.46-2.481 4.048-1.783 5.379.248.298.528.569.835.807a3.11 3.11 0 011.965-1.257A16.044 16.044 0 0113.245 8.6zm3.974 12.636a1.207 1.207 0 00.854.895c.218.081.443.143.672.183 2.893.5 5.598-1.16 6.206-1.578.046-.03.076 0 .04.055a.987.987 0 01-.06.085c-.745.965-2.749 2.081-5.355 2.08-1.137 0-2.274-.401-2.69-1.018-.648-.958-.033-2.356 1.046-2.21l.472.053a9.853 9.853 0 004.908-.788c1.472-.685 2.028-1.44 1.944-2.05a.878.878 0 00-.253-.498 3.172 3.172 0 00-1.392-.662c-.233-.065-.392-.107-.563-.164-.303-.1-.453-.18-.488-.754-.014-.25-.058-1.123-.074-1.484-.027-.632-.103-1.496-.638-1.853a.893.893 0 00-.457-.146.862.862 0 00-.27.027c-.271.062-.518.202-.711.402a2.445 2.445 0 01-1.855.622c-.374-.016-.77-.075-1.225-.101l-.266-.016a2.442 2.442 0 00-2.359 2.144c-.26 1.795 1.036 2.723 1.41 3.267.058.07.094.154.103.244a.39.39 0 01-.133.257 4.607 4.607 0 00-1.009 4.317c.05.179.113.354.19.523.945 2.217 3.879 3.249 6.745 2.31.375-.123.74-.277 1.089-.461a5.725 5.725 0 001.667-1.25 4.98 4.98 0 001.388-2.73c.086-.572-.04-.793-.212-.9a.632.632 0 00-.4-.073 5.533 5.533 0 00-.382-1.304 8.35 8.35 0 01-2.73 1.362c-1.185.335-2.419.469-3.65.396-.79-.064-1.314-.296-1.511.346 1.197.4 2.468.53 3.722.38a.066.066 0 01.05.015.068.068 0 01.023.045.072.072 0 01-.041.072s-1.47.684-3.805-.04zm-4.305-10.409a9.118 9.118 0 013.227-1.43 8.906 8.906 0 013.975-.011c.046.01.075-.07.034-.092a5.13 5.13 0 00-2.194-.577.04.04 0 01-.04-.044.04.04 0 01.008-.02c.12-.156.258-.296.413-.416a.041.041 0 00.014-.047.041.041 0 00-.041-.027 5.813 5.813 0 00-2.625.93.04.04 0 01-.06-.02.04.04 0 01-.002-.023 2.9 2.9 0 01.278-.68.038.038 0 00.004-.024.039.039 0 00-.056-.03 10.662 10.662 0 00-2.99 2.451.041.041 0 000 .055.04.04 0 00.055.005zm7.618 6.093a.381.381 0 00.501-.083c.073-.141-.033-.333-.237-.428a.381.381 0 00-.5.084c-.074.14.032.332.236.427zm.625-2.29c.049.254.154.494.308.702.16-.02.321-.02.48 0 .094-.279.102-.58.024-.863-.115-.524-.271-.84-.593-.791-.322.05-.334.428-.22.952zm.685 1.203a.404.404 0 10.293.395.355.355 0 00-.293-.395z" fill="#000"/><path d="M16.496 15.786c-.051-.007-.073-.03-.08-.058-.02-.09.12-.24.266-.347a1.543 1.543 0 011.5-.18c.23.095.426.253.567.456.052.085.062.151.029.186-.053.056-.188-.008-.407-.104a1.793 1.793 0 00-.846-.182 9.37 9.37 0 00-1.029.229zm2.182.45a.83.83 0 00-.747-.246c-.2.021-.388.1-.543.227a.349.349 0 00-.14.217.068.068 0 00.022.052c.013.011.03.018.047.018a.87.87 0 00.209-.058c.293-.11.609-.143.918-.096.143.016.211.025.242-.024a.08.08 0 00-.008-.09z" fill="#000"/><path d="M18.272 16.366c.09-.321.096-.661.015-.985-.116-.525-.293-.824-.62-.775-.326.05-.334.472-.23.999.05.24.144.47.279.676.26.363.436.27.555.085h.001z" fill="#000"/></svg>