<svg width="1500" height="1500" fill="none" xmlns="http://www.w3.org/2000/svg"><path d="M1047.2 86.3v331.9L735 252.2l312.2-165.9z" fill="#FDCC53"/><path d="M1047.2 418.2L735 584.1V252.2l312.2 166z" fill="#F1684B"/><path d="M735 252.2v331.9L422.7 418.2l312.3-166zm0 995.6l-312.3 165.9v-331.9l312.3 166z" fill="#4F2F8D"/><path d="M1047.2 750v331.8L735 915.9 1047.2 750z" fill="#8D3F42"/><path d="M735 584.1v331.8h-.1L422.7 750 735 584.1z" fill="#F1684B"/><path d="M1047.2 1081.8l-312.2 166V915.9l312.2 165.9z" fill="#EC232E"/><path d="M735 915.9v331.9l-312.3-166 312.2-165.9h.1z" fill="#B62078"/><path d="M1047.2 750L735 915.9V584.1L1047.2 750z" fill="#EC232F"/><path d="M735 584.1L422.7 750V418.2L735 584.1z" fill="#EE3730"/></svg>