<svg width="32" height="32" viewBox="0 0 32 32" fill="none" xmlns="http://www.w3.org/2000/svg">
<path d="M2.58007 1.37985L20.3266 0.0729764C22.5059 -0.113938 23.0666 0.0112666 24.4363 1.00627L30.1012 4.98783C31.036 5.6725 31.3476 5.85891 31.3476 6.60529V28.4427C31.3476 29.8113 30.849 30.6207 29.1059 30.7445L8.49694 31.989C7.18848 32.0514 6.56573 31.8649 5.8805 30.9934L1.70876 25.5808C0.96124 24.5845 0.650391 23.8392 0.650391 22.9671V3.55652C0.650391 2.43733 1.14908 1.50378 2.58007 1.37985Z" fill="white"/>
<path d="M5.94342 5.61029C6.93875 6.41888 7.31213 6.35718 9.18107 6.2325L26.8009 5.17449C27.1747 5.17449 26.8639 4.80168 26.7393 4.73972L23.813 2.62425C23.2523 2.18896 22.5053 1.69044 21.0735 1.81513L4.01221 3.05954C3.39 3.12124 3.2657 3.43233 3.51353 3.68172L5.94342 5.61029ZM7.00129 9.71655V28.2557C7.00129 29.2521 7.4992 29.6248 8.61985 29.5632L27.9841 28.4427C29.1053 28.3811 29.2301 27.6957 29.2301 26.8864V8.47162C29.2301 7.66355 28.9193 7.22775 28.233 7.28996L7.99713 8.47162C7.25038 8.53437 7.00129 8.90793 7.00129 9.71655ZM26.1176 10.711C26.2417 11.2715 26.1176 11.8315 25.5561 11.8945L24.6231 12.0804V25.7672C23.813 26.2026 23.066 26.4515 22.4435 26.4515C21.4469 26.4515 21.1973 26.1402 20.4508 25.2075L14.3479 15.6266V24.8964L16.2791 25.3322C16.2791 25.3322 16.2791 26.4515 14.721 26.4515L10.4257 26.7006C10.301 26.4515 10.4257 25.8299 10.8614 25.7053L11.9823 25.3947V13.1384L10.426 13.0137C10.3012 12.4532 10.612 11.6451 11.4844 11.5824L16.0923 11.2718L22.4435 20.9773V12.3915L20.8242 12.2056C20.6999 11.5204 21.1973 11.0229 21.82 10.9612L26.1176 10.711ZM2.5797 1.37985L20.3263 0.0729764C22.5055 -0.113938 23.0662 0.0112666 24.436 1.00627L30.1009 4.98783C31.0356 5.6725 31.3472 5.85891 31.3472 6.60529V28.4427C31.3472 29.8113 30.8486 30.6207 29.1055 30.7445L8.49658 31.989C7.18811 32.0514 6.56537 31.8649 5.88013 30.9934L1.7084 25.5808C0.960874 24.5845 0.650024 23.8392 0.650024 22.9671V3.55652C0.650024 2.43733 1.14871 1.50378 2.5797 1.37985Z" fill="black"/>
</svg>
