<svg width="32" height="32" viewBox="0 0 32 32" fill="none" xmlns="http://www.w3.org/2000/svg">
<path fill-rule="evenodd" clip-rule="evenodd" d="M26.4618 15.9996C26.4618 16.6801 25.9101 17.2306 25.2308 17.2306H6.76853C6.44206 17.2306 6.12895 17.1009 5.8981 16.87C5.66724 16.6392 5.53755 16.326 5.53755 15.9996C5.53755 15.6731 5.66724 15.36 5.8981 15.1291C6.12895 14.8983 6.44206 14.7686 6.76853 14.7686H25.2296C25.9089 14.7686 26.4606 15.319 26.4606 15.9996H26.4618ZM21.5379 22.7675H10.4615C10.2966 22.7727 10.1324 22.7448 9.9785 22.6854C9.82464 22.6259 9.68429 22.5361 9.5658 22.4213C9.44731 22.3066 9.3531 22.1691 9.28876 22.0173C9.22442 21.8654 9.19127 21.7021 9.19127 21.5371C9.19127 21.3722 9.22442 21.2089 9.28876 21.057C9.3531 20.9051 9.44731 20.7677 9.5658 20.6529C9.68429 20.5382 9.82464 20.4484 9.9785 20.3889C10.1324 20.3294 10.2966 20.3015 10.4615 20.3068H21.5391C21.8656 20.3068 22.1787 20.4365 22.4096 20.6673C22.6404 20.8982 22.7701 21.2113 22.7701 21.5378C22.7701 21.8642 22.6404 22.1773 22.4096 22.4082C22.1787 22.639 21.8656 22.7687 21.5391 22.7687L21.5379 22.7675ZM10.4615 9.23039H21.5391C21.8656 9.23039 22.1787 9.36009 22.4096 9.59094C22.6404 9.8218 22.7701 10.1349 22.7701 10.4614C22.7701 10.7879 22.6404 11.101 22.4096 11.3318C22.1787 11.5627 21.8656 11.6924 21.5391 11.6924H10.4615C10.135 11.6924 9.82191 11.5627 9.59105 11.3318C9.3602 11.101 9.23051 10.7879 9.23051 10.4614C9.23051 10.1349 9.3602 9.8218 9.59105 9.59094C9.82191 9.36009 10.135 9.23039 10.4615 9.23039V9.23039ZM25.2709 6.13291C22.7696 3.76569 19.4535 2.45145 16.0097 2.46247C15.7195 2.46247 15.428 2.47123 15.1352 2.48874C8.3473 2.91033 2.91295 8.34593 2.49136 15.1339C2.25617 18.9194 3.54971 22.5185 6.13428 25.2695C7.3956 26.623 8.92328 27.7008 10.6213 28.4354C12.3193 29.17 14.1509 29.5454 16.0009 29.5379H29.5393V15.9996C29.5469 14.1495 29.1716 12.3178 28.437 10.6198C27.7024 8.9218 26.6244 7.39414 25.2709 6.13291" fill="#F27557"/>
<path fill-rule="evenodd" clip-rule="evenodd" d="M29.538 29.5378H15.9997C12.2242 29.5378 8.72009 28.0216 6.13302 25.2694C3.54845 22.5184 2.25491 18.9193 2.4901 15.1337C2.91044 8.34581 8.34479 2.9102 15.134 2.48861C15.4267 2.4711 15.7195 2.46234 16.0097 2.46234C19.4531 2.45164 22.7687 3.76586 25.2696 6.13278C26.6232 7.39401 27.7012 8.92167 28.4357 10.6197C29.1703 12.3177 29.5456 14.1494 29.538 15.9994V29.5378V29.5378ZM26.9547 4.33885C23.7046 1.2839 19.4537 -0.24858 14.9814 0.0328954C6.95743 0.530794 0.531033 6.95719 0.0318827 14.9811C-0.244589 19.451 1.28414 23.7044 4.34034 26.9545C5.8387 28.5438 7.64546 29.8108 9.65017 30.6781C11.6549 31.5454 13.8154 31.9947 15.9997 31.9985H30.769C31.4483 31.9985 32 31.4481 32 30.7688V15.9994C31.996 13.8151 31.5465 11.6545 30.679 9.64979C29.8115 7.64507 28.5443 5.83835 26.9547 4.3401V4.33885Z" fill="#C34027"/>
<path fill-rule="evenodd" clip-rule="evenodd" d="M21.539 20.3068H10.4613C10.1349 20.3068 9.82175 20.4365 9.5909 20.6674C9.36004 20.8982 9.23035 21.2114 9.23035 21.5378C9.23035 21.8643 9.36004 22.1774 9.5909 22.4083C9.82175 22.6391 10.1349 22.7688 10.4613 22.7688H21.539C21.8654 22.7688 22.1785 22.6391 22.4094 22.4083C22.6403 22.1774 22.77 21.8643 22.77 21.5378C22.77 21.2114 22.6403 20.8982 22.4094 20.6674C22.1785 20.4365 21.8654 20.3068 21.539 20.3068ZM10.4613 11.6924H21.539C21.8654 11.6924 22.1785 11.5627 22.4094 11.3319C22.6403 11.101 22.77 10.7879 22.77 10.4615C22.77 10.135 22.6403 9.82187 22.4094 9.59102C22.1785 9.36016 21.8654 9.23047 21.539 9.23047H10.4613C10.1349 9.23047 9.82175 9.36016 9.5909 9.59102C9.36004 9.82187 9.23035 10.135 9.23035 10.4615C9.23035 10.7879 9.36004 11.101 9.5909 11.3319C9.82175 11.5627 10.1349 11.6924 10.4613 11.6924V11.6924ZM6.76963 14.7699C6.45011 14.7801 6.14708 14.9142 5.92466 15.1438C5.70225 15.3734 5.57788 15.6806 5.57788 16.0003C5.57788 16.32 5.70225 16.6271 5.92466 16.8567C6.14708 17.0863 6.45011 17.2204 6.76963 17.2306H25.2307C25.5572 17.2306 25.8703 17.1009 26.1011 16.8701C26.332 16.6392 26.4617 16.3261 26.4617 15.9996C26.4617 15.6732 26.332 15.3601 26.1011 15.1292C25.8703 14.8983 25.5572 14.7687 25.2307 14.7687H6.76963V14.7699Z" fill="#FEFEFE"/>
</svg>
