<svg width="32" height="32" viewBox="0 0 32 32" fill="none" xmlns="http://www.w3.org/2000/svg">
<path d="M16 32C24.8366 32 32 24.8366 32 16C32 7.16344 24.8366 0 16 0C7.16344 0 0 7.16344 0 16C0 24.8366 7.16344 32 16 32Z" fill="#FF4500"/>
<path d="M26.6721 16.0002C26.6557 15.5498 26.5093 15.1138 26.2506 14.7448C25.992 14.3757 25.6321 14.0894 25.2143 13.9203C24.7966 13.7511 24.3389 13.7065 23.8963 13.7916C23.4538 13.8768 23.0453 14.0881 22.7201 14.4002C20.9 13.1629 18.7605 12.4794 16.5601 12.4322L17.6001 7.44019L21.0241 8.16019C21.0648 8.53856 21.2391 8.89004 21.5156 9.15153C21.7921 9.41301 22.1527 9.56739 22.5327 9.58694C22.9128 9.6065 23.2874 9.48995 23.5892 9.25822C23.8911 9.02649 24.1005 8.69475 24.1798 8.32255C24.2591 7.95035 24.2032 7.56207 24.022 7.2274C23.8409 6.89273 23.5464 6.63359 23.1914 6.49649C22.8364 6.35939 22.4441 6.35332 22.085 6.47936C21.726 6.6054 21.4236 6.85529 21.2321 7.18419L17.3121 6.40019C17.248 6.38613 17.1818 6.38493 17.1172 6.39666C17.0526 6.4084 16.991 6.43283 16.9359 6.46855C16.8809 6.50427 16.8334 6.55056 16.7964 6.60474C16.7594 6.65892 16.7334 6.71992 16.7201 6.78419L15.5361 12.3362C13.3087 12.3698 11.1398 13.0538 9.29613 14.3042C9.04948 14.0721 8.75531 13.8964 8.43402 13.7894C8.11273 13.6823 7.77199 13.6463 7.43542 13.684C7.09885 13.7217 6.77451 13.8321 6.48486 14.0076C6.1952 14.1831 5.94718 14.4195 5.75796 14.7004C5.56875 14.9813 5.44287 15.2999 5.38906 15.6343C5.33524 15.9687 5.35477 16.3107 5.4463 16.6368C5.53782 16.9629 5.69916 17.2651 5.91911 17.5227C6.13907 17.7802 6.41239 17.9868 6.72013 18.1282C6.70212 18.3625 6.70212 18.5979 6.72013 18.8322C6.72013 22.4162 10.8961 25.3282 16.0481 25.3282C21.2001 25.3282 25.3761 22.4162 25.3761 18.8322C25.3941 18.5979 25.3941 18.3625 25.3761 18.1282C25.771 17.932 26.1022 17.628 26.3315 17.2514C26.5609 16.8748 26.679 16.441 26.6721 16.0002ZM10.6721 17.6002C10.6721 17.2837 10.766 16.9744 10.9418 16.7113C11.1176 16.4482 11.3675 16.2431 11.6598 16.122C11.9522 16.0009 12.2739 15.9692 12.5843 16.0309C12.8946 16.0927 13.1797 16.2451 13.4035 16.4688C13.6273 16.6926 13.7797 16.9777 13.8414 17.288C13.9031 17.5984 13.8714 17.9201 13.7503 18.2125C13.6292 18.5048 13.4242 18.7547 13.161 18.9305C12.8979 19.1064 12.5886 19.2002 12.2721 19.2002C12.062 19.2002 11.854 19.1588 11.6598 19.0784C11.4657 18.998 11.2893 18.8801 11.1408 18.7316C10.9922 18.583 10.8743 18.4066 10.7939 18.2125C10.7135 18.0184 10.6721 17.8103 10.6721 17.6002ZM19.9681 22.0002C18.833 22.8556 17.4363 23.291 16.0161 23.2322C14.596 23.291 13.1993 22.8556 12.0641 22.0002C11.9961 21.9173 11.9613 21.8121 11.9666 21.7049C11.9718 21.5978 12.0168 21.4965 12.0926 21.4207C12.1684 21.3448 12.2698 21.2999 12.3769 21.2946C12.484 21.2894 12.5892 21.3242 12.6721 21.3922C13.6341 22.0978 14.8083 22.4534 16.0001 22.4002C17.1934 22.4651 18.3731 22.1208 19.3441 21.4242C19.429 21.3414 19.5433 21.2958 19.6618 21.2973C19.7205 21.298 19.7784 21.3103 19.8324 21.3335C19.8863 21.3566 19.9352 21.3902 19.9761 21.4322C20.0171 21.4742 20.0494 21.5239 20.0712 21.5784C20.0929 21.6329 20.1038 21.6912 20.103 21.7499C20.1023 21.8085 20.09 21.8665 20.0668 21.9204C20.0437 21.9744 20.0102 22.0232 19.9681 22.0642V22.0002ZM19.6801 19.2642C19.3637 19.2642 19.0543 19.1704 18.7912 18.9945C18.5281 18.8187 18.323 18.5688 18.2019 18.2765C18.0808 17.9841 18.0491 17.6624 18.1109 17.352C18.1726 17.0417 18.325 16.7566 18.5488 16.5328C18.7725 16.3091 19.0576 16.1567 19.368 16.0949C19.6784 16.0332 20.0001 16.0649 20.2924 16.186C20.5848 16.3071 20.8347 16.5122 21.0105 16.7753C21.1863 17.0384 21.2801 17.3477 21.2801 17.6642C21.2888 17.881 21.2533 18.0973 21.1758 18.2999C21.0983 18.5026 20.9804 18.6873 20.8292 18.843C20.6781 18.9986 20.4968 19.1219 20.2965 19.2053C20.0963 19.2887 19.8811 19.3305 19.6641 19.3282L19.6801 19.2642Z" fill="white"/>
</svg>
