<svg width="32" height="32" viewBox="0 0 32 32" fill="none" xmlns="http://www.w3.org/2000/svg">
<path d="M15.6778 0C24.8822 0.0877088 31.9808 7.10167 32 16.0233C32.0082 20.3731 30.4344 24.1583 27.3608 27.2555C24.2187 30.4185 20.3691 32.0301 15.9219 31.9973C7.11233 31.9342 0.0301602 24.8901 0 15.9054C0.115157 11.5556 1.63139 7.78415 4.7187 4.70064C7.83069 1.58972 11.6418 0.101413 15.6778 0ZM15.2885 9.80968C15.2885 9.05045 15.2885 8.29396 15.2885 7.53473C15.2885 7.1373 15.2858 6.73987 15.2912 6.34244C15.2912 6.23555 15.2528 6.19169 15.1487 6.19717C15.0664 6.20265 14.9841 6.19443 14.9019 6.19991C14.7785 6.20814 14.7429 6.1588 14.7566 6.0382C14.8032 5.6161 14.7785 5.19949 14.6771 4.78835C14.5427 4.24839 14.1945 3.93867 13.6598 3.81533C13.1663 3.70295 12.6783 3.74955 12.193 3.85096C12.1134 3.86741 12.0641 3.8537 12.0202 3.78518C11.9325 3.64814 11.8365 3.51383 11.746 3.37405C11.7022 3.30552 11.6501 3.28086 11.5733 3.31375C11.0112 3.54946 10.4354 3.76325 9.88433 4.02638C8.01439 4.92814 6.44606 6.21088 5.19578 7.87186C4.46646 8.8394 3.88244 9.88916 3.45746 11.0239C3.30117 11.4405 3.1915 11.8763 3.05989 12.3039C3.02973 12.4026 3.06263 12.4629 3.15311 12.5177C3.38069 12.6547 3.60278 12.7973 3.82212 12.948C3.9126 13.011 4.00034 13.0933 4.06341 13.1837C4.35952 13.6113 4.64742 14.0471 4.93257 14.4802C4.99015 14.5679 5.05595 14.6008 5.1574 14.598C5.54674 14.5925 5.93334 14.5953 6.32268 14.5953C6.59961 14.598 6.59412 14.5377 6.59138 14.8666C6.58864 15.0941 6.58864 15.0941 6.81347 15.0941C8.96581 15.0941 11.1182 15.0914 13.2678 15.0969C13.4378 15.0969 13.5392 15.0503 13.6297 14.9023C14.0081 14.2993 14.5043 13.8141 15.1377 13.4825C15.2556 13.4222 15.2912 13.3537 15.2912 13.2276C15.2885 12.0928 15.2912 10.9526 15.2885 9.80968ZM23.6648 26.9101C23.7279 26.8718 23.769 26.8553 23.8019 26.8279C24.1474 26.5374 24.5038 26.2551 24.8328 25.9481C26.8042 24.1227 28.2903 21.9875 29.0004 19.3617C29.0388 19.2219 29.0224 19.1918 28.888 19.1589C28.6851 19.1095 28.4822 19.052 28.2766 19.0109C28.1834 18.9917 28.1367 18.9478 28.1203 18.8519C28.0764 18.597 28.0161 18.3421 27.9722 18.0872C27.9448 17.9337 27.879 17.8241 27.7419 17.7364C27.5061 17.5911 27.284 17.4184 27.0482 17.2704C26.977 17.2238 26.881 17.1964 26.796 17.1937C26.5136 17.1854 26.2284 17.1909 25.946 17.1909C25.5485 17.1909 25.5485 17.1909 25.5485 16.7935C25.5485 16.6098 25.543 16.6044 25.3538 16.6071C23.1932 16.6071 21.0326 16.6071 18.8693 16.6044C18.7377 16.6044 18.65 16.64 18.5677 16.7469C18.0715 17.3965 17.4874 17.9447 16.7691 18.3448C16.7197 18.3722 16.6813 18.4627 16.6813 18.523C16.6759 19.2164 16.6759 19.9126 16.6813 20.6061C16.6813 20.6828 16.7252 20.7733 16.7773 20.8308C16.9418 21.0145 17.1173 21.1871 17.2955 21.3598C17.3668 21.4283 17.375 21.4969 17.3613 21.5928C17.3284 21.8258 17.2846 22.0642 17.2983 22.2972C17.3202 22.7221 17.6191 22.9797 18.0413 22.9715C18.1729 22.9687 18.3045 22.9523 18.4361 22.9304C18.7322 22.881 19.0284 22.8043 19.3272 22.7769C19.5411 22.7577 19.7659 22.7769 19.9743 22.8262C20.3198 22.9084 20.509 23.251 20.3993 23.5498C20.3582 23.6649 20.3006 23.7773 20.2348 23.8787C19.988 24.246 19.6508 24.5173 19.2998 24.775C19.1819 24.8627 19.1764 24.8874 19.2861 24.9833C19.7467 25.3752 20.2704 25.4876 20.8462 25.3095C21.0573 25.2437 21.2547 25.1313 21.4549 25.0299C21.8196 24.8408 22.1623 24.6133 22.5681 24.5091C23.0698 24.3776 23.5085 24.6215 23.6593 25.1203C23.769 25.4904 23.7745 25.8686 23.7443 26.2468C23.7196 26.4497 23.6922 26.6607 23.6648 26.9101ZM16.6759 9.59589C16.6704 9.59589 16.6649 9.59589 16.6567 9.59589C16.6567 10.4127 16.6567 11.2322 16.6567 12.049C16.6567 12.3176 16.6512 12.589 16.6512 12.8576C16.6512 12.9233 16.6512 13.0028 16.7499 12.9754C16.8815 12.9398 17.0186 12.9069 17.1365 12.8411C17.7315 12.5204 18.3155 12.1833 18.9132 11.8654C19.0887 11.7722 19.1627 11.668 19.1517 11.4624C19.1326 11.0815 19.149 11.0842 19.4643 10.8814C19.5466 10.8293 19.5932 10.8457 19.6508 10.9115C19.744 11.0184 19.8454 11.1171 19.9359 11.2267C19.9935 11.2952 20.0428 11.3007 20.1224 11.2514C21.5563 10.3496 22.9903 9.45062 24.4243 8.55161C24.4517 8.53516 24.4901 8.52968 24.523 8.52145C24.534 8.55435 24.5504 8.58724 24.5532 8.62013C24.5559 8.78458 24.5559 8.94904 24.5504 9.11349C24.5477 9.22313 24.5888 9.25602 24.6903 9.21216C24.7204 9.19846 24.7506 9.19023 24.7807 9.17927C25.2194 9.00934 25.6581 8.8394 26.0968 8.6722C26.3683 8.56805 26.6424 8.46115 26.9139 8.357C27.0153 8.31863 27.0537 8.27203 26.9742 8.16514C26.8426 7.98972 26.7274 7.80334 26.5931 7.63066C25.3456 5.99983 23.8046 4.71983 21.9429 3.84548C21.3617 3.57139 20.7448 3.38227 20.1443 3.15203C20.0319 3.10818 19.9551 3.13833 19.8975 3.24797C19.8317 3.36857 19.7467 3.47546 19.6782 3.59606C19.6206 3.70021 19.5411 3.73036 19.4232 3.7331C18.9708 3.74955 18.5184 3.76325 18.0715 3.80985C17.5752 3.85919 17.3312 4.10039 17.2023 4.58552C17.0817 5.03777 17.057 5.4955 17.0762 5.95597C17.0871 6.19991 17.0899 6.2054 16.8404 6.19717C16.7143 6.19443 16.6759 6.23555 16.6759 6.36163C16.6786 7.44154 16.6759 8.51871 16.6759 9.59589ZM8.4668 16.6016C7.88553 16.6016 7.307 16.6044 6.72573 16.5989C6.60509 16.5989 6.55848 16.6373 6.5667 16.7579C6.57219 16.8428 6.56122 16.9333 6.56945 17.0182C6.58316 17.1525 6.52832 17.1937 6.39671 17.1909C5.95253 17.1854 5.5111 17.1909 5.06692 17.1854C4.97095 17.1854 4.90515 17.2183 4.85031 17.2978C4.67484 17.5555 4.49113 17.8049 4.31291 18.0598C4.04147 18.4545 3.79196 18.8683 3.30666 19.0438C3.25456 19.063 3.21344 19.1013 3.16134 19.1205C3.04892 19.1644 3.02973 19.2439 3.05715 19.3507C3.13118 19.6385 3.19424 19.9291 3.2765 20.2114C3.55068 21.157 3.95922 22.0396 4.50758 22.8564C4.57613 22.9578 4.62548 22.9742 4.73516 22.903C6.39123 21.834 8.05004 20.7678 9.70885 19.7016C10.2764 19.337 10.8467 18.9725 11.4143 18.608C11.4856 18.5614 11.5733 18.5257 11.4965 18.4079C11.1346 17.8487 10.7782 17.2868 10.4245 16.7222C10.3642 16.629 10.2983 16.5961 10.1914 16.5961C9.61837 16.6044 9.04258 16.6016 8.4668 16.6016ZM8.26116 26.8471C8.27213 26.8115 8.27761 26.8005 8.27487 26.7923C8.26939 26.7704 8.26116 26.7484 8.25568 26.7265C8.14326 26.2743 8.08842 25.8165 8.15971 25.3561C8.21455 24.9888 8.3818 24.6873 8.75469 24.553C9.13855 24.4132 9.51418 24.4433 9.86239 24.6571C10.1229 24.8161 10.3669 25.0025 10.6164 25.1779C10.8988 25.3752 11.2004 25.4602 11.5486 25.3807C11.9023 25.3012 12.2176 25.145 12.522 24.9586C12.6673 24.8709 12.6563 24.8682 12.5494 24.7421C12.3109 24.4653 12.0723 24.1912 11.8585 23.8952C11.7022 23.6786 11.6144 23.4265 11.6501 23.1469C11.672 22.9824 11.7488 22.8481 11.9051 22.8043C12.0833 22.7549 12.2725 22.7166 12.4534 22.7303C12.8126 22.7549 13.1691 22.8235 13.5255 22.8591C13.775 22.8838 14.0245 22.9002 14.274 22.8975C14.4385 22.8947 14.5619 22.7906 14.5976 22.6289C14.625 22.4973 14.6469 22.3548 14.6222 22.226C14.5838 22.0122 14.5153 21.8039 14.4467 21.5955C14.4166 21.4996 14.4193 21.4366 14.4961 21.3653C14.6963 21.1844 14.8909 20.998 15.0801 20.8062C15.1267 20.7596 15.1651 20.6828 15.1651 20.617C15.1706 20.0415 15.1679 19.4659 15.1679 18.8903C15.1679 18.7669 15.1295 18.745 15.0198 18.8081C14.8059 18.9286 14.5921 19.0492 14.3755 19.1698C12.947 19.9702 11.5157 20.7678 10.0872 21.5681C9.13032 22.1026 8.17616 22.6398 7.222 23.177C7.19184 23.1935 7.14523 23.2127 7.12604 23.199C7.1041 23.188 7.09588 23.1359 7.09862 23.103C7.10136 22.9934 7.11233 22.8838 7.11781 22.7741C7.1233 22.6563 7.09314 22.6343 6.98346 22.6837C6.82992 22.7522 6.67638 22.8207 6.52009 22.8892C6.0485 23.0948 5.57416 23.3004 5.10256 23.506C5.00934 23.5471 4.9874 23.5937 5.05869 23.6814C5.19304 23.8486 5.31094 24.0295 5.44529 24.1967C6.23494 25.1779 7.16717 26.0084 8.15149 26.7895C8.18165 26.8087 8.22003 26.8224 8.26116 26.8471ZM23.7251 15.0996C24.2187 15.0996 24.7122 15.1024 25.2057 15.0996C25.5622 15.0969 25.5375 15.1572 25.5375 14.7734C25.5375 14.609 25.5485 14.598 25.7184 14.598C26.0804 14.598 26.4396 14.5953 26.8015 14.6008C26.9084 14.6035 26.9934 14.5734 27.0702 14.4994C27.3197 14.2582 27.5747 14.0224 27.8297 13.7895C27.9256 13.7018 27.9859 13.6086 27.9997 13.4743C28.0134 13.3345 28.038 13.1919 28.0847 13.0604C28.1121 12.9836 28.1724 12.9014 28.2437 12.8603C28.463 12.7315 28.6933 12.6164 28.9209 12.504C29.0059 12.4629 29.0333 12.4135 28.9977 12.3203C28.8825 12.0216 28.7811 11.7201 28.6659 11.4241C28.3479 10.6155 27.964 9.83983 27.4979 9.10801C27.4266 8.99563 27.3718 8.98741 27.2594 9.05319C25.2277 10.2674 23.1905 11.4761 21.156 12.6876C21.0135 12.7726 21.0135 12.7808 21.1149 12.9096C21.3562 13.2139 21.6002 13.5154 21.836 13.8251C21.8881 13.8964 21.9265 13.995 21.9292 14.0827C21.9402 14.3513 21.9347 14.62 21.932 14.8913C21.932 15.1078 21.932 15.1078 22.1403 15.1078C22.6668 15.0996 23.196 15.0996 23.7251 15.0996ZM20.0757 15.0996C20.4267 15.0996 20.7777 15.0996 21.1314 15.0996C21.1643 15.0996 21.1999 15.0859 21.2328 15.0777C21.2218 15.0421 21.2191 14.9982 21.1999 14.968C21.1149 14.842 21.0272 14.7214 20.9394 14.598C20.6488 14.1842 20.3554 13.7703 20.0648 13.3564C20.0236 13.2961 19.9853 13.2413 19.9003 13.2906C19.4204 13.562 18.9379 13.8306 18.4553 14.0992C18.3813 14.1403 18.3676 14.1924 18.4142 14.2691C18.5513 14.4994 18.6911 14.7296 18.82 14.968C18.8803 15.0777 18.9571 15.1078 19.075 15.1051C19.4095 15.0969 19.744 15.0996 20.0757 15.0996ZM11.2415 16.6126C11.258 16.6592 11.2607 16.6756 11.269 16.6921C11.5541 17.1525 11.842 17.613 12.1272 18.0762C12.1683 18.1448 12.2204 18.153 12.2862 18.1119C12.6837 17.8707 13.0813 17.6322 13.4816 17.3937C13.5639 17.3444 13.5694 17.2923 13.5227 17.2128C13.4323 17.0566 13.339 16.8976 13.2595 16.7332C13.2102 16.629 13.1416 16.5989 13.032 16.6016C12.4946 16.6071 11.9544 16.6044 11.417 16.6044C11.3677 16.6044 11.3156 16.6098 11.2415 16.6126Z" fill="black"/>
<path d="M15.2884 9.80976C15.2884 10.9527 15.2857 12.0929 15.2912 13.2359C15.2912 13.362 15.2555 13.4277 15.1376 13.4908C14.5043 13.8224 14.008 14.3076 13.6296 14.9106C13.5364 15.0586 13.4377 15.1052 13.2677 15.1052C11.1154 15.0997 8.96302 15.1024 6.81343 15.1024C6.5886 15.1024 6.58859 15.1024 6.59134 14.8749C6.59408 14.5433 6.59956 14.6036 6.32264 14.6036C5.9333 14.6009 5.5467 14.6009 5.15736 14.6063C5.05591 14.6063 4.99011 14.5762 4.93253 14.4885C4.64738 14.0527 4.35948 13.6196 4.06337 13.192C4.0003 13.1016 3.91531 13.0194 3.82208 12.9563C3.60548 12.8056 3.38065 12.663 3.15308 12.526C3.06534 12.4712 3.02969 12.4109 3.05986 12.3122C3.19146 11.8846 3.30114 11.4516 3.45742 11.0322C3.88241 9.89747 4.46642 8.8477 5.19574 7.88017C6.44876 6.21918 8.01435 4.93918 9.88428 4.03468C10.4326 3.76882 11.0084 3.55777 11.5732 3.32205C11.65 3.28916 11.7021 3.31383 11.746 3.38235C11.8337 3.5194 11.9297 3.6537 12.0202 3.79348C12.064 3.86201 12.1134 3.87571 12.1929 3.85927C12.6782 3.75785 13.169 3.71126 13.6598 3.82364C14.1917 3.94423 14.5427 4.25396 14.677 4.79665C14.7785 5.21053 14.8031 5.62715 14.7565 6.0465C14.7428 6.1671 14.7785 6.21918 14.9018 6.20822C14.9841 6.20274 15.0663 6.21096 15.1486 6.20548C15.2555 6.19999 15.2939 6.24385 15.2912 6.35074C15.2857 6.74817 15.2884 7.14561 15.2884 7.54304C15.2884 8.29404 15.2884 9.05327 15.2884 9.80976Z" fill="white"/>
<path d="M23.6648 26.9103C23.6923 26.6608 23.7197 26.4498 23.7361 26.2387C23.7663 25.8605 23.7608 25.4822 23.6511 25.1122C23.5031 24.6134 23.0644 24.3722 22.5599 24.501C22.1541 24.6051 21.8114 24.8326 21.4467 25.0218C21.2493 25.1259 21.0491 25.2356 20.838 25.3013C20.2622 25.4795 19.7385 25.3671 19.2779 24.9752C19.1682 24.882 19.1737 24.8546 19.2916 24.7669C19.6426 24.5092 19.9798 24.2379 20.2266 23.8706C20.2951 23.7692 20.35 23.6568 20.3911 23.5417C20.498 23.2402 20.3116 22.9003 19.9661 22.8181C19.7577 22.7687 19.5329 22.7495 19.319 22.7687C19.0202 22.7961 18.7268 22.8729 18.4279 22.9222C18.2991 22.9442 18.1647 22.9633 18.0331 22.9633C17.6109 22.9688 17.3148 22.7139 17.2901 22.2891C17.2764 22.0561 17.3202 21.8176 17.3531 21.5847C17.3668 21.4887 17.3614 21.4229 17.2873 21.3517C17.1091 21.1817 16.9336 21.0063 16.7691 20.8227C16.717 20.7651 16.6759 20.6747 16.6732 20.5979C16.6649 19.9045 16.6677 19.2083 16.6732 18.5148C16.6732 18.4545 16.7115 18.3641 16.7609 18.3367C17.4793 17.9365 18.066 17.3856 18.5595 16.7387C18.6418 16.6318 18.7295 16.5962 18.8611 16.5962C21.0217 16.5989 23.1823 16.5989 25.3456 16.5989C25.5348 16.5989 25.5403 16.6044 25.5403 16.7853C25.5403 17.1827 25.5403 17.1827 25.9378 17.1827C26.2202 17.1827 26.5054 17.1773 26.7878 17.1855C26.8728 17.1882 26.9688 17.2184 27.0401 17.2622C27.2759 17.4102 27.4979 17.5829 27.7337 17.7282C27.8708 17.8132 27.9366 17.9255 27.9641 18.079C28.0079 18.3339 28.0682 18.5888 28.1121 18.8437C28.1286 18.9397 28.1752 18.9808 28.2684 19.0027C28.474 19.0466 28.6769 19.1014 28.8798 19.1507C29.0169 19.1836 29.0306 19.2165 28.9922 19.3536C28.2848 21.9793 26.796 24.1118 24.8246 25.94C24.4929 26.247 24.1392 26.5265 23.7937 26.8198C23.769 26.8554 23.7279 26.8719 23.6648 26.9103Z" fill="white"/>
<path d="M16.6759 9.59577C16.6759 8.5186 16.6786 7.43868 16.6731 6.36151C16.6731 6.23543 16.7115 6.19431 16.8376 6.19706C17.0871 6.20254 17.0844 6.19706 17.0734 5.95586C17.0542 5.49264 17.0789 5.03491 17.1995 4.58541C17.3284 4.10301 17.5724 3.86181 18.0687 3.80973C18.5184 3.76314 18.9708 3.74943 19.4204 3.73299C19.5383 3.7275 19.6178 3.7001 19.6754 3.59594C19.7412 3.47808 19.829 3.36845 19.8948 3.24785C19.9551 3.14095 20.0291 3.10806 20.1415 3.15192C20.742 3.38215 21.3617 3.57127 21.9402 3.84536C23.7992 4.71971 25.3428 5.99971 26.5903 7.63055C26.7247 7.80322 26.8399 7.99234 26.9715 8.16502C27.051 8.26918 27.0126 8.31577 26.9111 8.35688C26.6397 8.46104 26.3655 8.56519 26.0941 8.67209C25.6554 8.84202 25.2167 9.01196 24.778 9.17915C24.7478 9.19012 24.7177 9.19834 24.6875 9.21204C24.5861 9.2559 24.5449 9.22575 24.5477 9.11337C24.5532 8.94892 24.5532 8.78446 24.5504 8.62001C24.5504 8.58712 24.5312 8.55423 24.5203 8.52134C24.4874 8.5323 24.4517 8.53504 24.4216 8.55149C22.9876 9.4505 21.5508 10.3495 20.1196 11.2513C20.0401 11.3006 19.9907 11.2924 19.9332 11.2266C19.8399 11.1197 19.7412 11.0183 19.648 10.9114C19.5904 10.8456 19.5438 10.8292 19.4616 10.8813C19.1463 11.0841 19.1298 11.0813 19.149 11.4623C19.16 11.6679 19.0859 11.772 18.9105 11.8652C18.3127 12.1832 17.7287 12.5203 17.1337 12.841C17.0158 12.904 16.8788 12.9397 16.7471 12.9753C16.6484 13.0027 16.6484 12.9205 16.6484 12.8574C16.6484 12.5888 16.6539 12.3175 16.6539 12.0489C16.6539 11.2321 16.6539 10.4126 16.6539 9.59577C16.6649 9.59577 16.6704 9.59577 16.6759 9.59577Z" fill="white"/>
<path d="M8.46685 16.6016C9.04263 16.6016 9.61842 16.6044 10.1942 16.5989C10.3011 16.5989 10.3697 16.6318 10.4273 16.725C10.781 17.2896 11.1401 17.8515 11.4993 18.4106C11.5761 18.5285 11.4884 18.5641 11.4171 18.6107C10.8495 18.9752 10.2792 19.3398 9.71164 19.7043C8.05283 20.7705 6.39402 21.8367 4.73795 22.9057C4.62827 22.977 4.57892 22.9605 4.51038 22.8591C3.96201 22.0423 3.55347 21.1597 3.27929 20.2141C3.19703 19.9291 3.13397 19.6385 3.05994 19.3535C3.03252 19.2466 3.05172 19.1671 3.16413 19.1233C3.21349 19.1041 3.25735 19.063 3.30945 19.0465C3.79476 18.8711 4.04426 18.4572 4.3157 18.0625C4.49118 17.8076 4.67763 17.5582 4.8531 17.3005C4.90794 17.2183 4.971 17.1882 5.06971 17.1882C5.51389 17.1909 5.95532 17.1854 6.3995 17.1937C6.53111 17.1964 6.58595 17.1553 6.57224 17.021C6.56401 16.936 6.57498 16.8483 6.5695 16.7606C6.56127 16.64 6.60788 16.6016 6.72852 16.6016C7.30705 16.6044 7.88832 16.6016 8.46685 16.6016Z" fill="white"/>
<path d="M8.26122 26.8473C8.22009 26.8254 8.1817 26.8117 8.15154 26.787C7.16997 26.0086 6.235 25.1781 5.44535 24.1941C5.311 24.0269 5.1931 23.8488 5.05875 23.6788C4.98746 23.5911 5.01214 23.5418 5.10262 23.5034C5.57696 23.2978 6.04855 23.0923 6.52015 22.8867C6.67369 22.8182 6.82724 22.7497 6.98352 22.6811C7.09319 22.6318 7.12336 22.6537 7.11787 22.7716C7.11239 22.8812 7.10142 22.9909 7.09868 23.1005C7.09868 23.1334 7.1069 23.1827 7.1261 23.1964C7.14803 23.2074 7.19464 23.1909 7.22206 23.1745C8.17896 22.64 9.13312 22.1028 10.0873 21.5656C11.5158 20.7653 12.947 19.9649 14.3755 19.1673C14.5894 19.0467 14.806 18.9261 15.0199 18.8055C15.1323 18.7425 15.1679 18.7644 15.1679 18.8877C15.1679 19.4633 15.1707 20.0389 15.1652 20.6145C15.1652 20.6775 15.1268 20.757 15.0802 20.8036C14.891 20.9955 14.6963 21.1819 14.4962 21.3628C14.4194 21.434 14.4139 21.4971 14.4468 21.593C14.5154 21.8013 14.5839 22.0096 14.6223 22.2234C14.6442 22.3522 14.625 22.4948 14.5976 22.6263C14.562 22.788 14.4386 22.8949 14.2741 22.8949C14.0246 22.8977 13.7723 22.8812 13.5255 22.8566C13.1664 22.8182 12.8127 22.7524 12.4535 22.7277C12.2725 22.7168 12.0806 22.7524 11.9051 22.8017C11.7488 22.8456 11.6721 22.9826 11.6501 23.1444C11.6145 23.4239 11.7022 23.6761 11.8585 23.8926C12.0724 24.1886 12.3109 24.4627 12.5495 24.7395C12.6564 24.8656 12.6674 24.8684 12.522 24.9561C12.2177 25.1425 11.9024 25.2987 11.5487 25.3782C11.2005 25.4577 10.8989 25.3727 10.6165 25.1753C10.367 24.9999 10.1229 24.8136 9.86245 24.6546C9.51698 24.4435 9.13861 24.4106 8.75475 24.5504C8.38186 24.6875 8.21461 24.9862 8.15977 25.3535C8.08848 25.8167 8.14332 26.2744 8.25573 26.724C8.26122 26.7459 8.26944 26.7678 8.27493 26.7897C8.27767 26.8007 8.27219 26.8089 8.26122 26.8473Z" fill="white"/>
<path d="M23.7252 15.0995C23.196 15.0995 22.6668 15.0995 22.1349 15.0995C21.9265 15.0995 21.9265 15.0995 21.9265 14.883C21.9265 14.6144 21.9347 14.343 21.9238 14.0744C21.921 13.9867 21.8826 13.888 21.8305 13.8168C21.5975 13.5071 21.3507 13.2056 21.1094 12.9013C21.008 12.7725 21.008 12.7643 21.1506 12.6793C23.185 11.4678 25.2195 10.2591 27.2539 9.04488C27.3663 8.97636 27.4212 8.98733 27.4924 9.0997C27.9586 9.83426 28.3424 10.6099 28.6605 11.4158C28.7784 11.7118 28.8798 12.016 28.9922 12.312C29.0279 12.4052 29.0005 12.4546 28.9155 12.4957C28.6879 12.6108 28.4576 12.7232 28.2382 12.852C28.1697 12.8931 28.1066 12.9753 28.0792 13.0521C28.0326 13.1836 28.0079 13.3262 27.9942 13.4659C27.9805 13.6002 27.9202 13.6934 27.8242 13.7811C27.5665 14.0141 27.3142 14.2498 27.0647 14.491C26.9852 14.5678 26.9029 14.5952 26.796 14.5925C26.4341 14.587 26.0749 14.5897 25.713 14.5897C25.543 14.5897 25.532 14.5979 25.532 14.7651C25.5348 15.1489 25.5567 15.0886 25.2003 15.0913C24.7122 15.1023 24.2187 15.0995 23.7252 15.0995Z" fill="white"/>
<path d="M20.0758 15.1003C19.7413 15.1003 19.4095 15.0976 19.075 15.1031C18.9571 15.1058 18.8803 15.0756 18.82 14.966C18.6911 14.7302 18.5541 14.4999 18.4142 14.2668C18.3676 14.19 18.3813 14.1379 18.4553 14.0968C18.9379 13.8281 19.4177 13.5594 19.9003 13.2879C19.9853 13.2386 20.0237 13.2934 20.0648 13.3537C20.3554 13.7678 20.6461 14.1818 20.9395 14.5958C21.0272 14.7192 21.1149 14.8398 21.1999 14.966C21.2191 14.9961 21.2219 15.0373 21.2328 15.0756C21.1999 15.0839 21.1643 15.0976 21.1314 15.0976C20.7804 15.1031 20.4267 15.1003 20.0758 15.1003Z" fill="white"/>
<path d="M11.2415 16.6126C11.3127 16.6071 11.3676 16.6016 11.4197 16.6016C11.9571 16.6016 12.4972 16.6044 13.0346 16.5989C13.1443 16.5989 13.2128 16.629 13.2622 16.7305C13.3417 16.895 13.4349 17.0513 13.5254 17.2103C13.572 17.2871 13.5665 17.3419 13.4843 17.3913C13.084 17.6298 12.6864 17.8684 12.2888 18.1096C12.2203 18.1508 12.1709 18.1425 12.1298 18.074C11.8447 17.6134 11.5568 17.1527 11.2716 16.6894C11.2606 16.6784 11.2579 16.6592 11.2415 16.6126Z" fill="white"/>
</svg>
