<svg width="32" height="32" fill="none" xmlns="http://www.w3.org/2000/svg"><g clip-path="url(#clip0)"><path d="M9.263 0a9.263 9.263 0 100 18.527A9.263 9.263 0 009.263 0z" fill="url(#paint0_radial)"/><path d="M22.737 13.474a9.263 9.263 0 100 18.526 9.263 9.263 0 000-18.526z" fill="url(#paint1_radial)"/><path d="M16 .842C7.63.842.842 7.63.842 16 .842 24.371 7.63 31.158 16 31.158c8.372 0 15.158-6.787 15.158-15.158C31.158 7.629 24.371.842 16 .842z" fill="url(#paint2_linear)"/><path d="M10.08 22.16c0-.872.917-1.367 1.543-1.367.625 0 2.371 1.222 4.044 1.222.888 0 2.881-.087 2.881-1.928 0-3.02-8.518-2.786-8.518-7.81 0-.874.24-4.88 6.555-4.88 1.698 0 4.809.486 4.809 2.1 0 1.183-.807 1.49-1.348 1.49-1.047 0-1.47-.947-3.608-.947-2.954 0-2.881 1.77-2.881 2.028 0 2.54 8.482 2.54 8.482 7.794 0 5.171-6.308 4.896-7.225 4.896-.941 0-4.734-.458-4.734-2.597z" fill="#fff"/></g><defs><radialGradient id="paint0_radial" cx="0" cy="0" r="1" gradientUnits="userSpaceOnUse" gradientTransform="translate(10.802 11.258) scale(11.7432)"><stop offset=".528" stop-color="#007EC4"/><stop offset=".878" stop-color="#00A0DE"/><stop offset="1" stop-color="#00ADE8"/></radialGradient><radialGradient id="paint1_radial" cx="0" cy="0" r="1" gradientUnits="userSpaceOnUse" gradientTransform="translate(19.51 24.205) scale(12.9288)"><stop offset=".441" stop-color="#0868B3"/><stop offset=".581" stop-color="#0770B8"/><stop offset=".798" stop-color="#0486C4"/><stop offset="1" stop-color="#00A0D3"/></radialGradient><linearGradient id="paint2_linear" x1="5.282" y1="5.282" x2="26.718" y2="26.718" gradientUnits="userSpaceOnUse"><stop stop-color="#00B3EE"/><stop offset="1" stop-color="#0082D8"/></linearGradient><clipPath id="clip0"><path fill="#fff" d="M0 0h32v32H0z"/></clipPath></defs></svg>