<svg width="32" height="32" viewBox="0 0 32 32" fill="none" xmlns="http://www.w3.org/2000/svg">
<path d="M31.3579 25.5984H0.639957C0.286541 25.5984 0 25.8849 0 26.2383V31.358C0 31.7114 0.286541 31.998 0.639957 31.998H31.3579C31.7113 31.998 31.9979 31.7114 31.9979 31.358V26.2383C31.9979 25.8849 31.7113 25.5984 31.3579 25.5984Z" fill="#FFE697"/>
<path d="M19.1987 25.5984H30.2871C29.1637 27.5448 27.5476 29.161 25.6013 30.2844C23.655 31.4079 21.4471 31.9989 19.1998 31.998V25.5984H19.1987Z" fill="#FFCF59"/>
<path d="M31.3581 12.7991H12.7993V18.5587C12.7993 18.9121 13.0859 19.1986 13.4393 19.1986H31.998V13.439C31.998 13.0856 31.7115 12.7991 31.3581 12.7991Z" fill="#AAE7ED"/>
<path d="M5.75962 12.7991H0.639957C0.286541 12.7991 0 13.0856 0 13.439V18.5587C0 18.9121 0.286541 19.1986 0.639957 19.1986H5.75962C6.11303 19.1986 6.39957 18.9121 6.39957 18.5587V13.439C6.39957 13.0856 6.11303 12.7991 5.75962 12.7991Z" fill="#AAE7ED"/>
<path d="M31.3579 0H0.639957C0.286541 0 0 0.286541 0 0.639957V5.75962C0 6.11303 0.286541 6.39957 0.639957 6.39957H31.3579C31.7113 6.39957 31.9979 6.11303 31.9979 5.75962V0.639957C31.9979 0.286541 31.7113 0 31.3579 0Z" fill="#B0BBFF"/>
<path d="M25.5984 6.39957H14.5117C15.6348 4.45314 17.2508 2.83688 19.1971 1.71349C21.1434 0.590042 23.3512 -0.000958768 25.5984 1.16752e-06V6.39957Z" fill="#5168EC"/>
<path d="M25.594 6.39957H25.6004V0H31.36C31.7135 0 32 0.286541 32 0.639957V5.75962C32 6.11303 31.7135 6.39957 31.36 6.39957H25.594C23.8979 6.40128 22.2717 7.07628 21.073 8.27625C19.8742 9.47617 19.2009 11.103 19.2009 12.7991H12.8013C12.7978 10.5523 13.3885 8.3444 14.5137 6.39957H25.594Z" fill="#B0BBFF"/>
<path d="M30.2871 25.5983H19.1987C20.896 25.5983 22.5237 24.9241 23.7239 23.7239C24.9241 22.5237 25.5983 20.896 25.5983 19.1987H31.9979C32.0018 21.4455 31.4116 23.6533 30.2871 25.5983Z" fill="#FFE697"/>
</svg>
