<svg width="32" height="32" viewBox="0 0 32 32" fill="none" xmlns="http://www.w3.org/2000/svg">
<rect width="32" height="32" fill="white"/>
<path d="M0 32C0 21.3327 0 10.6673 0 0C10.6673 0 21.3327 0 32 0C32 10.6673 32 21.3327 32 32C21.3327 32 10.6673 32 0 32ZM15.7716 15.4585C15.7716 16.9689 15.7696 18.4773 15.7716 19.9877C15.7716 20.4583 16.065 20.7458 16.5356 20.7478C19.3378 20.7478 22.142 20.7478 24.9442 20.7478C25.6965 20.7478 26.3857 20.5391 27.0119 20.1196C28.6897 18.9893 29.0186 16.6912 27.6953 15.167C26.8012 14.1371 25.661 13.7787 24.3259 14.0623C24.2373 14.08 24.2058 14.0682 24.1841 13.9796C23.8848 12.739 23.2369 11.711 22.2484 10.9056C21.3583 10.179 20.3362 9.75951 19.1902 9.65514C18.5895 9.6 17.9909 9.63151 17.3982 9.75163C16.9748 9.83828 16.5691 9.97219 16.195 10.1947C15.9941 10.3148 15.8444 10.4724 15.7972 10.7067C15.7775 10.8091 15.7755 10.9154 15.7735 11.0198C15.7696 12.4987 15.7716 13.9776 15.7716 15.4585ZM13.8338 16.3407C13.8338 16.579 13.7984 17.0398 13.8417 17.4907C13.9362 18.5127 14.0702 19.5308 14.1903 20.5509C14.21 20.7262 14.3301 20.8266 14.4955 20.8246C14.6629 20.8246 14.7732 20.7202 14.7988 20.5391C14.9012 19.8046 15.0055 19.072 15.1079 18.3375C15.2025 17.6561 15.2399 16.9748 15.1769 16.2855C15.1138 15.5924 15.0745 14.8992 15.0174 14.206C14.9465 13.3494 14.8697 12.4928 14.7948 11.6362C14.783 11.5082 14.72 11.4137 14.594 11.3703C14.397 11.3014 14.2139 11.4255 14.1922 11.65C14.1686 11.8843 14.1548 12.1206 14.1371 12.3569C14.0386 13.6094 13.9441 14.8657 13.8338 16.3407ZM10.2833 16.7444C10.307 17.1815 10.3148 17.6601 10.3641 18.1366C10.4468 18.9479 10.5551 19.7593 10.6575 20.5686C10.687 20.7951 10.945 20.8955 11.1163 20.7478C11.1734 20.6986 11.2187 20.608 11.2305 20.5312C11.327 19.8794 11.4137 19.2256 11.5023 18.5718C11.6106 17.7644 11.6677 16.9551 11.587 16.1378C11.4609 14.8874 11.3526 13.635 11.2364 12.3845C11.2207 12.2092 11.0966 12.0852 10.941 12.0891C10.7855 12.0911 10.6693 12.2151 10.6535 12.3943C10.6279 12.6878 10.5964 12.9812 10.5728 13.2766C10.4743 14.4167 10.3818 15.5589 10.2833 16.7444ZM12.0655 17.0201C12.0753 17.2091 12.0773 17.347 12.0911 17.4848C12.2014 18.5049 12.3156 19.5269 12.4298 20.547C12.4475 20.7065 12.5676 20.8207 12.7114 20.8246C12.8591 20.8286 12.9851 20.7124 13.0087 20.5509C13.0225 20.4603 13.0363 20.3697 13.0481 20.2791C13.1387 19.5722 13.2254 18.8672 13.3199 18.1602C13.4046 17.5262 13.4282 16.894 13.3593 16.256C13.2687 15.427 13.1978 14.5979 13.1151 13.7689C13.0836 13.442 13.0462 13.117 13.0087 12.7902C12.993 12.6425 12.8807 12.5204 12.7508 12.5026C12.6228 12.4869 12.4967 12.5657 12.4436 12.7015C12.4318 12.735 12.4258 12.7705 12.4219 12.8079C12.3412 13.6645 12.2565 14.5191 12.1817 15.3758C12.1364 15.939 12.1029 16.5061 12.0655 17.0201ZM8.56221 17.0181C8.57206 17.0181 8.58191 17.0181 8.59175 17.0201C8.59175 17.1835 8.57797 17.3489 8.59372 17.5124C8.68628 18.4359 8.78277 19.3595 8.88123 20.2831C8.89305 20.3973 8.9088 20.5115 8.93834 20.6218C8.96985 20.7399 9.12935 20.8364 9.24554 20.8246C9.35975 20.8128 9.47003 20.7025 9.49169 20.5765C9.50154 20.5154 9.51335 20.4544 9.52123 20.3914C9.62757 19.5919 9.73981 18.7924 9.83631 17.9909C9.87766 17.6423 9.91508 17.2918 9.90523 16.9413C9.89342 16.4903 9.84222 16.0374 9.79495 15.5884C9.71028 14.7633 9.61575 13.9382 9.5232 13.1131C9.51729 13.0619 9.50745 13.0087 9.48775 12.9615C9.43852 12.8354 9.31052 12.7508 9.20025 12.7626C9.08406 12.7764 8.96591 12.8866 8.94031 13.0127C8.92652 13.0836 8.91668 13.1545 8.9088 13.2273C8.83791 13.8969 8.76111 14.5644 8.70006 15.234C8.64689 15.8267 8.60751 16.4234 8.56221 17.0181ZM8.10338 17.2347C8.09748 17.2347 8.0896 17.2327 8.08369 17.2327C8.08369 17.1106 8.09945 16.9886 8.08172 16.8704C7.99508 16.2974 7.90055 15.7243 7.80406 15.1532C7.7824 15.0213 7.75286 14.8894 7.71151 14.7614C7.66818 14.6255 7.56382 14.5625 7.43582 14.5703C7.3216 14.5762 7.23102 14.657 7.19557 14.783C7.18375 14.8204 7.17785 14.8598 7.16997 14.8972C7.11286 15.2025 7.05182 15.5097 7.00062 15.8169C6.91397 16.3289 6.83126 16.8428 6.87852 17.3627C6.97698 18.43 7.08923 19.4974 7.19754 20.5647C7.20738 20.671 7.27828 20.738 7.36689 20.7931C7.42991 20.8325 7.48702 20.8345 7.55003 20.7951C7.65637 20.7321 7.71742 20.6434 7.7312 20.5194C7.76271 20.2417 7.80012 19.966 7.83163 19.6884C7.92025 18.8711 8.01083 18.0519 8.10338 17.2347ZM5.09834 16.9511C5.10425 16.9511 5.11015 16.9531 5.11803 16.9531C5.12591 17.087 5.13182 17.2209 5.14363 17.3548C5.19877 17.9298 5.25391 18.5029 5.31298 19.0779C5.35237 19.4619 5.4016 19.8459 5.44886 20.2299C5.46462 20.35 5.55914 20.4446 5.67138 20.4603C5.78363 20.4761 5.89982 20.419 5.94708 20.3146C5.97268 20.2594 5.98252 20.1945 5.9904 20.1334C6.09871 19.2276 6.21095 18.3237 6.30942 17.4178C6.33698 17.1618 6.35274 16.898 6.32517 16.6439C6.26412 16.1063 6.17354 15.5727 6.09083 15.039C6.05735 14.8244 6.01994 14.6117 5.97268 14.401C5.94314 14.2671 5.85649 14.206 5.72652 14.2021C5.56702 14.1962 5.47052 14.269 5.44492 14.4286C5.37206 14.8716 5.2992 15.3147 5.23815 15.7598C5.18302 16.1575 5.14363 16.5553 5.09834 16.9511ZM4.63951 17.0791C4.608 16.8645 4.58634 16.6459 4.54105 16.4313C4.46425 16.0591 4.37563 15.6889 4.28505 15.3206C4.25354 15.1887 4.15705 15.1119 4.05465 15.1119C3.95028 15.1119 3.86363 15.1887 3.82031 15.3167C3.80849 15.3502 3.80062 15.3856 3.79471 15.421C3.73169 15.7401 3.66474 16.0571 3.60566 16.3761C3.55052 16.6833 3.49342 16.9905 3.53674 17.3036C3.62929 17.9791 3.72382 18.6545 3.82031 19.33C3.84394 19.4993 3.93846 19.6037 4.05662 19.6037C4.1728 19.6037 4.26142 19.4974 4.29095 19.33C4.35791 18.9381 4.4288 18.5482 4.48985 18.1563C4.54695 17.7999 4.59028 17.4415 4.63951 17.0791Z" fill="#FE5500"/>
<path d="M15.7715 15.4584C15.7715 13.9775 15.7715 12.4986 15.7715 11.0178C15.7715 10.9134 15.7735 10.8071 15.7951 10.7047C15.8424 10.4703 15.9901 10.3128 16.1929 10.1927C16.5671 9.97015 16.9727 9.83624 17.3961 9.7496C17.9889 9.62947 18.5875 9.596 19.1881 9.6531C20.3342 9.75944 21.3562 10.1789 22.2463 10.9036C23.2349 11.709 23.8828 12.7349 24.1821 13.9775C24.2037 14.0661 24.2372 14.0799 24.3239 14.0602C25.659 13.7767 26.8012 14.1351 27.6932 15.165C29.0165 16.6911 28.6877 18.9873 27.0099 20.1176C26.3857 20.539 25.6964 20.7458 24.9422 20.7458C22.14 20.7458 19.3358 20.7458 16.5336 20.7458C16.0629 20.7458 15.7715 20.4583 15.7695 19.9857C15.7695 18.4772 15.7715 16.9688 15.7715 15.4584Z" fill="#FEFEFD"/>
<path d="M13.834 16.3407C13.9442 14.8677 14.0388 13.6114 14.1352 12.355C14.153 12.1187 14.1687 11.8843 14.1904 11.648C14.212 11.4235 14.3952 11.3014 14.5921 11.3684C14.7181 11.4117 14.7811 11.5062 14.793 11.6342C14.8678 12.4909 14.9446 13.3475 15.0155 14.2041C15.0726 14.8973 15.1139 15.5924 15.175 16.2836C15.236 16.9709 15.2006 17.6542 15.1061 18.3356C15.0037 19.0701 14.8993 19.8026 14.7969 20.5372C14.7713 20.7183 14.661 20.8227 14.4936 20.8227C14.3302 20.8227 14.2101 20.7223 14.1884 20.549C14.0683 19.5289 13.9364 18.5108 13.8399 17.4888C13.7985 17.0378 13.834 16.579 13.834 16.3407Z" fill="#FEFEFD"/>
<path d="M10.2834 16.7442C10.3819 15.5587 10.4745 14.4165 10.569 13.2763C10.5926 12.9829 10.6241 12.6875 10.6497 12.3941C10.6655 12.2149 10.7817 12.0909 10.9372 12.0889C11.0928 12.0869 11.2168 12.209 11.2326 12.3843C11.3488 13.6347 11.4571 14.8872 11.5831 16.1376C11.6658 16.9549 11.6087 17.7623 11.4984 18.5716C11.4098 19.2254 11.3232 19.8792 11.2267 20.531C11.2149 20.6078 11.1716 20.6984 11.1125 20.7476C10.9412 20.8953 10.6812 20.7929 10.6537 20.5684C10.5513 19.7591 10.443 18.9477 10.3602 18.1364C10.315 17.6599 10.3071 17.1813 10.2834 16.7442Z" fill="#FEFEFD"/>
<path d="M12.0654 17.0202C12.1028 16.5042 12.1363 15.9391 12.1856 15.3719C12.2604 14.5153 12.3451 13.6607 12.4258 12.804C12.4297 12.7686 12.4337 12.7312 12.4475 12.6977C12.4987 12.5618 12.6247 12.4831 12.7547 12.4988C12.8827 12.5146 12.9949 12.6367 13.0126 12.7863C13.0501 13.1132 13.0855 13.4381 13.119 13.765C13.1997 14.5941 13.2726 15.4251 13.3632 16.2522C13.4321 16.8902 13.4085 17.5223 13.3238 18.1564C13.2293 18.8614 13.1426 19.5684 13.052 20.2753C13.0402 20.3659 13.0264 20.4565 13.0126 20.5471C12.989 20.7086 12.863 20.8248 12.7153 20.8208C12.5715 20.8169 12.4514 20.7027 12.4337 20.5432C12.3195 19.5231 12.2072 18.503 12.095 17.481C12.0772 17.3491 12.0753 17.2092 12.0654 17.0202Z" fill="#FEFEFD"/>
<path d="M8.56201 17.0181C8.60731 16.4234 8.64472 15.8267 8.69986 15.232C8.76091 14.5625 8.83771 13.8949 8.9086 13.2253C8.91648 13.1544 8.92436 13.0816 8.94011 13.0107C8.96571 12.8827 9.08387 12.7724 9.20006 12.7606C9.31034 12.7488 9.44031 12.8354 9.48757 12.9595C9.50726 13.0068 9.51711 13.0599 9.52302 13.1111C9.61557 13.9362 9.70813 14.7613 9.79478 15.5865C9.84204 16.0374 9.89324 16.4884 9.90506 16.9393C9.91293 17.2879 9.87749 17.6404 9.83613 17.9889C9.73964 18.7904 9.62739 19.5899 9.52105 20.3894C9.51317 20.4505 9.50136 20.5115 9.49151 20.5745C9.46985 20.7025 9.36154 20.8128 9.24535 20.8227C9.12916 20.8345 8.97162 20.738 8.93814 20.6198C8.9086 20.5095 8.89285 20.3953 8.88103 20.2811C8.78257 19.3575 8.68411 18.4359 8.59352 17.5104C8.57777 17.3489 8.59155 17.1835 8.59155 17.0181C8.5817 17.0181 8.57186 17.0181 8.56201 17.0181Z" fill="#FEFEFD"/>
<path d="M8.10338 17.2346C8.0128 18.0519 7.92221 18.8711 7.82966 19.6883C7.79815 19.966 7.76074 20.2416 7.72923 20.5193C7.71545 20.6434 7.6544 20.732 7.54806 20.795C7.48505 20.8324 7.42794 20.8324 7.36493 20.793C7.27828 20.7379 7.20739 20.6709 7.19557 20.5646C7.08727 19.4973 6.97502 18.4319 6.87656 17.3626C6.8293 16.8427 6.91201 16.3288 6.99865 15.8168C7.04985 15.5096 7.1109 15.2043 7.16801 14.8971C7.17588 14.8577 7.18376 14.8203 7.19361 14.7829C7.23102 14.6569 7.3216 14.5761 7.43385 14.5702C7.56382 14.5624 7.66622 14.6254 7.70954 14.7613C7.75089 14.8893 7.78043 15.0212 7.80209 15.1531C7.89858 15.7262 7.99311 16.2973 8.07975 16.8703C8.09747 16.9885 8.08172 17.1125 8.08172 17.2326C8.0896 17.2326 8.09551 17.2346 8.10338 17.2346Z" fill="#FEFEFD"/>
<path d="M5.09839 16.9511C5.14368 16.5533 5.18307 16.1555 5.2382 15.7597C5.29925 15.3147 5.37211 14.8716 5.44497 14.4285C5.47057 14.269 5.56707 14.1981 5.72657 14.2021C5.85457 14.206 5.94319 14.267 5.97273 14.401C6.01999 14.6117 6.0574 14.8243 6.09088 15.039C6.17359 15.5726 6.26417 16.1063 6.32522 16.6439C6.35476 16.8979 6.33703 17.1618 6.30947 17.4178C6.211 18.3236 6.09876 19.2295 5.99045 20.1334C5.98257 20.1944 5.97273 20.2574 5.94713 20.3145C5.89987 20.4189 5.78368 20.476 5.67143 20.4602C5.55919 20.4445 5.4627 20.3519 5.44891 20.2298C5.40165 19.8458 5.35439 19.4618 5.31303 19.0779C5.25199 18.5048 5.19882 17.9298 5.14368 17.3548C5.1299 17.2209 5.12596 17.087 5.11808 16.9531C5.1102 16.9531 5.1043 16.9531 5.09839 16.9511Z" fill="#FEFEFD"/>
<path d="M4.63951 17.0793C4.59028 17.4437 4.54499 17.8001 4.48985 18.1565C4.4288 18.5484 4.35594 18.9383 4.29096 19.3302C4.26142 19.4996 4.17281 19.6039 4.05662 19.6039C3.94044 19.6039 3.84592 19.5015 3.82032 19.3302C3.72382 18.6548 3.6293 17.9793 3.53675 17.3038C3.49343 16.9907 3.55053 16.6816 3.60567 16.3763C3.66278 16.0573 3.72973 15.7403 3.79472 15.4212C3.80259 15.3858 3.81047 15.3503 3.82032 15.3169C3.86364 15.1869 3.95028 15.1121 4.05465 15.1121C4.15705 15.1121 4.25157 15.1889 4.28505 15.3208C4.37563 15.6891 4.46425 16.0593 4.54105 16.4315C4.58634 16.6441 4.608 16.8647 4.63951 17.0793Z" fill="#FEFEFD"/>
</svg>
