<svg width="32" height="32" viewBox="0 0 32 32" fill="none" xmlns="http://www.w3.org/2000/svg">
<path d="M24.4865 28.5406V20.7568H27.9459V32.0001H2V20.7568H5.45946V28.5406H24.4865Z" fill="#BCBBBB"/>
<path d="M21.892 22.4865L22.5839 19.8919L8.6596 17.0378L8.0542 19.8919L21.892 22.4865ZM9.9569 13.1459L22.9299 19.2L24.1407 16.6054L11.1677 10.5514L9.9569 13.1459V13.1459ZM13.5893 6.74595L24.4866 15.9135L26.3028 13.7514L15.3191 4.58378L13.5028 6.74595H13.5893ZM20.5947 0L18.2596 1.72973L26.8218 13.2324L29.1569 11.5027L20.5947 0ZM8.0542 25.9459H21.892V23.3514H8.0542V25.9459Z" fill="#F48024"/>
</svg>
