<svg width="32" height="32" viewBox="0 0 32 32" fill="none" xmlns="http://www.w3.org/2000/svg">
<g clip-path="url(#clip0)">
<path d="M15.9849 31.9945C13.0297 31.9945 10.0745 31.9945 7.11659 31.9945C6.93292 31.9945 6.74925 32.0109 6.56832 31.9862C6.19549 31.9314 5.82541 31.8684 5.45807 31.7861C4.90157 31.66 4.36974 31.4544 3.86533 31.1858C3.11968 30.7883 2.45353 30.2839 1.88332 29.6561C1.48034 29.212 1.13219 28.7268 0.852566 28.1977C0.551015 27.633 0.328964 27.0353 0.189154 26.4103C0.0548274 25.8045 0 25.1959 0 24.5791C0.00548274 18.8551 0.00548274 13.1311 0 7.40713C0 6.85612 0.0438619 6.31058 0.150775 5.77602C0.274137 5.15373 0.485222 4.55611 0.770325 3.98864C1.16782 3.18816 1.69691 2.4946 2.35209 1.8915C2.99632 1.29936 3.72552 0.841553 4.53971 0.520813C5.15926 0.276831 5.80074 0.101384 6.46963 0.0547803C6.76022 0.0328493 7.0508 0.00543566 7.33864 0.00543566C13.1147 0.00269429 18.888 0.00269429 24.6641 0.00269429C24.8834 0.00269429 25.1055 -0.0110126 25.322 0.0164011C25.7003 0.0630044 26.0786 0.120573 26.4487 0.202814C27.1149 0.350848 27.7454 0.603054 28.3403 0.937501C29.3409 1.49948 30.1578 2.26432 30.7965 3.21284C31.1803 3.78304 31.4846 4.39711 31.6765 5.05778C31.7971 5.47447 31.8739 5.91034 31.9397 6.34074C31.9863 6.65874 31.9973 6.98496 31.9973 7.3057C32 13.0845 32 18.8633 32 24.6421C32 24.8971 32.0192 25.1575 31.989 25.4097C31.9452 25.7853 31.8794 26.1581 31.7944 26.5254C31.6683 27.0682 31.4737 27.5891 31.216 28.0853C30.8596 28.7816 30.4018 29.4011 29.8453 29.9494C29.1791 30.6019 28.417 31.1063 27.5562 31.4626C26.9696 31.7039 26.3583 31.8766 25.725 31.9396C25.4097 31.9725 25.0917 31.9945 24.7765 31.9945C21.8405 31.9972 18.9127 31.9945 15.9849 31.9945ZM21.2456 12.5691C21.2456 12.5006 21.2456 12.4595 21.2456 12.4184C21.2456 11.0065 21.2456 9.59474 21.2456 8.18294C21.2456 8.15553 21.2538 8.12263 21.2429 8.1007C21.2264 8.06506 21.2017 8.01572 21.1689 8.00475C20.637 7.83478 20.1052 7.6566 19.5679 7.50856C19.228 7.41536 18.8743 7.34956 18.5234 7.30296C17.9861 7.23168 17.4488 7.16589 16.9088 7.14122C16.4564 7.12203 15.9986 7.15767 15.5436 7.18508C14.7705 7.23168 14.0221 7.39342 13.2956 7.66756C12.5527 7.94992 11.8838 8.34194 11.3136 8.89844C10.5954 9.60297 10.1485 10.4555 9.94843 11.4342C9.79217 12.2045 9.75379 12.9776 9.93198 13.7534C10.0471 14.2578 10.2335 14.7293 10.5269 15.1542C10.96 15.782 11.5466 16.2426 12.2018 16.6209C13.186 17.1911 14.2661 17.5283 15.3215 17.9258C15.8067 18.1094 16.292 18.2931 16.7086 18.6138C16.9663 18.8112 17.1747 19.0442 17.2076 19.3951C17.2487 19.8447 17.0952 20.2313 16.6812 20.4451C16.2536 20.6644 15.793 20.722 15.327 20.6891C14.8253 20.6534 14.3209 20.5959 13.8247 20.4999C13.2764 20.393 12.7337 20.2532 12.1991 20.0914C11.4781 19.8749 10.7983 19.5569 10.1376 19.195C9.97858 19.1073 9.96488 19.1155 9.96488 19.2937C9.96488 20.1353 9.96488 20.9742 9.96488 21.8158C9.96488 22.4106 9.96762 23.0028 9.96213 23.5977C9.96213 23.7128 9.99229 23.7841 10.1102 23.8252C10.4857 23.9595 10.8531 24.1213 11.2369 24.2364C11.7522 24.3872 12.2731 24.527 12.7995 24.6284C13.3395 24.7326 13.8878 24.8203 14.436 24.8477C15.1214 24.8834 15.8122 24.8943 16.5003 24.8121C17.1171 24.7381 17.7229 24.6284 18.3123 24.4338C19.0827 24.1843 19.7899 23.8197 20.4095 23.2934C21.2155 22.608 21.7363 21.7445 21.9885 20.7192C22.1174 20.1956 22.153 19.6611 22.1366 19.1183C22.1228 18.6029 22.0433 18.1067 21.8871 17.616C21.6157 16.7716 21.0948 16.111 20.4068 15.5792C19.8091 15.1159 19.1348 14.7814 18.4302 14.5128C17.7175 14.2414 16.991 14.0001 16.27 13.7424C15.8807 13.6026 15.4997 13.4381 15.1653 13.1859C14.7595 12.8789 14.6362 12.3909 14.8692 11.9441C15.0501 11.5932 15.3846 11.4507 15.7464 11.3821C16.1083 11.3136 16.4756 11.3136 16.8485 11.3465C17.4543 11.3986 18.0519 11.4726 18.644 11.6124C19.28 11.7604 19.8969 11.9605 20.4972 12.221C20.7357 12.3279 20.977 12.443 21.2456 12.5691Z" fill="#6772E4"/>
<path d="M21.2456 12.5693C20.9742 12.4432 20.7357 12.3253 20.4917 12.2212C19.8941 11.9607 19.2773 11.7606 18.6385 11.6126C18.0464 11.4755 17.4488 11.3988 16.843 11.3467C16.4701 11.3138 16.1028 11.3138 15.7409 11.3823C15.3791 11.4508 15.0474 11.5934 14.8637 11.9443C14.6307 12.3939 14.754 12.8818 15.1598 13.1861C15.4942 13.4383 15.8753 13.6028 16.2645 13.7426C16.9828 14.0003 17.7092 14.2415 18.4247 14.5129C19.1292 14.7816 19.8036 15.1188 20.4012 15.5793C21.0866 16.1112 21.6102 16.7718 21.8816 17.6162C22.0378 18.1069 22.1173 18.6058 22.131 19.1184C22.1447 19.6585 22.1119 20.193 21.983 20.7194C21.7335 21.7446 21.2099 22.6082 20.404 23.2935C19.7844 23.8199 19.0772 24.1817 18.3068 24.4339C17.7147 24.6258 17.1116 24.7382 16.4948 24.8122C15.8067 24.8945 15.1159 24.8835 14.4306 24.8479C13.8823 24.8205 13.334 24.73 12.794 24.6286C12.2676 24.5271 11.7468 24.3901 11.2314 24.2365C10.8503 24.1241 10.483 23.9597 10.1047 23.8253C9.98681 23.7842 9.95665 23.7129 9.95665 23.5978C9.95939 23.0029 9.95939 22.4108 9.95939 21.8159C9.95939 20.9743 9.95939 20.1355 9.95939 19.2939C9.95939 19.1129 9.97036 19.1047 10.1321 19.1952C10.7928 19.557 11.4726 19.875 12.1936 20.0916C12.7282 20.2533 13.271 20.3932 13.8192 20.5001C14.3127 20.596 14.8171 20.6536 15.3215 20.6892C15.7875 20.7221 16.2508 20.6673 16.6757 20.4452C17.0897 20.2314 17.2432 19.8421 17.2021 19.3953C17.1719 19.0444 16.9608 18.8114 16.7031 18.614C16.2865 18.2933 15.8012 18.1069 15.316 17.9259C14.2606 17.5284 13.1805 17.1885 12.1963 16.621C11.5439 16.2427 10.9545 15.7822 10.5214 15.1544C10.2308 14.7295 10.0416 14.258 9.9265 13.7536C9.75105 12.9778 9.78669 12.202 9.94295 11.4344C10.1431 10.4557 10.5899 9.60317 11.3081 8.89864C11.8783 8.3394 12.5472 7.95013 13.2901 7.66777C14.0166 7.39089 14.765 7.22915 15.5381 7.18529C15.9931 7.15787 16.4482 7.12224 16.9033 7.14143C17.4433 7.1661 17.9834 7.23189 18.5179 7.30317C18.8688 7.34977 19.2197 7.41556 19.5624 7.50877C20.0997 7.6568 20.6315 7.83499 21.1633 8.00495C21.1962 8.01592 21.2209 8.06526 21.2374 8.1009C21.2483 8.12283 21.2401 8.15573 21.2401 8.18314C21.2401 9.59494 21.2401 11.0067 21.2401 12.4185C21.2456 12.4597 21.2456 12.5008 21.2456 12.5693Z" fill="#FEFEFE"/>
</g>
<defs>
<clipPath id="clip0">
<rect width="32" height="32" fill="white"/>
</clipPath>
</defs>
</svg>
