<svg width="32" height="32" viewBox="0 0 32 32" fill="none" xmlns="http://www.w3.org/2000/svg">
<path d="M28.2273 17.7361C27.9228 17.7376 27.6197 17.7757 27.3243 17.8493C26.7735 15.6825 25.611 13.7198 23.9754 12.1956C22.3398 10.6713 20.3002 9.64979 18.0999 9.25291C17.8993 9.2173 17.718 9.19141 17.5141 9.16552C17.5465 8.06507 17.5983 6.79308 19.2198 5.64732L18.9641 5C18.9641 5 15.8084 5.97098 15.4427 8.68003C15.2841 7.94532 13.8244 7.02612 13.0864 6.85134L12.7239 7.43717C13.0463 7.63178 13.3212 7.89568 13.5289 8.20973C13.7366 8.52378 13.8718 8.88012 13.9247 9.25291V9.25291C11.7243 9.64898 9.68429 10.6698 8.04811 12.1935C6.41193 13.7172 5.24867 15.6794 4.69714 17.8461C4.11932 17.7017 3.51554 17.6958 2.93502 17.829C2.3545 17.9622 1.81366 18.2306 1.35658 18.6125C0.899507 18.9944 0.539129 19.4788 0.304819 20.0264C0.0705094 20.574 -0.0311016 21.1692 0.0082685 21.7635C0.0476386 22.3578 0.226876 22.9344 0.531371 23.4463C0.835866 23.9582 1.257 24.3909 1.76046 24.7091C2.26391 25.0273 2.83544 25.2221 3.42846 25.2776C4.02147 25.333 4.6192 25.2475 5.17292 25.0281C5.49502 25.8333 5.90648 26.5998 6.3996 27.3132L9.53587 25.1997L9.50998 25.1641C8.63477 23.9308 8.14073 22.4679 8.08911 20.9565C7.99525 19.2346 8.41277 17.5224 9.51645 16.5159C11.7821 14.5739 14.2549 15.464 15.8019 17.3153H16.2195C17.7666 15.464 20.2361 14.5836 22.505 16.5159C23.6054 17.5224 24.0262 19.2346 23.9323 20.9565C23.8807 22.4679 23.3867 23.9308 22.5114 25.1641L22.4855 25.1997L25.6218 27.3132C26.1149 26.5998 26.5264 25.8333 26.8485 25.0281C27.3654 25.2301 27.9205 25.3156 28.4742 25.2787C29.0279 25.2418 29.5667 25.0833 30.0522 24.8145C30.5377 24.5458 30.958 24.1733 31.2833 23.7237C31.6085 23.274 31.8307 22.7582 31.934 22.213C32.0373 21.6677 32.0192 21.1064 31.8809 20.569C31.7427 20.0315 31.4877 19.5311 31.1341 19.1034C30.7805 18.6757 30.3371 18.3311 29.8352 18.0942C29.3334 17.8573 28.7855 17.7339 28.2305 17.7328L28.2273 17.7361ZM3.71969 22.6298C3.43435 22.6144 3.16578 22.4903 2.96924 22.2828C2.7727 22.0754 2.66315 21.8005 2.66315 21.5148C2.66315 21.2291 2.7727 20.9542 2.96924 20.7468C3.16578 20.5393 3.43435 20.4152 3.71969 20.3998C3.94256 20.4011 4.16001 20.4687 4.34435 20.594C4.35399 21.1793 4.39396 21.7638 4.46411 22.345C4.25945 22.5283 3.99441 22.6297 3.71969 22.6298V22.6298ZM28.3017 22.6298C28.027 22.6297 27.762 22.5283 27.5573 22.345C27.6275 21.7638 27.6674 21.1793 27.6771 20.594C27.8448 20.4803 28.0403 20.4146 28.2426 20.4038C28.4449 20.393 28.6463 20.4377 28.8251 20.5329C29.0039 20.6282 29.1534 20.7704 29.2573 20.9442C29.3613 21.1181 29.4159 21.3171 29.4151 21.5197C29.4147 21.6659 29.3855 21.8106 29.3291 21.9455C29.2728 22.0804 29.1904 22.2029 29.0867 22.306C28.983 22.4091 28.8601 22.4907 28.7248 22.5463C28.5896 22.6019 28.4447 22.6302 28.2985 22.6298H28.3017Z" fill="#00BF6F"/>
</svg>
