<svg width="32" height="32" viewBox="0 0 32 32" fill="none" xmlns="http://www.w3.org/2000/svg">
<path d="M27.9913 0H4.00871C1.81264 0 0 1.81264 0 4.00872V27.9913C0 30.1874 1.81264 32 4.00871 32H27.9913C30.1874 32 32 30.1874 32 27.9913V4.00872C32 1.81264 30.2571 0 27.9913 0Z" fill="#E44432"/>
<path d="M6.7951 14.8C7.39054 14.528 19.5096 7.693 19.7898 7.55698C20.0701 7.42096 20.0701 6.91088 19.7898 6.77486C19.5096 6.63884 18.9142 6.26479 18.704 6.12877C18.4939 5.99275 18.0385 5.92474 17.6883 6.12877C17.5482 6.19678 7.18039 12.0116 6.7951 12.2157C6.33976 12.4197 5.84939 12.4197 5.4641 12.2157C5.18389 12.0116 0 9.0872 0 9.0872V11.7056C1.331 12.4877 4.6585 14.324 5.4641 14.766C5.91944 15.0721 6.37478 15.0721 6.7951 14.8Z" fill="white"/>
<path d="M6.86411 19.8C7.45645 19.528 19.5122 12.693 19.7909 12.557C20.0697 12.421 20.0697 11.9109 19.7909 11.7749C19.5122 11.6388 18.9199 11.2648 18.7108 11.1288C18.5017 10.9927 18.0488 10.9247 17.7003 11.1288C17.561 11.1968 7.24739 17.0116 6.86411 17.2157C6.41115 17.4197 5.92335 17.4197 5.54007 17.2157C5.19164 17.0116 0 14.0872 0 14.0872V16.7056C1.32404 17.4877 4.63415 19.324 5.43554 19.766C5.99303 20.0721 6.44599 20.0721 6.86411 19.8Z" fill="white"/>
<path d="M6.7951 24.7752C7.39054 24.5039 19.5096 17.6882 19.7898 17.5526C20.0701 17.4169 20.0701 16.9083 19.7898 16.7727C19.5096 16.637 18.9142 16.264 18.704 16.1284C18.4939 15.9928 18.0385 15.925 17.6883 16.1284C17.5482 16.1962 7.18039 21.9947 6.7951 22.1981C6.33976 22.4016 5.84939 22.4016 5.4641 22.1981C5.18389 21.9947 0 19.0785 0 19.0785V21.6895C1.331 22.4694 4.6585 24.3005 5.4641 24.7413C5.91944 25.0804 6.37478 25.0804 6.7951 24.7752Z" fill="white"/>
</svg>
