<svg width="32" height="32" viewBox="0 0 32 32" fill="none" xmlns="http://www.w3.org/2000/svg">
<g clip-path="url(#clip0)">
<path d="M28.1522 14.1579C28.7194 14.9798 29.0431 15.9451 29.086 16.9429C30.0561 17.2862 30.8738 17.9613 31.3946 18.8489C31.9154 19.7364 32.1059 20.7794 31.9325 21.7938C31.7591 22.8082 31.233 23.7287 30.4469 24.3929C29.6608 25.0571 28.6654 25.4222 27.6363 25.4238H5.81811C4.28438 25.4259 2.81229 24.8203 1.72405 23.7395L10.9808 16.4124C11.3202 16.5938 11.7081 16.6966 12.1211 16.6966C12.4785 16.6971 12.8316 16.6183 13.1548 16.4658L17.567 20.3261C17.4498 20.6959 17.4231 21.0884 17.4891 21.4706C17.5551 21.8529 17.7118 22.2137 17.9462 22.5228C18.1805 22.8319 18.4856 23.0802 18.8358 23.247C19.186 23.4138 19.5711 23.4941 19.9588 23.4811C20.3464 23.4682 20.7253 23.3625 21.0637 23.1728C21.402 22.9831 21.6899 22.7149 21.9031 22.3909C22.1163 22.0669 22.2487 21.6964 22.2891 21.3107C22.3295 20.9249 22.2767 20.5351 22.1352 20.1739L28.1522 14.1579ZM26.781 12.7867L20.765 18.8027C20.4827 18.6921 20.182 18.6355 19.8787 18.636C19.5213 18.6354 19.1683 18.7143 18.845 18.8667L14.4329 15.0064C14.5464 14.6479 14.5749 14.268 14.5163 13.8966C14.4577 13.5252 14.3134 13.1725 14.095 12.8665C13.8766 12.5604 13.59 12.3094 13.2579 12.1332C12.9257 11.9569 12.5572 11.8604 12.1813 11.8512C11.8054 11.8419 11.4325 11.9202 11.0921 12.0799C10.7517 12.2396 10.4531 12.4763 10.22 12.7712C9.9868 13.0662 9.82542 13.4114 9.74861 13.7794C9.6718 14.1475 9.68165 14.5284 9.77739 14.892L0.589508 22.1637C0.152905 21.272 -0.0482187 20.2833 0.00527855 19.2918C0.0587758 18.3004 0.365114 17.3391 0.895138 16.4995C1.42516 15.6599 2.16124 14.9699 3.0333 14.4952C3.90537 14.0205 4.88442 13.7769 5.87727 13.7875C6.09946 12.0154 6.92623 10.3742 8.21806 9.14088C9.50988 7.90761 11.1876 7.15778 12.9681 7.01796C14.7487 6.87814 16.5229 7.35689 17.9914 8.3734C19.4599 9.38992 20.5327 10.8819 21.0288 12.5977C21.8538 12.1055 22.7969 11.8464 23.7575 11.8481C24.8794 11.8481 25.9209 12.1952 26.781 12.7867Z" fill="#2196F3"/>
</g>
<defs>
<clipPath id="clip0">
<rect width="32" height="32" fill="white"/>
</clipPath>
</defs>
</svg>
