<svg width="32" height="32" viewBox="0 0 32 32" fill="none" xmlns="http://www.w3.org/2000/svg">
<path fill-rule="evenodd" clip-rule="evenodd" d="M4 0C1.79088 0 0 1.792 0 4V28C0 30.209 1.792 32 4 32H28C30.209 32 32 30.208 32 28V4C32 1.79088 30.208 0 28 0H4Z" fill="white"/>
<path fill-rule="evenodd" clip-rule="evenodd" d="M4 0C1.79088 0 0 1.792 0 4V28C0 30.209 1.792 32 4 32H28C30.209 32 32 30.208 32 28V4C32 1.79088 30.208 0 28 0H4ZM19.9995 4.16C18.9392 4.16 18.08 5.01952 18.08 6.08096V16.319C18.08 17.3798 18.9397 18.24 19.9995 18.24H25.9205C26.9806 18.24 27.84 17.3805 27.84 16.319V6.08096C27.84 5.02016 26.9803 4.16 25.9205 4.16H19.9995ZM6.07952 4.16C5.0192 4.16 4.16 5.01872 4.16 6.0808V24.3192C4.16 25.38 5.01968 26.24 6.07952 26.24H12.0005C13.0606 26.24 13.92 25.3813 13.92 24.3192V6.0808C13.92 5.02 13.0603 4.16 12.0005 4.16H6.07952Z" fill="#3279BA"/>
</svg>
