<svg width="32" height="32" viewBox="0 0 32 32" fill="none" xmlns="http://www.w3.org/2000/svg">
<path fill-rule="evenodd" clip-rule="evenodd" d="M31.4624 17.9107C31.3501 17.8206 31.2237 17.7599 31.0862 17.7339C30.274 18.5435 29.283 19.3962 28.4029 19.9693C27.9968 20.2392 27.4861 20.3741 27.1479 20.3741C26.3695 20.3741 26.0313 19.6319 25.9297 18.4521C25.7943 16.8675 25.7029 14.9694 25.7029 12.0359C25.7029 9.02721 25.0201 6.98185 23.2011 6.82129C23.1242 6.81446 23.0465 6.80976 22.9654 6.80976C21.8488 6.80976 21.3073 7.38281 20.5968 8.83292C19.9879 10.0802 19.0403 11.901 17.281 15.3401C15.7583 18.3074 14.0665 20.9373 12.6113 22.7581C12.2061 23.2628 11.8858 23.6095 11.5848 23.8068C11.3836 23.9392 11.1906 24.0054 10.9874 24.0054C10.4131 24.0054 9.99374 23.5207 9.85368 22.3921C9.82037 22.124 9.80286 21.8195 9.80286 21.4766C9.80286 19.1503 10.6829 15.3738 12.2052 9.81034C13.3218 5.76445 12.8483 3 10.4118 3C10.4079 3 10.4041 3 10.4002 3C10.3951 3 10.39 3 10.3844 3L10.3827 3.00043C9.83105 3.00683 9.37372 3.20667 8.93305 3.5534C8.49921 3.89501 8.06494 4.63288 7.65971 5.62482C7.20282 6.74229 4.4247 12.3147 0.00304015 15.1855C-0.0490548 16.2769 0.568825 17.368 1.82081 17.4862C2.96049 17.5943 3.76967 17.1139 4.81157 16.414C4.73343 16.762 4.66127 17.0874 4.59551 17.385C4.51779 17.7365 4.45161 18.0396 4.39866 18.2843C4.31923 18.6485 4.26885 18.883 4.2539 18.9479C4.10915 19.6119 4.00581 20.2426 3.93877 20.8412C3.31534 26.4141 5.89831 29.164 8.92323 29.164C9.42881 29.164 9.92969 29.1038 10.4271 28.9774C13.7599 28.1324 16.9685 24.3094 20.7663 15.5088C20.7086 16.4661 20.7027 17.3603 20.7441 18.1899C20.9943 23.2338 22.9893 24.7471 25.808 24.7471C27.9396 24.7471 29.9358 23.6347 30.9508 22.2521C31.6955 21.2742 32 20.1952 32 19.3523C32 18.6981 31.7925 18.1759 31.4624 17.9107Z" fill="#EA5252"/>
</svg>
