<svg width="32" height="32" viewBox="0 0 32 32" fill="none" xmlns="http://www.w3.org/2000/svg">
<path d="M15.4857 31.8898C14.1263 31.302 7.77041 28.473 5.713 26.783C3.32494 24.8358 2.03906 22.0069 2.03906 18.6636V3.04937C5.85996 0.991963 10.2687 0 15.4857 0C20.7027 0 25.1114 0.991963 28.9323 3.04937V18.6269C28.9323 21.9702 27.6832 24.7991 25.2584 26.7463C23.2009 28.473 16.845 31.302 15.4857 31.8898Z" fill="#150400"/>
<path d="M27.3225 3.67447C25.706 3.52751 24.0527 3.4173 22.326 3.4173C16.0435 3.4173 9.28348 4.77665 3.6991 9.88343V18.6274C3.6991 21.4931 4.76454 23.8444 6.74847 25.4977C8.51196 26.9305 13.9494 29.392 15.4924 30.0901C16.9988 29.4288 22.4362 27.004 24.2364 25.4977C26.2571 23.8444 27.2858 21.5298 27.2858 18.6274V3.67447H27.3225ZM4.87476 17.7457V10.6182H7.1526V17.8191C7.1526 18.4437 7.29956 19.3989 8.32826 19.3989C8.76913 19.3989 9.13653 19.2887 9.3937 19.105V10.6182H11.6348V20.4276C10.7531 21.0155 9.61414 21.3461 8.21804 21.3461C5.97694 21.3461 4.87476 20.1337 4.87476 17.7457ZM15.0516 25.9385H12.7737V11.206C13.582 10.6917 14.574 10.3978 15.8231 10.3978C18.5418 10.3978 20.0114 12.4552 20.0114 15.725C20.0114 19.0315 18.5785 21.2726 16.0435 21.2726C15.5659 21.2726 15.2353 21.1992 15.0148 21.1624L15.0516 25.9385ZM15.0516 19.3254C15.1985 19.3989 15.4924 19.4724 15.7864 19.4724C17.0722 19.4724 17.6968 18.26 17.6968 15.7985C17.6968 13.2634 17.1457 12.2347 15.8231 12.2347C15.5292 12.2347 15.1985 12.3082 15.0148 12.3817L15.0516 19.3254ZM20.5257 13.3369C20.5257 11.5 22.0688 10.4345 23.5751 10.3978C24.8242 10.361 25.6692 10.8387 26.0734 11.1326V13.1165C25.5958 12.6389 24.8242 12.198 24.0527 12.198C23.4281 12.198 22.7301 12.4919 22.7301 13.2634C22.6934 14.0717 23.3914 14.4024 24.1997 14.9167C26.0734 16.0189 26.4408 17.0109 26.404 18.3335C26.3673 19.7663 25.3753 21.3461 23.1342 21.3461C22.2525 21.3461 21.3707 21.0522 20.636 20.6481V18.5539C21.2238 19.0683 22.0688 19.4724 22.8036 19.4724C23.6486 19.4724 24.1629 18.9948 24.1629 18.2233C24.1629 17.5252 23.7588 17.1211 22.7668 16.5333C20.8931 15.4311 20.5625 14.5493 20.5257 13.3369ZM6.01368 26.4161C3.73584 24.5424 2.52344 21.8605 2.52344 18.6274V3.34382C6.1239 1.43337 10.4959 0.441406 15.5292 0.441406C20.5625 0.441406 24.9345 1.39663 28.5349 3.34382V18.6641C28.5349 21.8972 27.3225 24.5792 25.0447 26.4529C22.9505 28.1796 16.3007 31.0821 15.5292 31.4127C14.7577 31.0453 8.10782 28.1429 6.01368 26.4161Z" fill="#F7BE00"/>
</svg>
