<svg width="32" height="32" viewBox="0 0 32 32" fill="none" xmlns="http://www.w3.org/2000/svg">
<path d="M17.37 13.3253C17.4328 13.2542 17.4871 13.2124 17.5164 13.158C18.1942 11.8904 18.8803 10.6228 19.5455 9.34679C19.7714 8.91588 19.9262 8.45569 19.8383 7.94111C19.7421 7.37633 19.3614 7.09604 18.8593 6.94543C18.6167 6.87431 18.3531 6.84921 18.1021 6.81574C17.8595 6.78645 17.7842 6.70278 17.7884 6.42248C17.7967 6.15055 17.9055 5.99994 18.1189 6.00413C18.5581 6.0125 18.9974 6.0125 19.4367 6.05433C20.6415 6.17147 21.8422 6.17147 23.0471 6.05015C23.4278 6.0125 23.8127 6.0125 24.1976 5.99994C24.3691 5.99158 24.5406 5.97903 24.5615 6.23004C24.5908 6.57728 24.503 6.74462 24.2436 6.79482C24.0302 6.83666 23.8169 6.86594 23.6077 6.90778C22.8212 7.06257 22.1978 7.48092 21.7669 8.14611C21.2314 8.96608 20.721 9.8028 20.2399 10.6562C19.5789 11.8318 18.9723 13.0367 18.3029 14.2081C18.0896 14.5846 18.0812 14.8691 18.282 15.2498C18.8468 16.325 19.3656 17.4294 19.9052 18.5213C20.4867 19.7053 21.0724 20.8892 21.654 22.0732C21.6665 22.1024 21.6874 22.1275 21.7376 22.2028C21.8213 22.0355 21.8924 21.91 21.951 21.7719C22.8128 19.7722 23.6746 17.7725 24.5322 15.7727C25.3439 13.8859 26.1471 11.9992 26.9629 10.1124C27.1846 9.59362 27.4273 9.08322 27.4817 8.51008C27.5235 8.04152 27.4607 7.59806 27.0884 7.26338C26.7746 6.98308 26.3856 6.87849 25.9798 6.81992C25.9254 6.81155 25.8668 6.81155 25.8124 6.80737C25.4443 6.78227 25.2686 6.47269 25.461 6.14637C25.507 6.06688 25.6493 5.99576 25.7455 5.99994C26.4148 6.02086 27.08 6.05851 27.7494 6.10453C28.6907 6.16729 29.6278 6.138 30.5691 6.04178C30.9415 6.00413 31.3222 6.00413 31.6987 5.99576C31.9246 5.99158 31.9957 6.07107 31.9999 6.29698C32.0041 6.57309 31.8618 6.7739 31.5941 6.79482C30.339 6.89941 29.5483 7.63153 29.0254 8.70252C28.5485 9.67729 28.1092 10.673 27.6657 11.6603C26.8458 13.4885 26.03 15.3209 25.2142 17.1533C24.1599 19.5254 23.1098 21.8974 22.0598 24.2695C21.8171 24.8176 21.5703 25.3614 21.3318 25.9095C21.2482 26.1061 21.1268 26.2358 20.8967 26.2358C20.675 26.2358 20.5286 26.1187 20.4365 25.9262C20.0517 25.123 19.671 24.3197 19.2861 23.5165C18.5372 21.956 17.7884 20.3914 17.0395 18.8309C16.8512 18.4418 16.6672 18.0528 16.4831 17.6637C16.4705 17.6386 16.4496 17.6219 16.4162 17.58C16.3618 17.647 16.3074 17.6972 16.2739 17.7599C14.7846 20.4625 13.2994 23.1609 11.8142 25.8635C11.6385 26.1814 11.4419 26.3111 11.1909 26.2191C11.0779 26.1772 10.9524 26.081 10.9064 25.9764C10.3123 24.6419 9.72665 23.2989 9.14514 21.9602C8.5427 20.5754 7.93609 19.1907 7.33366 17.8059C6.65592 16.2538 5.98655 14.7059 5.30463 13.1538C4.72312 11.8276 4.15834 10.4973 3.54336 9.18781C3.31745 8.71925 3.01205 8.26743 2.67318 7.85744C2.1084 7.17552 1.30516 6.93288 0.455896 6.82411C0.104477 6.77809 -0.0210294 6.64003 0.00407196 6.28861C0.0166226 6.09198 0.117028 5.99994 0.313655 6.00831C0.803131 6.02505 1.29261 6.01668 1.7779 6.0627C3.35091 6.20912 4.92393 6.18402 6.49695 6.06688C7.05336 6.02505 7.60977 6.02086 8.17037 6.00831C8.42556 6.00413 8.50505 6.09617 8.51342 6.37228C8.52597 6.71533 8.45903 6.77809 8.20384 6.82829C7.86079 6.89941 7.501 6.96635 7.18723 7.11277C6.36726 7.50184 6.12461 8.23396 6.49276 9.07067C7.32529 10.9533 8.16619 12.8359 8.99871 14.7227C9.74338 16.4044 10.4839 18.0862 11.2285 19.768C11.5967 20.6005 11.969 21.4331 12.3414 22.2656C12.3665 22.32 12.425 22.3618 12.4669 22.412C12.5045 22.366 12.5547 22.3284 12.584 22.274C13.2994 20.9269 14.0148 19.5839 14.7302 18.2368C15.0565 17.6219 15.3786 17.0069 15.7091 16.3919C15.7803 16.2622 15.7803 16.1534 15.7133 16.0196C14.68 13.8818 13.6676 11.7356 12.6342 9.5978C12.3665 9.04557 12.0527 8.51844 11.7473 7.99132C11.3164 7.24664 10.6303 6.91614 9.80195 6.81992C9.53002 6.79064 9.4087 6.68605 9.37523 6.44759C9.3334 6.138 9.45054 5.99576 9.76012 6.0125C10.5968 6.05433 11.4294 6.13382 12.2661 6.14637C13.1697 6.15892 14.0775 6.10872 14.9812 6.07943C15.5251 6.0627 16.0689 6.03341 16.6086 6.00831C16.8094 5.99994 16.9098 6.09198 16.9224 6.28861C16.9265 6.38065 16.9265 6.4685 16.9224 6.56054C16.9182 6.74043 16.8261 6.799 16.6504 6.82829C16.2488 6.89941 15.8305 6.9538 15.4623 7.11277C14.9101 7.35123 14.7595 7.76959 14.9728 8.33437C15.1527 8.80711 15.3619 9.27148 15.5836 9.72749C16.1191 10.8361 16.6714 11.9364 17.2152 13.0409C17.2612 13.1287 17.3073 13.2124 17.37 13.3253Z" fill="black"/>
</svg>
