<svg width="32" height="32" viewBox="0 0 32 32" fill="none" xmlns="http://www.w3.org/2000/svg">
<g clip-path="url(#clip0)">
<path d="M7.50618 13.5029C9.0554 13.5029 9.78515 13.792 10.9067 14.9344L16.9261 21.0605C17.1046 21.242 17.1405 21.3138 17.1753 21.4224C17.1933 21.4593 17.1933 21.5131 17.1933 21.55C17.1933 21.5859 17.1933 21.6397 17.1753 21.6766C17.1405 21.7853 17.1046 21.8581 16.9261 22.0385L12.8128 26.2435C12.6344 26.425 12.5636 26.4609 12.4569 26.4978C12.421 26.5157 12.3672 26.5157 12.3313 26.5157C12.2964 26.5157 12.2426 26.5157 12.2077 26.4978C12.1 26.4609 12.0282 26.425 11.8508 26.2435L0.186764 14.3732C-0.15219 14.0282 -0.0275743 13.5029 0.542666 13.5029H7.50618V13.5029ZM24.4948 6.01794C22.9455 6.01794 22.2158 6.30705 21.0933 7.44953L15.0738 13.5756C14.8964 13.7571 14.8605 13.8288 14.8246 13.9375C14.8067 13.9744 14.8067 14.0282 14.8067 14.0651C14.8067 14.101 14.8067 14.1548 14.8246 14.1917C14.8605 14.3004 14.8964 14.3732 15.0738 14.5536L19.1881 18.7407C19.3656 18.9221 19.4374 18.958 19.544 18.9939C19.5838 19.0087 19.6263 19.0148 19.6687 19.0119C19.7045 19.0119 19.7584 19.0119 19.7933 18.9939C19.8999 18.958 19.9717 18.9221 20.1492 18.7407L31.8132 6.86932C32.1521 6.52538 32.0275 6 31.4583 6H24.4948V6.01794Z" fill="#08CF65"/>
</g>
<defs>
<clipPath id="clip0">
<rect width="32" height="32" fill="white"/>
</clipPath>
</defs>
</svg>
