<svg width="32" height="32" viewBox="0 0 32 32" fill="none" xmlns="http://www.w3.org/2000/svg">
<path d="M5.6 32H26.4C29.4928 32 32 29.4928 32 26.4L32 5.6C32 2.50721 29.4928 0 26.4 0L5.6 0C2.50721 0 0 2.50721 0 5.6V26.4C0 29.4928 2.50721 32 5.6 32Z" fill="url(#paint0_linear)"/>
<path d="M29.8102 15.815C30.056 15.6567 30.2533 15.4335 30.3802 15.17C30.4977 14.9297 30.555 14.6644 30.5471 14.397C30.5393 14.1295 30.4665 13.868 30.3352 13.635L29.4152 12C29.2759 11.7537 29.074 11.5486 28.8298 11.4054C28.5857 11.2623 28.3081 11.1863 28.0252 11.185C27.8086 11.1845 27.5943 11.2286 27.3955 11.3146C27.1968 11.4007 27.018 11.5267 26.8702 11.685L26.8102 10.085C26.7998 9.75591 26.6915 9.43739 26.4991 9.17019C26.3067 8.90298 26.039 8.69924 25.7302 8.585C25.3563 8.45107 24.9623 8.38175 24.5652 8.38C23.5453 8.41063 22.5764 8.83327 21.8602 9.56001C21.5636 9.84513 21.382 10.2291 21.3498 10.6392C21.3175 11.0493 21.4369 11.457 21.6852 11.785L22.4252 12.785H22.2202C21.8869 12.7809 21.5602 12.8782 21.2834 13.0639C21.0066 13.2496 20.7927 13.515 20.6702 13.825C20.205 13.4256 19.6133 13.2041 19.0002 13.2C18.6245 13.2026 18.2541 13.2879 17.9152 13.45C17.6387 13.2847 17.3223 13.1983 17.0002 13.2C16.6445 13.199 16.2965 13.3034 16.0002 13.5V13.4C16.0002 12.9226 15.8105 12.4648 15.473 12.1272C15.1354 11.7896 14.6776 11.6 14.2002 11.6C13.7228 11.6 13.2649 11.7896 12.9274 12.1272C12.5898 12.4648 12.4002 12.9226 12.4002 13.4V14.5C11.8112 13.9255 11.0229 13.6012 10.2002 13.595C9.61079 13.602 9.03538 13.7754 8.54016 14.095C8.36785 13.7998 8.11463 13.5602 7.81043 13.4043C7.50623 13.2485 7.16377 13.183 6.82354 13.2156C6.4833 13.2482 6.15952 13.3775 5.89045 13.5883C5.62138 13.7991 5.41828 14.0825 5.30516 14.405L5.23016 14.605L4.98016 14.145C4.75075 13.726 4.36427 13.4152 3.90575 13.2811C3.44722 13.147 2.95421 13.2006 2.53516 13.43C2.11612 13.6594 1.80538 14.0459 1.67129 14.5044C1.5372 14.963 1.59075 15.456 1.82016 15.875L3.45016 18.835C3.01246 18.9226 2.62291 19.1697 2.35715 19.5284C2.09139 19.887 1.96838 20.3316 2.012 20.7759C2.05561 21.2201 2.26274 21.6323 2.59318 21.9325C2.92361 22.2326 3.35378 22.3992 3.80016 22.4H4.43516C4.97143 22.3996 5.49452 22.2337 5.933 21.925C6.37149 21.6163 6.70401 21.1797 6.88516 20.675L7.33016 19.43C7.60854 19.9531 8.02106 20.3927 8.52541 20.7038C9.02976 21.0148 9.60778 21.1861 10.2002 21.2C10.6455 21.1964 11.0852 21.1003 11.4915 20.9179C11.8977 20.7354 12.2617 20.4705 12.5602 20.14C12.6672 20.3787 12.825 20.5911 13.0227 20.7624C13.2204 20.9336 13.4531 21.0596 13.7046 21.1316C13.956 21.2035 14.2202 21.2196 14.4785 21.1787C14.7369 21.1378 14.9832 21.041 15.2002 20.895V21C15.2002 21.4774 15.3898 21.9352 15.7274 22.2728C16.0649 22.6104 16.5228 22.8 17.0002 22.8C17.4776 22.8 17.9354 22.6104 18.273 22.2728C18.6105 21.9352 18.8002 21.4774 18.8002 21V20.79H19.0002C20.5402 20.79 21.7702 19.395 21.9702 17.525H22.0002C22.1229 17.524 22.2452 17.5106 22.3652 17.485L22.5252 17.45L22.5002 17.5C22.2245 17.8457 22.0925 18.2842 22.1316 18.7246C22.1707 19.1649 22.3779 19.5733 22.7102 19.865C23.3443 20.3894 24.1248 20.7054 24.9452 20.77H25.1252C25.353 20.7687 25.5783 20.721 25.7871 20.6299C25.996 20.5388 26.1842 20.4061 26.3402 20.24C26.5132 20.051 26.6413 19.8254 26.7152 19.58C26.8814 19.7399 27.0788 19.8639 27.295 19.9442C27.5113 20.0244 27.7417 20.0593 27.972 20.0467C28.2024 20.034 28.4276 19.9741 28.6337 19.8705C28.8399 19.767 29.0225 19.6222 29.1702 19.445L30.1702 18.22C30.3401 18.0141 30.4575 17.7701 30.5124 17.5088C30.5673 17.2475 30.5579 16.9769 30.4852 16.72C30.3717 16.3493 30.1331 16.0295 29.8102 15.815Z" fill="white"/>
<path d="M7.20001 14.435C7.05016 14.3822 6.88545 14.3909 6.74203 14.4593C6.59861 14.5277 6.4882 14.6503 6.43501 14.8L5.46501 17.5L3.92501 14.71C3.88819 14.6388 3.83747 14.5756 3.77584 14.5243C3.7142 14.473 3.64291 14.4346 3.56618 14.4113C3.48944 14.3881 3.40882 14.3804 3.32907 14.3888C3.24933 14.3972 3.17207 14.4215 3.10188 14.4603C3.03169 14.4991 2.96998 14.5515 2.9204 14.6145C2.87083 14.6776 2.83439 14.7499 2.81324 14.8272C2.79209 14.9046 2.78666 14.9854 2.79727 15.0649C2.80788 15.1444 2.83431 15.2209 2.87501 15.29L4.92501 19.025L4.62501 19.865C4.6108 19.9041 4.585 19.938 4.55106 19.9621C4.51712 19.9863 4.47664 19.9995 4.43501 20H3.80001C3.64088 20 3.48827 20.0632 3.37575 20.1757C3.26322 20.2883 3.20001 20.4409 3.20001 20.6C3.20001 20.7591 3.26322 20.9118 3.37575 21.0243C3.48827 21.1368 3.64088 21.2 3.80001 21.2H4.43501C4.72379 21.1988 5.00524 21.109 5.24132 20.9427C5.47739 20.7763 5.6567 20.5415 5.75501 20.27L7.56501 15.2C7.61788 15.0502 7.60913 14.8855 7.54071 14.742C7.47228 14.5986 7.34975 14.4882 7.20001 14.435Z" fill="black"/>
<path d="M10.2 14.7999C9 14.7999 8 15.9649 8 17.3999C8 18.8349 9 19.9999 10.2 19.9999C10.5202 19.9939 10.8345 19.9136 11.1183 19.7652C11.4021 19.6168 11.6474 19.4045 11.835 19.1449C11.9318 19.0183 11.9743 18.8584 11.9532 18.7004C11.9321 18.5424 11.8491 18.3992 11.7225 18.3024C11.5959 18.2056 11.436 18.1631 11.278 18.1842C11.12 18.2053 10.9768 18.2883 10.88 18.4149C10.8034 18.5266 10.7024 18.6193 10.5845 18.686C10.4667 18.7528 10.3352 18.7917 10.2 18.7999C9.7 18.7999 9.28 18.2699 9.2 17.5999H11.76C11.8466 17.6001 11.9321 17.5814 12.0107 17.5452C12.0893 17.5089 12.159 17.4559 12.215 17.3899C12.2725 17.3214 12.3144 17.2412 12.3377 17.1548C12.361 17.0685 12.3652 16.9781 12.35 16.8899C12.293 16.345 12.0466 15.8373 11.6537 15.4553C11.2608 15.0734 10.7464 14.8414 10.2 14.7999ZM9.11 16.7999C9.11 16.7999 9.2 15.5999 10.2 15.5999C11.2 15.5999 11.29 16.7899 11.29 16.7899L9.11 16.7999Z" fill="black"/>
<path d="M14.2001 12.7999C14.041 12.7999 13.8884 12.8631 13.7758 12.9757C13.6633 13.0882 13.6001 13.2408 13.6001 13.3999V19.3999C13.6001 19.5591 13.6633 19.7117 13.7758 19.8242C13.8884 19.9367 14.041 19.9999 14.2001 19.9999C14.3592 19.9999 14.5118 19.9367 14.6244 19.8242C14.7369 19.7117 14.8001 19.5591 14.8001 19.3999V13.3999C14.8001 13.2408 14.7369 13.0882 14.6244 12.9757C14.5118 12.8631 14.3592 12.7999 14.2001 12.7999Z" fill="black"/>
<path d="M18.9999 14.4C18.7017 14.4213 18.4145 14.522 18.1683 14.6917C17.9222 14.8614 17.7259 15.0939 17.5999 15.365V15C17.5999 14.8409 17.5367 14.6883 17.4242 14.5758C17.3116 14.4632 17.159 14.4 16.9999 14.4C16.8408 14.4 16.6882 14.4632 16.5756 14.5758C16.4631 14.6883 16.3999 14.8409 16.3999 15V21C16.3999 21.1592 16.4631 21.3118 16.5756 21.4243C16.6882 21.5368 16.8408 21.6 16.9999 21.6C17.159 21.6 17.3116 21.5368 17.4242 21.4243C17.5367 21.3118 17.5999 21.1592 17.5999 21V18.635C17.7259 18.9062 17.9222 19.1387 18.1683 19.3084C18.4145 19.4781 18.7017 19.5788 18.9999 19.6C19.9999 19.6 20.7999 18.435 20.7999 17C20.7999 15.565 19.9999 14.4 18.9999 14.4ZM19.0599 18.6C18.4999 18.6 17.9999 17.885 17.9999 17C17.9999 16.115 18.4999 15.4 19.0599 15.4C19.6199 15.4 20.1149 16.115 20.1149 17C20.1149 17.885 19.6399 18.6 19.0599 18.6Z" fill="black"/>
<path d="M25.3252 9.735C24.8637 9.59279 24.3715 9.58399 23.9052 9.70962C23.439 9.83525 23.0178 10.0902 22.6902 10.445C22.6088 10.5295 22.5598 10.6398 22.5515 10.7568C22.5433 10.8738 22.5765 10.99 22.6452 11.085L25.0452 14.295C25.2952 14.625 25.7652 14.415 25.7502 13.98L25.6102 10.155C25.6091 10.0648 25.5816 9.97682 25.5309 9.90214C25.4802 9.82746 25.4087 9.76933 25.3252 9.735Z" fill="#DC1C21"/>
<path d="M26.8601 15.195L29.0001 14.87C29.0677 14.857 29.1313 14.828 29.1853 14.7854C29.2394 14.7428 29.2825 14.6878 29.3109 14.6251C29.3393 14.5624 29.3523 14.4938 29.3487 14.425C29.345 14.3562 29.3249 14.2894 29.2901 14.23L28.3751 12.61C28.3405 12.5497 28.2906 12.4997 28.2305 12.4649C28.1703 12.4301 28.1021 12.4117 28.0326 12.4117C27.9631 12.4117 27.8949 12.4301 27.8347 12.4649C27.7746 12.4997 27.7247 12.5497 27.6901 12.61L26.4701 14.55C26.4297 14.6164 26.4083 14.6926 26.4082 14.7703C26.4081 14.848 26.4293 14.9242 26.4695 14.9907C26.5097 15.0572 26.5674 15.1114 26.6363 15.1474C26.7051 15.1834 26.7825 15.1999 26.8601 15.195Z" fill="#DC1C21"/>
<path d="M29.0399 16.765L27.0399 16.03C26.9543 15.9975 26.8609 15.9912 26.7717 16.0121C26.6825 16.033 26.6016 16.08 26.5393 16.1471C26.477 16.2142 26.4362 16.2984 26.422 16.3889C26.4079 16.4794 26.4211 16.572 26.4599 16.655L27.4599 18.61C27.4959 18.6788 27.5484 18.7376 27.6127 18.7812C27.677 18.8248 27.7511 18.8517 27.8284 18.8597C27.9056 18.8676 27.9837 18.8562 28.0555 18.8266C28.1273 18.797 28.1906 18.7501 28.2399 18.69L29.2399 17.47C29.2858 17.4144 29.3176 17.3485 29.3324 17.278C29.3473 17.2074 29.3447 17.1343 29.325 17.065C29.3054 16.9956 29.2691 16.9321 29.2195 16.8798C29.1698 16.8275 29.1082 16.7881 29.0399 16.765Z" fill="#DC1C21"/>
<path d="M24.7402 16.5849L23.4402 18.2399C23.3569 18.3461 23.3169 18.4798 23.328 18.6142C23.3391 18.7486 23.4006 18.8739 23.5002 18.9649C23.9501 19.3259 24.4997 19.5405 25.0752 19.5799C25.1433 19.584 25.2116 19.5741 25.2758 19.5508C25.3399 19.5275 25.3986 19.4914 25.4483 19.4445C25.498 19.3977 25.5375 19.3412 25.5645 19.2785C25.5915 19.2158 25.6053 19.1482 25.6052 19.0799V16.9299C25.6058 16.8294 25.5762 16.7309 25.52 16.6475C25.4639 16.564 25.3838 16.4995 25.2904 16.4622C25.197 16.425 25.0945 16.4167 24.9964 16.4386C24.8982 16.4605 24.8089 16.5115 24.7402 16.5849Z" fill="#DC1C21"/>
<path d="M24.5001 15.1099L22.5001 14.0499C22.4382 14.0158 22.3698 13.9951 22.2993 13.9893C22.2289 13.9836 22.158 13.9928 22.0914 14.0164C22.0248 14.04 21.9639 14.0775 21.9129 14.1264C21.8618 14.1753 21.8216 14.2344 21.7951 14.2999L21.5001 15.8449C21.4451 16.1399 21.7801 16.3999 22.1201 16.3449L24.4201 15.8449C24.5049 15.8342 24.5836 15.7953 24.6436 15.7343C24.7035 15.6734 24.7411 15.594 24.7504 15.509C24.7596 15.424 24.74 15.3384 24.6945 15.266C24.6491 15.1936 24.5806 15.1386 24.5001 15.1099Z" fill="#DC1C21"/>
<defs>
<linearGradient id="paint0_linear" x1="16" y1="0.200002" x2="16" y2="31.85" gradientUnits="userSpaceOnUse">
<stop stop-color="#F5362E"/>
<stop offset="1" stop-color="#CC161C"/>
</linearGradient>
</defs>
</svg>
