<svg width="33" height="32" viewBox="0 0 33 32" fill="none" xmlns="http://www.w3.org/2000/svg">
<path d="M31.8834 13.336H22.5429L29.1461 6.728C28.6259 6 28.0496 5.312 27.4173 4.688C26.785 4.056 26.1047 3.48 25.3763 2.96L18.7651 9.568V0.224C17.9007 0.08 17.0123 0 16.1078 0H16.0918C15.1874 0 14.299 0.08 13.4345 0.224V9.56L6.82334 2.96C6.09499 3.48 5.41466 4.056 4.78236 4.688C4.15005 5.32 3.57378 6 3.05352 6.728L9.66472 13.336H0.324206C0.324206 13.336 0.100098 15.088 0.100098 16V16.008C0.100098 16.912 0.180136 17.8 0.324206 18.672H9.66472L3.05352 25.272C4.09403 26.728 5.36664 28.008 6.82334 29.04L13.4265 22.44V31.776C14.2909 31.92 15.1794 32 16.0838 32H16.1078C17.0123 32 17.9007 31.92 18.7651 31.776V22.44L25.3763 29.048C26.1047 28.528 26.785 27.952 27.4173 27.32C28.0496 26.688 28.6259 26.008 29.1461 25.28L22.5349 18.672H31.8754C32.0195 17.808 32.0995 16.92 32.0995 16.016V15.992C32.1076 15.08 32.0275 14.2 31.8834 13.336ZM20.1018 16.008C20.1018 17.2 19.8857 18.336 19.4855 19.384C18.437 19.784 17.2924 20 16.1078 20H16.0918C14.8992 20 13.7627 19.784 12.7142 19.384C12.314 18.336 12.0979 17.192 12.0979 16.008V15.992C12.0979 14.8 12.314 13.664 12.7142 12.616C13.7627 12.216 14.9072 12 16.0918 12H16.1078C17.3004 12 18.437 12.216 19.4855 12.616C19.8857 13.664 20.1018 14.808 20.1018 15.992V16.008Z" fill="#FF4A00"/>
</svg>
